<svg width="20" height="20" viewBox="0 0 20 20" fill="none" xmlns="http://www.w3.org/2000/svg">
<path fill-rule="evenodd" clip-rule="evenodd" d="M0.400024 9.9999C0.400024 7.45382 1.41145 5.01203 3.2118 3.21168C5.01215 1.41133 7.45395 0.399902 10 0.399902C12.5461 0.399902 14.9879 1.41133 16.7882 3.21168C18.5886 5.01203 19.6 7.45382 19.6 9.9999C19.6 12.546 18.5886 14.9878 16.7882 16.7881C14.9879 18.5885 12.5461 19.5999 10 19.5999C7.45395 19.5999 5.01215 18.5885 3.2118 16.7881C1.41145 14.9878 0.400024 12.546 0.400024 9.9999ZM9.45218 14.1087L14.9792 7.19926L13.9808 6.40054L9.26787 12.2898L5.92963 9.50838L5.11042 10.4914L9.45218 14.1087Z" fill="#54BA59"/>
</svg>
