<svg width="25" height="24" viewBox="0 0 25 24" fill="none" xmlns="http://www.w3.org/2000/svg">
<g clip-path="url(#clip0_7238_15438)">
<path d="M12.5 2C18.02 2 22.5 6.48 22.5 12C22.5 17.52 18.02 22 12.5 22C6.98 22 2.5 17.52 2.5 12C2.5 6.48 6.98 2 12.5 2ZM12.5 20C16.92 20 20.5 16.42 20.5 12C20.5 7.58 16.92 4 12.5 4C8.08 4 4.5 7.58 4.5 12C4.5 16.42 8.08 20 12.5 20ZM16.036 7.05L17.45 8.464L12.5 13.414L11.086 12L16.036 7.05Z" fill="#111827"/>
</g>
<defs>
<clipPath id="clip0_7238_15438">
<rect width="24" height="24" fill="white" transform="translate(0.5)"/>
</clipPath>
</defs>
</svg>
