<svg width="247" height="106" viewBox="0 0 247 106" fill="none" xmlns="http://www.w3.org/2000/svg">
<rect x="12.1875" y="0.915595" width="242" height="43" rx="11.5" transform="rotate(15 12.1875 0.915595)" fill="#EEF2FF"/>
<rect x="12.1875" y="0.915595" width="242" height="43" rx="11.5" transform="rotate(15 12.1875 0.915595)" stroke="#6366F1"/>
<path d="M18.8559 30.137L21.4912 20.3021L23.2728 20.7795L21.0377 29.1209L25.3693 30.2815L24.9691 31.775L18.8559 30.137ZM29.6175 33.1749C28.8971 32.9819 28.3153 32.6562 27.872 32.1977C27.4287 31.7392 27.1377 31.186 26.9991 30.5381C26.8636 29.891 26.898 29.1865 27.1022 28.4246C27.3063 27.6626 27.6292 27.0337 28.0709 26.5379C28.5158 26.0429 29.0448 25.7077 29.658 25.5323C30.2712 25.3569 30.9379 25.3657 31.6582 25.5587C32.3786 25.7517 32.9604 26.0774 33.4037 26.5359C33.847 26.9944 34.136 27.5488 34.2705 28.199C34.4083 28.8502 34.3751 29.5567 34.171 30.3187C33.9668 31.0806 33.6427 31.7075 33.1987 32.1993C32.7579 32.6919 32.2309 33.026 31.6177 33.2014C31.0045 33.3768 30.3378 33.368 29.6175 33.1749ZM30.0002 31.7849C30.3908 31.8895 30.7461 31.8698 31.0661 31.7256C31.3869 31.5783 31.6603 31.3393 31.8861 31.0086C32.1152 30.6788 32.2898 30.2898 32.4099 29.8416C32.5308 29.3902 32.5746 28.9644 32.5411 28.5643C32.5117 28.1618 32.3949 27.8166 32.1907 27.5285C31.9865 27.2405 31.6891 27.0441 31.2985 26.9395C30.8984 26.8322 30.5362 26.8519 30.2122 26.9984C29.8913 27.1457 29.616 27.3859 29.386 27.7189C29.1602 28.0496 28.9868 28.4406 28.8658 28.892C28.7457 29.3402 28.7008 29.7639 28.7311 30.1632C28.7646 30.5634 28.8834 30.9075 29.0876 31.1955C29.2958 31.4812 29.6 31.6777 30.0002 31.7849ZM42.9801 28.6953L38.3768 35.3676L36.456 34.8529L35.8056 26.7729L37.6592 27.2696L37.8862 33.2031L37.9631 33.2237L41.1312 28.1999L42.9801 28.6953ZM45.1826 37.3456C44.443 37.1474 43.8455 36.8226 43.39 36.3712C42.9386 35.9174 42.6447 35.3685 42.5084 34.7247C42.373 34.0776 42.4086 33.3683 42.6154 32.5968C42.8187 31.838 43.1412 31.2107 43.5828 30.7149C44.0286 30.2167 44.5553 29.8774 45.1629 29.6971C45.7714 29.5136 46.4278 29.5162 47.1321 29.7049C47.5867 29.8267 47.996 30.0153 48.3599 30.2706C48.7279 30.5236 49.0264 30.8438 49.2554 31.2312C49.4877 31.6194 49.6304 32.0728 49.6836 32.5914C49.7376 33.1069 49.678 33.688 49.5047 34.3347L49.3619 34.8677L43.3159 33.2477L43.6299 32.076L48.0095 33.2495C48.0955 32.9157 48.1028 32.6002 48.0314 32.3032C47.9609 32.0029 47.8194 31.7437 47.6068 31.5254C47.3974 31.308 47.1262 31.1547 46.7932 31.0655C46.4379 30.9703 46.1026 30.9731 45.7873 31.0739C45.4729 31.1716 45.2032 31.3395 44.9781 31.5777C44.7571 31.8135 44.6008 32.0959 44.5092 32.4248L44.2351 33.4477C44.1202 33.8767 44.1 34.2659 44.1745 34.6152C44.2499 34.9614 44.4065 35.2539 44.6445 35.4926C44.8834 35.7282 45.1917 35.8966 45.5694 35.9978C45.8223 36.0656 46.0607 36.0917 46.2844 36.0762C46.5091 36.0574 46.7155 35.9978 46.9037 35.8973C47.0919 35.7967 47.2523 35.6527 47.3849 35.4652L48.9592 36.0826C48.7418 36.4841 48.4461 36.8064 48.0722 37.0493C47.7023 37.2899 47.2713 37.4386 46.7791 37.4955C46.2878 37.5491 45.7556 37.4991 45.1826 37.3456ZM52.6742 39.3375C52.0948 39.1823 51.616 38.8944 51.238 38.474C50.86 38.0536 50.614 37.5245 50.5001 36.8866C50.3862 36.2488 50.4378 35.5249 50.6548 34.7149C50.8744 33.8953 51.1942 33.2398 51.6141 32.7484C52.038 32.2547 52.5191 31.9255 53.0573 31.7609C53.5964 31.5931 54.1493 31.5851 54.7159 31.737C55.1481 31.8528 55.4838 32.0216 55.7228 32.2435C55.9628 32.4622 56.1369 32.6959 56.2453 32.9445C56.3545 33.19 56.4299 33.4143 56.4715 33.6176L56.5436 33.6369L57.5292 29.9585L59.2724 30.4256L56.6372 40.2604L54.9276 39.8024L55.239 38.6402L55.1333 38.6119C54.9956 38.7672 54.8149 38.9229 54.5912 39.0792C54.3684 39.2322 54.0988 39.3418 53.7825 39.408C53.4663 39.4743 53.0968 39.4508 52.6742 39.3375ZM53.5414 38.0413C53.9096 38.1399 54.2499 38.1247 54.5624 37.9957C54.8758 37.8635 55.1477 37.6361 55.3783 37.3136C55.6088 36.9911 55.788 36.5913 55.9158 36.1143C56.0436 35.6373 56.0875 35.2047 56.0474 34.8165C56.0105 34.4291 55.8885 34.1031 55.6815 33.8383C55.4777 33.5744 55.1886 33.3923 54.814 33.2919C54.4266 33.1881 54.0763 33.2023 53.7629 33.3345C53.4495 33.4667 53.1796 33.6929 52.9531 34.0131C52.7267 34.3333 52.5521 34.7223 52.4294 35.1801C52.3059 35.6411 52.2613 36.0701 52.2956 36.467C52.334 36.8616 52.455 37.1977 52.6585 37.4753C52.8661 37.7505 53.1604 37.9392 53.5414 38.0413ZM61.9208 41.6762L64.556 31.8413L66.2944 32.3071L65.3088 35.9856L65.3808 36.0049C65.5185 35.8496 65.696 35.693 65.9133 35.5351C66.1315 35.3739 66.3991 35.2586 66.7162 35.1892C67.0342 35.1166 67.4093 35.1381 67.8415 35.254C68.4114 35.4066 68.8862 35.69 69.2659 36.104C69.6497 36.5157 69.9002 37.0408 70.0173 37.6796C70.1384 38.3159 70.0892 39.0439 69.8696 39.8635C69.6526 40.6734 69.3353 41.3262 68.9177 41.8216C68.5001 42.3171 68.0226 42.6523 67.485 42.8274C66.9474 43.0025 66.3889 43.0124 65.8094 42.8571C65.3868 42.7439 65.0551 42.5795 64.8143 42.364C64.5736 42.1485 64.3949 41.9188 64.2784 41.6748C64.166 41.4285 64.0874 41.2033 64.0426 40.9991L63.9417 40.9721L63.6303 42.1343L61.9208 41.6762ZM64.6138 38.4449C64.4859 38.9219 64.4412 39.3577 64.4796 39.7523C64.5212 40.1478 64.643 40.4806 64.8451 40.751C65.0512 41.0189 65.3384 41.2022 65.7066 41.3009C66.0907 41.4038 66.4399 41.3876 66.7541 41.2522C67.0692 41.1136 67.3404 40.8826 67.5678 40.5592C67.7992 40.2334 67.9766 39.8401 68.1001 39.3791C68.2228 38.9213 68.2661 38.4971 68.2301 38.1066C68.1941 37.716 68.0734 37.3852 67.8681 37.114C67.6628 36.8428 67.3665 36.6553 66.9791 36.5515C66.6078 36.452 66.2663 36.4652 65.9546 36.591C65.643 36.7168 65.3727 36.9377 65.1439 37.2539C64.9183 37.5709 64.7416 37.9679 64.6138 38.4449ZM70.4502 46.9263C70.2133 46.8628 69.9992 46.7848 69.8078 46.6924C69.6187 46.604 69.4714 46.5199 69.3658 46.4401L70.1321 45.194C70.3652 45.3354 70.5815 45.4311 70.7809 45.4811C70.9802 45.5311 71.1714 45.5154 71.3545 45.4341C71.5399 45.3568 71.7227 45.193 71.903 44.9428L72.1587 44.5841L71.5015 36.3376L73.3455 36.8317L73.5529 42.8577L73.6297 42.8783L76.8271 37.7646L78.6759 38.26L73.5068 45.738C73.2645 46.0917 72.9924 46.3773 72.6904 46.595C72.3876 46.8158 72.0516 46.9556 71.6824 47.0146C71.3156 47.0775 70.9048 47.0481 70.4502 46.9263ZM84.4356 47.8634C83.6993 47.6661 83.1103 47.335 82.6687 46.8701C82.2303 46.4061 81.945 45.851 81.8128 45.2048C81.6846 44.5562 81.7205 43.859 81.9203 43.1131C82.1211 42.3639 82.4423 41.7414 82.884 41.2456C83.3265 40.7465 83.8532 40.4072 84.464 40.2278C85.0789 40.046 85.7465 40.0516 86.4668 40.2446C87.0655 40.405 87.5657 40.6574 87.9675 41.0018C88.3734 41.3439 88.6604 41.752 88.8285 42.2259C88.9975 42.6967 89.03 43.2029 88.926 43.7446L87.2644 43.2994C87.2924 42.9261 87.2117 42.587 87.0222 42.2824C86.8369 41.9753 86.5345 41.7656 86.1151 41.6533C85.7597 41.558 85.4219 41.5704 85.1015 41.6905C84.7819 41.8073 84.4993 42.0232 84.2536 42.3383C84.0111 42.6542 83.8234 43.0602 83.6905 43.5565C83.5558 44.0591 83.5136 44.511 83.5639 44.9123C83.6151 45.3103 83.7474 45.6425 83.9608 45.909C84.1783 46.1732 84.4679 46.3537 84.8296 46.4506C85.0858 46.5193 85.3275 46.5326 85.555 46.4906C85.7864 46.4462 85.9959 46.3497 86.1833 46.2009C86.3707 46.0521 86.5256 45.8517 86.6481 45.5997L88.3096 46.0449C88.1282 46.5556 87.8506 46.977 87.4767 47.3092C87.1038 47.6382 86.658 47.855 86.1392 47.9596C85.6214 48.0611 85.0535 48.029 84.4356 47.8634ZM94.5941 47.106L95.7393 42.8321L97.4777 43.2979L95.5013 50.674L93.8157 50.2224L94.167 48.9114L94.0901 48.8908C93.813 49.2592 93.4488 49.5236 92.9975 49.684C92.5494 49.8453 92.0484 49.8518 91.4945 49.7034C91.0111 49.5738 90.6124 49.3521 90.2985 49.0381C89.9887 48.7217 89.7851 48.3292 89.6876 47.8604C89.5911 47.3885 89.6217 46.858 89.7795 46.2689L91.038 41.5724L92.7764 42.0382L91.59 46.4658C91.4647 46.9332 91.4933 47.3389 91.6756 47.6828C91.858 48.0268 92.1572 48.2545 92.5734 48.366C92.8296 48.4347 93.0944 48.4387 93.368 48.3782C93.6415 48.3177 93.8882 48.1847 94.1079 47.9794C94.3317 47.7717 94.4937 47.4806 94.5941 47.106ZM104.573 47.2887L102.942 47.0369C102.94 46.8648 102.902 46.6934 102.827 46.5225C102.756 46.3524 102.639 46.1993 102.477 46.0631C102.314 45.9269 102.099 45.8228 101.83 45.7508C101.468 45.6538 101.143 45.6508 100.854 45.7416C100.569 45.8333 100.394 46.0044 100.331 46.255C100.27 46.4686 100.302 46.6641 100.426 46.8414C100.553 47.0197 100.792 47.2022 101.144 47.389L102.33 47.995C102.987 48.3325 103.442 48.71 103.694 49.1274C103.949 49.5458 104.007 50.0195 103.869 50.5486C103.742 51.0119 103.496 51.3853 103.132 51.6686C102.771 51.9495 102.328 52.1258 101.801 52.1973C101.274 52.2689 100.703 52.2223 100.088 52.0576C99.1856 51.8157 98.5094 51.432 98.06 50.9067C97.6114 50.3782 97.4253 49.7604 97.5015 49.0534L99.2404 49.3444C99.228 49.6979 99.324 49.993 99.5282 50.2296C99.7325 50.4661 100.035 50.6381 100.435 50.7453C100.848 50.8559 101.202 50.8599 101.497 50.7571C101.795 50.6552 101.978 50.4794 102.045 50.2297C102.102 50.0184 102.067 49.822 101.94 49.6406C101.817 49.4601 101.596 49.2875 101.276 49.1229L100.089 48.5217C99.4207 48.1849 98.9637 47.7965 98.7179 47.3566C98.4729 46.9135 98.4241 46.4235 98.5714 45.8865C98.69 45.431 98.9188 45.0703 99.2577 44.8042C99.6007 44.5358 100.021 44.3705 100.518 44.3081C101.019 44.2433 101.564 44.2899 102.153 44.4477C103.018 44.6793 103.649 45.0457 104.046 45.5468C104.447 46.0488 104.622 46.6294 104.573 47.2887ZM110.37 46.7525L110.01 48.0971L105.77 46.9609L106.13 45.6163L110.37 46.7525ZM107.65 44.1296L109.389 44.5954L107.533 51.5201C107.471 51.7538 107.458 51.9426 107.495 52.0863C107.536 52.2277 107.61 52.3366 107.716 52.4132C107.823 52.4898 107.948 52.5473 108.092 52.5859C108.201 52.6151 108.302 52.6337 108.396 52.6417C108.493 52.6506 108.567 52.6551 108.619 52.6551L108.548 54.0926C108.446 54.0998 108.304 54.0994 108.121 54.0915C107.941 54.0844 107.727 54.0511 107.479 53.9914C107.04 53.8876 106.665 53.7169 106.355 53.4793C106.045 53.2385 105.829 52.937 105.707 52.5748C105.587 52.2134 105.591 51.8026 105.718 51.3425L107.65 44.1296ZM112.947 55.5031C112.227 55.3101 111.645 54.9844 111.202 54.5259C110.759 54.0674 110.468 53.5142 110.329 52.8663C110.194 52.2192 110.228 51.5147 110.432 50.7528C110.636 49.9908 110.959 49.3619 111.401 48.8661C111.846 48.3711 112.375 48.0359 112.988 47.8605C113.601 47.6851 114.268 47.6939 114.988 47.8869C115.709 48.0799 116.29 48.4056 116.734 48.8641C117.177 49.3226 117.466 49.877 117.601 50.5272C117.738 51.1784 117.705 51.8849 117.501 52.6468C117.297 53.4088 116.973 54.0357 116.529 54.5275C116.088 55.0201 115.561 55.3541 114.948 55.5296C114.335 55.705 113.668 55.6962 112.947 55.5031ZM113.33 54.1131C113.721 54.2177 114.076 54.198 114.396 54.0538C114.717 53.9065 114.99 53.6675 115.216 53.3368C115.445 53.007 115.62 52.618 115.74 52.1698C115.861 51.7184 115.905 51.2926 115.871 50.8925C115.842 50.49 115.725 50.1448 115.521 49.8567C115.316 49.5687 115.019 49.3723 114.629 49.2677C114.228 49.1604 113.866 49.1801 113.542 49.3266C113.221 49.4739 112.946 49.7141 112.716 50.0471C112.49 50.3778 112.317 50.7688 112.196 51.2202C112.076 51.6684 112.031 52.0921 112.061 52.4914C112.095 52.8916 112.213 53.2356 112.418 53.5237C112.626 53.8094 112.93 54.0059 113.33 54.1131ZM117.996 56.7015L119.972 49.3253L121.634 49.7705L121.298 51.0239L121.385 51.0471C121.651 50.6656 121.994 50.4041 122.413 50.2624C122.833 50.1175 123.289 50.1111 123.782 50.2432C124.282 50.377 124.67 50.6115 124.947 50.9466C125.229 51.2794 125.384 51.6727 125.414 52.1266L125.49 52.1472C125.763 51.7812 126.126 51.5284 126.579 51.3889C127.035 51.247 127.531 51.2477 128.066 51.391C128.744 51.5729 129.241 51.9358 129.555 52.4797C129.869 53.0236 129.916 53.707 129.695 54.5298L128.369 59.4808L126.625 59.0137L127.88 54.3316C128.003 53.8738 127.971 53.5067 127.784 53.2302C127.598 52.9505 127.329 52.7634 126.977 52.6691C126.558 52.5567 126.194 52.6 125.887 52.7991C125.584 52.9958 125.376 53.3022 125.265 53.7184L124.032 58.3189L122.327 57.8621L123.601 53.1079C123.703 52.727 123.67 52.3919 123.5 52.1029C123.334 51.8147 123.066 51.6212 122.698 51.5226C122.449 51.4557 122.204 51.4588 121.965 51.532C121.727 51.6019 121.516 51.7359 121.332 51.9338C121.15 52.1285 121.018 52.3779 120.936 52.682L119.734 57.1673L117.996 56.7015ZM133.359 60.9724C132.62 60.7743 132.022 60.4495 131.567 59.998C131.115 59.5442 130.821 58.9954 130.685 58.3515C130.55 57.7045 130.585 56.9952 130.792 56.2236C130.995 55.4649 131.318 54.8376 131.759 54.3417C132.205 53.8435 132.732 53.5042 133.339 53.3239C133.948 53.1404 134.604 53.143 135.309 53.3317C135.763 53.4535 136.173 53.6421 136.536 53.8975C136.904 54.1505 137.203 54.4707 137.432 54.858C137.664 55.2462 137.807 55.6996 137.86 56.2183C137.914 56.7337 137.855 57.3148 137.681 57.9615L137.538 58.4946L131.493 56.8745L131.806 55.7028L136.186 56.8763C136.272 56.5425 136.279 56.2271 136.208 55.93C136.137 55.6297 135.996 55.3705 135.783 55.1523C135.574 54.9349 135.303 54.7816 134.97 54.6924C134.614 54.5972 134.279 54.6 133.964 54.7008C133.65 54.7984 133.38 54.9663 133.155 55.2045C132.934 55.4404 132.777 55.7228 132.686 56.0517L132.412 57.0745C132.297 57.5035 132.277 57.8927 132.351 58.2421C132.426 58.5882 132.583 58.8807 132.821 59.1195C133.06 59.355 133.368 59.5234 133.746 59.6247C133.999 59.6924 134.237 59.7185 134.461 59.703C134.686 59.6843 134.892 59.6246 135.08 59.5241C135.268 59.4235 135.429 59.2795 135.561 59.092L137.136 59.7094C136.918 60.111 136.623 60.4332 136.249 60.6761C135.879 60.9167 135.448 61.0655 134.956 61.1223C134.464 61.1759 133.932 61.126 133.359 60.9724ZM138.148 62.1013L140.125 54.7251L141.81 55.1768L141.481 56.4061L141.558 56.4267C141.806 56.037 142.125 55.7706 142.513 55.6276C142.905 55.4822 143.313 55.4661 143.735 55.5794C143.832 55.6051 143.937 55.6387 144.053 55.68C144.173 55.719 144.271 55.7572 144.347 55.7947L143.918 57.3938C143.852 57.3485 143.741 57.2947 143.586 57.2326C143.435 57.1682 143.286 57.1163 143.139 57.0768C142.822 56.9919 142.518 56.9844 142.229 57.0542C141.943 57.1218 141.696 57.2563 141.487 57.4578C141.279 57.6593 141.133 57.917 141.049 58.2307L139.887 62.5671L138.148 62.1013ZM152.524 58.0475L152.164 59.3921L147.923 58.2559L148.284 56.9113L152.524 58.0475ZM149.804 55.4246L151.542 55.8904L149.687 62.8152C149.624 63.0489 149.612 63.2376 149.648 63.3813C149.69 63.5227 149.763 63.6317 149.87 63.7082C149.976 63.7848 150.101 63.8424 150.245 63.881C150.354 63.9101 150.456 63.9287 150.55 63.9367C150.647 63.9456 150.721 63.9501 150.773 63.9501L150.701 65.3876C150.6 65.3948 150.458 65.3944 150.274 65.3865C150.094 65.3794 149.88 65.3461 149.632 65.2865C149.193 65.1826 148.819 65.0119 148.508 64.7743C148.199 64.5335 147.983 64.232 147.86 63.8698C147.741 63.5084 147.745 63.0976 147.871 62.6375L149.804 55.4246ZM155.149 66.811C154.41 66.6129 153.812 66.2881 153.357 65.8366C152.905 65.3828 152.611 64.834 152.475 64.1901C152.339 63.5431 152.375 62.8337 152.582 62.0622C152.785 61.3034 153.108 60.6761 153.549 60.1803C153.995 59.6821 154.522 59.3428 155.129 59.1625C155.738 58.979 156.394 58.9816 157.099 59.1703C157.553 59.2921 157.962 59.4807 158.326 59.7361C158.694 59.9891 158.993 60.3092 159.222 60.6966C159.454 61.0848 159.597 61.5382 159.65 62.0569C159.704 62.5723 159.644 63.1534 159.471 63.8001L159.328 64.3331L153.282 62.7131L153.596 61.5414L157.976 62.7149C158.062 62.3811 158.069 62.0657 157.998 61.7686C157.927 61.4683 157.786 61.2091 157.573 60.9909C157.364 60.7735 157.093 60.6202 156.76 60.531C156.404 60.4357 156.069 60.4385 155.754 60.5394C155.439 60.637 155.17 60.8049 154.945 61.0431C154.724 61.279 154.567 61.5614 154.476 61.8902L154.202 62.9131C154.087 63.3421 154.066 63.7313 154.141 64.0807C154.216 64.4268 154.373 64.7193 154.611 64.9581C154.85 65.1936 155.158 65.362 155.536 65.4632C155.789 65.531 156.027 65.5571 156.251 65.5416C156.476 65.5229 156.682 65.4632 156.87 65.3627C157.058 65.2621 157.219 65.1181 157.351 64.9306L158.926 65.548C158.708 65.9496 158.413 66.2718 158.039 66.5147C157.669 66.7553 157.238 66.9041 156.746 66.9609C156.254 67.0145 155.722 66.9646 155.149 66.811ZM167.222 64.0755L165.591 63.8238C165.589 63.6517 165.551 63.4802 165.477 63.3093C165.406 63.1393 165.289 62.9862 165.126 62.85C164.964 62.7138 164.748 62.6097 164.479 62.5376C164.117 62.4407 163.792 62.4376 163.504 62.5284C163.218 62.6201 163.044 62.7912 162.98 63.0418C162.919 63.2554 162.951 63.4509 163.075 63.6283C163.202 63.8065 163.442 63.989 163.793 64.1758L164.979 64.7819C165.637 65.1193 166.092 65.4968 166.343 65.9143C166.598 66.3326 166.657 66.8063 166.518 67.3354C166.391 67.7988 166.145 68.1721 165.781 68.4554C165.421 68.7364 164.977 68.9126 164.45 68.9842C163.923 69.0557 163.352 69.0091 162.738 68.8444C161.835 68.6025 161.159 68.2189 160.709 67.6936C160.261 67.165 160.075 66.5473 160.151 65.8403L161.89 66.1312C161.877 66.4847 161.973 66.7798 162.178 67.0164C162.382 67.253 162.684 67.4249 163.084 67.5321C163.497 67.6428 163.851 67.6467 164.146 67.544C164.445 67.4421 164.627 67.2662 164.694 67.0165C164.751 66.8052 164.716 66.6089 164.59 66.4275C164.467 66.2469 164.245 66.0744 163.926 65.9098L162.738 65.3085C162.07 64.9717 161.613 64.5833 161.367 64.1434C161.122 63.7003 161.073 63.2103 161.221 62.6733C161.339 62.2179 161.568 61.8571 161.907 61.5911C162.25 61.3227 162.67 61.1573 163.167 61.0949C163.668 61.0302 164.213 61.0767 164.803 61.2346C165.667 61.4662 166.298 61.8326 166.695 62.3337C167.096 62.8357 167.272 63.4163 167.222 64.0755ZM173.02 63.5393L172.659 64.8839L168.419 63.7477L168.779 62.4031L173.02 63.5393ZM170.3 60.9164L172.038 61.3822L170.183 68.307C170.12 68.5407 170.107 68.7294 170.144 68.8731C170.185 69.0145 170.259 69.1235 170.365 69.2C170.472 69.2766 170.597 69.3342 170.741 69.3728C170.85 69.402 170.951 69.4205 171.045 69.4286C171.143 69.4374 171.217 69.4419 171.268 69.442L171.197 70.8795C171.096 70.8866 170.953 70.8862 170.77 70.8783C170.59 70.8713 170.376 70.8379 170.128 70.7783C169.689 70.6744 169.314 70.5037 169.004 70.2661C168.695 70.0254 168.479 69.7238 168.356 69.3616C168.237 69.0002 168.24 68.5895 168.367 68.1293L170.3 60.9164ZM172.497 71.305L174.474 63.9289L176.212 64.3947L174.236 71.7708L172.497 71.305ZM175.628 63.1162C175.353 63.0424 175.14 62.8877 174.991 62.652C174.842 62.4131 174.802 62.1641 174.872 61.9047C174.942 61.6422 175.101 61.4463 175.348 61.317C175.597 61.1845 175.858 61.1551 176.134 61.2289C176.412 61.3035 176.624 61.4599 176.77 61.6979C176.919 61.9336 176.959 62.1826 176.889 62.4452C176.819 62.7045 176.66 62.9004 176.412 63.0329C176.168 63.163 175.907 63.1908 175.628 63.1162ZM176.023 72.2498L178 64.8737L179.661 65.3189L179.325 66.5722L179.412 66.5954C179.679 66.214 180.022 65.9524 180.44 65.8107C180.86 65.6659 181.316 65.6595 181.809 65.7916C182.309 65.9254 182.697 66.1598 182.975 66.4949C183.256 66.8277 183.411 67.221 183.441 67.675L183.518 67.6956C183.791 67.3295 184.154 67.0768 184.606 66.9372C185.063 66.7954 185.558 66.7961 186.093 66.9393C186.772 67.1212 187.268 67.4841 187.582 68.028C187.896 68.572 187.943 69.2554 187.723 70.0781L186.396 75.0292L184.653 74.5621L185.907 69.88C186.03 69.4222 185.998 69.055 185.811 68.7785C185.625 68.4988 185.356 68.3118 185.004 68.2174C184.585 68.1051 184.222 68.1484 183.914 68.3474C183.611 68.5441 183.404 68.8506 183.292 69.2668L182.06 73.8673L180.355 73.4105L181.629 68.6563C181.731 68.2753 181.697 67.9403 181.527 67.6512C181.361 67.363 181.094 67.1696 180.725 67.0709C180.476 67.004 180.231 67.0072 179.992 67.0803C179.754 67.1503 179.543 67.2842 179.359 67.4821C179.177 67.6768 179.045 67.9262 178.963 68.2304L177.762 72.7156L176.023 72.2498ZM191.338 76.5079C190.618 76.3149 190.036 75.9892 189.593 75.5307C189.15 75.0722 188.859 74.519 188.72 73.8711C188.585 73.224 188.619 72.5195 188.823 71.7575C189.027 70.9956 189.35 70.3667 189.792 69.8708C190.237 69.3758 190.766 69.0406 191.379 68.8652C191.992 68.6898 192.659 68.6986 193.379 68.8917C194.099 69.0847 194.681 69.4104 195.125 69.8689C195.568 70.3274 195.857 70.8818 195.991 71.532C196.129 72.1831 196.096 72.8897 195.892 73.6516C195.688 74.4136 195.364 75.0405 194.92 75.5322C194.479 76.0249 193.952 76.3589 193.339 76.5343C192.725 76.7097 192.059 76.7009 191.338 76.5079ZM191.721 75.1179C192.112 75.2225 192.467 75.2028 192.787 75.0586C193.108 74.9113 193.381 74.6722 193.607 74.3416C193.836 74.0118 194.011 73.6228 194.131 73.1746C194.252 72.7232 194.295 72.2974 194.262 71.8973C194.233 71.4948 194.116 71.1495 193.912 70.8615C193.707 70.5735 193.41 70.3771 193.019 70.2725C192.619 70.1652 192.257 70.1849 191.933 70.3314C191.612 70.4787 191.337 70.7189 191.107 71.0519C190.881 71.3825 190.708 71.7736 190.587 72.225C190.467 72.6732 190.422 73.0969 190.452 73.4962C190.485 73.8963 190.604 74.2404 190.808 74.5285C191.017 74.8142 191.321 75.0106 191.721 75.1179ZM199.283 73.8501L198.125 78.1721L196.387 77.7063L198.363 70.3301L200.025 70.7753L199.689 72.0287L199.775 72.0518C200.056 71.6843 200.414 71.4286 200.851 71.2848C201.291 71.1419 201.786 71.1442 202.336 71.2917C202.845 71.4281 203.26 71.6558 203.579 71.9747C203.902 72.2945 204.112 72.6888 204.209 73.1575C204.31 73.6271 204.28 74.156 204.119 74.7442L202.86 79.4408L201.122 78.975L202.308 74.5474C202.44 74.0543 202.416 73.6342 202.234 73.2871C202.056 72.9408 201.743 72.7076 201.294 72.5875C200.99 72.506 200.702 72.5008 200.429 72.5717C200.16 72.6404 199.925 72.7815 199.723 72.9952C199.525 73.2098 199.379 73.4947 199.283 73.8501ZM204.627 79.9143L206.604 72.5381L208.342 73.0039L206.366 80.3801L204.627 79.9143ZM207.758 71.7255C207.483 71.6517 207.271 71.497 207.121 71.2613C206.972 71.0224 206.933 70.7733 207.002 70.514C207.072 70.2515 207.231 70.0556 207.479 69.9263C207.727 69.7938 207.989 69.7644 208.264 69.8382C208.543 69.9128 208.755 70.0691 208.9 70.3072C209.05 70.5428 209.089 70.7919 209.019 71.0544C208.95 71.3138 208.791 71.5097 208.542 71.6422C208.298 71.7723 208.037 71.8001 207.758 71.7255ZM210.236 81.5767C209.769 81.4515 209.37 81.2554 209.04 80.9886C208.714 80.7194 208.486 80.3908 208.357 80.0027C208.231 79.6154 208.233 79.1801 208.362 78.6967C208.474 78.2805 208.643 77.9569 208.869 77.726C209.096 77.495 209.364 77.3335 209.673 77.2415C209.983 77.1494 210.315 77.1063 210.671 77.1123C211.03 77.1159 211.394 77.1466 211.763 77.2043C212.207 77.2752 212.568 77.3292 212.847 77.366C213.126 77.3996 213.337 77.3943 213.479 77.3501C213.625 77.3035 213.721 77.197 213.765 77.0305L213.773 77.0017C213.87 76.6399 213.838 76.3311 213.676 76.0751C213.515 75.8191 213.233 75.6371 212.829 75.529C212.404 75.4149 212.041 75.4173 211.741 75.5361C211.445 75.6557 211.22 75.8304 211.066 76.0601L209.504 75.3947C209.752 74.9808 210.064 74.6629 210.439 74.4408C210.815 74.2156 211.236 74.0848 211.703 74.0485C212.17 74.0089 212.661 74.0581 213.176 74.1962C213.532 74.2915 213.874 74.4279 214.204 74.6055C214.534 74.7831 214.819 75.0069 215.059 75.2771C215.299 75.544 215.464 75.8644 215.553 76.2381C215.644 76.6127 215.625 77.0449 215.493 77.5347L214.171 82.4714L212.499 82.0236L212.771 81.0103L212.713 80.9949C212.553 81.1715 212.352 81.3237 212.112 81.4515C211.876 81.577 211.599 81.6555 211.282 81.6872C210.969 81.7165 210.62 81.6796 210.236 81.5767ZM211.03 80.4203C211.379 80.5138 211.7 80.526 211.993 80.457C212.287 80.3847 212.533 80.2518 212.733 80.0582C212.935 79.8654 213.073 79.633 213.146 79.3609L213.379 78.4917C213.312 78.5219 213.208 78.5386 213.067 78.5419C212.929 78.546 212.775 78.541 212.608 78.5269C212.44 78.5129 212.275 78.496 212.112 78.4764C211.949 78.4568 211.808 78.4395 211.688 78.4246C211.419 78.3904 211.172 78.3858 210.945 78.4109C210.719 78.4361 210.527 78.5048 210.37 78.6171C210.214 78.7262 210.106 78.8929 210.046 79.117C209.96 79.4371 210.012 79.7101 210.202 79.936C210.392 80.1619 210.668 80.3233 211.03 80.4203ZM220.292 73.5707L217.657 83.4056L215.919 82.9398L218.554 73.1049L220.292 73.5707ZM226.728 80.0202L225.097 79.7684C225.095 79.5963 225.057 79.4249 224.983 79.254C224.912 79.0839 224.795 78.9308 224.633 78.7946C224.47 78.6584 224.254 78.5543 223.985 78.4823C223.624 78.3853 223.298 78.3823 223.01 78.4731C222.725 78.5648 222.55 78.7359 222.486 78.9865C222.426 79.2001 222.457 79.3956 222.581 79.573C222.709 79.7512 222.948 79.9337 223.299 80.1205L224.486 80.7265C225.143 81.064 225.598 81.4415 225.85 81.859C226.105 82.2773 226.163 82.751 226.025 83.2801C225.897 83.7435 225.651 84.1168 225.287 84.4001C224.927 84.6811 224.484 84.8573 223.957 84.9288C223.43 85.0004 222.859 84.9538 222.244 84.7891C221.341 84.5472 220.665 84.1636 220.216 83.6382C219.767 83.1097 219.581 82.4919 219.657 81.7849L221.396 82.0759C221.384 82.4294 221.48 82.7245 221.684 82.9611C221.888 83.1977 222.19 83.3696 222.591 83.4768C223.003 83.5875 223.358 83.5914 223.653 83.4886C223.951 83.3867 224.134 83.2109 224.201 82.9612C224.257 82.7499 224.222 82.5535 224.096 82.3721C223.973 82.1916 223.751 82.019 223.432 81.8545L222.244 81.2532C221.576 80.9164 221.119 80.528 220.874 80.0881C220.629 79.645 220.58 79.155 220.727 78.618C220.846 78.1625 221.074 77.8018 221.413 77.5357C221.756 77.2673 222.176 77.102 222.673 77.0396C223.175 76.9748 223.72 77.0214 224.309 77.1792C225.173 77.4109 225.804 77.7772 226.202 78.2784C226.603 78.7803 226.778 79.361 226.728 80.0202Z" fill="#6366F1"/>
</svg>
