<svg width="26" height="28" viewBox="0 0 26 28" fill="none" xmlns="http://www.w3.org/2000/svg">
<path fill-rule="evenodd" clip-rule="evenodd" d="M10.091 5.51772C10.016 5.07272 9.9595 4.63277 9.923 4.19277C9.868 3.53277 9.90201 2.86772 9.88251 2.20772C9.87401 1.92772 9.8405 1.19773 9.854 1.09273C9.9765 0.177734 10.715 0.0377165 10.931 0.0127164C11.0355 -0.00228356 12.1085 -0.12223 12.34 1.06777C12.624 2.52277 12.715 3.98775 12.6145 5.42275C12.849 6.64275 13.25 7.85773 13.7795 8.95773C15.8865 13.3327 19.9015 13.7577 24.2515 13.7177C24.9205 13.7077 25.476 14.2327 25.511 14.8977C25.546 15.5677 25.048 16.1477 24.382 16.2077C21.9505 16.4427 17.6365 18.3928 16.145 20.4228C15.833 20.8478 15.6515 21.8728 15.4115 22.8778C15.0765 24.2728 14.678 25.6528 14.2315 26.2328C14.1645 26.3228 13.35 27.2428 13.107 27.3778C12.523 27.6978 12.0555 27.5127 11.79 27.3427C11.5245 27.1727 11.224 26.8377 11.104 26.2827C10.9785 25.7027 11.0845 24.5127 11.065 24.2577C10.994 23.3327 10.809 21.5177 10.4315 19.9577C10.228 19.1177 10.011 18.3427 9.65201 17.9577C8.32301 16.5327 6.19801 16.7427 4.40851 16.9777C4.20301 17.0027 3.99751 17.0328 3.79251 17.0578C3.06401 17.2728 2.29049 17.4327 1.47299 17.5277C0.23849 17.6727 0.0355035 16.5377 0.0245035 16.4627C0.00150347 16.2977 -0.0840055 15.4478 0.846495 15.1078C0.947995 15.0728 1.697 14.9077 1.9855 14.8427C2.3875 14.7527 2.79399 14.6828 3.20199 14.6178C7.41649 13.3078 9.7055 9.62772 10.091 5.51772ZM11.5375 10.0628C13.1285 13.3528 15.543 14.9427 18.405 15.6627H18.4045C16.6175 16.5977 14.992 17.7678 14.1305 18.9428C13.8035 19.3878 13.5035 20.2827 13.233 21.2877C13.0865 20.3527 12.8885 19.3577 12.627 18.5077C12.3295 17.5377 11.929 16.7328 11.482 16.2528C10.619 15.3278 9.53599 14.8128 8.37149 14.5578C9.76549 13.3228 10.8225 11.7828 11.5375 10.0628Z" fill="#FFD52E"/>
</svg>
