<svg width="193" height="84" viewBox="0 0 193 84" fill="none" xmlns="http://www.w3.org/2000/svg">
<rect x="0.584379" y="35.0417" width="185" height="49" rx="11.5" transform="rotate(-10.7344 0.584379 35.0417)" fill="#EEF2FF"/>
<rect x="0.584379" y="35.0417" width="185" height="49" rx="11.5" transform="rotate(-10.7344 0.584379 35.0417)" stroke="#6366F1"/>
<path d="M33.5156 60.8598L27.4473 48.6861L29.9531 48.2111L34.0623 57.2234L34.1816 57.2008L34.8642 47.28L37.144 46.8479L41.4176 55.8356L41.5307 55.8141L42.0551 45.9168L44.5609 45.4418L43.3692 58.9918L41.0706 59.4275L36.7849 50.891L36.6844 50.9101L35.8141 60.424L33.5156 60.8598ZM50.3426 57.8715C49.7313 57.9874 49.1601 57.9829 48.629 57.858C48.1012 57.7282 47.6541 57.4747 47.2877 57.0974C46.9254 56.7193 46.6844 56.2142 46.5645 55.582C46.4613 55.0377 46.4765 54.5686 46.61 54.1746C46.7435 53.7806 46.9637 53.4439 47.2708 53.1645C47.5778 52.8851 47.9387 52.6497 48.3535 52.4583C48.7717 52.2619 49.2105 52.0942 49.6699 51.955C50.224 51.7893 50.6725 51.65 51.0155 51.5373C51.3576 51.4204 51.5987 51.2966 51.7388 51.166C51.8822 51.0303 51.9333 50.8537 51.892 50.636L51.8849 50.5983C51.7952 50.1252 51.5855 49.7854 51.2558 49.579C50.926 49.3726 50.4974 49.3194 49.9699 49.4194C49.413 49.525 48.9943 49.7301 48.7138 50.0349C48.4375 50.3388 48.2741 50.6669 48.2238 51.0191L46.0439 51.12C46.1003 50.5021 46.2837 49.9599 46.5943 49.4933C46.9041 49.0226 47.3188 48.636 47.8383 48.3337C48.3571 48.0271 48.9535 47.81 49.6275 47.6822C50.0923 47.5941 50.5652 47.5608 51.0464 47.5824C51.5276 47.6039 51.9825 47.7042 52.4111 47.8832C52.8389 48.0579 53.2085 48.337 53.5197 48.7204C53.8351 49.103 54.0536 49.6146 54.175 50.2552L55.3989 56.7113L53.2134 57.1256L52.9622 55.8005L52.8868 55.8147C52.7994 56.1089 52.6524 56.397 52.4456 56.6791C52.2423 56.9562 51.9657 57.2016 51.6158 57.4154C51.2694 57.6242 50.845 57.7762 50.3426 57.8715ZM50.6162 56.089C51.0726 56.0025 51.4512 55.8375 51.752 55.594C52.052 55.3463 52.2634 55.0546 52.3863 54.719C52.5134 54.3827 52.5432 54.0365 52.4757 53.6807L52.2602 52.544C52.2002 52.6161 52.0891 52.6935 51.927 52.7763C51.769 52.8583 51.5889 52.938 51.3867 53.0153C51.1845 53.0927 50.9836 53.1655 50.784 53.2337C50.5845 53.3019 50.4113 53.3607 50.2645 53.4102C49.9341 53.5206 49.6449 53.6535 49.3968 53.809C49.1486 53.9644 48.965 54.151 48.8458 54.3688C48.7258 54.5824 48.6936 54.8357 48.7491 55.1288C48.8285 55.5475 49.0413 55.8346 49.3874 55.9902C49.7335 56.1458 50.1431 56.1787 50.6162 56.089ZM57.52 42.9851L59.9583 55.8469L57.6849 56.2779L55.2466 43.4161L57.52 42.9851ZM62.1313 42.1109L64.5695 54.9727L62.2961 55.4037L59.8578 42.5419L62.1313 42.1109ZM75.5375 53.0887C74.5955 53.2673 73.7398 53.2148 72.9704 52.9313C72.201 52.6477 71.5551 52.1694 71.0328 51.4964C70.5148 50.8226 70.1613 49.9875 69.9724 48.991C69.7835 47.9946 69.8064 47.0859 70.0411 46.265C70.28 45.4434 70.7056 44.7598 71.3179 44.2143C71.9301 43.6689 72.7072 43.3069 73.6493 43.1283C74.5913 42.9497 75.447 43.0022 76.2164 43.2857C76.9858 43.5692 77.6299 44.05 78.1488 44.728C78.6719 45.4052 79.0279 46.2421 79.2168 47.2385C79.4057 48.235 79.3803 49.1419 79.1406 49.9594C78.905 50.7761 78.4812 51.4572 77.8689 52.0026C77.2567 52.5481 76.4795 52.9101 75.5375 53.0887ZM75.2048 51.265C75.7156 51.1682 76.1161 50.947 76.4062 50.6014C76.6955 50.2516 76.8787 49.8222 76.9557 49.3131C77.0369 48.8033 77.0219 48.2553 76.9108 47.6692C76.7989 47.0788 76.6118 46.5613 76.3497 46.1165C76.0909 45.6668 75.7629 45.3321 75.3656 45.1125C74.9683 44.8929 74.5143 44.8315 74.0035 44.9283C73.4802 45.0275 73.0717 45.2524 72.7782 45.603C72.4889 45.9528 72.304 46.3847 72.2236 46.8987C72.1466 47.4078 72.1641 47.9575 72.276 48.5478C72.3871 49.134 72.5717 49.6498 72.8296 50.0953C73.0917 50.5401 73.4215 50.8723 73.8188 51.0919C74.2194 51.3065 74.6814 51.3643 75.2048 51.265ZM85.1109 41.0856L85.4442 42.844L79.7418 43.9251L79.4085 42.1666L85.1109 41.0856ZM82.6628 51.5427L80.6614 40.9857C80.5384 40.3368 80.57 39.7713 80.7562 39.2892C80.9466 38.8064 81.2497 38.415 81.6656 38.1149C82.0815 37.8149 82.5679 37.6121 83.1247 37.5065C83.5183 37.4319 83.8738 37.397 84.1913 37.4019C84.5089 37.4068 84.7457 37.4204 84.9018 37.4429L84.7829 39.2871C84.6811 39.276 84.5541 39.2697 84.402 39.2682C84.2491 39.2625 84.0827 39.2767 83.9026 39.3108C83.4798 39.391 83.1999 39.5503 83.0629 39.7888C82.9293 40.0223 82.8983 40.3275 82.9697 40.7043L84.9425 51.1106L82.6628 51.5427ZM93.2072 49.5438L90.7689 36.6819L93.0989 36.2402L95.1669 47.1489L100.832 46.075L101.202 48.0282L93.2072 49.5438ZM107.367 47.0546C106.425 47.2332 105.569 47.1807 104.8 46.8972C104.031 46.6137 103.385 46.1354 102.862 45.4624C102.344 44.7885 101.991 43.9534 101.802 42.9569C101.613 41.9605 101.636 41.0518 101.871 40.231C102.11 39.4093 102.535 38.7257 103.147 38.1803C103.76 37.6348 104.537 37.2728 105.479 37.0942C106.421 36.9156 107.277 36.9681 108.046 37.2516C108.815 37.5352 109.46 38.0159 109.978 38.6939C110.501 39.3711 110.857 40.208 111.046 41.2044C111.235 42.2009 111.21 43.1079 110.97 43.9253C110.735 44.742 110.311 45.4231 109.698 45.9685C109.086 46.514 108.309 46.876 107.367 47.0546ZM107.034 45.231C107.545 45.1341 107.946 44.9129 108.236 44.5673C108.525 44.2175 108.708 43.7881 108.785 43.2791C108.866 42.7692 108.851 42.2212 108.74 41.6351C108.628 41.0448 108.441 40.5272 108.179 40.0825C107.921 39.6327 107.593 39.2981 107.195 39.0784C106.798 38.8588 106.344 38.7974 105.833 38.8943C105.31 38.9935 104.901 39.2184 104.608 39.5689C104.318 39.9187 104.134 40.3506 104.053 40.8647C103.976 41.3737 103.994 41.9234 104.106 42.5137C104.217 43.0999 104.401 43.6157 104.659 44.0613C104.921 44.506 105.251 44.8382 105.648 45.0578C106.049 45.2725 106.511 45.3302 107.034 45.231ZM120.343 34.4065L118.736 44.7041L116.224 45.1804L110.96 36.1852L113.384 35.7257L116.96 42.4711L117.06 42.452L117.925 34.8649L120.343 34.4065ZM127.723 43.1957C126.756 43.379 125.882 43.3364 125.103 43.0678C124.326 42.7943 123.68 42.3227 123.162 41.653C122.644 40.9792 122.29 40.1378 122.098 39.1288C121.91 38.1365 121.934 37.2299 122.168 36.4091C122.406 35.5832 122.827 34.8963 123.43 34.3482C124.032 33.796 124.794 33.4325 125.715 33.2579C126.31 33.1452 126.889 33.1352 127.453 33.2277C128.02 33.3154 128.545 33.5195 129.026 33.8403C129.512 34.1603 129.931 34.6057 130.282 35.1767C130.632 35.7436 130.887 36.4499 131.048 37.2956L131.18 37.9927L123.273 39.4916L122.983 37.9592L128.71 36.8734C128.623 36.4388 128.456 36.0694 128.207 35.7652C127.958 35.4568 127.649 35.2356 127.281 35.1015C126.917 34.9666 126.518 34.9404 126.082 35.023C125.618 35.1111 125.231 35.3015 124.922 35.5943C124.612 35.8829 124.394 36.2279 124.266 36.6295C124.142 37.026 124.118 37.4404 124.196 37.8724L124.449 39.2101C124.556 39.7711 124.75 40.2331 125.031 40.5962C125.312 40.955 125.656 41.2063 126.065 41.35C126.473 41.4895 126.924 41.5124 127.418 41.4187C127.749 41.356 128.04 41.2532 128.29 41.1103C128.54 40.9632 128.746 40.7789 128.908 40.5574C129.069 40.3359 129.175 40.0795 129.224 39.7883L131.392 39.6246C131.364 40.211 131.202 40.7493 130.904 41.2394C130.61 41.7245 130.194 42.1374 129.656 42.478C129.116 42.8144 128.472 43.0536 127.723 43.1957Z" fill="#6366F1"/>
<g clip-path="url(#clip0_7195_21009)">
<path d="M158.781 22.6156C161.426 24.4226 162.176 27.9569 160.547 30.6635L153.797 40.5864L143.886 33.8221C141.38 31.8992 140.784 28.3298 142.584 25.6862C143.984 23.6325 146.435 22.7201 148.729 23.1808L145.609 27.76L147.262 28.8869L150.64 23.9279L150.625 23.9165L150.641 23.9267C152.556 21.4171 156.136 20.8098 158.781 22.6156Z" fill="#D83C31"/>
</g>
<defs>
<clipPath id="clip0_7195_21009">
<rect width="24" height="24" fill="white" transform="translate(138.006 21.7124) rotate(-10.7344)"/>
</clipPath>
</defs>
</svg>
