<svg width="20" height="20" viewBox="0 0 20 20" fill="none" xmlns="http://www.w3.org/2000/svg">
<path d="M3.33079 16.9051C2.41389 16.0195 1.68254 14.9602 1.17942 13.789C0.676291 12.6177 0.411464 11.358 0.400387 10.0833C0.38931 8.80864 0.632207 7.54452 1.1149 6.36471C1.5976 5.18491 2.31043 4.11305 3.2118 3.21168C4.11317 2.31031 5.18503 1.59748 6.36483 1.11478C7.54464 0.632084 8.80876 0.389188 10.0834 0.400265C11.3581 0.411341 12.6178 0.676169 13.7891 1.1793C14.9603 1.68242 16.0196 2.41377 16.9052 3.33067C18.6539 5.14125 19.6215 7.56623 19.5997 10.0833C19.5778 12.6004 18.5682 15.0082 16.7882 16.7881C15.0083 18.568 12.6005 19.5777 10.0834 19.5995C7.56635 19.6214 5.14137 18.6538 3.33079 16.9051ZM11.462 10.1179L14.1788 7.40107L12.8252 6.04747L10.118 8.76427L7.40119 6.04747L6.04759 7.40107L8.76439 10.1179L6.04759 12.8347L7.40119 14.1883L10.118 11.4715L12.8348 14.1883L14.1884 12.8347L11.4716 10.1179H11.462Z" fill="#EE4B4B"/>
</svg>
