<svg width="124" height="100" viewBox="0 0 124 100" fill="none" xmlns="http://www.w3.org/2000/svg">
<g filter="url(#filter0_d_7357_16797)">
<rect x="12" y="9" width="224" height="82" rx="12" fill="#FFE68E" shape-rendering="crispEdges"/>
<rect x="13" y="10" width="222" height="80" rx="11" stroke="#131318" stroke-width="2" shape-rendering="crispEdges"/>
<rect x="3.5" y="1.5" width="43" height="43" rx="21.5" stroke="#F3F4F6" stroke-width="3"/>
<circle cx="25" cy="23" r="20" fill="#131318"/>
<path d="M32.0652 18.4075H29.5924V16.6412C29.5924 15.4232 29.1085 14.2551 28.2473 13.3939C27.3861 12.5327 26.218 12.0488 25 12.0488C23.782 12.0488 22.6139 12.5327 21.7527 13.3939C20.8914 14.2551 20.4076 15.4232 20.4076 16.6412V18.4075H17.9348C17.4663 18.4075 17.017 18.5936 16.6858 18.9249C16.3545 19.2561 16.1685 19.7054 16.1685 20.1738V30.0651C16.1685 30.5336 16.3545 30.9829 16.6858 31.3141C17.017 31.6453 17.4663 31.8314 17.9348 31.8314H32.0652C32.5337 31.8314 32.9829 31.6453 33.3142 31.3141C33.6454 30.9829 33.8315 30.5336 33.8315 30.0651V20.1738C33.8315 19.7054 33.6454 19.2561 33.3142 18.9249C32.9829 18.5936 32.5337 18.4075 32.0652 18.4075ZM22.5272 16.6412C22.5272 15.9854 22.7877 15.3564 23.2514 14.8927C23.7152 14.4289 24.3441 14.1684 25 14.1684C25.6558 14.1684 26.2848 14.4289 26.7485 14.8927C27.2123 15.3564 27.4728 15.9854 27.4728 16.6412V18.4075H22.5272V16.6412ZM31.7119 29.7119H18.288V20.5271H31.7119V29.7119Z" fill="white"/>
<path d="M22.174 27.7101V24.1775C22.174 23.8652 22.3228 23.5657 22.5878 23.3449C22.8528 23.1241 23.2122 23 23.587 23C23.9618 23 24.3212 23.1241 24.5862 23.3449C24.8512 23.5657 25 23.8652 25 24.1775V27.7101M22.174 25.9438H25M27.8261 23V27.7101" stroke="white" stroke-width="2" stroke-linecap="round" stroke-linejoin="round"/>
<rect x="61.3334" y="26.3333" width="121.333" height="5.33333" rx="2.66667" fill="#131318"/>
<rect x="61.3334" y="41" width="90" height="5.33333" rx="2.66667" fill="#131318"/>
<path d="M66.2223 63.6665V60.7332L64.1556 62.8109L63.5223 62.1776L65.6001 60.1109H62.6667V59.2221H65.6001L63.5223 57.1554L64.1556 56.5221L66.2223 58.5998V55.6665H67.1112V58.5998L69.1779 56.5221L69.8112 57.1554L67.7334 59.2221H70.6667V60.1109H67.7334L69.8112 62.1776L69.1779 62.8109L67.1112 60.7332V63.6665H66.2223Z" fill="#131318"/>
<path d="M66.5278 78.9167V75.8001L64.3319 78.0077L63.659 77.3348L65.8667 75.139H62.75V74.1945H65.8667L63.659 71.9987L64.3319 71.3258L66.5278 73.5334V70.4167H67.4722V73.5334L69.6681 71.3258L70.341 71.9987L68.1333 74.1945H71.25V75.139H68.1333L70.341 77.3348L69.6681 78.0077L67.4722 75.8001V78.9167H66.5278Z" fill="#131318"/>
<path d="M79.25 63.6665V60.7332L77.3125 62.8109L76.7187 62.1776L78.6666 60.1109H75.9166V59.2221H78.6666L76.7187 57.1554L77.3125 56.5221L79.25 58.5998V55.6665H80.0833V58.5998L82.0208 56.5221L82.6145 57.1554L80.6666 59.2221H83.4166V60.1109H80.6666L82.6145 62.1776L82.0208 62.8109L80.0833 60.7332V63.6665H79.25Z" fill="#131318"/>
<path d="M81.1944 78.9167V75.8001L78.9986 78.0077L78.3257 77.3348L80.5333 75.139H77.4166V74.1945H80.5333L78.3257 71.9987L78.9986 71.3258L81.1944 73.5334V70.4167H82.1388V73.5334L84.3347 71.3258L85.0076 71.9987L82.8 74.1945H85.9166V75.139H82.8L85.0076 77.3348L84.3347 78.0077L82.1388 75.8001V78.9167H81.1944Z" fill="#131318"/>
<path d="M91.9167 63.6665V60.7332L89.9792 62.8109L89.3855 62.1776L91.3334 60.1109H88.5834V59.2221H91.3334L89.3855 57.1554L89.9792 56.5221L91.9167 58.5998V55.6665H92.75V58.5998L94.6875 56.5221L95.2813 57.1554L93.3334 59.2221H96.0834V60.1109H93.3334L95.2813 62.1776L94.6875 62.8109L92.75 60.7332V63.6665H91.9167Z" fill="#131318"/>
<path d="M95.1944 78.9167V75.8001L92.9986 78.0077L92.3257 77.3348L94.5333 75.139H91.4166V74.1945H94.5333L92.3257 71.9987L92.9986 71.3258L95.1944 73.5334V70.4167H96.1388V73.5334L98.3347 71.3258L99.0076 71.9987L96.8 74.1945H99.9166V75.139H96.8L99.0076 77.3348L98.3347 78.0077L96.1388 75.8001V78.9167H95.1944Z" fill="#131318"/>
<path d="M104.889 63.6665V60.7332L102.822 62.8109L102.189 62.1776L104.267 60.1109H101.333V59.2221H104.267L102.189 57.1554L102.822 56.5221L104.889 58.5998V55.6665H105.778V58.5998L107.844 56.5221L108.478 57.1554L106.4 59.2221H109.333V60.1109H106.4L108.478 62.1776L107.844 62.8109L105.778 60.7332V63.6665H104.889Z" fill="#131318"/>
<path d="M109.5 78.9167V75.8001L107.175 78.0077L106.463 77.3348L108.8 75.139H105.5V74.1945H108.8L106.463 71.9987L107.175 71.3258L109.5 73.5334V70.4167H110.5V73.5334L112.825 71.3258L113.538 71.9987L111.2 74.1945H114.5V75.139H111.2L113.538 77.3348L112.825 78.0077L110.5 75.8001V78.9167H109.5Z" fill="#131318"/>
<path d="M123.861 78.9167V75.8001L121.665 78.0077L120.992 77.3348L123.2 75.139H120.083V74.1945H123.2L120.992 71.9987L121.665 71.3258L123.861 73.5334V70.4167H124.805V73.5334L127.001 71.3258L127.674 71.9987L125.467 74.1945H128.583V75.139H125.467L127.674 77.3348L127.001 78.0077L124.805 75.8001V78.9167H123.861Z" fill="#131318"/>
</g>
<defs>
<filter id="filter0_d_7357_16797" x="0" y="0" width="238" height="100" filterUnits="userSpaceOnUse" color-interpolation-filters="sRGB">
<feFlood flood-opacity="0" result="BackgroundImageFix"/>
<feColorMatrix in="SourceAlpha" type="matrix" values="0 0 0 0 0 0 0 0 0 0 0 0 0 0 0 0 0 0 127 0" result="hardAlpha"/>
<feMorphology radius="2" operator="dilate" in="SourceAlpha" result="effect1_dropShadow_7357_16797"/>
<feOffset dy="7"/>
<feComposite in2="hardAlpha" operator="out"/>
<feColorMatrix type="matrix" values="0 0 0 0 0.0745098 0 0 0 0 0.0745098 0 0 0 0 0.0941176 0 0 0 1 0"/>
<feBlend mode="normal" in2="BackgroundImageFix" result="effect1_dropShadow_7357_16797"/>
<feBlend mode="normal" in="SourceGraphic" in2="effect1_dropShadow_7357_16797" result="shape"/>
</filter>
</defs>
</svg>
