<svg width="302" height="296" viewBox="0 0 302 296" fill="none" xmlns="http://www.w3.org/2000/svg">
<rect x="30" width="336" height="278" rx="8" fill="white"/>
<rect x="30" width="73" height="278" fill="#0F172A"/>
<path d="M77 22.5C77 28.299 72.299 33 66.5 33C65.1421 33 63.8444 32.7422 62.6531 32.273C61.2393 31.716 61.1142 29.9111 62.1886 28.8366C63.0052 28.0201 64.2704 27.9293 65.4021 28.1586C65.7716 28.2334 66.1539 28.2727 66.5455 28.2727C69.7085 28.2727 72.2727 25.7085 72.2727 22.5455C72.2727 19.3824 69.7085 16.8182 66.5455 16.8182C63.3824 16.8182 60.8182 19.3824 60.8182 22.5455C60.8182 22.9786 60.8663 23.4004 60.9574 23.806C61.2181 24.9668 61.1464 26.2791 60.3051 27.1203C59.2495 28.1759 57.4811 28.0836 56.881 26.7167C56.3144 25.4261 56 23.9998 56 22.5C56 16.701 60.701 12 66.5 12C72.299 12 77 16.701 77 22.5Z" fill="white"/>
<path fill-rule="evenodd" clip-rule="evenodd" d="M69.8821 22.5455C69.8821 20.7027 68.3882 19.2087 66.5454 19.2087C64.7025 19.2087 63.2086 20.7027 63.2086 22.5455C63.2086 24.3883 64.7025 25.8823 66.5454 25.8823C68.3882 25.8823 69.8821 24.3883 69.8821 22.5455Z" fill="white"/>
<path d="M66.5455 24C66.1585 23.2574 65.647 22.7419 65 22.5C65.3524 22.3705 65.6723 22.1698 65.9388 21.9112C66.2052 21.6526 66.412 21.342 66.5455 21C66.6718 21.3459 66.8761 21.6601 67.1435 21.9196C67.4108 22.1791 67.7345 22.3774 68.0909 22.5C67.4243 22.8275 66.8829 23.353 66.5455 24Z" fill="#6366F1"/>
<rect x="116" y="12" width="99" height="7" rx="3.5" fill="#DEDEE3"/>
<rect x="203" y="45" width="129" height="7" rx="3.5" fill="#DEDEE3"/>
<rect x="203" y="204" width="129" height="7" rx="3.5" fill="#DEDEE3"/>
<rect x="203" y="61" width="129" height="7" rx="3.5" fill="#DEDEE3"/>
<rect x="203" y="220" width="70" height="7" rx="3.5" fill="#DEDEE3"/>
<rect x="203" y="77" width="129" height="7" rx="3.5" fill="#DEDEE3"/>
<rect x="203" y="236" width="86" height="7" rx="3.5" fill="#DEDEE3"/>
<rect x="203" y="95" width="70" height="7" rx="3.5" fill="#DEDEE3"/>
<rect x="203" y="254" width="70" height="7" rx="3.5" fill="#DEDEE3"/>
<g filter="url(#filter0_d_7397_24555)">
<rect x="209" y="118" width="205" height="63" rx="8" fill="#FDFDFD"/>
<rect x="209.5" y="118.5" width="204" height="62" rx="7.5" stroke="#131318"/>
<path d="M231.96 140.692C232.404 141.28 232.992 141.868 233.088 141.952V142H230.616C230.52 141.892 230.388 141.232 230.004 140.668L227.592 137.644C227.568 137.608 227.568 137.596 227.604 137.548L228.336 136.876L229.992 135.292C230.796 134.524 230.88 133.672 230.76 133.384V133.312H232.836V133.36C232.476 133.636 232.104 133.972 231.648 134.392L228.972 136.948L231.96 140.692ZM227.376 135.172V140.188C227.376 140.956 227.616 141.748 227.664 141.952V142H225.504V141.952C225.54 141.748 225.792 140.956 225.792 140.188V135.172C225.792 134.404 225.54 133.612 225.504 133.408V133.36H227.664V133.408C227.616 133.612 227.376 134.404 227.376 135.172ZM237.203 133.36C238.883 133.36 240.035 134.512 240.035 135.976C240.035 137.704 238.487 138.628 236.831 138.628H235.415V140.188C235.415 140.956 235.655 141.748 235.703 141.952V142H233.531V141.952C233.579 141.748 233.819 140.956 233.819 140.188V135.172C233.819 134.404 233.579 133.612 233.531 133.408V133.36H237.203ZM236.627 138.124C237.803 138.124 238.355 137.02 238.355 135.976C238.355 135.004 237.863 133.876 236.687 133.876H235.415V138.124H236.627ZM240.929 142V141.952C240.965 141.748 241.217 140.956 241.217 140.188V135.172C241.217 134.404 240.965 133.612 240.929 133.408V133.36H243.089V133.408C243.041 133.612 242.801 134.404 242.801 135.172V140.188C242.801 140.956 243.041 141.748 243.089 141.952V142H240.929ZM250.346 135.916C251.63 135.916 252.698 136.948 252.698 138.916C252.698 141.076 251.414 142.096 250.178 142.096C249.65 142.096 249.05 141.904 248.594 141.388V142.588C248.594 143.356 248.834 144.148 248.882 144.352V144.4H246.806V144.352C246.854 144.148 247.094 143.356 247.094 142.588V137.884C247.094 137.116 246.842 136.348 246.77 136.144V136.108L248.594 135.88V136.804C249.002 136.216 249.65 135.916 250.346 135.916ZM249.59 141.34C250.598 141.34 251.078 140.272 251.078 138.952C251.078 137.8 250.67 136.78 249.686 136.78C249.278 136.78 248.918 136.984 248.594 137.308V140.944C248.882 141.184 249.218 141.34 249.59 141.34ZM257.048 141.112C257.696 141.112 258.284 140.884 258.968 140.32L259.016 140.356C258.656 141.232 257.744 142.108 256.388 142.108C254.9 142.108 253.46 141.04 253.46 139C253.46 137.092 254.696 135.916 256.4 135.916C258.224 135.916 259.064 137.284 259.064 138.844H255.104C255.2 140.152 255.8 141.112 257.048 141.112ZM256.376 136.36C255.44 136.36 255.08 137.428 255.092 138.52V138.544L257.552 138.256C257.528 137.248 257.204 136.36 256.376 136.36ZM261.591 137.068C262.047 136.204 262.899 135.604 264.051 135.976L263.823 137.608H263.775C263.247 137.092 262.371 136.756 261.591 137.392V140.188C261.591 140.956 261.831 141.748 261.867 141.952V142H259.803V141.952C259.851 141.748 260.091 140.956 260.091 140.188V137.8C260.091 137.032 259.851 136.24 259.803 136.036V135.988H261.591V137.068ZM270.134 142.108C268.646 142.108 267.206 141.064 267.206 139C267.206 137.044 268.454 135.916 270.182 135.916C271.094 135.916 271.886 136.264 272.39 136.48L272.414 138.136H272.354C271.934 137.44 271.118 136.36 270.218 136.36C269.27 136.36 268.826 137.404 268.838 138.58C268.85 140.08 269.486 141.112 270.794 141.112C271.322 141.112 271.958 140.932 272.654 140.38L272.69 140.404C272.318 141.304 271.418 142.108 270.134 142.108ZM279.265 141.22L279.289 141.256C279.169 141.736 278.773 142.072 278.197 142.072C277.585 142.072 277.177 141.736 277.045 141.16C276.721 141.628 276.133 142.096 275.221 142.096C273.961 142.096 273.289 141.184 273.289 140.248C273.289 138.94 274.657 138.16 276.229 138.364C276.505 138.388 276.793 138.448 277.009 138.52V137.776C277.009 136.888 276.685 136.408 276.205 136.408C275.473 136.408 273.985 137.608 273.769 137.908H273.709V136.372C274.681 136.072 275.629 135.916 276.289 135.916C277.777 135.916 278.509 136.696 278.509 137.848V140.536C278.509 141.184 278.749 141.436 279.265 141.22ZM276.013 141.28C276.385 141.28 276.721 141.1 277.009 140.776V140.752V138.868C276.949 138.868 276.877 138.868 276.805 138.856C275.521 138.652 274.861 139.288 274.861 140.056C274.861 140.764 275.353 141.28 276.013 141.28ZM288.891 140.188C288.891 140.956 289.131 141.748 289.179 141.952V142H287.115V141.952C287.163 141.748 287.403 140.956 287.403 140.188V138.136C287.403 137.26 286.839 136.9 286.251 136.9C285.891 136.9 285.555 137.056 285.195 137.344C285.231 137.524 285.255 137.728 285.255 137.944V140.188C285.255 140.956 285.495 141.748 285.543 141.952V142H283.491V141.952C283.539 141.748 283.779 140.956 283.779 140.188V138.136C283.779 137.26 283.203 136.9 282.603 136.9C282.267 136.9 281.931 137.044 281.595 137.308V140.188C281.595 140.956 281.835 141.748 281.871 141.952V142H279.819V141.952C279.867 141.748 280.107 140.956 280.107 140.188V137.8C280.107 137.032 279.867 136.24 279.819 136.036V135.988H281.595V136.936C282.051 136.312 282.639 135.916 283.419 135.916C284.163 135.916 284.847 136.276 285.123 137.08C285.615 136.372 286.215 135.916 287.043 135.916C288.027 135.916 288.891 136.528 288.891 137.944V140.188ZM293.389 135.916C294.673 135.916 295.741 136.948 295.741 138.916C295.741 141.076 294.457 142.096 293.221 142.096C292.693 142.096 292.093 141.904 291.637 141.388V142.588C291.637 143.356 291.877 144.148 291.925 144.352V144.4H289.849V144.352C289.897 144.148 290.137 143.356 290.137 142.588V137.884C290.137 137.116 289.885 136.348 289.813 136.144V136.108L291.637 135.88V136.804C292.045 136.216 292.693 135.916 293.389 135.916ZM292.633 141.34C293.641 141.34 294.121 140.272 294.121 138.952C294.121 137.8 293.713 136.78 292.729 136.78C292.321 136.78 291.961 136.984 291.637 137.308V140.944C291.925 141.184 292.261 141.34 292.633 141.34ZM302.398 141.22L302.422 141.256C302.302 141.736 301.906 142.072 301.33 142.072C300.718 142.072 300.31 141.736 300.178 141.16C299.854 141.628 299.266 142.096 298.354 142.096C297.094 142.096 296.422 141.184 296.422 140.248C296.422 138.94 297.79 138.16 299.362 138.364C299.638 138.388 299.926 138.448 300.142 138.52V137.776C300.142 136.888 299.818 136.408 299.338 136.408C298.606 136.408 297.118 137.608 296.902 137.908H296.842V136.372C297.814 136.072 298.762 135.916 299.422 135.916C300.91 135.916 301.642 136.696 301.642 137.848V140.536C301.642 141.184 301.882 141.436 302.398 141.22ZM299.146 141.28C299.518 141.28 299.854 141.1 300.142 140.776V140.752V138.868C300.082 138.868 300.01 138.868 299.938 138.856C298.654 138.652 297.994 139.288 297.994 140.056C297.994 140.764 298.486 141.28 299.146 141.28ZM303.036 142V141.952C303.072 141.748 303.324 140.956 303.324 140.188V137.8C303.324 137.032 303.084 136.24 303.036 136.036V135.988H304.812V140.188C304.812 140.956 305.052 141.748 305.1 141.952V142H303.036ZM309.707 140.896C310.859 140.896 311.567 141.508 311.567 142.552C311.567 144.112 309.791 144.4 308.543 144.4C307.643 144.4 305.879 144.208 305.879 143.008C305.879 142.624 306.059 142.276 306.359 142.012C306.047 141.772 305.951 141.424 305.951 141.1C305.951 140.416 306.383 140.008 307.043 139.828C306.407 139.48 305.915 138.88 305.915 138.028C305.915 136.636 307.259 135.916 308.447 135.916C308.915 135.916 309.395 136.024 309.815 136.24C310.151 135.568 310.751 135.136 311.639 135.268L311.411 136.456L311.387 136.468C311.015 136.264 310.559 136.18 310.055 136.372C310.595 136.72 310.991 137.272 310.991 138.028C310.991 139.444 309.623 140.164 308.447 140.164C308.099 140.164 307.739 140.104 307.403 139.984C307.127 140.08 306.887 140.26 306.887 140.5C306.887 140.848 307.307 140.896 307.751 140.896H309.707ZM308.447 136.348C307.775 136.348 307.391 137.092 307.391 138.04C307.391 138.988 307.775 139.732 308.447 139.732C309.119 139.732 309.515 138.988 309.515 138.04C309.515 137.092 309.119 136.348 308.447 136.348ZM308.687 143.932C309.719 143.932 310.583 143.56 310.583 142.996C310.583 142.636 310.319 142.348 309.659 142.348H307.643C307.295 142.348 307.007 142.3 306.779 142.228C306.767 142.324 306.767 142.42 306.767 142.54C306.755 143.32 307.331 143.932 308.687 143.932ZM317.897 140.188C317.897 140.956 318.137 141.748 318.185 141.952V142H316.121V141.952C316.157 141.748 316.409 140.956 316.409 140.188V138.136C316.409 137.236 315.857 136.876 315.257 136.864C314.813 136.864 314.393 137.056 313.997 137.392V140.188C313.997 140.956 314.237 141.748 314.273 141.952V142H312.209V141.952C312.257 141.748 312.497 140.956 312.497 140.188V137.8C312.497 137.032 312.257 136.24 312.209 136.036V135.988H313.997V137.02C314.441 136.36 315.077 135.916 315.929 135.916C316.961 135.916 317.897 136.528 317.897 137.944V140.188Z" fill="#111827"/>
<rect x="225" y="159" width="173" height="10" rx="5" fill="#E5E2EA"/>
<rect x="225" y="159" width="104" height="10" rx="5" fill="url(#paint0_linear_7397_24555)"/>
</g>
<g filter="url(#filter1_d_7397_24555)">
<g clip-path="url(#clip0_7397_24555)">
<rect x="76" y="44" width="106" height="106" rx="12" fill="#FDFDFD"/>
<path opacity="0.15" d="M141.058 126.5C142.028 128.846 144.735 129.986 146.941 128.731C152.944 125.318 157.894 120.266 161.182 114.124C165.198 106.625 166.488 97.9652 164.835 89.6209C163.181 81.2767 158.686 73.7639 152.114 68.3627C145.542 62.9616 137.301 60.0061 128.795 60C120.288 59.9939 112.043 62.9375 105.463 68.3292C98.8836 73.721 94.3772 81.2273 92.7117 89.5691C91.0461 97.911 92.3245 106.572 96.3291 114.077C99.6089 120.224 104.551 125.283 110.549 128.705C112.754 129.963 115.462 128.827 116.435 126.482C117.408 124.138 116.268 121.479 114.118 120.131C110.063 117.588 106.717 114.019 104.439 109.75C101.435 104.121 100.477 97.6253 101.726 91.3689C102.975 85.1125 106.355 79.4828 111.289 75.439C116.224 71.3951 122.408 69.1875 128.788 69.192C135.168 69.1966 141.349 71.4132 146.278 75.4641C151.206 79.515 154.578 85.1495 155.818 91.4077C157.058 97.6659 156.09 104.16 153.079 109.785C150.795 114.05 147.443 117.615 143.385 120.152C141.232 121.497 140.089 124.154 141.058 126.5Z" fill="url(#paint1_linear_7397_24555)"/>
<path opacity="0.6" d="M119.991 118.705C114.97 116.621 110.826 112.86 108.267 108.063C105.707 103.266 104.89 97.7304 105.955 92.3988C107.019 87.0672 109.9 82.2696 114.105 78.8235C118.31 75.3775 123.58 73.4961 129.017 73.5C134.454 73.5039 139.721 75.3929 143.921 78.845C148.122 82.2971 150.995 87.0988 152.052 92.4319C153.109 97.7651 152.284 103.3 149.717 108.093C147.151 112.886 143.002 116.641 137.977 118.718" stroke="url(#paint2_linear_7397_24555)" stroke-linecap="round" stroke-dasharray="2 8"/>
<g filter="url(#filter2_d_7397_24555)">
<mask id="path-24-inside-1_7397_24555" fill="white">
<path d="M116.133 126.355C115.137 128.69 112.417 129.798 110.225 128.518C106.833 126.537 103.771 124.019 101.163 121.054C97.5395 116.936 94.8837 112.06 93.3899 106.782C91.896 101.504 91.6019 95.9591 92.5291 90.5529C93.4563 85.1468 95.5813 80.0166 98.7483 75.5382C101.915 71.0599 106.044 67.3469 110.833 64.6712C115.621 61.9956 120.947 60.4252 126.421 60.075C131.895 59.7248 137.378 60.6038 142.468 62.6475C146.132 64.1188 149.526 66.1668 152.525 68.7054C154.462 70.3454 154.323 73.2787 152.454 74.9964C150.586 76.7142 147.697 76.5551 145.693 74.9971C143.671 73.425 141.434 72.1376 139.043 71.1777C135.225 69.6449 131.113 68.9857 127.008 69.2483C122.902 69.5109 118.908 70.6887 115.316 72.6954C111.725 74.7022 108.629 77.4869 106.253 80.8457C103.878 84.2045 102.284 88.0521 101.589 92.1067C100.893 96.1613 101.114 100.32 102.234 104.278C103.355 108.237 105.347 111.894 108.064 114.983C109.766 116.917 111.725 118.598 113.881 119.981C116.018 121.351 117.13 124.021 116.133 126.355Z"/>
</mask>
<path d="M116.133 126.355C115.137 128.69 112.417 129.798 110.225 128.518C106.833 126.537 103.771 124.019 101.163 121.054C97.5395 116.936 94.8837 112.06 93.3899 106.782C91.896 101.504 91.6019 95.9591 92.5291 90.5529C93.4563 85.1468 95.5813 80.0166 98.7483 75.5382C101.915 71.0599 106.044 67.3469 110.833 64.6712C115.621 61.9956 120.947 60.4252 126.421 60.075C131.895 59.7248 137.378 60.6038 142.468 62.6475C146.132 64.1188 149.526 66.1668 152.525 68.7054C154.462 70.3454 154.323 73.2787 152.454 74.9964C150.586 76.7142 147.697 76.5551 145.693 74.9971C143.671 73.425 141.434 72.1376 139.043 71.1777C135.225 69.6449 131.113 68.9857 127.008 69.2483C122.902 69.5109 118.908 70.6887 115.316 72.6954C111.725 74.7022 108.629 77.4869 106.253 80.8457C103.878 84.2045 102.284 88.0521 101.589 92.1067C100.893 96.1613 101.114 100.32 102.234 104.278C103.355 108.237 105.347 111.894 108.064 114.983C109.766 116.917 111.725 118.598 113.881 119.981C116.018 121.351 117.13 124.021 116.133 126.355Z" fill="url(#paint3_linear_7397_24555)"/>
<path d="M116.133 126.355C115.137 128.69 112.417 129.798 110.225 128.518C106.833 126.537 103.771 124.019 101.163 121.054C97.5395 116.936 94.8837 112.06 93.3899 106.782C91.896 101.504 91.6019 95.9591 92.5291 90.5529C93.4563 85.1468 95.5813 80.0166 98.7483 75.5382C101.915 71.0599 106.044 67.3469 110.833 64.6712C115.621 61.9956 120.947 60.4252 126.421 60.075C131.895 59.7248 137.378 60.6038 142.468 62.6475C146.132 64.1188 149.526 66.1668 152.525 68.7054C154.462 70.3454 154.323 73.2787 152.454 74.9964C150.586 76.7142 147.697 76.5551 145.693 74.9971C143.671 73.425 141.434 72.1376 139.043 71.1777C135.225 69.6449 131.113 68.9857 127.008 69.2483C122.902 69.5109 118.908 70.6887 115.316 72.6954C111.725 74.7022 108.629 77.4869 106.253 80.8457C103.878 84.2045 102.284 88.0521 101.589 92.1067C100.893 96.1613 101.114 100.32 102.234 104.278C103.355 108.237 105.347 111.894 108.064 114.983C109.766 116.917 111.725 118.598 113.881 119.981C116.018 121.351 117.13 124.021 116.133 126.355Z" stroke="#131318" stroke-width="2" mask="url(#path-24-inside-1_7397_24555)"/>
</g>
<path d="M124.386 92.02V93.518C123.835 94.5167 123.28 95.6133 122.72 96.808C122.16 98.0027 121.716 99.1087 121.39 100.126L119.108 99.622C119.78 97.7647 120.736 95.842 121.978 93.854H118.184V92.02H124.386ZM128.152 95.016C129.104 95.016 129.804 95.2587 130.252 95.744C130.7 96.22 130.924 96.836 130.924 97.592C130.924 99.3093 129.734 100.168 127.354 100.168C126.588 100.168 125.716 100.093 124.736 99.944L125.044 98.404C125.818 98.488 126.397 98.53 126.78 98.53C127.349 98.53 127.783 98.4507 128.082 98.292C128.38 98.1333 128.53 97.8627 128.53 97.48C128.53 97.3493 128.506 97.214 128.46 97.074C128.422 96.9247 128.362 96.8313 128.278 96.794C128.24 96.7753 128.138 96.7567 127.97 96.738C127.811 96.7193 127.62 96.71 127.396 96.71C126.705 96.71 126.028 96.766 125.366 96.878L125.296 96.808L125.87 92.02H130.602V93.882L127.606 93.868L127.452 95.058C127.704 95.03 127.937 95.016 128.152 95.016ZM133.391 91.586C133.802 91.586 134.143 91.642 134.413 91.754C134.684 91.8567 134.899 92.0667 135.057 92.384C135.216 92.7013 135.295 93.168 135.295 93.784C135.295 94.624 135.132 95.198 134.805 95.506C134.488 95.814 134.017 95.968 133.391 95.968C132.794 95.968 132.337 95.8093 132.019 95.492C131.711 95.1747 131.557 94.6333 131.557 93.868C131.557 93.0933 131.707 92.5193 132.005 92.146C132.313 91.7727 132.775 91.586 133.391 91.586ZM137.885 91.6H139.607L134.441 100H132.719L137.885 91.6ZM133.433 95.016C133.676 95.016 133.835 94.918 133.909 94.722C133.984 94.526 134.021 94.218 134.021 93.798C134.021 93.378 133.979 93.0653 133.895 92.86C133.821 92.6547 133.671 92.5473 133.447 92.538H133.377C133.209 92.538 133.097 92.566 133.041 92.622C132.995 92.6687 132.953 92.818 132.915 93.07C132.887 93.3127 132.873 93.5647 132.873 93.826C132.873 94.2647 132.915 94.5727 132.999 94.75C133.093 94.9273 133.237 95.016 133.433 95.016ZM138.795 95.646C139.206 95.646 139.547 95.702 139.817 95.814C140.088 95.9167 140.303 96.1267 140.461 96.444C140.62 96.7613 140.699 97.228 140.699 97.844C140.699 98.684 140.536 99.258 140.209 99.566C139.892 99.874 139.421 100.028 138.795 100.028C138.198 100.028 137.741 99.8693 137.423 99.552C137.115 99.2347 136.961 98.6933 136.961 97.928C136.961 97.1533 137.111 96.5793 137.409 96.206C137.717 95.8327 138.179 95.646 138.795 95.646ZM138.837 99.076C139.08 99.076 139.239 98.978 139.313 98.782C139.388 98.586 139.425 98.278 139.425 97.858C139.425 97.438 139.383 97.1253 139.299 96.92C139.225 96.7147 139.075 96.6073 138.851 96.598H138.781C138.613 96.598 138.501 96.626 138.445 96.682C138.399 96.7287 138.357 96.878 138.319 97.13C138.291 97.3727 138.277 97.6247 138.277 97.886C138.277 98.3247 138.319 98.6327 138.403 98.81C138.497 98.9873 138.641 99.076 138.837 99.076Z" fill="#6366F1"/>
</g>
<rect x="76.5" y="44.5" width="105" height="105" rx="11.5" stroke="#131318"/>
</g>
<g filter="url(#filter3_d_7397_24555)">
<rect x="2" y="186" width="189" height="106" rx="12" fill="#FDFDFD"/>
<rect x="2.5" y="186.5" width="188" height="105" rx="11.5" stroke="#131318"/>
<path d="M9.9943 199.227H9.60459V196.939C9.60459 196.85 9.60459 196.775 9.60459 196.714C9.60765 196.653 9.61071 196.596 9.61376 196.544C9.61682 196.489 9.61988 196.433 9.62293 196.375C9.58014 196.424 9.53888 196.466 9.49914 196.503C9.45941 196.537 9.41203 196.578 9.35701 196.627L9.03149 196.911L8.82059 196.641L9.6642 195.953H9.9943V199.227ZM13.1675 197.585C13.1675 197.851 13.1476 198.088 13.1079 198.296C13.0712 198.504 13.0116 198.681 12.9291 198.828C12.8496 198.971 12.7442 199.081 12.6127 199.158C12.4813 199.234 12.3239 199.272 12.1405 199.272C11.9082 199.272 11.7156 199.205 11.5628 199.071C11.413 198.936 11.3015 198.744 11.2281 198.493C11.1548 198.239 11.1181 197.937 11.1181 197.585C11.1181 197.231 11.1517 196.928 11.219 196.677C11.2862 196.427 11.3947 196.236 11.5445 196.104C11.6942 195.97 11.8929 195.903 12.1405 195.903C12.3728 195.903 12.5638 195.97 12.7136 196.104C12.8664 196.236 12.9795 196.427 13.0529 196.677C13.1293 196.928 13.1675 197.231 13.1675 197.585ZM11.517 197.585C11.517 197.885 11.5368 198.134 11.5766 198.333C11.6194 198.531 11.6866 198.681 11.7783 198.782C11.87 198.88 11.9907 198.929 12.1405 198.929C12.2903 198.929 12.411 198.88 12.5027 198.782C12.5944 198.684 12.6601 198.536 12.6999 198.337C12.7426 198.135 12.764 197.885 12.764 197.585C12.764 197.286 12.7426 197.038 12.6999 196.842C12.6601 196.644 12.5944 196.496 12.5027 196.398C12.411 196.297 12.2903 196.246 12.1405 196.246C11.9907 196.246 11.87 196.297 11.7783 196.398C11.6866 196.496 11.6194 196.644 11.5766 196.842C11.5368 197.038 11.517 197.286 11.517 197.585ZM15.6301 197.585C15.6301 197.851 15.6102 198.088 15.5705 198.296C15.5338 198.504 15.4742 198.681 15.3916 198.828C15.3122 198.971 15.2067 199.081 15.0753 199.158C14.9439 199.234 14.7864 199.272 14.6031 199.272C14.3708 199.272 14.1782 199.205 14.0254 199.071C13.8756 198.936 13.764 198.744 13.6907 198.493C13.6173 198.239 13.5806 197.937 13.5806 197.585C13.5806 197.231 13.6143 196.928 13.6815 196.677C13.7487 196.427 13.8573 196.236 14.007 196.104C14.1568 195.97 14.3555 195.903 14.6031 195.903C14.8354 195.903 15.0264 195.97 15.1762 196.104C15.329 196.236 15.4421 196.427 15.5154 196.677C15.5918 196.928 15.6301 197.231 15.6301 197.585ZM13.9795 197.585C13.9795 197.885 13.9994 198.134 14.0391 198.333C14.0819 198.531 14.1492 198.681 14.2409 198.782C14.3325 198.88 14.4533 198.929 14.6031 198.929C14.7528 198.929 14.8736 198.88 14.9653 198.782C15.057 198.684 15.1227 198.536 15.1624 198.337C15.2052 198.135 15.2266 197.885 15.2266 197.585C15.2266 197.286 15.2052 197.038 15.1624 196.842C15.1227 196.644 15.057 196.496 14.9653 196.398C14.8736 196.297 14.7528 196.246 14.6031 196.246C14.4533 196.246 14.3325 196.297 14.2409 196.398C14.1492 196.496 14.0819 196.644 14.0391 196.842C13.9994 197.038 13.9795 197.286 13.9795 197.585Z" fill="#6A6871"/>
<line x1="22.2037" y1="197.063" x2="128.803" y2="197.063" stroke="#EAEAEA" stroke-width="0.327487"/>
<path d="M9.67795 208.457C9.85829 208.457 10.0172 208.488 10.1548 208.549C10.2954 208.607 10.4054 208.694 10.4849 208.81C10.5644 208.926 10.6041 209.07 10.6041 209.241C10.6041 209.372 10.5766 209.487 10.5216 209.585C10.4696 209.683 10.3993 209.77 10.3107 209.846C10.2251 209.92 10.1288 209.985 10.0218 210.043C10.1471 210.107 10.2618 210.181 10.3657 210.263C10.4696 210.343 10.5521 210.436 10.6133 210.543C10.6744 210.65 10.705 210.778 10.705 210.928C10.705 211.112 10.6622 211.271 10.5766 211.405C10.494 211.536 10.3764 211.639 10.2235 211.712C10.0738 211.786 9.89649 211.822 9.69171 211.822C9.46858 211.822 9.27907 211.787 9.12319 211.717C8.97036 211.646 8.85421 211.547 8.77474 211.419C8.69527 211.287 8.65554 211.128 8.65554 210.942C8.65554 210.792 8.68457 210.662 8.74265 210.552C8.80072 210.442 8.87714 210.347 8.97189 210.268C9.0697 210.188 9.17515 210.121 9.28824 210.066C9.19043 210.005 9.10026 209.936 9.01774 209.86C8.93827 209.78 8.87408 209.69 8.82517 209.589C8.77933 209.489 8.7564 209.371 8.7564 209.236C8.7564 209.068 8.79614 208.928 8.87561 208.815C8.95813 208.698 9.06817 208.61 9.20571 208.549C9.34632 208.488 9.50373 208.457 9.67795 208.457ZM9.04525 210.947C9.04525 211.105 9.09721 211.238 9.20113 211.345C9.30505 211.449 9.46552 211.501 9.68254 211.501C9.82008 211.501 9.9347 211.477 10.0264 211.428C10.1212 211.379 10.193 211.312 10.2419 211.226C10.2908 211.141 10.3152 211.043 10.3152 210.933C10.3152 210.826 10.2877 210.733 10.2327 210.653C10.1808 210.571 10.1074 210.497 10.0126 210.433C9.91789 210.369 9.80785 210.311 9.68254 210.259L9.61835 210.231C9.49609 210.289 9.39216 210.352 9.30658 210.419C9.221 210.487 9.15528 210.563 9.10943 210.649C9.06664 210.734 9.04525 210.833 9.04525 210.947ZM9.67337 208.782C9.51748 208.782 9.38911 208.824 9.28824 208.906C9.19043 208.986 9.14153 209.102 9.14153 209.255C9.14153 209.368 9.16598 209.463 9.21488 209.539C9.26685 209.615 9.33409 209.681 9.41662 209.736C9.49914 209.788 9.59084 209.839 9.69171 209.887C9.78952 209.842 9.87663 209.791 9.95304 209.736C10.0325 209.681 10.0952 209.615 10.141 209.539C10.1869 209.46 10.2098 209.365 10.2098 209.255C10.2098 209.102 10.1609 208.986 10.0631 208.906C9.96527 208.824 9.83536 208.782 9.67337 208.782ZM13.1675 210.135C13.1675 210.401 13.1476 210.638 13.1079 210.846C13.0712 211.053 13.0116 211.231 12.9291 211.377C12.8496 211.521 12.7442 211.631 12.6127 211.708C12.4813 211.784 12.3239 211.822 12.1405 211.822C11.9082 211.822 11.7156 211.755 11.5628 211.62C11.413 211.486 11.3015 211.293 11.2281 211.043C11.1548 210.789 11.1181 210.487 11.1181 210.135C11.1181 209.78 11.1517 209.478 11.219 209.227C11.2862 208.977 11.3947 208.786 11.5445 208.654C11.6942 208.52 11.8929 208.452 12.1405 208.452C12.3728 208.452 12.5638 208.52 12.7136 208.654C12.8664 208.786 12.9795 208.977 13.0529 209.227C13.1293 209.478 13.1675 209.78 13.1675 210.135ZM11.517 210.135C11.517 210.435 11.5368 210.684 11.5766 210.882C11.6194 211.081 11.6866 211.231 11.7783 211.332C11.87 211.429 11.9907 211.478 12.1405 211.478C12.2903 211.478 12.411 211.429 12.5027 211.332C12.5944 211.234 12.6601 211.086 12.6999 210.887C12.7426 210.685 12.764 210.435 12.764 210.135C12.764 209.835 12.7426 209.588 12.6999 209.392C12.6601 209.194 12.5944 209.045 12.5027 208.948C12.411 208.847 12.2903 208.796 12.1405 208.796C11.9907 208.796 11.87 208.847 11.7783 208.948C11.6866 209.045 11.6194 209.194 11.5766 209.392C11.5368 209.588 11.517 209.835 11.517 210.135Z" fill="#6A6871"/>
<line x1="20.8938" y1="209.613" x2="128.803" y2="209.613" stroke="#EAEAEA" stroke-width="0.327487"/>
<path d="M8.67846 222.928C8.67846 222.738 8.69069 222.552 8.71514 222.368C8.73959 222.185 8.78238 222.012 8.84351 221.85C8.90464 221.685 8.9887 221.54 9.09568 221.415C9.20266 221.286 9.33867 221.187 9.50373 221.117C9.66878 221.043 9.86746 221.007 10.0998 221.007C10.1609 221.007 10.2266 221.01 10.2969 221.016C10.3703 221.022 10.4314 221.033 10.4803 221.048V221.392C10.4283 221.374 10.3687 221.36 10.3015 221.351C10.2373 221.341 10.1731 221.337 10.1089 221.337C9.91331 221.337 9.74978 221.372 9.61835 221.442C9.48692 221.513 9.38299 221.609 9.30658 221.731C9.23017 221.853 9.17362 221.994 9.13694 222.153C9.10332 222.312 9.08192 222.482 9.07275 222.662H9.10026C9.14306 222.589 9.19654 222.523 9.26073 222.465C9.32798 222.407 9.40745 222.361 9.49914 222.327C9.5939 222.294 9.7024 222.277 9.82467 222.277C10.005 222.277 10.1609 222.316 10.2923 222.396C10.4268 222.472 10.5307 222.585 10.6041 222.735C10.6774 222.882 10.7141 223.061 10.7141 223.272C10.7141 223.498 10.6744 223.693 10.5949 223.859C10.5154 224.024 10.4024 224.15 10.2556 224.239C10.1089 224.328 9.9347 224.372 9.73297 224.372C9.58625 224.372 9.44871 224.343 9.32034 224.285C9.19196 224.227 9.07887 224.138 8.98106 224.019C8.88631 223.9 8.81142 223.75 8.7564 223.57C8.70444 223.386 8.67846 223.172 8.67846 222.928ZM9.72838 224.033C9.90566 224.033 10.0478 223.972 10.1548 223.849C10.2648 223.724 10.3198 223.531 10.3198 223.272C10.3198 223.064 10.2709 222.899 10.1731 222.777C10.0784 222.654 9.93317 222.593 9.73755 222.593C9.60612 222.593 9.4915 222.624 9.39369 222.685C9.29588 222.743 9.21947 222.818 9.16445 222.909C9.10943 223.001 9.08192 223.096 9.08192 223.194C9.08192 223.295 9.09568 223.394 9.12319 223.492C9.1507 223.59 9.19043 223.68 9.24239 223.762C9.29741 223.845 9.36466 223.91 9.44413 223.959C9.52665 224.008 9.62141 224.033 9.72838 224.033ZM13.1675 222.685C13.1675 222.951 13.1476 223.188 13.1079 223.395C13.0712 223.603 13.0116 223.781 12.9291 223.927C12.8496 224.071 12.7442 224.181 12.6127 224.257C12.4813 224.334 12.3239 224.372 12.1405 224.372C11.9082 224.372 11.7156 224.305 11.5628 224.17C11.413 224.036 11.3015 223.843 11.2281 223.593C11.1548 223.339 11.1181 223.036 11.1181 222.685C11.1181 222.33 11.1517 222.028 11.219 221.777C11.2862 221.526 11.3947 221.335 11.5445 221.204C11.6942 221.069 11.8929 221.002 12.1405 221.002C12.3728 221.002 12.5638 221.069 12.7136 221.204C12.8664 221.335 12.9795 221.526 13.0529 221.777C13.1293 222.028 13.1675 222.33 13.1675 222.685ZM11.517 222.685C11.517 222.984 11.5368 223.233 11.5766 223.432C11.6194 223.631 11.6866 223.781 11.7783 223.881C11.87 223.979 11.9907 224.028 12.1405 224.028C12.2903 224.028 12.411 223.979 12.5027 223.881C12.5944 223.784 12.6601 223.635 12.6999 223.437C12.7426 223.235 12.764 222.984 12.764 222.685C12.764 222.385 12.7426 222.138 12.6999 221.942C12.6601 221.743 12.5944 221.595 12.5027 221.497C12.411 221.396 12.2903 221.346 12.1405 221.346C11.9907 221.346 11.87 221.396 11.7783 221.497C11.6866 221.595 11.6194 221.743 11.5766 221.942C11.5368 222.138 11.517 222.385 11.517 222.685Z" fill="#6A6871"/>
<line x1="20.8938" y1="222.162" x2="128.803" y2="222.162" stroke="#EAEAEA" stroke-width="0.327487"/>
<path d="M10.8287 236.133H10.384V236.876H9.99889V236.133H8.53633V235.789L9.97596 233.584H10.384V235.771H10.8287V236.133ZM9.99889 234.739C9.99889 234.66 9.99889 234.588 9.99889 234.524C10.0019 234.456 10.005 234.394 10.0081 234.336C10.0111 234.278 10.0126 234.223 10.0126 234.171C10.0157 234.116 10.0188 234.064 10.0218 234.015H10.0035C9.97902 234.073 9.94998 234.136 9.91636 234.203C9.88274 234.27 9.85065 234.327 9.82008 234.372L8.92146 235.771H9.99889V234.739ZM13.1675 235.234C13.1675 235.5 13.1476 235.737 13.1079 235.945C13.0712 236.153 13.0116 236.33 12.9291 236.477C12.8496 236.621 12.7442 236.731 12.6127 236.807C12.4813 236.883 12.3239 236.922 12.1405 236.922C11.9082 236.922 11.7156 236.854 11.5628 236.72C11.413 236.585 11.3015 236.393 11.2281 236.142C11.1548 235.888 11.1181 235.586 11.1181 235.234C11.1181 234.88 11.1517 234.577 11.219 234.327C11.2862 234.076 11.3947 233.885 11.5445 233.753C11.6942 233.619 11.8929 233.552 12.1405 233.552C12.3728 233.552 12.5638 233.619 12.7136 233.753C12.8664 233.885 12.9795 234.076 13.0529 234.327C13.1293 234.577 13.1675 234.88 13.1675 235.234ZM11.517 235.234C11.517 235.534 11.5368 235.783 11.5766 235.982C11.6194 236.18 11.6866 236.33 11.7783 236.431C11.87 236.529 11.9907 236.578 12.1405 236.578C12.2903 236.578 12.411 236.529 12.5027 236.431C12.5944 236.333 12.6601 236.185 12.6999 235.986C12.7426 235.785 12.764 235.534 12.764 235.234C12.764 234.935 12.7426 234.687 12.6999 234.492C12.6601 234.293 12.5944 234.145 12.5027 234.047C12.411 233.946 12.2903 233.896 12.1405 233.896C11.9907 233.896 11.87 233.946 11.7783 234.047C11.6866 234.145 11.6194 234.293 11.5766 234.492C11.5368 234.687 11.517 234.935 11.517 235.234Z" fill="#6A6871"/>
<line x1="20.8938" y1="234.712" x2="128.803" y2="234.712" stroke="#EAEAEA" stroke-width="0.327487"/>
<path d="M10.7004 249.426H8.65554V249.091L9.45788 248.224C9.61071 248.059 9.73908 247.913 9.843 247.784C9.94998 247.656 10.031 247.53 10.086 247.408C10.141 247.283 10.1685 247.147 10.1685 247C10.1685 246.82 10.1196 246.684 10.0218 246.592C9.924 246.497 9.79563 246.45 9.63669 246.45C9.48997 246.45 9.36007 246.477 9.24698 246.533C9.13389 246.588 9.01927 246.664 8.90312 246.762L8.68763 246.491C8.77016 246.418 8.8588 246.352 8.95355 246.294C9.0483 246.236 9.15222 246.19 9.26532 246.157C9.38147 246.123 9.50678 246.106 9.64127 246.106C9.83384 246.106 9.99889 246.141 10.1364 246.212C10.277 246.282 10.3855 246.383 10.462 246.514C10.5384 246.643 10.5766 246.797 10.5766 246.977C10.5766 247.106 10.5567 247.228 10.517 247.344C10.4803 247.457 10.4268 247.569 10.3565 247.679C10.2862 247.789 10.2021 247.9 10.1043 248.013C10.0096 248.127 9.90261 248.246 9.7834 248.371L9.15528 249.04L9.15987 249.059H10.7004V249.426ZM13.1675 247.784C13.1675 248.05 13.1476 248.287 13.1079 248.495C13.0712 248.703 13.0116 248.88 12.9291 249.027C12.8496 249.17 12.7442 249.28 12.6127 249.357C12.4813 249.433 12.3239 249.471 12.1405 249.471C11.9082 249.471 11.7156 249.404 11.5628 249.27C11.413 249.135 11.3015 248.943 11.2281 248.692C11.1548 248.438 11.1181 248.136 11.1181 247.784C11.1181 247.43 11.1517 247.127 11.219 246.876C11.2862 246.626 11.3947 246.435 11.5445 246.303C11.6942 246.169 11.8929 246.102 12.1405 246.102C12.3728 246.102 12.5638 246.169 12.7136 246.303C12.8664 246.435 12.9795 246.626 13.0529 246.876C13.1293 247.127 13.1675 247.43 13.1675 247.784ZM11.517 247.784C11.517 248.084 11.5368 248.333 11.5766 248.531C11.6194 248.73 11.6866 248.88 11.7783 248.981C11.87 249.079 11.9907 249.128 12.1405 249.128C12.2903 249.128 12.411 249.079 12.5027 248.981C12.5944 248.883 12.6601 248.735 12.6999 248.536C12.7426 248.334 12.764 248.084 12.764 247.784C12.764 247.485 12.7426 247.237 12.6999 247.041C12.6601 246.843 12.5944 246.695 12.5027 246.597C12.411 246.496 12.2903 246.445 12.1405 246.445C11.9907 246.445 11.87 246.496 11.7783 246.597C11.6866 246.695 11.6194 246.843 11.5766 247.041C11.5368 247.237 11.517 247.485 11.517 247.784Z" fill="#6A6871"/>
<line x1="20.8938" y1="247.262" x2="128.803" y2="247.262" stroke="#EAEAEA" stroke-width="0.327487"/>
<path d="M9.9943 261.975H9.60459V259.688C9.60459 259.599 9.60459 259.524 9.60459 259.463C9.60765 259.402 9.61071 259.345 9.61376 259.293C9.61682 259.238 9.61988 259.182 9.62293 259.124C9.58014 259.172 9.53888 259.215 9.49914 259.252C9.45941 259.286 9.41203 259.327 9.35701 259.376L9.03149 259.66L8.82059 259.39L9.6642 258.702H9.9943V261.975ZM13.1675 260.334C13.1675 260.6 13.1476 260.837 13.1079 261.045C13.0712 261.252 13.0116 261.43 12.9291 261.576C12.8496 261.72 12.7442 261.83 12.6127 261.907C12.4813 261.983 12.3239 262.021 12.1405 262.021C11.9082 262.021 11.7156 261.954 11.5628 261.819C11.413 261.685 11.3015 261.492 11.2281 261.242C11.1548 260.988 11.1181 260.685 11.1181 260.334C11.1181 259.979 11.1517 259.677 11.219 259.426C11.2862 259.176 11.3947 258.985 11.5445 258.853C11.6942 258.719 11.8929 258.651 12.1405 258.651C12.3728 258.651 12.5638 258.719 12.7136 258.853C12.8664 258.985 12.9795 259.176 13.0529 259.426C13.1293 259.677 13.1675 259.979 13.1675 260.334ZM11.517 260.334C11.517 260.634 11.5368 260.883 11.5766 261.081C11.6194 261.28 11.6866 261.43 11.7783 261.531C11.87 261.628 11.9907 261.677 12.1405 261.677C12.2903 261.677 12.411 261.628 12.5027 261.531C12.5944 261.433 12.6601 261.285 12.6999 261.086C12.7426 260.884 12.764 260.634 12.764 260.334C12.764 260.034 12.7426 259.787 12.6999 259.591C12.6601 259.393 12.5944 259.244 12.5027 259.147C12.411 259.046 12.2903 258.995 12.1405 258.995C11.9907 258.995 11.87 259.046 11.7783 259.147C11.6866 259.244 11.6194 259.393 11.5766 259.591C11.5368 259.787 11.517 260.034 11.517 260.334Z" fill="#6A6871"/>
<line x1="20.8938" y1="259.812" x2="128.803" y2="259.812" stroke="#EAEAEA" stroke-width="0.327487"/>
<path d="M10.705 272.884C10.705 273.15 10.6851 273.387 10.6453 273.594C10.6087 273.802 10.5491 273.98 10.4665 274.126C10.3871 274.27 10.2816 274.38 10.1502 274.456C10.0188 274.533 9.86134 274.571 9.67795 274.571C9.44565 274.571 9.25309 274.504 9.10026 274.369C8.95049 274.235 8.83893 274.042 8.76557 273.792C8.69221 273.538 8.65554 273.235 8.65554 272.884C8.65554 272.529 8.68916 272.227 8.7564 271.976C8.82365 271.725 8.93215 271.534 9.08192 271.403C9.2317 271.268 9.43037 271.201 9.67795 271.201C9.91025 271.201 10.1013 271.268 10.2511 271.403C10.4039 271.534 10.517 271.725 10.5903 271.976C10.6667 272.227 10.705 272.529 10.705 272.884ZM9.05442 272.884C9.05442 273.183 9.07428 273.432 9.11402 273.631C9.15681 273.83 9.22405 273.98 9.31575 274.08C9.40745 274.178 9.52818 274.227 9.67795 274.227C9.82772 274.227 9.94846 274.178 10.0402 274.08C10.1318 273.983 10.1976 273.834 10.2373 273.636C10.2801 273.434 10.3015 273.183 10.3015 272.884C10.3015 272.584 10.2801 272.337 10.2373 272.141C10.1976 271.942 10.1318 271.794 10.0402 271.696C9.94846 271.595 9.82772 271.545 9.67795 271.545C9.52818 271.545 9.40745 271.595 9.31575 271.696C9.22405 271.794 9.15681 271.942 9.11402 272.141C9.07428 272.337 9.05442 272.584 9.05442 272.884ZM13.1675 272.884C13.1675 273.15 13.1476 273.387 13.1079 273.594C13.0712 273.802 13.0116 273.98 12.9291 274.126C12.8496 274.27 12.7442 274.38 12.6127 274.456C12.4813 274.533 12.3239 274.571 12.1405 274.571C11.9082 274.571 11.7156 274.504 11.5628 274.369C11.413 274.235 11.3015 274.042 11.2281 273.792C11.1548 273.538 11.1181 273.235 11.1181 272.884C11.1181 272.529 11.1517 272.227 11.219 271.976C11.2862 271.725 11.3947 271.534 11.5445 271.403C11.6942 271.268 11.8929 271.201 12.1405 271.201C12.3728 271.201 12.5638 271.268 12.7136 271.403C12.8664 271.534 12.9795 271.725 13.0529 271.976C13.1293 272.227 13.1675 272.529 13.1675 272.884ZM11.517 272.884C11.517 273.183 11.5368 273.432 11.5766 273.631C11.6194 273.83 11.6866 273.98 11.7783 274.08C11.87 274.178 11.9907 274.227 12.1405 274.227C12.2903 274.227 12.411 274.178 12.5027 274.08C12.5944 273.983 12.6601 273.834 12.6999 273.636C12.7426 273.434 12.764 273.183 12.764 272.884C12.764 272.584 12.7426 272.337 12.6999 272.141C12.6601 271.942 12.5944 271.794 12.5027 271.696C12.411 271.595 12.2903 271.545 12.1405 271.545C11.9907 271.545 11.87 271.595 11.7783 271.696C11.6866 271.794 11.6194 271.942 11.5766 272.141C11.5368 272.337 11.517 272.584 11.517 272.884Z" fill="#6A6871"/>
<line x1="20.8938" y1="272.361" x2="128.803" y2="272.361" stroke="#EAEAEA" stroke-width="0.327487"/>
<path d="M28.928 282.736L28.0294 279.953H28.011C28.0172 280.014 28.0217 280.097 28.0248 280.201C28.0309 280.305 28.0355 280.416 28.0386 280.535C28.0447 280.655 28.0477 280.772 28.0477 280.888V282.736H27.5847V279.463H28.2999L29.1618 282.09H29.1756L30.0513 279.463H30.7665V282.736H30.2805V280.861C30.2805 280.754 30.2821 280.644 30.2851 280.531C30.2882 280.415 30.2928 280.306 30.2989 280.205C30.305 280.104 30.3096 280.022 30.3126 279.958H30.2943L29.3727 282.736H28.928ZM33.596 281.498C33.596 281.703 33.57 281.885 33.5181 282.044C33.4661 282.203 33.3912 282.337 33.2934 282.447C33.1987 282.557 33.0825 282.641 32.945 282.699C32.8074 282.754 32.6531 282.782 32.4819 282.782C32.326 282.782 32.1808 282.754 32.0463 282.699C31.9118 282.641 31.7957 282.557 31.6979 282.447C31.6001 282.337 31.5237 282.203 31.4686 282.044C31.4167 281.885 31.3907 281.701 31.3907 281.494C31.3907 281.222 31.435 280.991 31.5237 280.801C31.6123 280.612 31.7392 280.468 31.9042 280.37C32.0723 280.269 32.271 280.219 32.5002 280.219C32.7142 280.219 32.9037 280.269 33.0688 280.37C33.2338 280.468 33.3622 280.612 33.4539 280.801C33.5486 280.991 33.596 281.223 33.596 281.498ZM31.9042 281.498C31.9042 281.682 31.9241 281.841 31.9638 281.975C32.0066 282.106 32.0708 282.207 32.1564 282.278C32.245 282.348 32.3566 282.383 32.4911 282.383C32.6286 282.383 32.7402 282.348 32.8258 282.278C32.9144 282.207 32.9786 282.106 33.0183 281.975C33.0611 281.841 33.0825 281.682 33.0825 281.498C33.0825 281.309 33.0611 281.15 33.0183 281.021C32.9755 280.893 32.9113 280.795 32.8258 280.728C32.7402 280.658 32.6271 280.622 32.4865 280.622C32.2817 280.622 32.1334 280.699 32.0418 280.852C31.9501 281.005 31.9042 281.22 31.9042 281.498ZM35.3711 280.219C35.6401 280.219 35.8464 280.291 35.9901 280.435C36.1368 280.578 36.2101 280.809 36.2101 281.127V282.736H35.715V281.196C35.715 281.003 35.6768 280.859 35.6004 280.765C35.527 280.667 35.4124 280.618 35.2565 280.618C35.0273 280.618 34.8698 280.693 34.7843 280.843C34.6987 280.992 34.6559 281.208 34.6559 281.489V282.736H34.1607V280.265H34.5504L34.6192 280.595H34.6467C34.6987 280.509 34.7613 280.439 34.8347 280.384C34.9081 280.329 34.9906 280.288 35.0823 280.26C35.174 280.233 35.2703 280.219 35.3711 280.219Z" fill="black"/>
<path d="M53.031 282.736H52.5267V279.889H51.6189V279.463H53.9342V279.889H53.031V282.736ZM56.164 280.265V282.736H55.7743L55.7056 282.411H55.678C55.6322 282.496 55.5695 282.566 55.4901 282.621C55.4137 282.676 55.3296 282.716 55.2379 282.741C55.1462 282.768 55.0515 282.782 54.9536 282.782C54.7733 282.782 54.6205 282.751 54.4952 282.69C54.3729 282.626 54.2781 282.528 54.2109 282.397C54.1467 282.262 54.1146 282.091 54.1146 281.883V280.265H54.6144V281.81C54.6144 282.003 54.651 282.146 54.7244 282.241C54.7978 282.336 54.9124 282.383 55.0683 282.383C55.2211 282.383 55.3403 282.349 55.4259 282.282C55.5145 282.215 55.5772 282.117 55.6139 281.989C55.6505 281.857 55.6689 281.7 55.6689 281.517V280.265H56.164ZM57.795 280.219C57.9998 280.219 58.1771 280.265 58.3268 280.357C58.4766 280.445 58.5912 280.574 58.6707 280.742C58.7532 280.91 58.7945 281.108 58.7945 281.338V281.604H57.2402C57.2463 281.857 57.3075 282.051 57.4236 282.186C57.5398 282.32 57.7033 282.388 57.9142 282.388C58.064 282.388 58.1969 282.374 58.3131 282.346C58.4323 282.316 58.553 282.271 58.6753 282.213V282.617C58.5591 282.672 58.4399 282.713 58.3177 282.741C58.1984 282.768 58.0533 282.782 57.8821 282.782C57.659 282.782 57.4603 282.735 57.2861 282.64C57.1118 282.545 56.9758 282.404 56.878 282.218C56.7802 282.028 56.7313 281.796 56.7313 281.521C56.7313 281.243 56.7756 281.008 56.8643 280.815C56.9529 280.622 57.0767 280.476 57.2356 280.375C57.3976 280.271 57.5841 280.219 57.795 280.219ZM57.795 280.595C57.6391 280.595 57.5138 280.652 57.419 280.765C57.3243 280.878 57.2693 281.038 57.254 281.246H58.3039C58.3039 281.118 58.2856 281.005 58.2489 280.907C58.2122 280.809 58.1557 280.733 58.0792 280.677C58.0059 280.622 57.9111 280.595 57.795 280.595Z" fill="black"/>
<path d="M78.1591 279.463L77.3567 282.736H76.8066L76.2885 280.714C76.2732 280.659 76.2579 280.598 76.2426 280.531C76.2274 280.464 76.2121 280.398 76.1968 280.334C76.1846 280.266 76.1723 280.207 76.1601 280.155C76.1509 280.103 76.1448 280.063 76.1418 280.036C76.1387 280.063 76.1311 280.103 76.1188 280.155C76.1097 280.207 76.099 280.266 76.0868 280.334C76.0745 280.398 76.0608 280.465 76.0455 280.535C76.0302 280.603 76.0149 280.667 75.9996 280.728L75.4907 282.736H74.9405L74.1382 279.463H74.6517L75.0918 281.397C75.1071 281.465 75.1224 281.533 75.1377 281.604C75.153 281.674 75.1667 281.744 75.179 281.815C75.1912 281.885 75.2019 281.954 75.211 282.021C75.2233 282.085 75.2324 282.145 75.2386 282.2C75.2477 282.142 75.2569 282.079 75.2661 282.012C75.2783 281.944 75.2905 281.876 75.3027 281.805C75.318 281.732 75.3333 281.66 75.3486 281.59C75.3669 281.52 75.3837 281.454 75.399 281.393L75.8896 279.463H76.3893L76.8983 281.406C76.9135 281.468 76.9288 281.533 76.9441 281.604C76.9594 281.674 76.9747 281.746 76.99 281.819C77.0052 281.889 77.0175 281.958 77.0266 282.025C77.0389 282.09 77.0496 282.148 77.0587 282.2C77.0679 282.123 77.0801 282.041 77.0954 281.952C77.1138 281.86 77.1321 281.767 77.1504 281.672C77.1718 281.575 77.1917 281.483 77.21 281.397L77.6456 279.463H78.1591ZM79.4058 280.219C79.6106 280.219 79.7879 280.265 79.9377 280.357C80.0875 280.445 80.2021 280.574 80.2815 280.742C80.3641 280.91 80.4053 281.108 80.4053 281.338V281.604H78.8511C78.8572 281.857 78.9183 282.051 79.0345 282.186C79.1506 282.32 79.3141 282.388 79.525 282.388C79.6748 282.388 79.8078 282.374 79.9239 282.346C80.0431 282.316 80.1639 282.271 80.2861 282.213V282.617C80.17 282.672 80.0508 282.713 79.9285 282.741C79.8093 282.768 79.6641 282.782 79.493 282.782C79.2698 282.782 79.0711 282.735 78.8969 282.64C78.7227 282.545 78.5867 282.404 78.4889 282.218C78.3911 282.028 78.3422 281.796 78.3422 281.521C78.3422 281.243 78.3865 281.008 78.4751 280.815C78.5638 280.622 78.6876 280.476 78.8465 280.375C79.0085 280.271 79.1949 280.219 79.4058 280.219ZM79.4058 280.595C79.25 280.595 79.1246 280.652 79.0299 280.765C78.9351 280.878 78.8801 281.038 78.8648 281.246H79.9148C79.9148 281.118 79.8964 281.005 79.8597 280.907C79.8231 280.809 79.7665 280.733 79.6901 280.677C79.6167 280.622 79.522 280.595 79.4058 280.595ZM81.7531 282.782C81.478 282.782 81.2549 282.675 81.0837 282.461C80.9156 282.247 80.8316 281.929 80.8316 281.507C80.8316 281.082 80.9172 280.762 81.0883 280.545C81.2595 280.328 81.4842 280.219 81.7623 280.219C81.8815 280.219 81.9839 280.236 82.0695 280.269C82.1551 280.3 82.2299 280.343 82.2941 280.398C82.3583 280.453 82.4118 280.514 82.4546 280.581H82.4821C82.476 280.538 82.4684 280.477 82.4592 280.398C82.4531 280.315 82.45 280.242 82.45 280.178V279.252H82.9452V282.736H82.5555L82.4684 282.406H82.45C82.4072 282.476 82.3537 282.54 82.2896 282.599C82.2254 282.654 82.1489 282.698 82.0603 282.731C81.9747 282.765 81.8723 282.782 81.7531 282.782ZM81.8861 282.383C82.1 282.383 82.2498 282.317 82.3354 282.186C82.424 282.051 82.4684 281.851 82.4684 281.585V281.512C82.4684 281.222 82.4271 281 82.3446 280.847C82.262 280.694 82.1077 280.618 81.8815 280.618C81.7042 280.618 81.5697 280.699 81.478 280.861C81.3863 281.02 81.3405 281.238 81.3405 281.517C81.3405 281.795 81.3863 282.009 81.478 282.158C81.5697 282.308 81.7057 282.383 81.8861 282.383Z" fill="black"/>
<path d="M99.4695 282.736H98.9651V279.889H98.0573V279.463H100.373V279.889H99.4695V282.736ZM101.282 280.182C101.282 280.259 101.278 280.335 101.272 280.412C101.269 280.488 101.265 280.551 101.259 280.6H101.286C101.335 280.514 101.395 280.444 101.465 280.389C101.538 280.334 101.619 280.292 101.708 280.265C101.8 280.237 101.893 280.224 101.988 280.224C102.168 280.224 102.321 280.256 102.446 280.32C102.574 280.381 102.671 280.479 102.735 280.613C102.802 280.745 102.836 280.916 102.836 281.127V282.736H102.336V281.196C102.336 281.003 102.299 280.859 102.226 280.765C102.153 280.667 102.038 280.618 101.882 280.618C101.732 280.618 101.613 280.652 101.525 280.719C101.436 280.786 101.373 280.885 101.337 281.017C101.3 281.145 101.282 281.304 101.282 281.494V282.736H100.786V279.252H101.282V280.182ZM105.549 280.265V282.736H105.159L105.09 282.411H105.063C105.017 282.496 104.954 282.566 104.875 282.621C104.798 282.676 104.714 282.716 104.622 282.741C104.531 282.768 104.436 282.782 104.338 282.782C104.158 282.782 104.005 282.751 103.88 282.69C103.757 282.626 103.663 282.528 103.595 282.397C103.531 282.262 103.499 282.091 103.499 281.883V280.265H103.999V281.81C103.999 282.003 104.036 282.146 104.109 282.241C104.182 282.336 104.297 282.383 104.453 282.383C104.606 282.383 104.725 282.349 104.81 282.282C104.899 282.215 104.962 282.117 104.998 281.989C105.035 281.857 105.053 281.7 105.053 281.517V280.265H105.549Z" fill="black"/>
<path d="M123.438 282.736H122.933V279.463H124.68V279.884H123.438V280.953H124.602V281.374H123.438V282.736ZM126.34 280.219C126.38 280.219 126.424 280.222 126.473 280.228C126.522 280.231 126.563 280.236 126.597 280.242L126.546 280.696C126.513 280.687 126.475 280.679 126.432 280.673C126.389 280.667 126.346 280.664 126.304 280.664C126.221 280.664 126.142 280.682 126.065 280.719C125.989 280.752 125.92 280.803 125.859 280.87C125.798 280.934 125.749 281.014 125.712 281.108C125.675 281.203 125.657 281.312 125.657 281.434V282.736H125.162V280.265H125.552L125.616 280.705H125.643C125.689 280.616 125.746 280.535 125.813 280.462C125.883 280.389 125.963 280.331 126.051 280.288C126.14 280.242 126.236 280.219 126.34 280.219ZM127.515 280.265V282.736H127.016V280.265H127.515ZM127.272 279.325C127.346 279.325 127.41 279.346 127.465 279.389C127.52 279.432 127.547 279.504 127.547 279.605C127.547 279.702 127.52 279.774 127.465 279.82C127.41 279.863 127.346 279.884 127.272 279.884C127.193 279.884 127.126 279.863 127.071 279.82C127.016 279.774 126.988 279.702 126.988 279.605C126.988 279.504 127.016 279.432 127.071 279.389C127.126 279.346 127.193 279.325 127.272 279.325Z" fill="black"/>
<path d="M147.524 281.851C147.524 282.047 147.479 282.213 147.391 282.351C147.302 282.489 147.175 282.595 147.01 282.672C146.845 282.745 146.643 282.782 146.405 282.782C146.289 282.782 146.177 282.774 146.07 282.759C145.966 282.747 145.87 282.728 145.781 282.704C145.696 282.68 145.615 282.649 145.538 282.612V282.145C145.661 282.2 145.8 282.25 145.956 282.296C146.114 282.339 146.272 282.36 146.428 282.36C146.562 282.36 146.672 282.34 146.758 282.301C146.847 282.261 146.912 282.206 146.955 282.135C147.001 282.065 147.024 281.983 147.024 281.888C147.024 281.787 147.001 281.703 146.955 281.636C146.912 281.565 146.84 281.501 146.74 281.443C146.642 281.382 146.51 281.319 146.345 281.255C146.229 281.206 146.124 281.154 146.029 281.099C145.934 281.041 145.852 280.974 145.781 280.898C145.714 280.821 145.662 280.733 145.625 280.632C145.592 280.531 145.575 280.413 145.575 280.279C145.575 280.098 145.618 279.944 145.703 279.816C145.789 279.687 145.908 279.589 146.061 279.522C146.214 279.452 146.393 279.417 146.597 279.417C146.769 279.417 146.926 279.435 147.07 279.472C147.213 279.505 147.349 279.553 147.478 279.614L147.317 280.022C147.198 279.97 147.077 279.927 146.955 279.893C146.836 279.86 146.712 279.843 146.584 279.843C146.471 279.843 146.376 279.861 146.299 279.898C146.226 279.935 146.171 279.985 146.134 280.049C146.098 280.114 146.079 280.188 146.079 280.274C146.079 280.375 146.101 280.459 146.144 280.526C146.186 280.593 146.255 280.656 146.35 280.714C146.445 280.769 146.57 280.83 146.726 280.898C146.897 280.971 147.042 281.049 147.161 281.131C147.281 281.211 147.371 281.309 147.432 281.425C147.493 281.538 147.524 281.68 147.524 281.851ZM149.002 280.219C149.292 280.219 149.511 280.288 149.658 280.425C149.807 280.56 149.882 280.772 149.882 281.063V282.736H149.529L149.433 282.392H149.415C149.344 282.481 149.274 282.554 149.204 282.612C149.137 282.67 149.057 282.713 148.965 282.741C148.877 282.768 148.767 282.782 148.635 282.782C148.498 282.782 148.374 282.756 148.264 282.704C148.154 282.649 148.067 282.566 148.003 282.456C147.938 282.343 147.906 282.203 147.906 282.035C147.906 281.784 147.995 281.593 148.172 281.462C148.353 281.33 148.626 281.258 148.993 281.246L149.387 281.232V281.095C149.387 280.911 149.349 280.783 149.273 280.71C149.199 280.636 149.095 280.6 148.961 280.6C148.848 280.6 148.736 280.618 148.626 280.655C148.516 280.691 148.409 280.736 148.305 280.788L148.154 280.435C148.267 280.373 148.395 280.323 148.539 280.283C148.686 280.24 148.84 280.219 149.002 280.219ZM149.089 281.558C148.839 281.57 148.664 281.617 148.567 281.7C148.469 281.779 148.42 281.892 148.42 282.039C148.42 282.168 148.453 282.261 148.521 282.319C148.591 282.377 148.681 282.406 148.791 282.406C148.959 282.406 149.1 282.352 149.213 282.246C149.329 282.139 149.387 281.978 149.387 281.764V281.549L149.089 281.558ZM151.441 282.388C151.505 282.388 151.568 282.382 151.629 282.369C151.69 282.357 151.743 282.343 151.789 282.328V282.695C151.737 282.719 151.669 282.739 151.583 282.754C151.5 282.773 151.413 282.782 151.322 282.782C151.193 282.782 151.076 282.759 150.969 282.713C150.862 282.667 150.776 282.588 150.712 282.475C150.648 282.362 150.616 282.204 150.616 282.003V280.636H150.299V280.416L150.639 280.233L150.808 279.71H151.115V280.265H151.771V280.636H151.115V281.993C151.115 282.128 151.146 282.227 151.207 282.291C151.268 282.356 151.346 282.388 151.441 282.388Z" fill="black"/>
<path d="M170.301 281.851C170.301 282.047 170.257 282.213 170.168 282.351C170.079 282.489 169.952 282.595 169.787 282.672C169.622 282.745 169.421 282.782 169.182 282.782C169.066 282.782 168.954 282.774 168.848 282.759C168.744 282.747 168.647 282.728 168.559 282.704C168.473 282.68 168.392 282.649 168.316 282.612V282.145C168.438 282.2 168.577 282.25 168.733 282.296C168.892 282.339 169.049 282.36 169.205 282.36C169.34 282.36 169.45 282.34 169.535 282.301C169.624 282.261 169.69 282.206 169.732 282.135C169.778 282.065 169.801 281.983 169.801 281.888C169.801 281.787 169.778 281.703 169.732 281.636C169.69 281.565 169.618 281.501 169.517 281.443C169.419 281.382 169.288 281.319 169.123 281.255C169.006 281.206 168.901 281.154 168.806 281.099C168.711 281.041 168.629 280.974 168.559 280.898C168.491 280.821 168.439 280.733 168.403 280.632C168.369 280.531 168.352 280.413 168.352 280.279C168.352 280.098 168.395 279.944 168.481 279.816C168.566 279.687 168.686 279.589 168.838 279.522C168.991 279.452 169.17 279.417 169.375 279.417C169.546 279.417 169.703 279.435 169.847 279.472C169.991 279.505 170.127 279.553 170.255 279.614L170.095 280.022C169.975 279.97 169.855 279.927 169.732 279.893C169.613 279.86 169.489 279.843 169.361 279.843C169.248 279.843 169.153 279.861 169.077 279.898C169.003 279.935 168.948 279.985 168.912 280.049C168.875 280.114 168.857 280.188 168.857 280.274C168.857 280.375 168.878 280.459 168.921 280.526C168.964 280.593 169.032 280.656 169.127 280.714C169.222 280.769 169.347 280.83 169.503 280.898C169.674 280.971 169.819 281.049 169.939 281.131C170.058 281.211 170.148 281.309 170.209 281.425C170.27 281.538 170.301 281.68 170.301 281.851ZM172.875 280.265V282.736H172.485L172.417 282.411H172.389C172.343 282.496 172.281 282.566 172.201 282.621C172.125 282.676 172.041 282.716 171.949 282.741C171.857 282.768 171.763 282.782 171.665 282.782C171.484 282.782 171.332 282.751 171.206 282.69C171.084 282.626 170.989 282.528 170.922 282.397C170.858 282.262 170.826 282.091 170.826 281.883V280.265H171.326V281.81C171.326 282.003 171.362 282.146 171.436 282.241C171.509 282.336 171.624 282.383 171.779 282.383C171.932 282.383 172.051 282.349 172.137 282.282C172.226 282.215 172.288 282.117 172.325 281.989C172.362 281.857 172.38 281.7 172.38 281.517V280.265H172.875ZM174.781 280.219C175.05 280.219 175.257 280.291 175.4 280.435C175.547 280.578 175.62 280.809 175.62 281.127V282.736H175.125V281.196C175.125 281.003 175.087 280.859 175.01 280.765C174.937 280.667 174.822 280.618 174.667 280.618C174.437 280.618 174.28 280.693 174.194 280.843C174.109 280.992 174.066 281.208 174.066 281.489V282.736H173.571V280.265H173.961L174.029 280.595H174.057C174.109 280.509 174.171 280.439 174.245 280.384C174.318 280.329 174.401 280.288 174.492 280.26C174.584 280.233 174.68 280.219 174.781 280.219Z" fill="black"/>
<path d="M10.5615 282.137C10.5615 282.273 10.5287 282.387 10.4632 282.479C10.4004 282.57 10.31 282.64 10.1921 282.687C10.0742 282.734 9.9327 282.758 9.76764 282.758C9.62879 282.758 9.50827 282.746 9.4061 282.722C9.30654 282.699 9.21878 282.666 9.1428 282.624V282.31C9.22402 282.352 9.32095 282.391 9.43361 282.428C9.54626 282.462 9.66023 282.479 9.7755 282.479C9.93532 282.479 10.0506 282.451 10.1213 282.396C10.1947 282.339 10.2314 282.263 10.2314 282.168C10.2314 282.116 10.217 282.069 10.1881 282.027C10.1619 281.985 10.1135 281.943 10.0427 281.901C9.97462 281.859 9.87506 281.812 9.74407 281.76C9.61831 281.707 9.50958 281.655 9.41789 281.602C9.32881 281.55 9.25938 281.487 9.20961 281.414C9.16245 281.34 9.13887 281.246 9.13887 281.131C9.13887 280.953 9.20699 280.815 9.34322 280.718C9.48208 280.621 9.66285 280.573 9.88554 280.573C10.0061 280.573 10.1187 280.586 10.2235 280.612C10.3283 280.636 10.4279 280.67 10.5222 280.714L10.4082 280.989C10.3532 280.963 10.2956 280.941 10.2353 280.923C10.175 280.902 10.1135 280.886 10.0506 280.875C9.99034 280.862 9.92877 280.856 9.86589 280.856C9.73752 280.856 9.63927 280.879 9.57115 280.926C9.50303 280.971 9.46898 281.033 9.46898 281.111C9.46898 281.169 9.4847 281.219 9.51613 281.261C9.54757 281.302 9.59866 281.343 9.6694 281.382C9.74276 281.419 9.84231 281.462 9.96807 281.512C10.0938 281.562 10.2012 281.613 10.2903 281.665C10.3794 281.718 10.4462 281.782 10.4907 281.858C10.5379 281.931 10.5615 282.024 10.5615 282.137ZM11.8078 280.573C11.9781 280.573 12.1248 280.612 12.248 280.691C12.3711 280.769 12.4654 280.881 12.5309 281.025C12.599 281.166 12.6331 281.333 12.6331 281.524V281.732H11.2812C11.2865 281.971 11.3428 282.153 11.4502 282.278C11.5576 282.401 11.7083 282.463 11.9021 282.463C12.0279 282.463 12.1392 282.451 12.2362 282.428C12.3357 282.401 12.4379 282.365 12.5427 282.318V282.62C12.4405 282.667 12.3397 282.701 12.2401 282.722C12.1432 282.746 12.0253 282.758 11.8864 282.758C11.6978 282.758 11.5314 282.717 11.3873 282.636C11.2432 282.555 11.1306 282.434 11.0494 282.274C10.9681 282.112 10.9275 281.914 10.9275 281.681C10.9275 281.45 10.9642 281.253 11.0376 281.088C11.1109 280.923 11.2131 280.795 11.3441 280.706C11.4777 280.617 11.6323 280.573 11.8078 280.573ZM11.8078 280.856C11.6559 280.856 11.5353 280.909 11.4463 281.017C11.3572 281.122 11.3048 281.268 11.2891 281.457H12.2794C12.2794 281.337 12.2624 281.232 12.2283 281.143C12.1943 281.054 12.1419 280.984 12.0711 280.934C12.003 280.882 11.9152 280.856 11.8078 280.856ZM13.9269 282.758C13.7487 282.758 13.5916 282.72 13.4553 282.644C13.3191 282.568 13.2117 282.45 13.1331 282.29C13.0571 282.13 13.0191 281.926 13.0191 281.677C13.0191 281.418 13.0597 281.207 13.1409 281.044C13.2221 280.882 13.3322 280.763 13.471 280.687C13.6125 280.611 13.7723 280.573 13.9505 280.573C14.0527 280.573 14.1509 280.585 14.2452 280.608C14.3422 280.629 14.4207 280.655 14.481 280.687L14.3749 280.974C14.3146 280.95 14.2439 280.928 14.1627 280.907C14.0841 280.886 14.0107 280.875 13.9426 280.875C13.8142 280.875 13.7081 280.906 13.6243 280.966C13.5405 281.026 13.4776 281.115 13.4357 281.233C13.3937 281.351 13.3728 281.498 13.3728 281.673C13.3728 281.841 13.3937 281.984 13.4357 282.102C13.4776 282.219 13.5392 282.308 13.6204 282.369C13.7042 282.429 13.8064 282.459 13.9269 282.459C14.0343 282.459 14.1299 282.447 14.2138 282.424C14.2976 282.4 14.3749 282.371 14.4456 282.337V282.644C14.3775 282.681 14.3029 282.708 14.2216 282.726C14.1404 282.747 14.0422 282.758 13.9269 282.758Z" fill="#6A6871"/>
<path d="M31.4035 264.074C25.5082 264.074 21 260.243 21 260.243V274H180V250.84C180 250.84 161.62 229.769 150.523 229.769C139.426 229.769 132.838 235.342 126.249 233.426C119.66 231.511 114.111 215.49 101.974 216.012C89.8364 216.535 83.0742 242.83 77.8724 243.178C72.6707 243.526 62.614 237.78 55.8517 237.78C49.0894 237.78 37.2988 264.074 31.4035 264.074Z" fill="url(#paint4_linear_7397_24555)"/>
<path d="M179.63 251.109C179.809 251.314 180.119 251.334 180.323 251.156C180.527 250.977 180.548 250.667 180.37 250.463L179.63 251.109ZM21 260.175C20.6822 260.549 20.6823 260.55 20.6825 260.55C20.6825 260.55 20.6827 260.55 20.6829 260.55C20.6832 260.55 20.6835 260.551 20.684 260.551C20.6848 260.552 20.686 260.553 20.6874 260.554C20.6902 260.556 20.6942 260.56 20.6992 260.564C20.7092 260.572 20.7236 260.584 20.7422 260.599C20.7794 260.629 20.8336 260.673 20.9041 260.727C21.0449 260.837 21.2509 260.991 21.5157 261.176C22.0451 261.544 22.8118 262.035 23.7668 262.525C25.6727 263.502 28.352 264.491 31.4035 264.491V263.509C28.5597 263.509 26.0372 262.585 24.2152 261.65C23.3062 261.184 22.5774 260.718 22.0773 260.37C21.8274 260.195 21.6351 260.051 21.5064 259.951C21.442 259.901 21.3936 259.862 21.362 259.837C21.3461 259.824 21.3344 259.814 21.3271 259.808C21.3234 259.805 21.3207 259.803 21.3192 259.802C21.3184 259.801 21.3179 259.8 21.3177 259.8C21.3176 259.8 21.3175 259.8 21.3175 259.8C21.3176 259.8 21.3176 259.8 21.3176 259.8C21.3177 259.8 21.3178 259.8 21 260.175ZM31.4035 264.491C32.3112 264.491 33.2507 263.994 34.1756 263.256C35.1138 262.507 36.1092 261.452 37.1379 260.211C39.1952 257.729 41.4476 254.425 43.7068 251.152C45.975 247.865 48.2512 244.608 50.3779 242.171C51.4412 240.953 52.4523 239.958 53.3916 239.27C54.3388 238.577 55.1594 238.237 55.8517 238.237V237.255C54.8534 237.255 53.8263 237.735 52.8114 238.478C51.7885 239.226 50.7229 240.282 49.6378 241.525C47.4677 244.011 45.1598 247.317 42.8982 250.594C40.6275 253.884 38.4043 257.144 36.3815 259.584C35.3701 260.805 34.4243 261.801 33.5629 262.488C32.6881 263.186 31.9697 263.509 31.4035 263.509V264.491ZM55.8517 238.237C59.1324 238.237 63.2507 239.635 67.2863 241.035C69.2858 241.729 71.259 242.42 73.058 242.914C74.8498 243.406 76.5193 243.719 77.9052 243.626L77.8396 242.646C76.6247 242.727 75.0864 242.452 73.3183 241.967C71.5573 241.483 69.6184 240.805 67.6082 240.107C63.6245 238.725 59.3333 237.255 55.8517 237.255V238.237ZM77.9052 243.626C78.7492 243.57 79.5349 243.002 80.2617 242.228C81.0025 241.44 81.7614 240.35 82.5439 239.083C84.0993 236.564 85.8408 233.183 87.7475 229.885C89.6725 226.556 91.7945 223.257 94.1745 220.761C96.5572 218.262 99.1434 216.626 101.995 216.503L101.953 215.522C98.7355 215.66 95.9249 217.501 93.4635 220.083C90.9994 222.667 88.8299 226.051 86.897 229.393C84.9458 232.768 83.2628 236.048 81.708 238.566C80.9353 239.818 80.2177 240.84 79.5456 241.556C78.8595 242.286 78.296 242.615 77.8396 242.646L77.9052 243.626ZM101.995 216.503C107.821 216.253 112.106 219.957 115.826 224.12C116.752 225.157 117.635 226.213 118.497 227.236C119.357 228.257 120.196 229.247 121.023 230.137C122.663 231.902 124.325 233.352 126.112 233.871L126.386 232.928C124.878 232.49 123.375 231.224 121.743 229.468C120.934 228.598 120.109 227.626 119.248 226.604C118.39 225.584 117.496 224.516 116.558 223.466C112.822 219.283 108.264 215.25 101.953 215.522L101.995 216.503ZM126.112 233.871C129.567 234.874 133.003 233.906 136.836 232.762C140.701 231.608 145.057 230.239 150.523 230.239V229.257C144.893 229.257 140.406 230.67 136.555 231.82C132.672 232.979 129.519 233.837 126.386 232.928L126.112 233.871ZM150.523 230.239C153.161 230.239 156.296 231.497 159.558 233.456C162.806 235.407 166.119 238.016 169.099 240.636C172.076 243.254 174.711 245.874 176.601 247.839C177.546 248.822 178.304 249.641 178.826 250.213C179.086 250.499 179.288 250.724 179.424 250.877C179.492 250.953 179.544 251.011 179.579 251.051C179.596 251.07 179.609 251.085 179.617 251.095C179.622 251.1 179.625 251.103 179.627 251.106C179.628 251.107 179.629 251.108 179.629 251.108C179.63 251.109 179.63 251.109 179.63 251.109C179.63 251.109 179.63 251.109 180 250.786C180.37 250.463 180.37 250.463 180.37 250.463C180.369 250.462 180.369 250.462 180.369 250.462C180.368 250.461 180.367 250.46 180.366 250.459C180.364 250.456 180.36 250.452 180.356 250.447C180.347 250.436 180.333 250.421 180.315 250.401C180.28 250.36 180.227 250.301 180.158 250.223C180.019 250.068 179.815 249.84 179.552 249.551C179.025 248.973 178.261 248.148 177.309 247.158C175.406 245.18 172.752 242.54 169.747 239.898C166.745 237.258 163.383 234.608 160.064 232.614C156.758 230.629 153.434 229.257 150.523 229.257V230.239Z" fill="#3E86DB"/>
<circle cx="106" cy="216" r="2.49123" fill="#3E86DB" stroke="white" stroke-width="0.982462"/>
<line x1="106.327" y1="216" x2="106.327" y2="274" stroke="#3E86DB" stroke-width="0.654975" stroke-dasharray="2.62 2.62"/>
<rect x="99" y="202" width="13" height="7.30995" rx="1.30995" fill="#20213E"/>
<path d="M104.067 206.655H102.181V206.333L102.904 205.598C103.045 205.454 103.163 205.329 103.258 205.225C103.352 205.117 103.423 205.015 103.47 204.918C103.517 204.818 103.541 204.711 103.541 204.596C103.541 204.452 103.499 204.344 103.415 204.274C103.331 204.2 103.222 204.164 103.089 204.164C102.96 204.164 102.845 204.188 102.743 204.238C102.641 204.285 102.534 204.352 102.424 204.439L102.2 204.16C102.276 204.094 102.358 204.035 102.444 203.983C102.533 203.93 102.631 203.888 102.739 203.857C102.849 203.826 102.969 203.81 103.1 203.81C103.279 203.81 103.432 203.841 103.56 203.904C103.689 203.964 103.787 204.051 103.855 204.164C103.926 204.276 103.961 204.408 103.961 204.56C103.961 204.673 103.944 204.779 103.91 204.879C103.876 204.976 103.826 205.071 103.761 205.166C103.698 205.26 103.62 205.356 103.529 205.452C103.437 205.549 103.336 205.652 103.226 205.759L102.703 206.266V206.286H104.067V206.655ZM105.357 204.914C105.543 204.914 105.706 204.947 105.844 205.012C105.983 205.078 106.091 205.172 106.167 205.295C106.245 205.418 106.285 205.569 106.285 205.747C106.285 205.944 106.243 206.113 106.159 206.254C106.075 206.396 105.953 206.504 105.793 206.58C105.636 206.656 105.444 206.694 105.216 206.694C105.072 206.694 104.935 206.681 104.807 206.655C104.679 206.629 104.57 206.591 104.481 206.541V206.16C104.575 206.215 104.689 206.259 104.823 206.293C104.959 206.328 105.089 206.345 105.212 206.345C105.345 206.345 105.459 206.325 105.554 206.286C105.651 206.244 105.725 206.182 105.778 206.101C105.833 206.017 105.86 205.912 105.86 205.787C105.86 205.616 105.806 205.487 105.699 205.397C105.594 205.306 105.428 205.26 105.2 205.26C105.127 205.26 105.044 205.266 104.952 205.28C104.863 205.293 104.791 205.306 104.736 205.319L104.544 205.205L104.65 203.849H106.092V204.219H105.011L104.948 204.953C104.993 204.946 105.049 204.938 105.117 204.93C105.186 204.919 105.265 204.914 105.357 204.914ZM107.96 206.655H107.547V204.792C107.547 204.727 107.547 204.667 107.547 204.612C107.55 204.554 107.552 204.499 107.555 204.446C107.558 204.391 107.56 204.339 107.563 204.289C107.529 204.323 107.493 204.356 107.457 204.388C107.42 204.419 107.378 204.456 107.331 204.498L107.024 204.745L106.812 204.478L107.614 203.849H107.96V206.655Z" fill="white"/>
<path d="M105.668 210.379L107.668 208.379H103.668L105.668 210.379Z" fill="#20213E"/>
</g>
<defs>
<filter id="filter0_d_7397_24555" x="207" y="118" width="209" height="67" filterUnits="userSpaceOnUse" color-interpolation-filters="sRGB">
<feFlood flood-opacity="0" result="BackgroundImageFix"/>
<feColorMatrix in="SourceAlpha" type="matrix" values="0 0 0 0 0 0 0 0 0 0 0 0 0 0 0 0 0 0 127 0" result="hardAlpha"/>
<feMorphology radius="2" operator="dilate" in="SourceAlpha" result="effect1_dropShadow_7397_24555"/>
<feOffset dy="2"/>
<feComposite in2="hardAlpha" operator="out"/>
<feColorMatrix type="matrix" values="0 0 0 0 0.0745098 0 0 0 0 0.0745098 0 0 0 0 0.0941176 0 0 0 1 0"/>
<feBlend mode="normal" in2="BackgroundImageFix" result="effect1_dropShadow_7397_24555"/>
<feBlend mode="normal" in="SourceGraphic" in2="effect1_dropShadow_7397_24555" result="shape"/>
</filter>
<filter id="filter1_d_7397_24555" x="74" y="44" width="110" height="110" filterUnits="userSpaceOnUse" color-interpolation-filters="sRGB">
<feFlood flood-opacity="0" result="BackgroundImageFix"/>
<feColorMatrix in="SourceAlpha" type="matrix" values="0 0 0 0 0 0 0 0 0 0 0 0 0 0 0 0 0 0 127 0" result="hardAlpha"/>
<feMorphology radius="2" operator="dilate" in="SourceAlpha" result="effect1_dropShadow_7397_24555"/>
<feOffset dy="2"/>
<feComposite in2="hardAlpha" operator="out"/>
<feColorMatrix type="matrix" values="0 0 0 0 0.0745098 0 0 0 0 0.0745098 0 0 0 0 0.0941176 0 0 0 1 0"/>
<feBlend mode="normal" in2="BackgroundImageFix" result="effect1_dropShadow_7397_24555"/>
<feBlend mode="normal" in="SourceGraphic" in2="effect1_dropShadow_7397_24555" result="shape"/>
</filter>
<filter id="filter2_d_7397_24555" x="76" y="52" width="93.918" height="101.058" filterUnits="userSpaceOnUse" color-interpolation-filters="sRGB">
<feFlood flood-opacity="0" result="BackgroundImageFix"/>
<feColorMatrix in="SourceAlpha" type="matrix" values="0 0 0 0 0 0 0 0 0 0 0 0 0 0 0 0 0 0 127 0" result="hardAlpha"/>
<feOffset dy="8"/>
<feGaussianBlur stdDeviation="8"/>
<feComposite in2="hardAlpha" operator="out"/>
<feColorMatrix type="matrix" values="0 0 0 0 0.312349 0 0 0 0 0.299233 0 0 0 0 0.955 0 0 0 0.15 0"/>
<feBlend mode="normal" in2="BackgroundImageFix" result="effect1_dropShadow_7397_24555"/>
<feBlend mode="normal" in="SourceGraphic" in2="effect1_dropShadow_7397_24555" result="shape"/>
</filter>
<filter id="filter3_d_7397_24555" x="0" y="186" width="193" height="110" filterUnits="userSpaceOnUse" color-interpolation-filters="sRGB">
<feFlood flood-opacity="0" result="BackgroundImageFix"/>
<feColorMatrix in="SourceAlpha" type="matrix" values="0 0 0 0 0 0 0 0 0 0 0 0 0 0 0 0 0 0 127 0" result="hardAlpha"/>
<feMorphology radius="2" operator="dilate" in="SourceAlpha" result="effect1_dropShadow_7397_24555"/>
<feOffset dy="2"/>
<feComposite in2="hardAlpha" operator="out"/>
<feColorMatrix type="matrix" values="0 0 0 0 0.0745098 0 0 0 0 0.0745098 0 0 0 0 0.0941176 0 0 0 1 0"/>
<feBlend mode="normal" in2="BackgroundImageFix" result="effect1_dropShadow_7397_24555"/>
<feBlend mode="normal" in="SourceGraphic" in2="effect1_dropShadow_7397_24555" result="shape"/>
</filter>
<linearGradient id="paint0_linear_7397_24555" x1="277" y1="159" x2="277" y2="169" gradientUnits="userSpaceOnUse">
<stop stop-color="#6366F1"/>
<stop offset="1" stop-color="#A79FDB"/>
</linearGradient>
<linearGradient id="paint1_linear_7397_24555" x1="128.768" y1="60" x2="128.768" y2="133.536" gradientUnits="userSpaceOnUse">
<stop stop-color="#6366F1"/>
<stop offset="1" stop-color="#A79FDB"/>
</linearGradient>
<linearGradient id="paint2_linear_7397_24555" x1="129" y1="73" x2="129" y2="121" gradientUnits="userSpaceOnUse">
<stop stop-color="#6366F1"/>
<stop offset="1" stop-color="#A79FDB"/>
</linearGradient>
<linearGradient id="paint3_linear_7397_24555" x1="128.768" y1="60" x2="128.768" y2="133.536" gradientUnits="userSpaceOnUse">
<stop stop-color="#6366F1"/>
<stop offset="1" stop-color="#A79FDB"/>
</linearGradient>
<linearGradient id="paint4_linear_7397_24555" x1="100.5" y1="216.012" x2="100.5" y2="274" gradientUnits="userSpaceOnUse">
<stop stop-color="#85BAF8"/>
<stop offset="0.825" stop-color="#CEE9F9" stop-opacity="0.385"/>
<stop offset="1" stop-color="#F2FCFF" stop-opacity="0"/>
</linearGradient>
<clipPath id="clip0_7397_24555">
<rect x="76" y="44" width="106" height="106" rx="12" fill="white"/>
</clipPath>
</defs>
</svg>
