<svg width="142" height="36" viewBox="0 0 142 36" fill="none" xmlns="http://www.w3.org/2000/svg">
<g filter="url(#filter0_d_8333_18125)">
<rect x="2" width="32" height="32" rx="16" fill="white" shape-rendering="crispEdges"/>
<rect x="2.5" y="0.5" width="31" height="31" rx="15.5" stroke="#131318" shape-rendering="crispEdges"/>
<g clip-path="url(#clip0_8333_18125)">
<path d="M22.2106 11.7896H13.7896V20.2106H22.2106V11.7896Z" fill="white"/>
<path d="M22.2106 24L26.0001 20.2105L24.1053 19.8872L22.2106 20.2105L21.8647 21.9436L22.2106 24Z" fill="#EA4335"/>
<path d="M10 20.2105V22.7368C10 23.4347 10.5652 24 11.2631 24H13.7895L14.1786 22.1052L13.7895 20.2105L11.7249 19.8872L10 20.2105Z" fill="#188038"/>
<path d="M26.0001 11.7895V9.26312C26.0001 8.56525 25.4348 8 24.7369 8H22.2106C21.9801 8.93975 21.8648 9.63133 21.8647 10.0747C21.8647 10.5181 21.98 11.0897 22.2106 11.7895C23.0487 12.0295 23.6803 12.1495 24.1053 12.1495C24.5304 12.1495 25.1619 12.0295 26.0001 11.7895Z" fill="#1967D2"/>
<path d="M25.9999 11.7896H22.2104V20.2106H25.9999V11.7896Z" fill="#FBBC04"/>
<path d="M22.2106 20.2104H13.7896V23.9999H22.2106V20.2104Z" fill="#34A853"/>
<path d="M22.2105 8H11.2632C10.5653 8 10 8.56525 10 9.26312V20.2105H13.7895V11.7895H22.2105V8Z" fill="#4285F4"/>
<path d="M15.5169 18.3222C15.2021 18.1096 14.9842 17.7991 14.8652 17.3884L15.5958 17.0874C15.662 17.3401 15.7778 17.5358 15.9432 17.6748C16.1074 17.8137 16.3074 17.8822 16.541 17.8822C16.78 17.8822 16.9852 17.8095 17.1568 17.6642C17.3284 17.519 17.4147 17.3337 17.4147 17.1096C17.4147 16.8801 17.3242 16.6927 17.1432 16.5474C16.9621 16.4022 16.7347 16.3296 16.4632 16.3296H16.041V15.6064H16.42C16.6537 15.6064 16.8505 15.5432 17.0105 15.4169C17.1705 15.2906 17.2505 15.1179 17.2505 14.8979C17.2505 14.7022 17.1789 14.5464 17.0358 14.4296C16.8927 14.3127 16.7115 14.2537 16.4915 14.2537C16.2768 14.2537 16.1063 14.3106 15.98 14.4253C15.8537 14.5403 15.7588 14.6856 15.7042 14.8474L14.981 14.5464C15.0768 14.2748 15.2526 14.0348 15.5105 13.8274C15.7684 13.6201 16.0979 13.5159 16.4979 13.5159C16.7937 13.5159 17.06 13.5727 17.2958 13.6874C17.5315 13.8022 17.7168 13.9611 17.8505 14.1632C17.9842 14.3664 18.0505 14.5937 18.0505 14.8464C18.0505 15.1042 17.9884 15.3222 17.8642 15.5011C17.74 15.6801 17.5874 15.8169 17.4063 15.9127V15.9558C17.6401 16.0522 17.8432 16.2105 17.9937 16.4137C18.1463 16.619 18.2232 16.8642 18.2232 17.1506C18.2232 17.4369 18.1505 17.6927 18.0052 17.9169C17.86 18.1411 17.659 18.3179 17.4042 18.4464C17.1484 18.5748 16.861 18.6401 16.5421 18.6401C16.1726 18.6411 15.8316 18.5348 15.5169 18.3222ZM20.0041 14.6969L19.202 15.2769L18.801 14.6685L20.2399 13.6306H20.7915V18.5264H20.0041V14.6969Z" fill="#4285F4"/>
</g>
</g>
<g filter="url(#filter1_d_8333_18125)">
<rect x="28" width="33.1381" height="32" rx="16" fill="white" shape-rendering="crispEdges"/>
<rect x="28.5" y="0.5" width="32.1381" height="31" rx="15.5" stroke="#131318" shape-rendering="crispEdges"/>
<g clip-path="url(#clip1_8333_18125)">
<path d="M47.954 13.9784H52.3808C52.7991 13.9784 53.1381 14.3175 53.1381 14.7357V18.7679C53.1381 20.305 51.892 21.5511 50.3549 21.5511H50.3418C48.8047 21.5513 47.5584 20.3054 47.5582 18.7683V14.3742C47.5582 14.3223 47.5684 14.2708 47.5883 14.2227C47.6082 14.1747 47.6373 14.1311 47.6741 14.0943C47.7108 14.0575 47.7545 14.0284 47.8025 14.0085C47.8505 13.9886 47.902 13.9784 47.954 13.9784Z" fill="#5059C9"/>
<path d="M50.946 13.1813C51.9366 13.1813 52.7395 12.3783 52.7395 11.3878C52.7395 10.3972 51.9366 9.59424 50.946 9.59424C49.9555 9.59424 49.1525 10.3972 49.1525 11.3878C49.1525 12.3783 49.9555 13.1813 50.946 13.1813Z" fill="#5059C9"/>
<path d="M45.3662 13.1813C46.797 13.1813 47.9568 12.0214 47.9568 10.5907C47.9568 9.15988 46.797 8 45.3662 8C43.9354 8 42.7755 9.15988 42.7755 10.5907C42.7755 12.0214 43.9354 13.1813 45.3662 13.1813Z" fill="#7B83EB"/>
<path d="M48.8205 13.9784H41.5133C41.1001 13.9886 40.7732 14.3316 40.7827 14.7449V19.3438C40.725 21.8237 42.687 23.8817 45.1669 23.9424C47.6467 23.8817 49.6087 21.8237 49.5511 19.3438V14.7449C49.5606 14.3316 49.2337 13.9886 48.8205 13.9784Z" fill="#7B83EB"/>
<path opacity="0.1" d="M45.5655 13.9784V20.4231C45.5645 20.5677 45.5209 20.7087 45.44 20.8286C45.3592 20.9484 45.2448 21.0417 45.1111 21.0967C45.0241 21.1335 44.9306 21.1525 44.8361 21.1525H41.1334C41.0816 21.0209 41.0338 20.8894 40.9939 20.754C40.8544 20.2966 40.7832 19.8212 40.7827 19.343V14.7436C40.7731 14.3311 41.0995 13.9886 41.512 13.9785L45.5655 13.9784Z" fill="black"/>
<path opacity="0.2" d="M45.1669 13.9784V20.8217C45.1669 20.9162 45.1479 21.0097 45.1111 21.0967C45.0561 21.2304 44.9628 21.3448 44.8429 21.4257C44.7231 21.5065 44.582 21.5501 44.4375 21.5511H41.3208C41.2531 21.4195 41.1893 21.288 41.1335 21.1525C41.0799 21.0222 41.0334 20.8892 40.994 20.754C40.8545 20.2966 40.7833 19.8212 40.7828 19.343V14.7436C40.7732 14.3311 41.0996 13.9886 41.5122 13.9785L45.1669 13.9784Z" fill="black"/>
<path opacity="0.2" d="M45.1668 13.9784V20.0246C45.1638 20.4261 44.839 20.7509 44.4374 20.754H40.9939C40.8544 20.2966 40.7832 19.8212 40.7827 19.343V14.7436C40.7731 14.3311 41.0995 13.9886 41.512 13.9785L45.1668 13.9784Z" fill="black"/>
<path opacity="0.2" d="M44.7683 13.9784V20.0246C44.7652 20.4261 44.4404 20.7509 44.0389 20.754H40.9939C40.8544 20.2966 40.7832 19.8212 40.7827 19.343V14.7436C40.7731 14.3311 41.0995 13.9886 41.512 13.9785L44.7683 13.9784Z" fill="black"/>
<path opacity="0.1" d="M45.5655 11.9178V13.1733C45.4977 13.1773 45.4339 13.1813 45.3662 13.1813C45.2984 13.1813 45.2346 13.1773 45.1669 13.1733C45.0324 13.1644 44.899 13.143 44.7684 13.1095C44.3705 13.0153 44.0005 12.8282 43.6888 12.5636C43.3771 12.299 43.1324 11.9644 42.9748 11.5871C42.9198 11.4585 42.8771 11.3251 42.8473 11.1885H44.8361C45.2383 11.19 45.5639 11.5156 45.5655 11.9178Z" fill="black"/>
<path opacity="0.2" d="M45.1669 12.3163V13.1732C45.0323 13.1643 44.8989 13.143 44.7683 13.1095C44.3705 13.0153 44.0005 12.8282 43.6888 12.5636C43.3771 12.299 43.1324 11.9643 42.9749 11.587H44.4375C44.8397 11.5885 45.1653 11.9142 45.1669 12.3163Z" fill="black"/>
<path opacity="0.2" d="M45.1669 12.3163V13.1732C45.0323 13.1643 44.8989 13.143 44.7683 13.1095C44.3705 13.0153 44.0005 12.8282 43.6888 12.5636C43.3771 12.299 43.1324 11.9643 42.9749 11.587H44.4375C44.8397 11.5885 45.1653 11.9142 45.1669 12.3163Z" fill="black"/>
<path opacity="0.2" d="M44.7684 12.3164V13.1096C44.3705 13.0153 44.0006 12.8283 43.6888 12.5636C43.3771 12.299 43.1324 11.9643 42.9749 11.587H44.039C44.4412 11.5886 44.7669 11.9143 44.7684 12.3164Z" fill="black"/>
<path d="M36.7306 11.587H44.0377C44.4412 11.587 44.7683 11.9141 44.7683 12.3176V19.6247C44.7683 20.0282 44.4412 20.3553 44.0378 20.3553H36.7306C36.3271 20.3553 36 20.0282 36 19.6247V12.3176C36 11.914 36.3271 11.587 36.7306 11.587Z" fill="url(#paint0_linear_8333_18125)"/>
<path d="M42.3068 14.3682H40.8461V18.3458H39.9155V14.3682H38.4615V13.5966H42.3068V14.3682Z" fill="white"/>
</g>
</g>
<g filter="url(#filter2_d_8333_18125)">
<rect x="55.1381" width="32" height="32" rx="16" fill="white" shape-rendering="crispEdges"/>
<rect x="55.6381" y="0.5" width="31" height="31" rx="15.5" stroke="#131318" shape-rendering="crispEdges"/>
<path fill-rule="evenodd" clip-rule="evenodd" d="M70.4914 21.6467L65.0447 16.42C64.588 15.938 64.158 14.7174 64.788 14.1267C64.9594 13.966 65.2467 13.7 65.592 13.3794C66.4847 12.5507 67.7714 11.3567 68.4847 10.668C69.1514 10.0254 69.972 9.80268 70.7647 10.5174C71.4136 11.1062 72.0507 11.7076 72.676 12.3214L71.1567 16.6214L69.712 17.9714L71.1854 19.4147L70.4914 21.6467ZM66.7514 15.102L69.754 12.3134L71.184 13.7147L68.2174 16.5334L66.7514 15.102Z" fill="#3BEBAA"/>
<path fill-rule="evenodd" clip-rule="evenodd" d="M69.6608 15.1633L72.6221 18.032L70.4534 20.0887C70.1914 20.3493 69.8248 21.0267 70.4534 21.6467C71.0808 22.2673 71.8394 21.71 72.1401 21.3533L77.2728 16.3993C77.6061 16.0127 78.2074 14.8753 77.4074 14.0853C76.6497 13.3441 75.8802 12.6149 75.0994 11.898C74.7214 11.5953 73.6948 11.2567 72.6168 12.3227C71.6445 13.283 70.6591 14.23 69.6608 15.1633ZM72.6714 15.1647L74.1508 16.6133L75.6181 15.24L74.0921 13.8L72.6714 15.1647Z" fill="#02BCE4"/>
<path d="M72.6741 15.16L71.1661 16.5953L69.6594 15.16L71.1661 13.73L72.6741 15.16Z" fill="#01A5E2"/>
</g>
<g filter="url(#filter3_d_8333_18125)">
<rect x="81.1381" width="32" height="32" rx="16" fill="white" shape-rendering="crispEdges"/>
<rect x="81.6381" y="0.5" width="31" height="31" rx="15.5" stroke="#131318" shape-rendering="crispEdges"/>
<g clip-path="url(#clip2_8333_18125)">
<path d="M102.838 10.75H98.2381L97.1881 12.85H91.2881V21.25H103.888V10.75H102.838ZM102.838 20.1H92.4381V13.9H102.838V20.1ZM102.838 12.85H98.7381L99.2381 11.8H102.788V12.85H102.838Z" fill="#BFDB7B"/>
<path d="M101.988 14.85H89.3881L91.2881 21.25H103.888L101.988 14.85Z" fill="#BFDB7B"/>
<path d="M103.025 23.5381C102.779 23.5383 102.54 23.4671 102.335 23.333C102.129 23.199 101.968 23.008 101.87 22.7835C101.772 22.559 101.741 22.3107 101.782 22.0691C101.823 21.8275 101.934 21.6032 102.101 21.4236L101.266 20.1536C100.966 20.3017 100.635 20.3767 100.301 20.3724C99.9664 20.368 99.6378 20.2845 99.342 20.1286L98.511 21.0136C98.6316 21.2371 98.6695 21.496 98.6181 21.7448C98.5668 21.9936 98.4294 22.2163 98.2302 22.3739C98.031 22.5314 97.7826 22.6138 97.5287 22.6064C97.2748 22.5991 97.0316 22.5025 96.8418 22.3337C96.652 22.1648 96.5278 21.9345 96.4909 21.6832C96.454 21.4319 96.5069 21.1756 96.6402 20.9594C96.7735 20.7432 96.9787 20.5808 97.2198 20.5008C97.4609 20.4208 97.7224 20.4284 97.9585 20.5221L98.755 19.6721C98.4001 19.2816 98.2039 18.7727 98.205 18.2451C98.205 18.1763 98.2085 18.1075 98.2155 18.0391L96.3155 17.4561C96.1291 17.6872 95.8669 17.8449 95.5754 17.9014C95.2838 17.9579 94.9817 17.9094 94.7225 17.7647C94.4632 17.6199 94.2635 17.3881 94.1586 17.1103C94.0537 16.8325 94.0505 16.5265 94.1494 16.2465C94.2484 15.9666 94.4431 15.7306 94.6993 15.5803C94.9554 15.4301 95.2564 15.3753 95.5491 15.4255C95.8417 15.4758 96.1072 15.6279 96.2985 15.8551C96.4898 16.0822 96.5947 16.3696 96.5945 16.6666C96.5945 16.7001 96.5945 16.7336 96.59 16.7666L98.413 17.3261C98.5582 17.0211 98.7743 16.7553 99.0433 16.5509C99.3123 16.3466 99.6263 16.2096 99.959 16.1516V14.9611C99.7334 14.8747 99.5451 14.712 99.4269 14.5012C99.3087 14.2905 99.2681 14.045 99.312 13.8074C99.3559 13.5698 99.4817 13.3551 99.6674 13.2006C99.8532 13.046 100.087 12.9614 100.329 12.9614C100.57 12.9614 100.804 13.046 100.99 13.2006C101.176 13.3551 101.302 13.5698 101.346 13.8074C101.389 14.045 101.349 14.2905 101.231 14.5012C101.112 14.712 100.924 14.8747 100.699 14.9611V16.1541C101.181 16.2392 101.619 16.4886 101.938 16.8601L102.902 16.2791C102.897 16.2416 102.895 16.2038 102.895 16.1661C102.895 15.9874 102.948 15.8128 103.047 15.6643C103.146 15.5158 103.287 15.4001 103.452 15.3317C103.618 15.2634 103.799 15.2456 103.974 15.2804C104.15 15.3153 104.311 15.4014 104.437 15.5277C104.563 15.654 104.649 15.815 104.684 15.9902C104.719 16.1654 104.701 16.347 104.633 16.5121C104.565 16.6772 104.449 16.8183 104.3 16.9176C104.152 17.0169 103.977 17.07 103.799 17.0701C103.616 17.0701 103.437 17.0144 103.287 16.9106L102.318 17.4961C102.409 17.7356 102.456 17.9898 102.456 18.2461V18.2641L102.984 18.3556C103.11 18.1917 103.288 18.0758 103.489 18.0274C103.689 17.9789 103.901 18.0007 104.087 18.0893C104.274 18.1778 104.425 18.3276 104.514 18.5138C104.604 18.7 104.627 18.9112 104.579 19.1122C104.532 19.3133 104.417 19.4921 104.254 19.6187C104.091 19.7453 103.889 19.8121 103.683 19.808C103.476 19.8039 103.277 19.7291 103.119 19.596C102.961 19.463 102.853 19.2798 102.814 19.0771L102.321 18.9911C102.219 19.2604 102.064 19.5066 101.866 19.7151L102.742 21.0501C102.914 21.01 103.094 21.0069 103.268 21.0411C103.442 21.0752 103.607 21.1458 103.752 21.2483C103.897 21.3507 104.019 21.4826 104.11 21.6353C104.2 21.7881 104.257 21.9582 104.277 22.1346C104.297 22.311 104.28 22.4897 104.226 22.6588C104.172 22.828 104.083 22.9839 103.965 23.1163C103.847 23.2486 103.702 23.3545 103.54 23.427C103.378 23.4994 103.202 23.5367 103.025 23.5366V23.5381Z" fill="white"/>
<path d="M103.699 18.0645C103.564 18.0645 103.43 18.0973 103.31 18.1601C103.19 18.2228 103.087 18.3137 103.01 18.425L102.39 18.3175V18.2475C102.39 17.9806 102.338 17.7164 102.237 17.4695L103.287 16.836C103.443 16.9546 103.635 17.015 103.831 17.0067C104.027 16.9984 104.214 16.922 104.36 16.7905C104.506 16.6591 104.601 16.4809 104.629 16.2868C104.657 16.0927 104.617 15.8948 104.515 15.7273C104.413 15.5598 104.255 15.4331 104.07 15.3693C103.884 15.3055 103.682 15.3084 103.499 15.3776C103.315 15.4468 103.162 15.5779 103.064 15.7483C102.967 15.9188 102.933 16.1177 102.967 16.311L101.922 16.9415C101.599 16.5468 101.142 16.2853 100.638 16.2075V14.9175C100.857 14.8445 101.042 14.696 101.162 14.4986C101.281 14.3012 101.326 14.0678 101.289 13.8401C101.252 13.6125 101.136 13.4054 100.96 13.2559C100.784 13.1065 100.561 13.0244 100.331 13.0244C100.1 13.0244 99.8767 13.1065 99.701 13.2559C99.5253 13.4054 99.4086 13.6125 99.3716 13.8401C99.3346 14.0678 99.3798 14.3012 99.4992 14.4986C99.6185 14.696 99.8042 14.8445 100.023 14.9175V16.2075C99.6815 16.2598 99.3586 16.3967 99.0835 16.6058C98.8085 16.8148 98.5902 17.0894 98.4485 17.4045L96.5245 16.8135C96.5599 16.525 96.4892 16.2335 96.3255 15.9933C96.1619 15.7531 95.9165 15.5806 95.635 15.508C95.3536 15.4354 95.0554 15.4677 94.796 15.5987C94.5365 15.7298 94.3336 15.9507 94.2251 16.2203C94.1165 16.4899 94.1097 16.7898 94.206 17.0641C94.3022 17.3383 94.4949 17.5682 94.7481 17.7109C95.0013 17.8535 95.2978 17.8992 95.5822 17.8395C95.8667 17.7797 96.1196 17.6185 96.294 17.386L98.2835 17.997C98.2457 18.3006 98.2763 18.6089 98.3731 18.8991C98.4699 19.1894 98.6305 19.4543 98.843 19.6745L97.9765 20.597C97.754 20.498 97.5034 20.4818 97.27 20.5515C97.0367 20.6212 96.8359 20.7721 96.7041 20.9769C96.5723 21.1817 96.5181 21.4269 96.5514 21.6681C96.5846 21.9094 96.7031 22.1308 96.8854 22.2923C97.0677 22.4538 97.3018 22.5448 97.5453 22.5487C97.7888 22.5527 98.0257 22.4694 98.2131 22.3139C98.4006 22.1583 98.5262 21.9409 98.5672 21.7008C98.6083 21.4608 98.5621 21.2139 98.437 21.005L99.33 20.05C99.6288 20.2161 99.9642 20.305 100.306 20.3088C100.648 20.3125 100.985 20.231 101.288 20.0715L102.181 21.43C101.976 21.6349 101.852 21.9076 101.833 22.1972C101.813 22.4867 101.9 22.7734 102.077 23.0036C102.253 23.2339 102.508 23.3921 102.792 23.4487C103.077 23.5053 103.372 23.4565 103.624 23.3113C103.875 23.1661 104.065 22.9345 104.158 22.6596C104.251 22.3848 104.241 22.0855 104.129 21.8175C104.018 21.5495 103.813 21.3312 103.553 21.2032C103.292 21.0752 102.994 21.0464 102.714 21.122L101.784 19.707C102.006 19.4861 102.176 19.217 102.278 18.9205L102.867 19.0205C102.89 19.1801 102.958 19.3299 103.063 19.4519C103.169 19.5739 103.307 19.6631 103.462 19.7087C103.617 19.7543 103.781 19.7544 103.936 19.7091C104.091 19.6638 104.229 19.5749 104.335 19.4531C104.441 19.3313 104.509 19.1817 104.532 19.022C104.555 18.8624 104.532 18.6995 104.465 18.5528C104.398 18.4061 104.29 18.2817 104.154 18.1945C104.019 18.1073 103.861 18.0609 103.7 18.061L103.699 18.0645Z" fill="#486600"/>
</g>
</g>
<g filter="url(#filter4_d_8333_18125)">
<rect x="107.138" width="32" height="32" rx="16" fill="white" shape-rendering="crispEdges"/>
<rect x="107.638" y="0.5" width="31" height="31" rx="15.5" stroke="#131318" shape-rendering="crispEdges"/>
<g clip-path="url(#clip3_8333_18125)">
<path d="M127.388 8H118.888C116.817 8 115.138 9.67893 115.138 11.75V20.25C115.138 22.3211 116.817 24 118.888 24H127.388C129.459 24 131.138 22.3211 131.138 20.25V11.75C131.138 9.67893 129.459 8 127.388 8Z" fill="white"/>
<path d="M127.388 8H118.888C116.817 8 115.138 9.67893 115.138 11.75V20.25C115.138 22.3211 116.817 24 118.888 24H127.388C129.459 24 131.138 22.3211 131.138 20.25V11.75C131.138 9.67893 129.459 8 127.388 8Z" fill="#0A66C2"/>
<path d="M126.683 21.6053H128.512C128.578 21.6053 128.642 21.579 128.689 21.5321C128.736 21.4852 128.762 21.4217 128.762 21.3554L128.763 17.4902C128.763 15.4701 128.328 13.9173 125.967 13.9173C125.069 13.8839 124.223 14.3465 123.766 15.119C123.764 15.1228 123.761 15.1257 123.757 15.1273C123.753 15.129 123.748 15.1292 123.744 15.1281C123.74 15.1269 123.736 15.1245 123.733 15.121C123.731 15.1175 123.729 15.1133 123.729 15.1089V14.3538C123.729 14.2874 123.703 14.2239 123.656 14.177C123.609 14.1301 123.546 14.1038 123.479 14.1038H121.743C121.677 14.1038 121.613 14.1301 121.566 14.177C121.52 14.2239 121.493 14.2874 121.493 14.3538V21.355C121.493 21.4213 121.52 21.4849 121.566 21.5318C121.613 21.5787 121.677 21.605 121.743 21.605H123.572C123.639 21.605 123.702 21.5787 123.749 21.5318C123.796 21.4849 123.822 21.4213 123.822 21.355V17.8942C123.822 16.9156 124.008 15.9679 125.221 15.9679C126.417 15.9679 126.433 17.0877 126.433 17.9576V21.3553C126.433 21.4216 126.459 21.4852 126.506 21.5321C126.553 21.579 126.616 21.6053 126.683 21.6053ZM117.513 11.7267C117.513 12.4682 118.123 13.0784 118.865 13.0784C119.606 13.0783 120.216 12.4678 120.216 11.7264C120.216 10.9851 119.606 10.375 118.865 10.375C118.123 10.375 117.513 10.9852 117.513 11.7267ZM117.948 21.6053H119.78C119.846 21.6053 119.91 21.579 119.956 21.5321C120.003 21.4852 120.03 21.4216 120.03 21.3553V14.3538C120.03 14.2874 120.003 14.2239 119.956 14.177C119.91 14.1301 119.846 14.1038 119.78 14.1038H117.948C117.882 14.1038 117.818 14.1301 117.771 14.177C117.724 14.2239 117.698 14.2874 117.698 14.3538V21.3553C117.698 21.4216 117.724 21.4852 117.771 21.5321C117.818 21.579 117.882 21.6053 117.948 21.6053Z" fill="white"/>
</g>
</g>
<defs>
<filter id="filter0_d_8333_18125" x="0" y="0" width="36" height="36" filterUnits="userSpaceOnUse" color-interpolation-filters="sRGB">
<feFlood flood-opacity="0" result="BackgroundImageFix"/>
<feColorMatrix in="SourceAlpha" type="matrix" values="0 0 0 0 0 0 0 0 0 0 0 0 0 0 0 0 0 0 127 0" result="hardAlpha"/>
<feMorphology radius="2" operator="dilate" in="SourceAlpha" result="effect1_dropShadow_8333_18125"/>
<feOffset dy="2"/>
<feComposite in2="hardAlpha" operator="out"/>
<feColorMatrix type="matrix" values="0 0 0 0 0.862745 0 0 0 0 0.796078 0 0 0 0 1 0 0 0 1 0"/>
<feBlend mode="normal" in2="BackgroundImageFix" result="effect1_dropShadow_8333_18125"/>
<feBlend mode="normal" in="SourceGraphic" in2="effect1_dropShadow_8333_18125" result="shape"/>
</filter>
<filter id="filter1_d_8333_18125" x="26" y="0" width="37.1381" height="36" filterUnits="userSpaceOnUse" color-interpolation-filters="sRGB">
<feFlood flood-opacity="0" result="BackgroundImageFix"/>
<feColorMatrix in="SourceAlpha" type="matrix" values="0 0 0 0 0 0 0 0 0 0 0 0 0 0 0 0 0 0 127 0" result="hardAlpha"/>
<feMorphology radius="2" operator="dilate" in="SourceAlpha" result="effect1_dropShadow_8333_18125"/>
<feOffset dy="2"/>
<feComposite in2="hardAlpha" operator="out"/>
<feColorMatrix type="matrix" values="0 0 0 0 0.862745 0 0 0 0 0.796078 0 0 0 0 1 0 0 0 1 0"/>
<feBlend mode="normal" in2="BackgroundImageFix" result="effect1_dropShadow_8333_18125"/>
<feBlend mode="normal" in="SourceGraphic" in2="effect1_dropShadow_8333_18125" result="shape"/>
</filter>
<filter id="filter2_d_8333_18125" x="53.1381" y="0" width="36" height="36" filterUnits="userSpaceOnUse" color-interpolation-filters="sRGB">
<feFlood flood-opacity="0" result="BackgroundImageFix"/>
<feColorMatrix in="SourceAlpha" type="matrix" values="0 0 0 0 0 0 0 0 0 0 0 0 0 0 0 0 0 0 127 0" result="hardAlpha"/>
<feMorphology radius="2" operator="dilate" in="SourceAlpha" result="effect1_dropShadow_8333_18125"/>
<feOffset dy="2"/>
<feComposite in2="hardAlpha" operator="out"/>
<feColorMatrix type="matrix" values="0 0 0 0 0.862745 0 0 0 0 0.796078 0 0 0 0 1 0 0 0 1 0"/>
<feBlend mode="normal" in2="BackgroundImageFix" result="effect1_dropShadow_8333_18125"/>
<feBlend mode="normal" in="SourceGraphic" in2="effect1_dropShadow_8333_18125" result="shape"/>
</filter>
<filter id="filter3_d_8333_18125" x="79.1381" y="0" width="36" height="36" filterUnits="userSpaceOnUse" color-interpolation-filters="sRGB">
<feFlood flood-opacity="0" result="BackgroundImageFix"/>
<feColorMatrix in="SourceAlpha" type="matrix" values="0 0 0 0 0 0 0 0 0 0 0 0 0 0 0 0 0 0 127 0" result="hardAlpha"/>
<feMorphology radius="2" operator="dilate" in="SourceAlpha" result="effect1_dropShadow_8333_18125"/>
<feOffset dy="2"/>
<feComposite in2="hardAlpha" operator="out"/>
<feColorMatrix type="matrix" values="0 0 0 0 0.862745 0 0 0 0 0.796078 0 0 0 0 1 0 0 0 1 0"/>
<feBlend mode="normal" in2="BackgroundImageFix" result="effect1_dropShadow_8333_18125"/>
<feBlend mode="normal" in="SourceGraphic" in2="effect1_dropShadow_8333_18125" result="shape"/>
</filter>
<filter id="filter4_d_8333_18125" x="105.138" y="0" width="36" height="36" filterUnits="userSpaceOnUse" color-interpolation-filters="sRGB">
<feFlood flood-opacity="0" result="BackgroundImageFix"/>
<feColorMatrix in="SourceAlpha" type="matrix" values="0 0 0 0 0 0 0 0 0 0 0 0 0 0 0 0 0 0 127 0" result="hardAlpha"/>
<feMorphology radius="2" operator="dilate" in="SourceAlpha" result="effect1_dropShadow_8333_18125"/>
<feOffset dy="2"/>
<feComposite in2="hardAlpha" operator="out"/>
<feColorMatrix type="matrix" values="0 0 0 0 0.862745 0 0 0 0 0.796078 0 0 0 0 1 0 0 0 1 0"/>
<feBlend mode="normal" in2="BackgroundImageFix" result="effect1_dropShadow_8333_18125"/>
<feBlend mode="normal" in="SourceGraphic" in2="effect1_dropShadow_8333_18125" result="shape"/>
</filter>
<linearGradient id="paint0_linear_8333_18125" x1="188.323" y1="-45.4954" x2="760.516" y2="945.506" gradientUnits="userSpaceOnUse">
<stop stop-color="#5A62C3"/>
<stop offset="0.5" stop-color="#4D55BD"/>
<stop offset="1" stop-color="#3940AB"/>
</linearGradient>
<clipPath id="clip0_8333_18125">
<rect width="16" height="16" fill="white" transform="translate(10 8)"/>
</clipPath>
<clipPath id="clip1_8333_18125">
<rect width="17.1381" height="16" fill="white" transform="translate(36 8)"/>
</clipPath>
<clipPath id="clip2_8333_18125">
<rect width="16" height="16" fill="white" transform="translate(89.1381 8)"/>
</clipPath>
<clipPath id="clip3_8333_18125">
<rect width="16" height="16" fill="white" transform="translate(115.138 8)"/>
</clipPath>
</defs>
</svg>
