<svg width="86" height="17" viewBox="0 0 86 17" fill="none" xmlns="http://www.w3.org/2000/svg">
<path d="M2.75294 9.84255C2.03644 9.42672 1.1185 9.67045 0.702664 10.3869C0.286826 11.1034 0.53056 12.0214 1.24706 12.4372L2.75294 9.84255ZM11.7113 14.1374L12.0301 15.6031L11.7113 14.1374ZM19.6334 11.0592L20.038 12.5036L19.6334 11.0592ZM26.9198 9.90325L27.0747 8.41127L26.9198 9.90325ZM30.204 13.3578L31.6083 12.8307L30.204 13.3578ZM31.8049 15.3068L31.8663 13.8081L31.8049 15.3068ZM39.6328 12.7529L39.0231 11.3824L39.6328 12.7529ZM81.8328 16.7924C82.6533 16.9069 83.4112 16.3346 83.5257 15.5141L85.3911 2.14358C85.5056 1.3231 84.9332 0.56517 84.1127 0.450697C83.2923 0.336226 82.5343 0.908558 82.4199 1.72904L80.7617 13.6139L68.8768 11.9558C68.0563 11.8413 67.2984 12.4136 67.1839 13.2341C67.0695 14.0546 67.6418 14.8125 68.4623 14.927L81.8328 16.7924ZM1.24706 12.4372C4.23897 14.1737 7.62536 16.5612 12.0301 15.6031L11.3925 12.6717C8.37479 13.328 6.14161 11.8093 2.75294 9.84255L1.24706 12.4372ZM12.0301 15.6031C13.5701 15.2682 15.0135 14.619 16.3064 14.0226C17.6495 13.4031 18.828 12.8426 20.038 12.5036L19.2287 9.61484C17.7368 10.0328 16.3131 10.7158 15.0499 11.2984C13.7367 11.9041 12.57 12.4155 11.3925 12.6717L12.0301 15.6031ZM20.038 12.5036C22.362 11.8526 24.7665 11.1878 26.7649 11.3952L27.0747 8.41127C24.3919 8.13277 21.3879 9.00998 19.2287 9.61484L20.038 12.5036ZM26.7649 11.3952C27.5211 11.4737 28.1557 12.1692 28.7996 13.8848L31.6083 12.8307C30.9884 11.179 29.7994 8.69412 27.0747 8.41127L26.7649 11.3952ZM28.7996 13.8848C28.8873 14.1183 28.9212 14.2425 29.0304 14.5517C29.117 14.7971 29.2396 15.1197 29.4245 15.4319C29.617 15.7569 29.8993 16.1099 30.325 16.3807C30.7567 16.6553 31.241 16.785 31.7435 16.8056L31.8663 13.8081C31.8066 13.8056 31.8538 13.7977 31.9351 13.8494C32.0103 13.8972 32.0288 13.9421 32.0057 13.9031C31.975 13.8512 31.9302 13.754 31.8593 13.553C31.8243 13.454 31.7918 13.3558 31.7489 13.2291C31.7085 13.1095 31.6615 12.9724 31.6083 12.8307L28.7996 13.8848ZM31.7435 16.8056C33.3535 16.8715 34.9639 16.4013 36.3715 15.8529C37.7497 15.316 39.194 14.5898 40.2425 14.1234L39.0231 11.3824C37.7609 11.9439 36.5909 12.5478 35.2825 13.0576C34.0036 13.5558 32.8554 13.8486 31.8663 13.8081L31.7435 16.8056ZM40.2425 14.1234C46.987 11.1231 54.4908 8.06555 61.6758 7.56946C68.741 7.08165 75.4489 9.06739 80.843 16.2107L83.2371 14.4029C77.1312 6.31699 69.3668 4.0313 61.4691 4.57659C53.6912 5.11361 45.7413 8.39376 39.0231 11.3824L40.2425 14.1234Z" fill="white"/>
</svg>
