<svg width="136" height="40" viewBox="0 0 136 40" fill="none" xmlns="http://www.w3.org/2000/svg">
<rect width="136" height="40" rx="20" fill="#111827"/>
<g clip-path="url(#clip0_7357_16826)">
<path fill-rule="evenodd" clip-rule="evenodd" d="M30.7728 22.3796C30.754 22.2683 30.7399 22.1583 30.7308 22.0483C30.717 21.8833 30.7255 21.7171 30.7206 21.5521C30.7185 21.4821 30.7101 21.2996 30.7135 21.2733C30.7441 21.0446 30.9287 21.0096 30.9827 21.0033C31.0089 20.9996 31.2771 20.9696 31.335 21.2671C31.406 21.6308 31.4288 21.9971 31.4036 22.3558C31.4623 22.6608 31.5625 22.9646 31.6949 23.2396C32.2216 24.3333 33.2254 24.4396 34.3129 24.4296C34.4801 24.4271 34.619 24.5583 34.6278 24.7246C34.6365 24.8921 34.512 25.0371 34.3455 25.0521C33.7376 25.1108 32.6591 25.5983 32.2862 26.1058C32.2082 26.2121 32.1629 26.4683 32.1029 26.7196C32.0191 27.0683 31.9195 27.4133 31.8079 27.5583C31.7911 27.5808 31.5875 27.8108 31.5267 27.8446C31.3807 27.9246 31.2639 27.8783 31.1975 27.8358C31.1311 27.7933 31.056 27.7096 31.026 27.5708C30.9946 27.4258 31.0211 27.1283 31.0163 27.0646C30.9985 26.8333 30.9523 26.3796 30.8579 25.9896C30.807 25.7796 30.7528 25.5858 30.663 25.4896C30.3308 25.1333 29.7995 25.1858 29.3521 25.2446C29.3008 25.2508 29.2494 25.2583 29.1981 25.2646C29.016 25.3183 28.8226 25.3583 28.6182 25.3821C28.3096 25.4183 28.2589 25.1346 28.2561 25.1158C28.2504 25.0746 28.229 24.8621 28.4616 24.7771C28.487 24.7683 28.6743 24.7271 28.7464 24.7108C28.8469 24.6883 28.9485 24.6708 29.0505 24.6546C30.1041 24.3271 30.6764 23.4071 30.7728 22.3796ZM31.1344 23.5158C31.5321 24.3383 32.1357 24.7358 32.8512 24.9158H32.8511C32.4044 25.1496 31.998 25.4421 31.7826 25.7358C31.7009 25.8471 31.6259 26.0708 31.5583 26.3221C31.5216 26.0883 31.4721 25.8396 31.4068 25.6271C31.3324 25.3846 31.2322 25.1833 31.1205 25.0633C30.9047 24.8321 30.634 24.7033 30.3429 24.6396C30.6914 24.3308 30.9556 23.9458 31.1344 23.5158Z" fill="white"/>
</g>
<path fill-rule="evenodd" clip-rule="evenodd" d="M21.8918 13.7899C21.8572 13.585 21.8312 13.3824 21.8144 13.1798C21.7891 12.8758 21.8047 12.5695 21.7958 12.2656C21.7918 12.1366 21.7764 11.8005 21.7826 11.7521C21.839 11.3307 22.1791 11.2662 22.2786 11.2547C22.3267 11.2478 22.8209 11.1926 22.9275 11.7406C23.0583 12.4107 23.1002 13.0853 23.0539 13.7462C23.1619 14.308 23.3466 14.8676 23.5904 15.3741C24.5608 17.3889 26.4098 17.5847 28.4131 17.5663C28.7211 17.5616 28.977 17.8034 28.9931 18.1097C29.0092 18.4182 28.7799 18.6853 28.4732 18.713C27.3534 18.8212 25.3667 19.7192 24.6798 20.6541C24.5361 20.8498 24.4525 21.3219 24.342 21.7847C24.1877 22.4271 24.0042 23.0626 23.7986 23.3297C23.7677 23.3712 23.3926 23.7949 23.2807 23.8571C23.0118 24.0044 22.7965 23.9192 22.6742 23.8409C22.5519 23.7626 22.4136 23.6084 22.3583 23.3528C22.3005 23.0857 22.3493 22.5376 22.3403 22.4202C22.3076 21.9942 22.2224 21.1584 22.0486 20.4399C21.9549 20.0531 21.8549 19.6962 21.6896 19.5189C21.0776 18.8626 20.0989 18.9594 19.2748 19.0676C19.1802 19.0791 19.0856 19.0929 18.9912 19.1044C18.6557 19.2034 18.2994 19.2771 17.923 19.3209C17.3544 19.3876 17.261 18.8649 17.2559 18.8304C17.2453 18.7544 17.2059 18.363 17.6344 18.2064C17.6812 18.1903 18.0261 18.1143 18.159 18.0843C18.3441 18.0429 18.5313 18.0107 18.7192 17.9807C20.6601 17.3774 21.7142 15.6827 21.8918 13.7899ZM22.5579 15.883C23.2906 17.3982 24.4026 18.1304 25.7206 18.462H25.7204C24.8974 18.8926 24.1488 19.4314 23.7521 19.9725C23.6015 20.1775 23.4633 20.5896 23.3387 21.0524C23.2713 20.6219 23.1801 20.1636 23.0597 19.7722C22.9227 19.3255 22.7382 18.9548 22.5324 18.7337C22.1349 18.3077 21.6362 18.0705 21.0999 17.9531C21.7419 17.3844 22.2287 16.6752 22.5579 15.883Z" fill="white"/>
<path d="M49.616 22.504C50 23.544 50.368 24.328 50.8 24.952V25H47.488V24.936C47.584 24.632 47.712 23.528 47.312 22.472L46.784 21.08H42.496L42.16 22.008C41.712 23.256 42.032 24.568 42.16 24.92V25H40.112V24.952C40.448 24.392 40.976 23.224 41.44 21.912L43.856 15.24C44.128 14.504 43.808 13.736 43.712 13.528V13.48H46.208L49.616 22.504ZM42.736 20.408H46.544L44.592 15.224L42.736 20.408ZM51.7226 25V24.936C51.7706 24.664 52.1066 23.608 52.1066 22.584V15.896C52.1066 14.872 51.7706 13.816 51.7226 13.544V13.48H54.6026V13.544C54.5386 13.816 54.2186 14.872 54.2186 15.896V22.584C54.2186 23.608 54.5386 24.664 54.6026 24.936V25H51.7226ZM63.8956 25.192C62.6156 25.192 61.1756 24.776 59.7036 24.104V21.672H59.7996C60.9196 22.888 62.3756 24.488 64.0716 24.488C65.2236 24.488 66.1516 23.816 66.1516 22.648C66.1516 21.288 64.8396 20.632 63.0476 20.008C60.9516 19.304 59.5756 18.264 59.5756 16.616C59.5756 14.92 61.0476 13.32 63.7356 13.32C65.2396 13.32 66.6956 13.848 67.6396 14.28V16.632H67.5596C66.5036 15.512 64.9516 13.992 63.4476 13.992C62.2476 13.992 61.4636 14.76 61.4636 15.64C61.4636 16.824 62.9356 17.464 64.7756 18.136C67.2556 19.112 68.0716 20.408 68.0716 21.8C68.0716 24.104 66.0876 25.192 63.8956 25.192ZM73.9024 23.816C74.7664 23.816 75.5504 23.512 76.4624 22.76L76.5264 22.808C76.0464 23.976 74.8304 25.144 73.0224 25.144C71.0384 25.144 69.1184 23.72 69.1184 21C69.1184 18.456 70.7664 16.888 73.0384 16.888C75.4704 16.888 76.5904 18.712 76.5904 20.792H71.3104C71.4384 22.536 72.2384 23.816 73.9024 23.816ZM73.0064 17.48C71.7584 17.48 71.2784 18.904 71.2944 20.36V20.392L74.5744 20.008C74.5424 18.664 74.1104 17.48 73.0064 17.48ZM81.4599 25.144C79.4759 25.144 77.5559 23.752 77.5559 21C77.5559 18.392 79.2199 16.888 81.5239 16.888C82.7399 16.888 83.7959 17.352 84.4679 17.64L84.4999 19.848H84.4199C83.8599 18.92 82.7719 17.48 81.5719 17.48C80.3079 17.48 79.7159 18.872 79.7319 20.44C79.7479 22.44 80.5959 23.816 82.3399 23.816C83.0439 23.816 83.8919 23.576 84.8199 22.84L84.8679 22.872C84.3719 24.072 83.1719 25.144 81.4599 25.144ZM93.2812 22.584C93.2812 23.608 93.6013 24.664 93.6653 24.936V25H91.7133C91.6013 24.728 91.4573 24.168 91.3773 23.592C90.7373 24.536 89.9213 25.128 88.7693 25.128C87.3932 25.128 86.1453 24.312 86.1453 22.424V19.4C86.1453 18.376 85.8253 17.32 85.7613 17.048V16.984H88.1453V22.168C88.1453 23.368 88.8493 23.832 89.6493 23.832C90.2093 23.832 90.7853 23.592 91.3293 23.176C91.3133 23 91.2973 22.84 91.2973 22.68V19.4C91.2973 18.376 90.9613 17.32 90.9133 17.048V16.984H93.2812V22.584ZM97.085 18.424C97.693 17.272 98.829 16.472 100.365 16.968L100.061 19.144H99.997C99.293 18.456 98.125 18.008 97.085 18.856V22.584C97.085 23.608 97.405 24.664 97.453 24.936V25H94.701V24.936C94.765 24.664 95.085 23.608 95.085 22.584V19.4C95.085 18.376 94.765 17.32 94.701 17.048V16.984H97.085V18.424ZM101.297 25V24.936C101.345 24.664 101.681 23.608 101.681 22.584V19.4C101.681 18.376 101.361 17.32 101.297 17.048V16.984H103.665V22.584C103.665 23.608 103.985 24.664 104.049 24.936V25H101.297ZM109.073 23.8C109.425 23.8 109.905 23.704 110.401 23.4C110.017 24.344 109.233 25.144 108.001 25.144C106.705 25.144 105.953 24.232 105.953 22.744V17.64H104.785V17.08C106.321 16.488 107.153 15.56 107.825 14.456H107.953V16.984H110.145V17.64H107.953V22.536C107.953 23.4 108.385 23.8 109.073 23.8ZM118.9 16.984V17.048C118.772 17.224 118.244 18.072 117.892 18.92L114.884 26.344C114.132 28.232 112.852 28.552 111.06 27.864L111.46 25.944L111.492 25.928C112.484 26.92 113.764 27.416 114.34 25.976L114.628 25.256L111.892 19.176C111.476 18.248 110.884 17.32 110.628 17.048V16.984H113.988V17.032C113.876 17.288 113.636 18.232 114.02 19.112L115.636 22.76L117.108 19.128C117.476 18.232 117.204 17.288 117.092 17.032V16.984H118.9Z" fill="white"/>
<defs>
<clipPath id="clip0_7357_16826">
<rect width="7" height="7" fill="white" transform="translate(28 21)"/>
</clipPath>
</defs>
</svg>
