<svg width="20" height="20" viewBox="0 0 20 20" fill="none" xmlns="http://www.w3.org/2000/svg">
<path d="M2.11504 10.3934L7.75469 11.962C7.82201 11.9814 7.8833 12.0176 7.93284 12.0671C7.98238 12.1167 8.01856 12.178 8.03798 12.2453L9.60659 17.8849C9.63102 17.9705 9.68263 18.0457 9.75363 18.0992C9.82462 18.1528 9.91113 18.1818 10.0001 18.1818C10.089 18.1818 10.1755 18.1528 10.2465 18.0992C10.3175 18.0457 10.3691 17.9705 10.3935 17.8849L11.9621 12.2453C11.9816 12.178 12.0177 12.1167 12.0673 12.0671C12.1168 12.0176 12.1781 11.9814 12.2454 11.962L17.8851 10.3934C17.9706 10.369 18.0458 10.3174 18.0993 10.2464C18.1529 10.1754 18.1819 10.0889 18.1819 9.99993C18.1819 9.91101 18.1529 9.8245 18.0993 9.7535C18.0458 9.68251 17.9706 9.6309 17.8851 9.60647L12.2454 8.03786C12.1781 8.01844 12.1168 7.98226 12.0673 7.93272C12.0177 7.88318 11.9816 7.82188 11.9621 7.75457L10.3935 2.11492C10.3691 2.02941 10.3175 1.95419 10.2465 1.90064C10.1755 1.84708 10.089 1.81812 10.0001 1.81812C9.91113 1.81812 9.82462 1.84708 9.75363 1.90064C9.68263 1.95419 9.63102 2.02941 9.60659 2.11492L8.03798 7.75457C8.01856 7.82188 7.98238 7.88318 7.93284 7.93272C7.8833 7.98226 7.82201 8.01844 7.75469 8.03786L2.11504 9.60647C2.02954 9.6309 1.95431 9.68251 1.90076 9.7535C1.84721 9.8245 1.81824 9.91101 1.81824 9.99993C1.81824 10.0889 1.84721 10.1754 1.90076 10.2464C1.95431 10.3174 2.02954 10.369 2.11504 10.3934Z" fill="#A5B4FC"/>
</svg>
