<svg width="32" height="32" viewBox="0 0 32 32" fill="none" xmlns="http://www.w3.org/2000/svg">
<rect width="32" height="32" rx="16" fill="white" fill-opacity="0.1"/>
<rect x="0.4" y="0.4" width="31.2" height="31.2" rx="15.6" stroke="white" stroke-opacity="0.24" stroke-width="0.8"/>
<g clip-path="url(#clip0_7329_14898)">
<path d="M20.25 8H11.75C9.67893 8 8 9.67893 8 11.75V20.25C8 22.3211 9.67893 24 11.75 24H20.25C22.3211 24 24 22.3211 24 20.25V11.75C24 9.67893 22.3211 8 20.25 8Z" fill="white"/>
<path d="M20.25 8H11.75C9.67893 8 8 9.67893 8 11.75V20.25C8 22.3211 9.67893 24 11.75 24H20.25C22.3211 24 24 22.3211 24 20.25V11.75C24 9.67893 22.3211 8 20.25 8Z" fill="#0A66C2"/>
<path d="M19.5447 21.6053H21.3741C21.4404 21.6053 21.5039 21.579 21.5508 21.5321C21.5977 21.4852 21.624 21.4217 21.6241 21.3554L21.625 17.4902C21.625 15.4701 21.1897 13.9173 18.8289 13.9173C17.9314 13.8839 17.0851 14.3465 16.6284 15.119C16.6262 15.1228 16.6228 15.1257 16.6188 15.1273C16.6147 15.129 16.6102 15.1292 16.606 15.1281C16.6018 15.1269 16.5981 15.1245 16.5954 15.121C16.5927 15.1175 16.5913 15.1133 16.5913 15.1089V14.3538C16.5913 14.2874 16.5649 14.2239 16.518 14.177C16.4711 14.1301 16.4076 14.1038 16.3413 14.1038H14.6052C14.5389 14.1038 14.4753 14.1301 14.4284 14.177C14.3815 14.2239 14.3552 14.2874 14.3552 14.3538V21.355C14.3552 21.4213 14.3815 21.4849 14.4284 21.5318C14.4753 21.5787 14.5389 21.605 14.6052 21.605H16.4344C16.5007 21.605 16.5643 21.5787 16.6112 21.5318C16.6581 21.4849 16.6844 21.4213 16.6844 21.355V17.8942C16.6844 16.9156 16.8701 15.9679 18.0833 15.9679C19.2792 15.9679 19.2947 17.0877 19.2947 17.9576V21.3553C19.2947 21.4216 19.321 21.4852 19.3679 21.5321C19.4148 21.579 19.4784 21.6053 19.5447 21.6053ZM10.375 11.7267C10.375 12.4682 10.9854 13.0784 11.727 13.0784C12.4684 13.0783 13.0784 12.4678 13.0784 11.7264C13.0783 10.9851 12.4682 10.375 11.7267 10.375C10.9851 10.375 10.375 10.9852 10.375 11.7267ZM10.8099 21.6053H12.6416C12.7079 21.6053 12.7715 21.579 12.8184 21.5321C12.8653 21.4852 12.8916 21.4216 12.8916 21.3553V14.3538C12.8916 14.2874 12.8653 14.2239 12.8184 14.177C12.7715 14.1301 12.7079 14.1038 12.6416 14.1038H10.8099C10.7436 14.1038 10.68 14.1301 10.6332 14.177C10.5863 14.2239 10.5599 14.2874 10.5599 14.3538V21.3553C10.5599 21.4216 10.5863 21.4852 10.6332 21.5321C10.68 21.579 10.7436 21.6053 10.8099 21.6053Z" fill="white"/>
</g>
<defs>
<clipPath id="clip0_7329_14898">
<rect width="16" height="16" fill="white" transform="translate(8 8)"/>
</clipPath>
</defs>
</svg>
