<svg width="40" height="40" viewBox="0 0 40 40" fill="none" xmlns="http://www.w3.org/2000/svg">
<path fill-rule="evenodd" clip-rule="evenodd" d="M20 40C31.0457 40 40 31.0457 40 20C40 8.95431 31.0457 0 20 0C8.95431 0 0 8.95431 0 20C0 24.7589 1.66213 29.1297 4.43755 32.5633L10.9505 26.0504C9.82932 24.3364 9.17749 22.2876 9.17749 20.0866C9.17749 14.0617 14.0617 9.17749 20.0866 9.17749C26.1115 9.17749 30.9957 14.0617 30.9957 20.0866C30.9957 26.1115 26.1115 30.9957 20.0866 30.9957C18.0185 30.9957 16.0849 30.4202 14.437 29.4207L7.91807 35.9396C11.2746 38.4878 15.4607 40 20 40ZM20.0865 13.731C23.5966 13.731 26.4422 16.5765 26.4422 20.0867C26.4422 23.5969 23.5966 26.4424 20.0865 26.4424C16.5763 26.4424 13.7307 23.5969 13.7307 20.0867C13.7307 16.5765 16.5763 13.731 20.0865 13.731ZM17.1428 20.0002C18.3753 20.4609 19.3496 21.4429 20.0865 22.8574C20.7293 21.6251 21.7606 20.6241 23.0303 20.0002C22.3514 19.7667 21.7349 19.389 21.2256 18.8947C20.7163 18.4004 20.3272 17.8019 20.0865 17.1431C19.8323 17.7945 19.4384 18.3861 18.9309 18.8786C18.4235 19.3712 17.814 19.7535 17.1428 20.0002Z" fill="white"/>
</svg>
