<svg width="48" height="48" viewBox="0 0 48 48" fill="none" xmlns="http://www.w3.org/2000/svg">
<path d="M5.69266 4.20465C5.6463 2.77358 6.6084 1.51705 8.02243 1.29195C9.29235 1.0898 11.0602 0.850976 13.3218 0.64337C16.9991 0.305807 25.3592 1.89897 29.7984 2.82815C31.4062 3.1647 32.4146 4.75013 32.1227 6.3667C31.7773 8.28032 31.3784 10.8099 31.2457 12.9094C31.0878 15.4061 31.0674 21.0721 31.0739 24.9189C31.0772 26.8844 29.2223 28.3538 27.2839 28.0283C25.9097 27.7975 24.296 27.5788 22.675 27.4763C19.6966 27.288 11.6641 27.1738 7.16422 27.1227C5.44269 27.1031 4.09064 25.6441 4.34321 23.9411C4.54588 22.5746 4.85213 21.0531 5.29722 20.016C6.04861 18.2653 5.84063 8.77289 5.69266 4.20465Z" fill="#FFDC61"/>
<path fill-rule="evenodd" clip-rule="evenodd" d="M41.3329 13.2475C38.7224 9.64369 35.0227 6.97434 30.7797 5.63314C26.5827 4.16777 22.0471 3.97032 17.7385 5.0654C13.7191 6.27027 10.1684 8.68405 7.56942 11.9784C6.21044 13.5944 5.20278 15.4757 4.61057 17.5024C4.01836 19.5292 3.85456 21.657 4.12962 23.7505C4.55452 25.9494 5.54931 27.9981 7.01448 29.6919C8.47966 31.3856 10.3639 32.665 12.4787 33.402C16.1479 34.8642 20.1957 35.0812 24.0003 34.0198C24.2445 35.1053 24.5511 36.1758 24.9187 37.2259C25.3195 38.378 25.7536 39.5469 26.1878 40.6657C26.4883 41.4171 26.8056 42.1351 27.0561 42.8531C27.1043 43.0144 27.19 43.1619 27.306 43.2838C27.4221 43.4057 27.5653 43.4984 27.724 43.5544C27.8555 43.6124 27.9977 43.6423 28.1414 43.6423C28.2852 43.6423 28.4273 43.6124 28.5589 43.5544C28.7781 43.4697 28.969 43.3251 29.1099 43.137C29.2435 42.97 29.4105 42.5359 29.5441 42.3522L30.93 40.0478L34.47 33.569C34.5416 33.6654 34.6397 33.7389 34.7524 33.7804C34.8651 33.8219 34.9875 33.8297 35.1045 33.8028C37.1612 33.2818 39.0373 32.2108 40.5317 30.7047C42.0261 29.1985 43.0823 27.3141 43.5871 25.2534C44.0825 23.2066 44.1376 21.078 43.749 19.0084C43.3604 16.9387 42.5369 14.9751 41.3329 13.2475ZM42.0843 24.9361C41.6738 26.759 40.7745 28.4356 39.4831 29.7859C38.1916 31.1362 36.5566 32.1093 34.7539 32.6005C34.6034 32.6518 34.4741 32.7517 34.3865 32.8844C34.3865 32.8844 34.3865 32.7508 34.2529 32.7174C34.1799 32.6729 34.0987 32.6436 34.0141 32.6313C33.9295 32.619 33.8433 32.6239 33.7606 32.6457C33.678 32.6676 33.6006 32.7059 33.5331 32.7584C33.4656 32.8108 33.4094 32.8764 33.3679 32.9512L29.1767 39.0293L28.3585 40.2482L28.1581 39.8475C27.3399 38.1777 26.3547 36.5079 25.6033 34.8381C25.453 34.4874 25.3362 34.12 25.2026 33.7694C25.3433 33.71 25.4561 33.5993 25.5181 33.4597C25.5802 33.3201 25.5867 33.1622 25.5365 33.018C25.4805 32.8745 25.3702 32.759 25.2295 32.6965C25.0888 32.6339 24.9291 32.6295 24.7851 32.684H24.7016C24.1329 32.7225 23.5716 32.8348 23.0318 33.018L22.1134 33.2684C20.728 33.4525 19.3243 33.4525 17.9389 33.2684C16.2832 33.0137 14.656 32.5999 13.0798 32.0328C11.2471 31.359 9.62449 30.2138 8.37561 28.7128C7.12672 27.2118 6.29572 25.408 5.96641 23.4834C5.79189 21.6497 5.99848 19.7997 6.57319 18.0497C7.14791 16.2997 8.07834 14.6874 9.30602 13.3142C11.629 10.4094 14.7791 8.27829 18.3397 7.20275C22.2271 6.19976 26.3218 6.34476 30.1285 7.62021C33.9826 8.765 37.3737 11.1037 39.8134 14.2994C40.9203 15.8025 41.6951 17.5235 42.0866 19.3486C42.4781 21.1738 42.4774 23.0612 42.0843 24.886V24.9361Z" fill="black"/>
<path fill-rule="evenodd" clip-rule="evenodd" d="M22.7723 27.2371C22.3096 27.2005 21.8503 27.1289 21.3984 27.0229C20.9563 26.9238 20.5265 26.7763 20.1167 26.5832C19.4056 26.2586 18.785 25.7646 18.309 25.1446C17.833 24.5246 17.5162 23.7974 17.3863 23.0266C17.1199 21.4749 17.3946 19.8787 18.1643 18.5053C18.6498 17.5888 19.3319 16.7909 20.1618 16.1688C21.0051 15.5617 21.965 15.1359 22.981 14.9181C24.3346 14.6514 25.737 14.7951 27.0084 15.3306C28.2797 15.8662 29.3622 16.7693 30.117 17.9241C30.546 18.46 30.862 19.0772 31.046 19.7385C31.23 20.3998 31.2781 21.0915 31.1875 21.7719C31.0969 22.4523 30.8695 23.1073 30.5189 23.6974C30.1683 24.2875 29.7018 24.8005 29.1476 25.2055C29.1019 25.2407 29.0637 25.2847 29.0353 25.3349C29.0069 25.3851 28.9888 25.4405 28.982 25.4978C28.9753 25.5551 28.9801 25.6131 28.9961 25.6685C29.0122 25.7239 29.0391 25.7756 29.0754 25.8204C29.1095 25.8659 29.1524 25.904 29.2016 25.9324C29.2508 25.9609 29.3052 25.9791 29.3616 25.986C29.418 25.9928 29.4753 25.9883 29.5298 25.9725C29.5844 25.9567 29.6353 25.93 29.6793 25.8941C32.9424 23.4731 32.8724 19.9536 31.1439 17.245C30.2736 15.865 29.017 14.7712 27.5302 14.0994C26.0434 13.4277 24.392 13.2077 22.7812 13.4667C21.5543 13.7185 20.3979 14.2373 19.394 14.9861C18.1548 15.9293 17.2131 17.2092 16.6816 18.673C16.15 20.1369 16.051 21.7228 16.3964 23.2413C16.5759 24.1525 16.9722 25.0071 17.5518 25.7327C18.1315 26.4583 18.8773 27.0336 19.7263 27.41C20.2 27.6032 20.6928 27.7457 21.1965 27.835C21.6849 27.9312 22.18 27.9904 22.6773 28.012C22.782 28.0175 22.8846 27.9816 22.963 27.9122C23.0415 27.8427 23.0895 27.7452 23.0968 27.6406C23.1017 27.5452 23.0714 27.4514 23.0116 27.3769C22.9517 27.3025 22.8665 27.2527 22.7723 27.2371Z" fill="black"/>
<path fill-rule="evenodd" clip-rule="evenodd" d="M24.9234 25.2822C25.4072 25.1159 25.84 24.8276 26.1798 24.4452C26.5197 24.0628 26.7552 23.5993 26.8636 23.0993C26.8853 23.0459 26.8958 22.9887 26.8945 22.9312C26.8933 22.8736 26.8802 22.817 26.8562 22.7646C26.8322 22.7123 26.7978 22.6655 26.755 22.6269C26.7122 22.5884 26.662 22.5591 26.6074 22.5407C26.5541 22.5191 26.4969 22.5085 26.4394 22.5098C26.3818 22.5111 26.3251 22.5241 26.2728 22.5481C26.2205 22.5721 26.1736 22.6065 26.1351 22.6493C26.0966 22.6921 26.0673 22.7423 26.0489 22.7969C25.8798 23.1534 25.6078 23.4511 25.268 23.6516C24.9282 23.8521 24.5362 23.9463 24.1423 23.922C23.9126 23.9269 23.6832 23.902 23.4599 23.8479C22.8654 23.7449 22.3228 23.4447 21.9197 22.9956C21.8943 22.945 21.8578 22.9007 21.813 22.8661C21.7681 22.8315 21.7161 22.8074 21.6606 22.7957C21.6052 22.7839 21.5478 22.7848 21.4928 22.7983C21.4378 22.8117 21.3865 22.8374 21.3427 22.8734C21.2552 22.9272 21.1925 23.0135 21.1685 23.1134C21.1445 23.2133 21.161 23.3187 21.2144 23.4064C21.557 24.2003 22.1843 24.8373 22.9728 25.1922C23.3368 25.3429 23.7285 25.4149 24.1222 25.4037C24.3939 25.4041 24.664 25.3631 24.9234 25.2822Z" fill="black"/>
<path fill-rule="evenodd" clip-rule="evenodd" d="M36.3467 18.7774C36.2485 18.5286 36.1161 18.2941 35.9531 18.0799C35.659 17.7048 35.2866 17.3936 34.8595 17.1664C34.4324 16.9391 33.96 16.8007 33.4725 16.7599C33.3169 16.1997 33.1179 15.6519 32.8774 15.1211C32.3331 13.9307 31.5246 12.8722 30.5084 12.0196C29.4923 11.1669 28.293 10.5408 26.9947 10.185C25.6328 9.89121 24.2205 9.86816 22.8434 10.1172C21.4664 10.3663 20.1533 10.8823 18.984 11.6339C17.7691 12.3175 16.7439 13.277 15.9987 14.4282C15.2534 15.5793 14.8109 16.8866 14.7101 18.2353C14.7422 18.4682 14.7743 18.7011 14.7459 18.9424C14.2461 19.1051 13.789 19.373 13.408 19.7265C13.0271 20.0801 12.7318 20.5104 12.5437 20.9862C12.4446 21.2364 12.3805 21.498 12.3532 21.764C12.2622 22.3252 12.3411 22.8982 12.5803 23.414C12.7862 23.7992 13.0888 24.1278 13.4608 24.3701C13.8328 24.6125 14.2625 24.7609 14.711 24.8019C14.9196 24.8349 15.1311 24.8488 15.3428 24.8435C15.5498 24.8347 15.7555 24.8064 15.9572 24.7589C16.049 24.7432 16.1327 24.6975 16.1943 24.6296C16.2559 24.5617 16.2918 24.4757 16.2958 24.386C16.3393 24.3993 16.3854 24.4029 16.4307 24.3967C16.476 24.3904 16.5194 24.3745 16.5577 24.3499C16.6156 24.3146 16.6616 24.2636 16.6899 24.2034C16.7181 24.1432 16.7273 24.0765 16.7164 24.0116C16.3488 23.0879 16.0664 22.1339 15.8723 21.1609C15.6842 20.2094 15.6228 19.2375 15.6897 18.2685C15.852 17.1078 16.2997 15.9986 16.9954 15.0339C17.6911 14.0692 18.6145 13.2771 19.6882 12.7238C20.7119 12.0683 21.8594 11.6163 23.0629 11.3945C24.2663 11.1728 25.5012 11.1858 26.6944 11.4329C27.8251 11.7203 28.8763 12.2393 29.7768 12.9548C30.6774 13.6703 31.4063 14.5655 31.9143 15.58C32.9819 17.6916 33.2451 20.1049 32.6583 22.4004C32.6451 22.4496 32.6422 22.5007 32.6497 22.5508C32.6572 22.6008 32.6749 22.6489 32.7019 22.6921C32.7288 22.7353 32.7645 22.7728 32.8067 22.8025C32.849 22.8322 32.897 22.8534 32.948 22.8649C33.0129 22.8756 33.0798 22.8664 33.1394 22.8385C32.9372 23.4417 32.6737 24.0246 32.3527 24.5786C32.0473 25.1162 31.6707 25.6136 31.2324 26.0581C30.5687 26.8157 29.648 27.3214 28.6372 27.4835C28.5817 27.4113 28.5012 27.3607 28.4102 27.3407C28.3191 27.3206 28.2233 27.3324 28.1398 27.3739C28.0464 27.4263 27.978 27.512 27.9495 27.6123C27.921 27.7126 27.9347 27.8193 27.9877 27.9091C28.0051 28.0353 28.0171 28.1226 27.8982 28.228C27.7533 28.3684 27.572 28.4686 27.3736 28.5178C27.0995 28.6081 26.8077 28.6348 26.5223 28.5955C26.2344 28.5681 25.9566 28.4815 25.7074 28.3417C25.5201 28.2488 25.3785 28.1892 25.4229 28.0644C25.4792 27.9124 25.583 27.7805 25.7199 27.6873L26.3754 27.3795C26.5643 27.3223 26.7574 27.2792 26.9529 27.2505L27.5773 27.1646C27.6687 27.1663 27.7574 27.1329 27.8241 27.0718C27.8907 27.0108 27.9297 26.9269 27.9327 26.8387C27.9354 26.7935 27.9288 26.7484 27.9133 26.7058C27.8978 26.6633 27.8737 26.6242 27.8424 26.5908C27.8111 26.5574 27.7732 26.5304 27.7309 26.5113C27.6886 26.4923 27.6427 26.4815 27.5959 26.4796L26.227 26.4505C26.0541 26.4595 25.8822 26.4831 25.7133 26.5212C25.5341 26.5596 25.3596 26.6168 25.1929 26.6917C24.9168 26.7997 24.6732 26.9735 24.4849 27.1967C24.2965 27.4199 24.1697 27.6851 24.1164 27.9674C24.0925 28.2836 24.173 28.5981 24.3463 28.8656C24.5195 29.1331 24.7767 29.34 25.0809 29.4565C25.5193 29.6575 25.9999 29.7603 26.4872 29.7574C26.9504 29.739 27.4042 29.6191 27.8141 29.4066C28.206 29.2001 28.5212 28.8797 28.7144 28.4915C28.746 28.3954 28.7668 28.2963 28.7764 28.1961C29.8387 28.1862 30.8722 27.8426 31.7204 27.2172C32.4907 26.6345 33.0928 25.87 33.4676 24.9988C33.8122 24.2418 34.017 23.4337 34.0728 22.6111L34.3548 22.5723C34.5583 22.5123 34.7573 22.4386 34.9504 22.3519C35.3548 22.1819 35.7114 21.9201 35.9894 21.589C36.2673 21.2578 36.4585 20.8673 36.5463 20.4509C36.6544 19.8847 36.5849 19.3019 36.3467 18.7774ZM15.3501 24.0019C15.1993 23.9752 15.0504 23.9395 14.9043 23.8951C14.6537 23.8168 14.4251 23.6847 14.2356 23.5087C14.0461 23.3328 13.9007 23.1175 13.81 22.8788C13.6984 22.5678 13.6529 22.2378 13.6764 21.9082C13.6916 21.5003 13.7969 21.0994 13.9853 20.7324C14.1737 20.3653 14.4409 20.0405 14.7688 19.7799C14.832 20.3125 14.9253 20.8411 15.0484 21.3633C15.2807 22.3052 15.5995 23.2244 16.0013 24.11C15.9408 24.1184 15.8912 24.056 15.8207 24.0657L15.3501 24.0019ZM34.5052 21.5033C33.0819 22.4212 34.2789 20.6048 33.6828 17.542C34.3805 17.9013 34.9026 18.5108 35.1379 19.2405C35.2482 19.5517 35.2936 19.8815 35.2715 20.211C35.2499 20.4719 35.1658 20.7249 35.0258 20.9502C34.8858 21.1754 34.6938 21.3667 34.4649 21.5088L34.5052 21.5033Z" fill="black"/>
<path fill-rule="evenodd" clip-rule="evenodd" d="M20.5954 18.8321C20.3958 18.854 20.2025 18.9148 20.0263 19.0113C19.6313 19.233 19.2908 19.5402 19.0297 19.9103C18.9516 19.9764 18.9027 20.0707 18.8936 20.1726C18.8846 20.2746 18.9162 20.3759 18.9814 20.4548C19.1732 20.7084 21.1805 20.152 21.5763 20.0975C21.7526 20.0803 21.9304 20.086 22.1052 20.1143C22.2131 20.1589 22.334 20.1603 22.4429 20.1182C22.5518 20.0761 22.6404 19.9937 22.6903 19.8882C22.7344 19.782 22.7357 19.6628 22.6938 19.5558C22.6519 19.4487 22.5701 19.3621 22.4656 19.3141C22.0915 19.0316 21.6495 18.8529 21.1842 18.7959C20.9873 18.7744 20.7882 18.7867 20.5954 18.8321Z" fill="black"/>
<path fill-rule="evenodd" clip-rule="evenodd" d="M28.7567 19.1093C28.7971 19.0146 28.7982 18.9077 28.7599 18.8121C28.7215 18.7166 28.6467 18.6402 28.5521 18.5997C28.2032 18.3099 27.7914 18.1057 27.3496 18.0034C27.154 17.9581 26.9513 17.9517 26.7532 17.9846C26.5515 18.0008 26.3538 18.0508 26.1686 18.1324C25.7373 18.3152 25.3606 18.6063 25.075 18.9775C24.9894 19.0534 24.9364 19.1594 24.927 19.2734C24.9177 19.3874 24.9527 19.5006 25.0248 19.5894C25.0997 19.6801 25.2075 19.7372 25.3246 19.7484C25.4417 19.7596 25.5584 19.7239 25.6492 19.6491C25.8098 19.5745 25.9795 19.5211 26.1538 19.49C27.3827 19.22 28.5803 19.5369 28.7567 19.1093Z" fill="black"/>
</svg>
