<svg width="48" height="48" viewBox="0 0 48 48" fill="none" xmlns="http://www.w3.org/2000/svg">
<path d="M11.3501 16.6246C10.9378 15.2534 11.5452 13.7914 12.8541 13.211C14.0224 12.693 15.6569 12.0139 17.7705 11.2394C21.2154 9.97706 29.6437 9.37314 34.1522 9.13196C35.7926 9.04421 37.1737 10.3173 37.3071 11.9546C37.4639 13.8805 37.7263 16.406 38.1339 18.4527C38.6189 20.8886 40.0422 26.3251 41.0308 30.021C41.5387 31.9197 40.1232 33.8166 38.1663 34.0004C36.7909 34.1296 35.192 34.3312 33.6155 34.6451C30.7079 35.2241 22.9729 37.1619 18.631 38.2628C16.9621 38.686 15.2806 37.623 15.0881 35.9121C14.9351 34.5509 14.8423 33.0182 15.0046 31.9122C15.2795 30.0391 12.6605 20.9834 11.3501 16.6246Z" fill="#FFDC61"/>
<path d="M44.8093 15.6861C44.8282 13.6508 44.7404 11.6159 44.5465 9.58974C44.3888 7.96056 44.5465 5.4905 43.4253 4.61459C42.2041 3.79889 40.7911 3.31584 39.3261 3.21314C33.2909 2.88358 27.2409 2.93624 21.2123 3.3708C20.2848 3.52308 19.4243 3.95027 18.7423 4.59707C17.4109 6.22626 17.3408 15.5459 17.3058 17.6481C17.3058 17.8061 17.3685 17.9576 17.4802 18.0693C17.5919 18.181 17.7434 18.2437 17.9014 18.2437C18.0594 18.2437 18.2109 18.181 18.3226 18.0693C18.4343 17.9576 18.497 17.8061 18.497 17.6481C18.497 16.1415 18.9525 6.69925 19.9335 5.57809C20.3652 5.2658 20.8625 5.05611 21.3875 4.96495C24.0152 4.68466 37.1538 4.96495 39.0633 5.15765C39.7579 5.23489 40.444 5.37563 41.1129 5.57809C42.6896 6.12115 42.2516 6.24378 42.637 9.74741C43.0979 12.9962 43.2095 16.285 42.9699 19.5576C42.9329 20.6372 42.7921 21.7107 42.5494 22.7634C42.1991 22.5181 43.5304 23.4816 34.0356 24.3575C33.8962 24.3575 33.7626 24.4129 33.664 24.5115C33.5654 24.61 33.5101 24.7437 33.5101 24.8831C33.5101 25.0225 33.5654 25.1561 33.664 25.2547C33.7626 25.3533 33.8962 25.4086 34.0356 25.4086L35.402 25.3035C35.2997 26.3909 35.6056 27.4775 36.2604 28.3517C35.3425 28.4115 34.4359 28.5881 33.5626 28.8772C33.4419 28.8995 33.3327 28.9635 33.2542 29.0579C33.1756 29.1523 33.1326 29.2712 33.1326 29.394C33.1326 29.5168 33.1756 29.6357 33.2542 29.7301C33.3327 29.8245 33.4419 29.8885 33.5626 29.9108C35.3644 30.5508 37.3316 30.5508 39.1334 29.9108C39.2716 29.8868 39.397 29.8148 39.4874 29.7074C39.5777 29.6001 39.6272 29.4643 39.6272 29.3239C39.6272 29.1836 39.5777 29.0478 39.4874 28.9404C39.397 28.8331 39.2716 28.761 39.1334 28.7371L37.8195 28.5444C37.891 27.4052 37.5897 26.2738 36.9611 25.321C38.2575 25.1984 43.075 24.778 43.7932 23.6918C44.5115 22.6057 44.7918 16.9999 44.8093 15.6861Z" fill="black"/>
<path d="M31.6881 15.7911C32.0831 15.8503 32.4669 15.9684 32.8268 16.1414C33.8209 16.6988 34.6123 17.5577 35.0866 18.594C35.0866 18.9619 36.418 19.067 36.418 18.4188C36.1921 17.4913 35.7597 16.6267 35.153 15.8897C34.5464 15.1526 33.7811 14.562 32.9144 14.1619C36.418 11.8845 34.8589 5.99843 30.6195 6.27872C29.6558 6.21697 28.6976 6.4643 27.8842 6.98471C27.0708 7.50513 26.4446 8.2715 26.0968 9.17234C25.7489 10.0732 25.6976 11.0615 25.9502 11.9935C26.2028 12.9255 26.7462 13.7527 27.5013 14.3546C27.729 14.5122 27.694 14.3546 27.0808 14.7925C26.4121 15.1863 25.8309 15.7127 25.373 16.3393C24.9151 16.9659 24.5901 17.6795 24.4181 18.4363C24.4181 19.2421 24.9962 19.2772 25.6444 18.8217C26.1137 17.6701 26.9852 16.7281 28.0968 16.1707C29.2084 15.6133 30.4845 15.4784 31.6881 15.7911ZM27.5013 12.1473C26.9757 10.1152 28.0268 8.39841 30.637 8.25827C30.9623 8.24311 31.2872 8.2963 31.5907 8.41443C31.8941 8.53255 32.1695 8.71298 32.3989 8.94407C32.6283 9.17516 32.8068 9.45178 32.9227 9.75609C33.0387 10.0604 33.0895 10.3856 33.0721 10.7108C33.2823 14.2144 28.2721 14.9677 27.5013 12.1473Z" fill="black"/>
<path d="M39.5363 19.5049C36.0326 19.172 23.3495 19.5049 22.9816 19.5049C22.8609 19.5272 22.7517 19.5911 22.6732 19.6855C22.5946 19.7799 22.5516 19.8988 22.5516 20.0216C22.5516 20.1445 22.5946 20.2634 22.6732 20.3578C22.7517 20.4522 22.8609 20.5161 22.9816 20.5384C28.4906 20.9402 34.0184 21.0162 39.5363 20.7662C40.6574 20.7662 41.2881 20.9939 41.2881 20.3633C41.6209 19.4873 40.5523 19.5574 39.5363 19.5049Z" fill="black"/>
<path d="M14.7306 20.9767C3.02848 21.9402 5.48102 35.9197 12.9788 35.1839C13.0643 35.1988 13.1521 35.1947 13.2359 35.1721C13.3198 35.1494 13.3976 35.1087 13.4641 35.0528C13.5305 34.9969 13.5839 34.9272 13.6205 34.8484C13.6572 34.7697 13.6762 34.6839 13.6762 34.5971C13.6762 34.5103 13.6572 34.4245 13.6205 34.3458C13.5839 34.267 13.5305 34.1973 13.4641 34.1414C13.3976 34.0855 13.3198 34.0448 13.2359 34.0221C13.1521 33.9994 13.0643 33.9954 12.9788 34.0102C7.28539 34.2905 5.67372 23.4993 14.9583 22.9563C20.897 22.4307 22.8065 32.5037 14.9583 34.2905C14.8905 34.3032 14.8258 34.3291 14.7679 34.3667C14.71 34.4044 14.6602 34.4531 14.6211 34.51C14.5821 34.567 14.5546 34.631 14.5404 34.6986C14.5261 34.7661 14.5252 34.8358 14.5379 34.9037C14.5506 34.9715 14.5764 35.0362 14.6141 35.0941C14.6518 35.1519 14.7005 35.2018 14.7574 35.2409C14.8143 35.2799 14.8784 35.3073 14.9459 35.3216C15.0135 35.3359 15.0832 35.3367 15.151 35.3241C24.8911 33.7299 23.0517 20.5037 14.7306 20.9767Z" fill="black"/>
<path d="M16.9905 29.5603C16.9905 29.1924 16.6401 28.0012 15.9919 28.9647C15.5032 29.4543 14.9824 29.9108 14.4328 30.3311C13.7394 29.9269 13.0195 29.5699 12.2781 29.2625C12.1029 29.2625 11.8752 29.3676 11.8577 29.6303C11.8972 30.0986 12.0724 30.5451 12.3618 30.9153C12.6511 31.2856 13.0421 31.5634 13.4869 31.715C13.8873 31.8481 14.3136 31.8841 14.7306 31.8201C15.9919 31.5573 16.9905 29.7179 16.9905 29.5603Z" fill="black"/>
<path d="M9.68538 35.2885C8.14722 35.867 6.77938 36.8233 5.70788 38.0693C4.63639 39.3153 3.89569 40.8109 3.55403 42.4184C3.4314 42.9439 3.30878 43.5921 3.18615 44.3279C3.15911 44.3978 3.14733 44.4727 3.15162 44.5475C3.1559 44.6223 3.17614 44.6954 3.21099 44.7617C3.24583 44.8281 3.29447 44.8863 3.35363 44.9323C3.4128 44.9783 3.48113 45.0111 3.55403 45.0286C4.18468 45.2038 4.16717 44.5556 4.93796 42.9614C5.47304 41.9692 6.05772 41.0044 6.68978 40.0709C7.47918 38.5809 8.65251 37.3289 10.0883 36.4447C10.2416 36.3913 10.3674 36.2791 10.4381 36.1329C10.5087 35.9867 10.5184 35.8185 10.4649 35.6651C10.4115 35.5118 10.2994 35.386 10.1532 35.3154C10.007 35.2447 9.8387 35.2351 9.68538 35.2885Z" fill="black"/>
<path d="M30.0065 24.8128C29.5598 24.5919 29.0682 24.4771 28.57 24.4771C28.0717 24.4771 27.5801 24.5919 27.1335 24.8128C25.0319 26.7764 23.0322 28.8462 21.1423 31.0142C21.0377 31.1025 20.9726 31.2287 20.9611 31.365C20.9496 31.5014 20.9927 31.6367 21.081 31.7412C21.1692 31.8458 21.2954 31.911 21.4318 31.9224C21.5681 31.9339 21.7034 31.8908 21.808 31.8025C23.7842 29.9065 25.8602 28.1171 28.0269 26.442C28.2546 26.3194 30.024 26.0741 29.4284 28.0361C29.0227 29.1999 28.4692 30.3067 27.7817 31.3295C24.8561 36.0419 23.77 36.3748 23.735 38.1967C23.735 39.3704 24.3306 40.8594 24.4357 44.5207C24.4357 44.6787 24.4984 44.8302 24.6101 44.9419C24.7218 45.0536 24.8733 45.1163 25.0313 45.1163C25.1893 45.1163 25.3408 45.0536 25.4525 44.9419C25.5642 44.8302 25.6269 44.6787 25.6269 44.5207C25.7145 41.1747 25.2415 39.0726 25.3116 38.2667C25.3992 37.1281 26.9233 36.2697 29.4459 32.3982C30.2492 31.2208 30.8804 29.9349 31.3203 28.5792C31.6532 27.2829 31.3028 25.2157 30.0065 24.8128Z" fill="black"/>
</svg>
