<svg width="48" height="48" viewBox="0 0 48 48" fill="none" xmlns="http://www.w3.org/2000/svg">
<path d="M15.7644 12.7311C15.3812 11.3515 16.0189 9.90154 17.34 9.34938C18.5049 8.86248 20.1281 8.22838 22.2208 7.51099C25.6474 6.33637 33.9683 5.91327 38.441 5.76741C40.0828 5.71387 41.436 7.01533 41.5354 8.65502C41.6509 10.5597 41.8578 13.0478 42.2165 15.0702C42.6443 17.4813 43.9315 22.8586 44.8323 26.5346C45.3001 28.4436 43.8448 30.3111 41.8846 30.4553C40.5305 30.5549 38.9606 30.7205 37.4101 30.9955C34.5289 31.5066 26.8675 33.2555 22.5431 34.2557C20.8658 34.6437 19.2064 33.5455 19.0516 31.8308C18.9305 30.4894 18.873 28.9871 19.0551 27.9052C19.3653 26.0616 16.9725 17.0803 15.7644 12.7311Z" fill="#FFDC61"/>
<path fill-rule="evenodd" clip-rule="evenodd" d="M37.1341 42.8842C30.3951 42.3451 24.1447 43.2043 17.591 43.2043C16.0242 43.2043 14.4068 43.2043 12.7895 43.019C11.8629 43.019 9.5379 43.019 7.53305 42.7494C6.40427 42.5978 5.34288 42.4461 4.97224 41.8902C4.82467 41.4803 4.78408 41.0396 4.85431 40.6098C4.85431 39.5315 5.00593 38.3185 5.00593 37.8299C5.00593 34.3088 4.9217 29.6589 5.00593 25.447C5.00593 23.5601 5.00593 21.7574 5.14071 20.1738C5.14071 19.2135 5.2418 18.2532 5.25864 17.276C5.37658 13.4516 5.25864 9.62725 5.46081 5.80288C5.46559 5.7345 5.45592 5.66588 5.43244 5.60148C5.40896 5.53708 5.37219 5.47834 5.32452 5.42908C5.27685 5.37983 5.21935 5.34115 5.15575 5.31557C5.09216 5.28999 5.02389 5.27808 4.95539 5.28061C4.83144 5.28031 4.71202 5.32714 4.6213 5.4116C4.53059 5.49606 4.47536 5.61184 4.46681 5.73549C4.19725 9.10498 4.12986 12.4745 3.96139 15.844C3.894 17.2255 3.79291 18.6575 3.67498 20.0053C3.48448 22.3996 3.35527 24.7983 3.28749 27.1992C3.18641 30.9056 3.18641 34.7805 3.16956 37.8299C3.16956 38.4027 2.98424 39.9022 3.00108 41.0815C2.99062 41.7207 3.14126 42.3522 3.43912 42.9179C4.20068 43.7585 5.24325 44.2918 6.37058 44.4173C8.45567 44.6655 10.5552 44.7724 12.6547 44.7374C14.3394 44.8385 16.0242 44.8553 17.6078 44.7374C24.1447 44.5858 30.294 43.5581 37.0667 43.9119C37.2076 43.9128 37.344 43.8618 37.4496 43.7686C37.5553 43.6753 37.6229 43.5464 37.6395 43.4064C37.6319 43.2732 37.5767 43.1472 37.4839 43.0513C37.3911 42.9554 37.267 42.8961 37.1341 42.8842Z" fill="black"/>
<path fill-rule="evenodd" clip-rule="evenodd" d="M14.7943 15.4565C14.6719 15.1177 14.4799 14.8083 14.2306 14.5483C13.9813 14.2883 13.6802 14.0834 13.3469 13.9469C13.0135 13.8104 12.6552 13.7453 12.2952 13.7557C11.9351 13.7662 11.5812 13.852 11.2563 14.0076C10.7269 14.3023 10.2799 14.725 9.95609 15.2371C9.63232 15.7493 9.4422 16.3344 9.40312 16.9391C9.36724 17.265 9.40389 17.5949 9.51044 17.905C9.617 18.2151 9.79081 18.4978 10.0194 18.7329C10.2481 18.968 10.5259 19.1496 10.8329 19.2647C11.1399 19.3798 11.4686 19.4256 11.7955 19.3988C12.0455 19.3927 12.2942 19.3588 12.5368 19.2977C12.8663 19.1934 13.1874 19.0638 13.4971 18.9102C13.5622 18.8792 13.62 18.8346 13.6665 18.7794C13.713 18.7242 13.7472 18.6596 13.7666 18.5901C14.2062 18.2102 14.534 17.7179 14.7151 17.1659C14.8961 16.6138 14.9235 16.0229 14.7943 15.4565ZM12.9916 17.7141C12.9043 17.7523 12.8287 17.8129 12.7725 17.8899C12.7162 17.9668 12.6814 18.0573 12.6715 18.1521H12.4525C12.2624 18.1774 12.0698 18.1774 11.8797 18.1521C11.6712 18.1376 11.4743 18.0504 11.3235 17.9057C11.1726 17.761 11.0773 17.568 11.0542 17.3603C11.0609 17.108 11.1242 16.8604 11.2395 16.6358C11.4048 16.2304 11.7014 15.8922 12.0819 15.6755C12.7558 15.288 13.3791 15.8777 13.5476 16.501C13.5026 16.5715 13.4787 16.6533 13.4787 16.7369C13.4787 16.8205 13.5026 16.9023 13.5476 16.9728C13.5265 17.1337 13.4643 17.2865 13.3669 17.4164C13.2695 17.5462 13.1402 17.6488 12.9916 17.7141Z" fill="black"/>
<path fill-rule="evenodd" clip-rule="evenodd" d="M36.696 12.4913C37.1639 12.8888 37.7683 13.0883 38.3808 13.0473C38.6314 13.048 38.8808 13.014 39.1221 12.9462C39.4499 12.8521 39.7663 12.7222 40.0655 12.5587C40.1327 12.5278 40.1927 12.4835 40.242 12.4284C40.2913 12.3733 40.3287 12.3087 40.3519 12.2386C40.8919 11.9519 41.2972 11.464 41.4801 10.8807C41.6629 10.2974 41.6087 9.66546 41.3291 9.12181C41.2103 8.7821 41.0213 8.47123 40.7744 8.20948C40.5274 7.94772 40.2281 7.74095 39.8958 7.60266C39.5636 7.46436 39.206 7.39764 38.8462 7.40684C38.4865 7.41605 38.1327 7.50097 37.808 7.65608C37.2773 7.95344 36.8295 8.37911 36.5058 8.89417C36.1821 9.40922 35.9926 9.99721 35.9547 10.6044C35.9384 10.7668 35.9384 10.9305 35.9547 11.093C36.0398 11.6284 36.3006 12.1204 36.696 12.4913ZM39.5938 11.3625C39.5043 11.3976 39.4267 11.4574 39.37 11.535C39.3133 11.6125 39.2799 11.7047 39.2737 11.8006H39.0547C38.8651 11.8333 38.6714 11.8333 38.4819 11.8006C38.3386 11.7853 38.2006 11.738 38.0782 11.6622C37.9557 11.5863 37.8518 11.4839 37.7743 11.3625L37.8922 11.2277C37.992 11.1268 38.048 10.9906 38.048 10.8487C38.048 10.7067 37.992 10.5705 37.8922 10.4696C37.8922 10.4696 37.7743 10.4696 37.7237 10.4696C37.717 10.4136 37.717 10.3571 37.7237 10.3011C37.8771 9.88425 38.1764 9.5371 38.5661 9.32398C39.24 8.91964 39.8634 9.543 40.0318 10.1664C40.0979 10.3898 40.0873 10.6289 40.0018 10.8456C39.9164 11.0624 39.7609 11.2443 39.5601 11.3625H39.5938Z" fill="black"/>
<path fill-rule="evenodd" clip-rule="evenodd" d="M15.4851 18.3207L15.7041 18.4723L17.6921 19.8201C17.81 19.8201 18.1133 20.1571 18.3491 20.2918C18.5055 20.3717 18.679 20.4122 18.8546 20.4098C19.169 20.3773 19.4617 20.234 19.6801 20.0054C20.0855 19.5564 20.4413 19.065 20.7415 18.5397C21.3229 17.7587 21.9472 17.0107 22.6115 16.299C23.9593 14.867 24.1952 15.3218 25.324 15.8104L28.5924 17.3098C28.9967 17.512 29.5359 17.8658 30.0581 18.1017C30.3408 18.2351 30.6417 18.3259 30.951 18.3712C31.0765 18.3862 31.2037 18.3728 31.3233 18.332C31.4429 18.2912 31.5517 18.224 31.6418 18.1354C31.7429 18.0343 31.9619 17.7142 31.9956 17.6805L33.1244 16.299C33.8488 15.4229 34.6069 14.6142 35.3819 13.7213C36.1232 12.8958 35.702 12.0366 34.826 12.4915L34.4216 12.8621C33.5624 13.6708 32.7369 14.5468 31.9282 15.3555L30.7489 16.6528L30.5299 16.5349C30.1255 16.299 29.7043 15.9957 29.3842 15.7936L28.0196 15.086C27.3457 14.7659 26.6549 14.4795 25.981 14.1762C25.4411 13.914 24.8768 13.7053 24.2963 13.5528C23.8865 13.4142 23.4425 13.4142 23.0327 13.5528C22.3213 13.9458 21.6921 14.4721 21.1795 15.1028C20.5412 15.9342 19.9667 16.8128 19.4611 17.731C19.3431 17.8995 18.9388 18.4049 18.6355 18.8261L18.3997 18.7419L16.3443 17.5794L15.8894 17.3098C14.7943 17.2761 14.6932 17.6468 15.4851 18.3207Z" fill="black"/>
<path fill-rule="evenodd" clip-rule="evenodd" d="M11.5596 32.27C11.2286 32.1207 10.8697 32.0435 10.5066 32.0435C10.1435 32.0435 9.78461 32.1207 9.45365 32.27C8.92974 32.5753 8.48753 33.003 8.16481 33.5164C7.84209 34.0298 7.64845 34.6137 7.60043 35.2183C7.56326 35.5466 7.60031 35.8791 7.70884 36.1913C7.81736 36.5034 7.9946 36.7872 8.22746 37.0217C8.46032 37.2561 8.74286 37.4353 9.05423 37.546C9.3656 37.6567 9.69785 37.696 10.0265 37.6611C10.2771 37.663 10.5267 37.6289 10.7678 37.5601C11.1025 37.4706 11.425 37.3404 11.7281 37.1726C11.7946 37.1436 11.8535 37.0996 11.9003 37.044C11.947 36.9885 11.9803 36.923 11.9976 36.8525C12.5405 36.5687 12.9494 36.0821 13.1356 35.4985C13.3217 34.9149 13.27 34.2814 12.9916 33.7357C12.7087 33.089 12.1995 32.5678 11.5596 32.27ZM11.2226 36.0438C11.1366 36.0791 11.0616 36.1368 11.0053 36.2109C10.949 36.2849 10.9136 36.3726 10.9025 36.465H10.6835C10.4934 36.4901 10.3008 36.4901 10.1107 36.465C9.90105 36.4538 9.70238 36.3677 9.55087 36.2224C9.39935 36.0771 9.30506 35.8821 9.28517 35.6731C9.27537 35.3974 9.33935 35.1241 9.4705 34.8813C9.6311 34.473 9.92897 34.1334 10.3129 33.921C10.9868 33.5167 11.627 34.1232 11.7786 34.7634C11.8683 35.0074 11.8606 35.2765 11.7571 35.515C11.6536 35.7534 11.4622 35.9428 11.2226 36.0438Z" fill="black"/>
<path fill-rule="evenodd" clip-rule="evenodd" d="M43.2161 20.7632C43.0933 20.4245 42.9012 20.1151 42.6523 19.8547C42.4033 19.5943 42.1029 19.3887 41.77 19.2508C41.4372 19.1129 41.0793 19.0458 40.7192 19.0539C40.359 19.0619 40.0045 19.1449 39.6781 19.2974C39.1494 19.5972 38.7033 20.0234 38.3799 20.538C38.0564 21.0526 37.8657 21.6393 37.8249 22.2457C37.7991 22.8432 37.9643 23.4333 38.2966 23.9305C38.8422 24.4089 39.5276 24.6985 40.2509 24.756C40.5016 24.7578 40.7512 24.7238 40.9922 24.6549C41.3241 24.5644 41.6459 24.4402 41.9525 24.2843C42.0202 24.2525 42.0798 24.2056 42.1265 24.1472C42.1732 24.0888 42.2059 24.0204 42.2221 23.9473C42.4996 23.807 42.7462 23.6123 42.9472 23.375C43.1482 23.1376 43.2995 22.8623 43.3922 22.5654C43.4849 22.2685 43.5171 21.956 43.4868 21.6464C43.4566 21.3369 43.3645 21.0365 43.2161 20.7632ZM41.4471 23.0207C41.3564 23.0539 41.2776 23.1133 41.2207 23.1912C41.1637 23.2692 41.1311 23.3623 41.127 23.4588H40.908C40.7184 23.4915 40.5247 23.4915 40.3352 23.4588C40.127 23.4516 39.9285 23.369 39.7767 23.2265C39.6248 23.0839 39.5299 22.8911 39.5096 22.6838C39.4984 22.4025 39.5624 22.1234 39.695 21.8751C39.8603 21.4697 40.1569 21.1315 40.5373 20.9148C41.2112 20.5105 41.8514 21.1338 42.0031 21.7572C42.0878 21.999 42.0776 22.2641 41.9744 22.4986C41.8711 22.7332 41.6827 22.9198 41.4471 23.0207Z" fill="black"/>
<path fill-rule="evenodd" clip-rule="evenodd" d="M38.2292 25.4469C38.8694 24.7561 38.4987 23.7621 37.6901 24.3686C37.5047 24.5371 37.3026 24.6887 37.1173 24.874C36.5781 25.3963 36.039 25.9523 35.5504 26.5588C35.0619 27.1653 34.6407 27.9066 33.495 27.1653C32.8523 26.6503 32.2496 26.0871 31.6924 25.4805C31.3183 25.0838 30.8935 24.7382 30.4288 24.4529C30.2734 24.3663 30.1013 24.314 29.9241 24.2995C29.7468 24.285 29.5685 24.3085 29.4011 24.3686C28.6945 24.6692 28.0359 25.0722 27.4468 25.5648C26.4107 26.5069 25.4476 27.5263 24.5659 28.6142C23.8874 29.4597 23.0801 30.1931 22.1735 30.7875C22.0236 30.6096 21.8831 30.424 21.7524 30.2315C21.1964 29.7261 20.5562 29.0522 19.8654 28.5468C19.3704 28.1416 18.7967 27.8433 18.1807 27.6707C17.5891 27.4945 16.9533 27.5425 16.3949 27.8055C15.7656 28.197 15.1978 28.6795 14.7101 29.2375L12.739 31.0908C11.9134 32.0342 12.739 32.2701 13.8172 31.5793L15.5019 30.0631C15.9088 29.6282 16.3805 29.2588 16.9003 28.968C17.1603 28.8665 17.449 28.8665 17.709 28.968C18.13 29.1234 18.5143 29.3643 18.8377 29.6756C19.4611 30.1978 20.0171 30.8717 20.5225 31.3603C20.5225 31.3603 21.1795 32.1016 21.4491 32.3206C21.5908 32.442 21.7624 32.5232 21.9461 32.5558C22.1298 32.5883 22.3188 32.5711 22.4936 32.5059C23.1921 32.1809 23.8392 31.7551 24.4143 31.2424C25.4214 30.2869 26.3668 29.2684 27.2446 28.193C27.9254 27.3435 28.739 26.6097 29.6538 26.0197C29.968 26.1607 30.2624 26.3419 30.5299 26.5588C31.2904 27.3222 32.1322 28.0001 33.0402 28.5805C33.5312 28.8519 34.0799 29.0021 34.6407 29.0185C34.9326 29.0017 35.2109 28.8892 35.4325 28.6984C35.8368 28.279 36.1928 27.8156 36.4939 27.3169C36.9488 26.761 37.4205 26.205 37.9259 25.6322L38.1955 25.3626L38.2292 25.4469Z" fill="black"/>
</svg>
