<svg width="48" height="48" viewBox="0 0 48 48" fill="none" xmlns="http://www.w3.org/2000/svg">
<path d="M8.91931 20.4597C8.55414 19.0752 9.21103 17.6347 10.539 17.0994C11.7244 16.6216 13.381 15.9987 15.5199 15.2968C19.0058 14.1528 27.4499 13.837 31.964 13.7499C33.6064 13.7183 34.9433 15.0378 35.0206 16.6787C35.1116 18.6088 35.2876 21.1418 35.6251 23.2012C36.0267 25.6522 37.2635 31.1341 38.1253 34.8617C38.5681 36.7767 37.0886 38.624 35.1266 38.741C33.7476 38.8231 32.1428 38.97 30.5564 39.2299C27.6308 39.7093 19.8341 41.3818 15.4571 42.3338C13.7748 42.6998 12.1305 41.58 11.9966 39.8636C11.8901 38.4979 11.8497 36.9629 12.0497 35.8631C12.3884 34.0005 10.0801 24.8606 8.91931 20.4597Z" fill="#FFDC61"/>
<path d="M27.0944 9.97721C27.4698 10.1627 27.8702 10.2925 28.2831 10.3623C30.761 10.8813 29.5723 11.032 32.2846 10.7474C33.0454 10.715 33.7698 10.4122 34.3272 9.8935C34.7476 9.42234 35.0262 8.84192 35.1309 8.21922C35.2471 7.45343 35.2471 6.6745 35.1309 5.90871C35.1251 5.51543 35.0859 5.12335 35.0137 4.73672C34.9642 4.60437 34.886 4.48466 34.7847 4.38622C34.6834 4.28777 34.5614 4.21306 34.4277 4.16747C33.6535 3.95725 32.8517 3.86691 32.0502 3.89958C30.3759 3.89958 28.618 4.36838 27.0274 4.30141C26.9557 4.29453 26.8833 4.30219 26.8146 4.32394C26.7459 4.34568 26.6823 4.38105 26.6276 4.42795C26.5729 4.47484 26.5282 4.53228 26.4962 4.59684C26.4642 4.66141 26.4456 4.73176 26.4414 4.80369C26.4341 4.83678 26.4341 4.87106 26.4414 4.90415C26.2396 5.82718 26.0887 6.7606 25.9893 7.70019C25.9553 8.21487 26.0594 8.72929 26.2907 9.1903C26.4789 9.5232 26.7576 9.79602 27.0944 9.97721ZM27.4125 5.42317C28.8524 5.52363 30.5099 5.32272 32.0335 5.42317C32.473 5.44935 32.9098 5.51094 33.3394 5.60734C33.3876 6.2706 33.3876 6.93648 33.3394 7.59974C33.3045 7.99234 33.1529 8.36551 32.9041 8.67127C32.653 8.9559 32.1005 8.98939 31.5312 9.02287C30.5311 9.06409 29.5293 9.03051 28.5342 8.92241C28.2974 8.89967 28.0624 8.86051 27.831 8.80521C27.6918 8.77639 27.5673 8.6993 27.4794 8.58756C27.293 8.21473 27.2398 7.78932 27.3288 7.38208C27.317 6.72802 27.3449 6.07385 27.4125 5.42317Z" fill="black"/>
<path d="M43.4018 21.6972C43.0167 21.2284 42.2466 20.6424 42.0289 20.3912L37.1902 15.9544C37.1012 15.8792 36.9881 15.8385 36.8715 15.8398C36.755 15.8411 36.6428 15.8843 36.5555 15.9615C36.4681 16.0387 36.4115 16.1447 36.3958 16.2602C36.3802 16.3757 36.4066 16.493 36.4703 16.5906L40.6895 21.6134L41.1081 21.9316C40.4049 21.7976 39.7017 21.6972 38.9817 21.6302C38.2618 21.5632 37.9772 21.5465 37.4749 21.5465H35.968C35.0283 21.6723 34.0993 21.8682 33.1887 22.1325C33.1887 22.0153 33.1887 21.8981 33.105 21.7809C32.9335 21.2578 32.6432 20.7816 32.2568 20.3894C31.8705 19.9973 31.3987 19.6999 30.8782 19.5206C30.9787 18.5328 31.0791 17.5449 31.1461 16.5571V15.0335V13.5267C31.1461 13.0244 31.0624 12.7398 31.0122 12.3547C30.6103 11.1994 29.6393 11.3669 29.5053 12.3547C29.5053 12.7398 29.4216 13.1248 29.3881 13.5267C29.3546 13.9285 29.3881 14.5312 29.3881 15.0335V16.5571C29.3881 17.5115 29.5555 18.4658 29.6393 19.4201C28.9508 19.4939 28.299 19.7675 27.7641 20.207C27.2121 20.6913 26.8502 21.3559 26.7428 22.0822C25.7618 21.909 24.7727 21.7861 23.7793 21.7139H22.2557C21.7465 21.7218 21.238 21.7553 20.7321 21.8143C19.761 21.9148 18.8067 22.099 17.8523 22.2831C17.8211 22.136 17.782 21.9907 17.7351 21.8478C17.5478 21.1753 17.1551 20.5782 16.6117 20.1399C16.0683 19.7016 15.4016 19.4441 14.7047 19.4034C13.8908 19.4309 13.1084 19.7251 12.4779 20.2405C11.934 20.7102 11.5725 21.3562 11.4566 22.0655C10.8036 22.0655 10.1507 21.8981 9.48095 21.8478H8.34244H7.22067C6.31656 21.965 5.54639 22.1659 4.57531 22.3501C4.50518 22.3369 4.43299 22.3394 4.3639 22.3572C4.29481 22.3751 4.2305 22.408 4.17557 22.4536C4.12064 22.4991 4.07643 22.5562 4.04608 22.6208C4.01573 22.6854 4 22.7559 4 22.8273C4 22.8987 4.01573 22.9691 4.04608 23.0337C4.07643 23.0983 4.12064 23.1554 4.17557 23.201C4.2305 23.2466 4.29481 23.2795 4.3639 23.2973C4.43299 23.3152 4.50518 23.3177 4.57531 23.3045C5.46268 23.3882 6.24959 23.5389 7.20393 23.6058C7.57743 23.6309 7.95219 23.6309 8.3257 23.6058H9.44746C10.1339 23.6058 10.8204 23.4384 11.4901 23.3379C11.6367 23.848 11.9343 24.3017 12.3438 24.6394C12.7532 24.9771 13.2552 25.1829 13.7838 25.2299C13.7746 25.2684 13.7746 25.3086 13.7838 25.3471C13.6118 26.4209 13.5334 27.5077 13.5494 28.5952C13.5664 29.2169 13.6167 29.8373 13.7001 30.4536V30.8554C14.2192 32.2618 14.7717 32.2451 15.3744 30.8554V30.0518C15.3685 29.4066 15.3126 28.7629 15.207 28.1264C15.0563 27.172 14.7884 26.2679 14.6545 25.3303C14.7464 25.3032 14.8277 25.2485 14.8876 25.1736C14.9475 25.0988 14.983 25.0074 14.9893 24.9118C14.9939 24.848 14.9858 24.7839 14.9655 24.7232C14.9452 24.6626 14.9132 24.6065 14.8712 24.5583C14.8291 24.5101 14.778 24.4706 14.7207 24.4422C14.6634 24.4138 14.6011 24.397 14.5373 24.3927C13.2983 24.2253 12.863 23.4551 12.863 22.7185C12.9112 22.4904 13.0147 22.2777 13.1644 22.099C13.341 21.8687 13.5696 21.6835 13.8315 21.5584C14.0934 21.4333 14.3811 21.3718 14.6712 21.379C15.0173 21.3804 15.3545 21.489 15.6363 21.6899C15.9182 21.8908 16.1308 22.1741 16.245 22.5008C16.5464 23.1873 16.6134 24.0077 15.8767 24.3593C15.7481 24.4193 15.6475 24.5266 15.5958 24.6588C15.5442 24.791 15.5454 24.938 15.5992 25.0694C15.6531 25.2007 15.7554 25.3063 15.885 25.3643C16.0146 25.4222 16.1615 25.428 16.2953 25.3806C16.7042 25.2477 17.0651 24.9975 17.333 24.6611C17.601 24.3247 17.7641 23.917 17.8021 23.4886C18.9406 23.4886 20.0456 23.6561 21.1507 23.6728H23.5281C24.5997 23.6728 25.6377 23.5389 26.6925 23.5054C26.8943 24.1336 27.3093 24.6716 27.8657 25.0262C28.4221 25.3809 29.085 25.5299 29.7397 25.4475C29.8026 25.4521 29.8658 25.4439 29.9255 25.4234C29.9852 25.4029 30.0402 25.3706 30.0871 25.3284C30.134 25.2862 30.1719 25.2349 30.1985 25.1777C30.2251 25.1205 30.2399 25.0585 30.242 24.9955C30.2465 24.9317 30.2384 24.8676 30.2182 24.807C30.1979 24.7463 30.1658 24.6903 30.1238 24.642C30.0818 24.5938 30.0307 24.5543 29.9734 24.5259C29.9161 24.4975 29.8538 24.4807 29.7899 24.4765C28.551 24.309 28.0319 23.5389 28.1157 22.8022C28.1721 22.577 28.2747 22.3661 28.417 22.1827C28.5955 21.9544 28.8244 21.7706 29.0859 21.6457C29.3473 21.5208 29.6342 21.4582 29.9239 21.4628C30.27 21.4641 30.6071 21.5727 30.889 21.7736C31.1708 21.9745 31.3835 22.2578 31.4977 22.5845C31.8158 23.271 31.866 24.0914 31.1294 24.443C30.9971 24.5017 30.8931 24.6101 30.8399 24.7448C30.7866 24.8794 30.7884 25.0295 30.8447 25.1629C30.9037 25.2954 31.0111 25.4004 31.1449 25.4564C31.2787 25.5124 31.4289 25.5152 31.5647 25.4643C31.9836 25.327 32.3515 25.0667 32.6203 24.7173C32.8891 24.3678 33.0463 23.9455 33.0715 23.5054H35.8341H37.274H38.7138H41.2587C40.8904 24.0077 40.5053 24.5267 40.0867 25.0122C39.6921 25.5016 39.2612 25.9605 38.7976 26.3851C38.4792 26.6749 38.1376 26.9381 37.7762 27.172C37.2237 27.5571 36.6377 27.892 36.102 28.2436C35.9772 28.3142 35.8848 28.4304 35.8442 28.5679C35.8036 28.7054 35.8179 28.8532 35.8843 28.9803C35.9176 29.0436 35.9633 29.0997 36.0187 29.1451C36.0741 29.1905 36.138 29.2244 36.2067 29.2447C36.2754 29.265 36.3474 29.2713 36.4186 29.2632C36.4897 29.2552 36.5586 29.233 36.621 29.1979C37.2572 28.8965 37.8934 28.6119 38.4962 28.2771C38.9336 28.0525 39.3534 27.795 39.7519 27.5069C40.3448 27.0934 40.9046 26.6344 41.4262 26.134C41.9285 25.6484 42.3805 25.1127 42.8326 24.5936C43.0915 24.2903 43.3319 23.9716 43.5525 23.6393C43.7017 23.3989 43.7719 23.1179 43.7534 22.8357C43.7798 22.4259 43.6547 22.0207 43.4018 21.6972Z" fill="black"/>
<path d="M19.9451 33.6515C19.1469 33.125 18.234 32.7978 17.283 32.6972C14.7836 32.5244 12.2739 32.5692 9.78227 32.8311C8.94108 32.8772 8.10283 32.9666 7.27085 33.099C7.20049 33.1089 7.13277 33.1325 7.07155 33.1686C7.01034 33.2047 6.95683 33.2524 6.91407 33.3092C6.82772 33.4238 6.79044 33.568 6.81042 33.7101C6.83041 33.8522 6.90602 33.9805 7.02062 34.0669C7.13523 34.1532 7.27944 34.1905 7.42153 34.1705C8.24193 34.0366 9.02884 34.0366 9.83249 34.0366H13.5326C14.7084 33.9823 15.8867 34.0497 17.0486 34.2375C17.7353 34.3348 18.3893 34.593 18.9573 34.9909C19.3395 35.449 19.6048 35.9931 19.7302 36.5764C19.8556 37.1597 19.8374 37.7648 19.6772 38.3395C19.5795 39.6301 19.0621 40.8532 18.2039 41.822C17.8354 42.0776 17.3966 42.2122 16.9482 42.2071C16.0336 42.2567 15.117 42.2567 14.2024 42.2071L11.4398 42.1066C9.76552 42.0229 8.84467 41.7215 8.32564 41.0518C7.48851 39.9301 7.80662 38.0883 8.04102 35.6272C8.05907 35.56 8.0625 35.4898 8.05108 35.4213C8.03965 35.3527 8.01364 35.2874 7.9748 35.2297C7.93596 35.1721 7.88519 35.1235 7.82594 35.0871C7.76668 35.0508 7.70031 35.0276 7.63132 35.0191C7.56233 35.0107 7.49233 35.0171 7.42604 35.038C7.35975 35.0589 7.29873 35.0938 7.24709 35.1404C7.19546 35.1869 7.15442 35.244 7.12674 35.3077C7.09907 35.3715 7.0854 35.4405 7.08668 35.51C6.65137 38.3395 6.36674 40.4491 7.27085 41.8052C7.76848 42.389 8.38711 42.8576 9.08385 43.1785C9.78059 43.4994 10.5388 43.665 11.3059 43.6637L14.1689 43.9148C15.3271 44.0248 16.4931 44.0248 17.6514 43.9148C18.2627 43.8147 18.8388 43.5612 19.3257 43.1781C20.7206 41.625 21.485 39.6067 21.4687 37.5191C21.528 36.8008 21.4214 36.0785 21.1572 35.4079C20.8931 34.7373 20.4784 34.1364 19.9451 33.6515Z" fill="black"/>
</svg>
