<svg width="48" height="48" viewBox="0 0 48 48" fill="none" xmlns="http://www.w3.org/2000/svg">
<path d="M18.3206 13.1381C18.5051 11.7182 19.6571 10.6323 21.0889 10.6378C22.3669 10.6428 24.1361 10.6913 26.3817 10.8487C30.0416 11.1051 37.9802 14.0001 42.1933 15.6233C43.7261 16.214 44.466 17.9405 43.9183 19.4892C43.2739 21.3108 42.4808 23.7229 42.016 25.7573C41.4627 28.1787 40.5388 33.7219 39.9298 37.499C39.6169 39.4394 37.5496 40.5917 35.6886 39.9594C34.3806 39.515 32.8391 39.0451 31.272 38.6871C28.3819 38.0266 20.5306 36.6325 16.118 35.8619C14.4221 35.5657 13.3221 33.9081 13.846 32.2681C14.2628 30.9633 14.8049 29.5266 15.4052 28.5836C16.4219 26.9867 17.7343 17.6516 18.3206 13.1381Z" fill="#FFDC61"/>
<path fill-rule="evenodd" clip-rule="evenodd" d="M23.8082 34.6594C22.9053 33.8921 21.9394 33.2021 20.9208 32.597H21.0635C21.6151 32.3652 22.1244 32.0435 22.5707 31.645C23.0294 31.2467 23.4252 30.7814 23.7447 30.2648C24.332 29.2754 24.6442 28.1471 24.6491 26.9966C25.4778 27.1033 26.3193 26.9538 27.0605 26.5682C28.4656 25.7306 29.6683 24.593 30.5826 23.2366C31.3795 22.0334 32.2935 20.9121 33.3114 19.889C34.6468 19.1744 36.0432 18.5797 37.4839 18.1122C37.8771 17.908 38.2446 17.6577 38.5786 17.3665C39.201 16.7923 39.698 16.0955 40.0382 15.3199C40.3743 14.5605 40.5472 13.7389 40.5458 12.9084C40.5458 12.7738 40.4923 12.6446 40.3971 12.5494C40.3019 12.4542 40.1728 12.4007 40.0382 12.4007C39.9035 12.4007 39.7744 12.4542 39.6792 12.5494C39.584 12.6446 39.5305 12.7738 39.5305 12.9084C39.4988 13.6056 39.3318 14.2899 39.0387 14.9233C38.7376 15.5303 38.3166 16.07 37.8012 16.5098C37.536 16.7281 37.2425 16.9096 36.9286 17.0492C35.4 17.501 33.9137 18.0849 32.4864 18.7944C31.0427 19.8097 29.3134 22.8717 27.2509 24.4899C26.7697 24.978 26.1266 25.2732 25.4428 25.32C24.759 25.3668 24.0817 25.1618 23.5385 24.7438C22.6183 24.125 23.0467 23.2683 23.5385 22.3323C24.538 20.5395 26.1721 18.4929 26.2673 16.605C26.3139 16.0657 26.235 15.523 26.0369 15.0193C25.8387 14.5156 25.5266 14.0646 25.125 13.7017C23.0943 11.782 21.3015 11.8772 19.9371 12.9084C19.1177 13.6606 18.4602 14.5718 18.0047 15.5865C17.5492 16.6012 17.3052 17.6981 17.2877 18.8102C17.0973 18.8102 16.9228 18.7309 16.7324 18.715C16.0053 18.6849 15.2778 18.7651 14.5747 18.953C14.5131 17.9867 14.6095 17.0167 14.8603 16.0814C15.208 14.4592 15.6855 12.8676 16.2882 11.3219C16.6004 10.2867 17.1657 9.34573 17.933 8.58396C18.7003 7.8222 19.6454 7.26372 20.6828 6.95903C21.9693 6.67629 23.2949 6.61725 24.6015 6.78451C26.7432 6.97489 28.9643 7.40325 31.0268 7.41912H33.1051C34.6916 7.32393 36.2781 7.16528 37.8646 7.07008C37.9993 7.07008 38.1284 7.0166 38.2236 6.92139C38.3188 6.82618 38.3723 6.69705 38.3723 6.5624C38.3723 6.42776 38.3188 6.29863 38.2236 6.20342C38.1284 6.10821 37.9993 6.05472 37.8646 6.05472L33.7556 6.08645H31.0585C29.0437 5.9754 26.886 5.40425 24.7125 5.15041C23.2206 4.90977 21.6963 4.95824 20.2227 5.2932C18.9621 5.67879 17.8175 6.37245 16.8923 7.31147C15.9672 8.2505 15.2906 9.40529 14.9238 10.6715C14.4121 12.3541 14.025 14.0722 13.7656 15.8117C13.5429 16.9467 13.5214 18.112 13.7022 19.2544C12.8835 19.5761 12.1426 20.0683 11.5287 20.6982C10.2369 22.0869 9.46844 23.8817 9.35514 25.775C9.24301 26.9796 9.41415 28.1937 9.85491 29.3204C10.2957 30.4471 10.9938 31.455 11.8935 32.2638C11.1052 32.7913 10.3811 33.4089 9.7359 34.1041C9.33053 34.5685 8.97431 35.0736 8.67294 35.6113C8.37631 36.1438 8.12681 36.7012 7.92729 37.2771C7.48551 38.5995 7.19283 39.9671 7.05471 41.3545C7.04081 41.4201 7.04007 41.4879 7.05252 41.5538C7.06497 41.6198 7.09037 41.6826 7.12726 41.7386C7.16414 41.7947 7.21177 41.8429 7.2674 41.8804C7.32303 41.918 7.38554 41.9441 7.45134 41.9573C7.51811 41.9711 7.58696 41.9712 7.6538 41.9578C7.72063 41.9443 7.78407 41.9176 7.84033 41.8791C7.8966 41.8406 7.94453 41.7911 7.98127 41.7337C8.01802 41.6763 8.04282 41.6121 8.05421 41.5448C8.39763 40.2897 8.8543 39.0684 9.4186 37.8959C9.65658 37.4041 9.91042 36.944 10.1801 36.468C10.4498 35.9921 10.7354 35.5637 11.0368 35.1036C11.5732 34.3065 12.1784 33.558 12.8455 32.8667C13.6575 33.314 14.555 33.5843 15.4791 33.6599C15.5482 33.6735 15.6193 33.6726 15.6881 33.6572C15.7568 33.6418 15.8216 33.6123 15.8783 33.5705C15.935 33.5287 15.9824 33.4756 16.0174 33.4145C16.0525 33.3534 16.0744 33.2857 16.0819 33.2157C16.0953 33.0792 16.0546 32.9429 15.9686 32.8361C15.8826 32.7293 15.7581 32.6605 15.6218 32.6445C12.8455 32.2321 10.7037 29.5826 11.0844 25.8702C11.1511 24.9787 11.3978 24.11 11.8095 23.3165C12.2212 22.523 12.7895 21.8212 13.4801 21.2534C14.4198 20.5266 15.5761 20.1356 16.7641 20.1429C17.7455 20.1692 18.7202 20.3131 19.6674 20.5712C20.4859 20.875 21.2356 21.3388 21.8727 21.9356C21.7025 22.2654 21.5644 22.6107 21.4602 22.9669C21.2493 23.5458 21.2481 24.1804 21.4568 24.7602C21.6656 25.3399 22.0709 25.8282 22.6025 26.1399C22.9184 26.3591 23.2593 26.5402 23.6178 26.6793C23.3955 28.1407 22.6167 29.4596 21.4443 30.36C21.0876 30.6549 20.7113 30.9252 20.3179 31.1691C19.3399 31.7523 18.2652 32.1553 17.1449 32.359C17.0865 32.363 17.0295 32.3785 16.9771 32.4046C16.9247 32.4308 16.878 32.467 16.8397 32.5112C16.8014 32.5554 16.7722 32.6068 16.7537 32.6624C16.7353 32.7179 16.7281 32.7766 16.7324 32.8349C16.7344 32.8947 16.7484 32.9534 16.7736 33.0076C16.7988 33.0618 16.8348 33.1104 16.8792 33.1504C16.9236 33.1904 16.9757 33.221 17.0323 33.2404C17.0888 33.2598 17.1487 33.2676 17.2083 33.2633C18.0439 33.2953 18.8802 33.2261 19.6992 33.057C20.7555 33.9642 21.7617 34.9281 22.7135 35.9445C23.4093 36.6403 24.051 37.3881 24.6332 38.1814C25.6755 39.3941 26.2396 40.9454 26.2197 42.5443C26.2084 42.6111 26.2106 42.6795 26.2262 42.7454C26.2417 42.8113 26.2703 42.8734 26.3102 42.9281C26.3501 42.9828 26.4006 43.0289 26.4586 43.0639C26.5166 43.0988 26.581 43.1217 26.648 43.1313C26.7847 43.1495 26.9229 43.113 27.0328 43.0298C27.1427 42.9467 27.2154 42.8235 27.2351 42.6871C27.4066 41.7439 27.3897 40.7761 27.1855 39.8394C26.9813 38.9028 26.5937 38.0158 26.0452 37.2295C25.4224 36.2732 24.6695 35.4081 23.8082 34.6594ZM20.0323 19.5083C19.4496 19.259 18.8439 19.0677 18.2237 18.9371C18.2492 17.9718 18.477 17.0225 18.8924 16.1508C19.3078 15.279 19.9015 14.5041 20.6352 13.8762C21.603 13.2416 22.7928 13.3685 24.1096 14.7329C25.4264 16.0973 24.7125 17.1603 23.9827 18.4295C23.4592 19.3338 22.8246 20.2539 22.2852 21.1107C21.6371 20.4449 20.8738 19.902 20.0323 19.5083Z" fill="black"/>
<path fill-rule="evenodd" clip-rule="evenodd" d="M40.3079 37.8008C40.1334 37.3016 39.9158 36.8185 39.6575 36.3571C39.3999 35.8907 39.0913 35.4543 38.7373 35.0561C38.2325 34.4784 37.6568 33.9667 37.0239 33.5331C37.3455 33.2986 37.6384 33.0271 37.8964 32.724C38.53 31.8486 38.9405 30.8319 39.0926 29.7621C39.2446 28.6922 39.1335 27.6015 38.769 26.5842C38.3613 25.6206 37.7393 24.7626 36.9504 24.0753C36.1614 23.388 35.2262 22.8896 34.2157 22.6179C34.1606 22.5978 34.1019 22.5888 34.0432 22.5915C33.9846 22.5942 33.927 22.6085 33.8739 22.6336C33.8208 22.6587 33.7731 22.6941 33.7338 22.7377C33.6944 22.7813 33.6641 22.8322 33.6446 22.8876C33.622 22.9437 33.611 23.0039 33.6125 23.0643C33.6139 23.1248 33.6277 23.1843 33.6529 23.2393C33.6782 23.2942 33.7144 23.3435 33.7593 23.3839C33.8043 23.4244 33.857 23.4553 33.9143 23.4747C34.7407 23.7863 35.4848 24.2829 36.0897 24.9263C36.6947 25.5698 37.1445 26.3431 37.4046 27.1871C37.5713 27.8179 37.6197 28.4742 37.5474 29.1226C37.4348 30.1088 37.0686 31.0489 36.4844 31.8514C36.0808 32.3154 35.5833 32.6885 35.0249 32.9461C34.1661 33.4401 33.1916 33.6974 32.2009 33.6917C31.3426 33.6343 30.5069 33.3918 29.7511 32.981C28.9953 32.5703 28.3372 32.0009 27.8221 31.312C27.7805 31.2599 27.729 31.2165 27.6705 31.1843C27.6121 31.1521 27.5479 31.1317 27.4816 31.1244C27.4153 31.117 27.3482 31.1228 27.2841 31.1414C27.22 31.1599 27.1603 31.191 27.1082 31.2327C27.0132 31.3304 26.9601 31.4613 26.9601 31.5976C26.9601 31.7338 27.0132 31.8647 27.1082 31.9625C27.6743 32.8307 28.4236 33.5646 29.3033 34.1127C30.183 34.6608 31.172 35.0099 32.2009 35.1355C33.552 35.2304 34.9018 34.9329 36.0878 34.2788C36.6115 34.8537 37.0889 35.469 37.5157 36.1191C37.7695 36.4999 38.0075 36.8806 38.2296 37.2614C38.4676 37.658 38.6738 38.0546 38.8801 38.4671C39.3729 39.488 39.7763 40.5496 40.0858 41.6401C40.099 41.7059 40.1252 41.7684 40.1627 41.8241C40.2002 41.8797 40.2484 41.9273 40.3045 41.9642C40.3606 42.0011 40.4234 42.0265 40.4893 42.039C40.5553 42.0514 40.623 42.0507 40.6887 42.0368C40.7545 42.0235 40.817 41.9974 40.8726 41.9599C40.9282 41.9223 40.9759 41.8741 41.0128 41.8181C41.0496 41.762 41.075 41.6992 41.0875 41.6332C41.0999 41.5673 41.0992 41.4995 41.0853 41.4339C40.9694 40.1966 40.7084 38.9772 40.3079 37.8008Z" fill="black"/>
</svg>
