<svg width="48" height="48" viewBox="0 0 48 48" fill="none" xmlns="http://www.w3.org/2000/svg">
<path d="M20.3206 11.1381C20.5051 9.71819 21.6571 8.63226 23.0889 8.6378C24.3669 8.64275 26.1361 8.69128 28.3817 8.84865C32.0416 9.10514 39.9802 12.0001 44.1933 13.6233C45.7261 14.214 46.466 15.9405 45.9183 17.4892C45.2739 19.3108 44.4808 21.7229 44.016 23.7573C43.4627 26.1787 42.5388 31.7219 41.9298 35.499C41.6169 37.4394 39.5496 38.5917 37.6886 37.9594C36.3806 37.515 34.8391 37.0451 33.272 36.6871C30.3819 36.0266 22.5306 34.6325 18.118 33.8619C16.4221 33.5657 15.3221 31.9081 15.846 30.2681C16.2628 28.9633 16.8049 27.5266 17.4052 26.5836C18.4219 24.9867 19.7343 15.6516 20.3206 11.1381Z" fill="#FFDC61"/>
<path d="M42.9601 16.4292C42.9773 14.5746 42.8974 12.7204 42.7207 10.8741C42.577 9.38955 42.7207 7.13878 41.699 6.34064C40.5862 5.59735 39.2987 5.15719 37.9637 5.0636C32.4643 4.7633 26.9514 4.81129 21.458 5.20727C20.6128 5.34602 19.8288 5.73529 19.2073 6.32467C17.9941 7.80922 17.9302 16.3015 17.8983 18.217C17.8983 18.361 17.9555 18.499 18.0573 18.6008C18.1591 18.7026 18.2971 18.7598 18.4411 18.7598C18.585 18.7598 18.723 18.7026 18.8248 18.6008C18.9266 18.499 18.9838 18.361 18.9838 18.217C18.9838 16.8442 19.3988 8.24022 20.2928 7.2186C20.6862 6.93404 21.1393 6.74296 21.6177 6.65989C24.0121 6.40449 35.9843 6.65989 37.7243 6.83549C38.3572 6.90587 38.9824 7.03411 39.5919 7.2186C41.0286 7.71345 40.6295 7.82519 40.9807 11.0178C41.4007 13.9781 41.5024 16.975 41.284 19.957C41.2503 20.9408 41.122 21.919 40.9009 22.8782C40.5816 22.6547 41.7948 23.5327 33.1429 24.3308C33.0159 24.3308 32.8941 24.3813 32.8043 24.4711C32.7145 24.5609 32.664 24.6827 32.664 24.8097C32.664 24.9367 32.7145 25.0586 32.8043 25.1484C32.8941 25.2382 33.0159 25.2886 33.1429 25.2886L34.388 25.1928C34.2947 26.1837 34.5736 27.1738 35.1702 27.9704C34.3337 28.0249 33.5077 28.1859 32.7119 28.4493C32.6019 28.4696 32.5024 28.5279 32.4309 28.6139C32.3593 28.6999 32.3201 28.8083 32.3201 28.9202C32.3201 29.0321 32.3593 29.1405 32.4309 29.2265C32.5024 29.3125 32.6019 29.3708 32.7119 29.3911C34.3537 29.9743 36.1463 29.9743 37.7881 29.3911C37.9141 29.3692 38.0283 29.3036 38.1107 29.2058C38.193 29.108 38.2381 28.9842 38.2381 28.8563C38.2381 28.7285 38.193 28.6047 38.1107 28.5069C38.0283 28.4091 37.9141 28.3434 37.7881 28.3216L36.5909 28.146C36.656 27.108 36.3815 26.077 35.8087 25.2088C36.99 25.0971 41.3798 24.714 42.0343 23.7243C42.6887 22.7346 42.9441 17.6264 42.9601 16.4292Z" fill="black"/>
<path d="M31.0039 16.5251C31.3638 16.579 31.7135 16.6866 32.0415 16.8443C32.9473 17.3523 33.6684 18.1348 34.1007 19.0791C34.1007 19.4144 35.3139 19.5101 35.3139 18.9195C35.108 18.0743 34.714 17.2866 34.1612 16.6149C33.6084 15.9433 32.9111 15.4051 32.1213 15.0405C35.3139 12.9653 33.8932 7.6018 30.0301 7.8572C29.152 7.80094 28.2788 8.02631 27.5376 8.50052C26.7964 8.97474 26.2259 9.67307 25.9089 10.4939C25.592 11.3148 25.5452 12.2154 25.7754 13.0647C26.0055 13.9139 26.5007 14.6676 27.1887 15.2161C27.3963 15.3598 27.3643 15.2161 26.8056 15.6152C26.1963 15.974 25.6667 16.4537 25.2494 17.0246C24.8322 17.5956 24.5361 18.2459 24.3793 18.9355C24.3793 19.6698 24.906 19.7017 25.4967 19.2867C25.9244 18.2373 26.7184 17.3789 27.7314 16.871C28.7443 16.3631 29.9072 16.2402 31.0039 16.5251ZM27.1887 13.2048C26.7099 11.3531 27.6676 9.78872 30.0461 9.66101C30.3425 9.6472 30.6385 9.69567 30.9151 9.80331C31.1916 9.91095 31.4425 10.0754 31.6516 10.2859C31.8606 10.4965 32.0232 10.7486 32.1289 11.0259C32.2345 11.3032 32.2809 11.5995 32.265 11.8958C32.4565 15.0884 27.8911 15.7748 27.1887 13.2048Z" fill="black"/>
<path d="M38.1554 19.9092C34.9628 19.6059 23.4056 19.9092 23.0704 19.9092C22.9604 19.9296 22.8609 19.9878 22.7894 20.0738C22.7178 20.1598 22.6786 20.2682 22.6786 20.3801C22.6786 20.492 22.7178 20.6004 22.7894 20.6864C22.8609 20.7724 22.9604 20.8307 23.0704 20.851C28.0903 21.2171 33.1274 21.2864 38.1554 21.0585C39.177 21.0585 39.7517 21.2661 39.7517 20.6914C40.055 19.8932 39.0812 19.9571 38.1554 19.9092Z" fill="black"/>
<path d="M15.5518 21.2501C4.88853 22.128 7.12334 34.8664 13.9555 34.196C14.0334 34.2095 14.1134 34.2058 14.1898 34.1852C14.2662 34.1645 14.3371 34.1274 14.3977 34.0765C14.4582 34.0255 14.5069 33.962 14.5403 33.8902C14.5736 33.8185 14.5909 33.7403 14.5909 33.6612C14.5909 33.5821 14.5736 33.5039 14.5403 33.4322C14.5069 33.3605 14.4582 33.2969 14.3977 33.246C14.3371 33.195 14.2662 33.1579 14.1898 33.1373C14.1134 33.1166 14.0334 33.1129 13.9555 33.1265C8.76752 33.3819 7.29893 23.5487 15.7593 23.0539C21.1707 22.575 22.9107 31.7537 15.7593 33.3819C15.6974 33.3934 15.6385 33.417 15.5858 33.4513C15.533 33.4856 15.4876 33.53 15.452 33.5819C15.4164 33.6338 15.3914 33.6921 15.3784 33.7537C15.3654 33.8152 15.3646 33.8787 15.3762 33.9406C15.3877 34.0024 15.4113 34.0614 15.4456 34.1141C15.4799 34.1668 15.5243 34.2123 15.5762 34.2478C15.6281 34.2834 15.6864 34.3084 15.748 34.3214C15.8095 34.3344 15.873 34.3352 15.9349 34.3237C24.8103 32.8711 23.1341 20.8191 15.5518 21.2501Z" fill="black"/>
<path d="M17.6111 29.0716C17.6111 28.7364 17.2918 27.6509 16.7012 28.5289C16.2559 28.9751 15.7813 29.3911 15.2805 29.774C14.6486 29.4058 13.9927 29.0804 13.3171 28.8003C13.1574 28.8003 12.9499 28.8961 12.934 29.1355C12.97 29.5621 13.1297 29.969 13.3933 30.3064C13.657 30.6438 14.0132 30.897 14.4185 31.0351C14.7834 31.1564 15.1718 31.1892 15.5519 31.1309C16.7012 30.8914 17.6111 29.2153 17.6111 29.0716Z" fill="black"/>
<path d="M10.9545 34.2918C9.55289 34.819 8.30648 35.6904 7.33011 36.8258C6.35374 37.9611 5.6788 39.324 5.36747 40.7887C5.25573 41.2676 5.14399 41.8582 5.03225 42.5287C5.00761 42.5924 4.99688 42.6606 5.00078 42.7288C5.00469 42.797 5.02313 42.8636 5.05488 42.9241C5.08663 42.9845 5.13095 43.0375 5.18487 43.0795C5.23878 43.1214 5.30104 43.1513 5.36747 43.1672C5.94214 43.3268 5.92618 42.7362 6.62854 41.2836C7.11612 40.3794 7.64889 39.5003 8.22484 38.6497C8.94415 37.2919 10.0133 36.1511 11.3216 35.3454C11.4614 35.2967 11.576 35.1945 11.6404 35.0613C11.7047 34.9281 11.7135 34.7747 11.6648 34.635C11.6162 34.4953 11.514 34.3807 11.3808 34.3163C11.2475 34.2519 11.0942 34.2431 10.9545 34.2918Z" fill="black"/>
<path d="M29.4715 24.7459C29.0645 24.5446 28.6165 24.4399 28.1625 24.4399C27.7085 24.4399 27.2605 24.5446 26.8535 24.7459C24.9386 26.5351 23.1164 28.4212 21.3942 30.3968C21.299 30.4772 21.2396 30.5922 21.2291 30.7164C21.2186 30.8407 21.2579 30.964 21.3383 31.0592C21.4188 31.1545 21.5338 31.2139 21.658 31.2244C21.7822 31.2348 21.9056 31.1955 22.0008 31.1151C23.8016 29.3874 25.6933 27.7568 27.6676 26.2304C27.8752 26.1187 29.4874 25.8952 28.9447 27.6831C28.575 28.7435 28.0707 29.7521 27.4442 30.6841C24.7784 34.9781 23.7887 35.2814 23.7567 36.9416C23.7567 38.0111 24.2995 39.3679 24.3952 42.7042C24.3952 42.8481 24.4524 42.9862 24.5542 43.0879C24.656 43.1897 24.794 43.2469 24.938 43.2469C25.0819 43.2469 25.22 43.1897 25.3218 43.0879C25.4235 42.9862 25.4807 42.8481 25.4807 42.7042C25.5605 39.6553 25.1295 37.7397 25.1934 37.0054C25.2732 35.9678 26.662 35.1856 28.9606 31.6578C29.6927 30.585 30.2678 29.4132 30.6687 28.1779C30.972 26.9967 30.6527 25.113 29.4715 24.7459Z" fill="black"/>
</svg>
