<svg width="32" height="32" viewBox="0 0 32 32" fill="none" xmlns="http://www.w3.org/2000/svg">
<rect width="32" height="32" rx="16" fill="white" fill-opacity="0.1"/>
<rect x="0.4" y="0.4" width="31.2" height="31.2" rx="15.6" stroke="white" stroke-opacity="0.24" stroke-width="0.8"/>
<path d="M22.691 12.4093C22.6107 12.1369 22.4541 11.8886 22.2367 11.6891C22.0193 11.4895 21.7488 11.3457 21.452 11.272C20.3656 11 15.993 11 15.993 11C15.993 11 11.6202 11.0082 10.5338 11.2802C10.237 11.3539 9.96649 11.4977 9.7491 11.6973C9.53172 11.8969 9.37508 12.1452 9.29478 12.4176C8.96616 14.1896 8.83868 16.8896 9.3038 18.5907C9.38411 18.8631 9.54075 19.1114 9.75814 19.3109C9.97552 19.5105 10.2461 19.6543 10.5428 19.728C11.6293 20 16.0019 20 16.0019 20C16.0019 20 20.3745 20 21.4609 19.728C21.7577 19.6543 22.0283 19.5105 22.2457 19.311C22.463 19.1114 22.6197 18.8631 22.7 18.5907C23.0466 16.8162 23.1534 14.1178 22.691 12.4093Z" fill="#FF0000"/>
<path d="M14 18L18 15.5L14 13V18Z" fill="white"/>
</svg>
