<svg width="84" height="84" viewBox="0 0 84 84" fill="none" xmlns="http://www.w3.org/2000/svg">
<g filter="url(#filter0_d_7250_21648)">
<rect x="2" width="80" height="80" rx="12" fill="#FDFDFD"/>
<rect x="2.5" y="0.5" width="79" height="79" rx="11.5" stroke="#131318"/>
<path d="M66 40C66 53.2548 55.2548 64 42 64C28.7452 64 18 53.2548 18 40C18 26.7452 28.7452 16 42 16C55.2548 16 66 26.7452 66 40ZM25.2 40C25.2 49.2784 32.7216 56.8 42 56.8C51.2784 56.8 58.8 49.2784 58.8 40C58.8 30.7216 51.2784 23.2 42 23.2C32.7216 23.2 25.2 30.7216 25.2 40Z" fill="#CDCDCD"/>
<mask id="path-4-inside-1_7250_21648" fill="white">
<path d="M42 19.6C42 17.6118 40.3793 15.9724 38.4134 16.2695C35.6585 16.6859 32.9879 17.5802 30.5247 18.9211C27.0036 20.838 24.0188 23.6064 21.8429 26.9735C19.6669 30.3406 18.369 34.1992 18.0678 38.1969C17.7666 42.1946 18.4717 46.2041 20.1186 49.8592C21.7655 53.5143 24.3018 56.6987 27.4959 59.1215C30.69 61.5443 34.4402 63.1284 38.404 63.7291C42.3677 64.3298 46.4188 63.9279 50.1874 62.5603C52.8236 61.6036 55.2628 60.1955 57.3998 58.4078C58.9248 57.132 58.7704 54.8319 57.2811 53.5147C55.7918 52.1976 53.5336 52.3762 51.9298 53.5513C50.6486 54.4902 49.2357 55.2462 47.7312 55.7922C45.0932 56.7496 42.2574 57.0308 39.4828 56.6103C36.7081 56.1899 34.083 55.081 31.8471 53.385C29.6113 51.6891 27.8358 49.46 26.683 46.9014C25.5302 44.3428 25.0366 41.5362 25.2475 38.7378C25.4583 35.9394 26.3668 33.2384 27.89 30.8815C29.4132 28.5245 31.5026 26.5866 33.9673 25.2448C35.373 24.4795 36.8754 23.922 38.4274 23.5842C40.3702 23.1614 42 21.5882 42 19.6Z"/>
</mask>
<path d="M42 19.6C42 17.6118 40.3793 15.9724 38.4134 16.2695C35.6585 16.6859 32.9879 17.5802 30.5247 18.9211C27.0036 20.838 24.0188 23.6064 21.8429 26.9735C19.6669 30.3406 18.369 34.1992 18.0678 38.1969C17.7666 42.1946 18.4717 46.2041 20.1186 49.8592C21.7655 53.5143 24.3018 56.6987 27.4959 59.1215C30.69 61.5443 34.4402 63.1284 38.404 63.7291C42.3677 64.3298 46.4188 63.9279 50.1874 62.5603C52.8236 61.6036 55.2628 60.1955 57.3998 58.4078C58.9248 57.132 58.7704 54.8319 57.2811 53.5147C55.7918 52.1976 53.5336 52.3762 51.9298 53.5513C50.6486 54.4902 49.2357 55.2462 47.7312 55.7922C45.0932 56.7496 42.2574 57.0308 39.4828 56.6103C36.7081 56.1899 34.083 55.081 31.8471 53.385C29.6113 51.6891 27.8358 49.46 26.683 46.9014C25.5302 44.3428 25.0366 41.5362 25.2475 38.7378C25.4583 35.9394 26.3668 33.2384 27.89 30.8815C29.4132 28.5245 31.5026 26.5866 33.9673 25.2448C35.373 24.4795 36.8754 23.922 38.4274 23.5842C40.3702 23.1614 42 21.5882 42 19.6Z" fill="#50A73A" stroke="#131318" stroke-width="2" mask="url(#path-4-inside-1_7250_21648)"/>
<path d="M35.7709 39.59C36.3682 39.8607 36.8022 40.178 37.0729 40.542C37.3435 40.8967 37.4789 41.3213 37.4789 41.816C37.4789 42.572 37.1522 43.1507 36.4989 43.552C35.8549 43.9533 35.0475 44.154 34.0769 44.154C33.1155 44.154 32.3315 43.986 31.7249 43.65C31.1275 43.3047 30.8289 42.7913 30.8289 42.11C30.8289 41.7273 30.9689 41.3493 31.2489 40.976C31.5382 40.6027 31.9442 40.2993 32.4669 40.066C32.0189 39.8047 31.6735 39.492 31.4309 39.128C31.1975 38.7547 31.0809 38.3907 31.0809 38.036C31.0809 37.336 31.3795 36.8087 31.9769 36.454C32.5742 36.0993 33.3115 35.922 34.1889 35.922C36.1582 35.922 37.1429 36.566 37.1429 37.854C37.1429 38.4513 36.6855 39.03 35.7709 39.59ZM34.2029 37.28C33.9322 37.28 33.7269 37.3453 33.5869 37.476C33.4562 37.5973 33.3909 37.7887 33.3909 38.05C33.3909 38.2833 33.4889 38.4793 33.6849 38.638C33.8902 38.7873 34.1655 38.932 34.5109 39.072C34.9682 38.7547 35.1969 38.428 35.1969 38.092C35.1969 37.812 35.1129 37.6067 34.9449 37.476C34.7862 37.3453 34.5389 37.28 34.2029 37.28ZM34.1049 42.81C34.3569 42.81 34.5762 42.74 34.7629 42.6C34.9495 42.4507 35.0429 42.2453 35.0429 41.984C35.0429 41.732 34.9495 41.5267 34.7629 41.368C34.5855 41.2 34.2869 41.0133 33.8669 40.808C33.6149 40.9853 33.4142 41.1673 33.2649 41.354C33.1249 41.5407 33.0549 41.7507 33.0549 41.984C33.0549 42.236 33.1622 42.4367 33.3769 42.586C33.6009 42.7353 33.8435 42.81 34.1049 42.81ZM44.5341 42.138V44H38.3881V42.446C38.8641 42.0633 39.3168 41.6947 39.7461 41.34C40.1754 40.976 40.6561 40.5513 41.1881 40.066C41.4494 39.8327 41.6408 39.5807 41.7621 39.31C41.8834 39.0393 41.9441 38.7827 41.9441 38.54C41.9441 38.288 41.8834 38.092 41.7621 37.952C41.6594 37.8493 41.1181 37.798 40.1381 37.798L39.2001 37.812C39.0788 37.8213 38.9294 37.826 38.7521 37.826C38.7241 37.6953 38.6914 37.4387 38.6541 37.056C38.6261 36.6733 38.6121 36.3887 38.6121 36.202C39.6668 36.0153 40.5441 35.922 41.2441 35.922C42.1961 35.922 42.9521 36.104 43.5121 36.468C44.0814 36.8227 44.3661 37.4387 44.3661 38.316C44.3661 38.736 44.2588 39.17 44.0441 39.618C43.8294 40.0567 43.4094 40.5187 42.7841 41.004C42.3641 41.3307 41.8134 41.718 41.1321 42.166L44.5341 42.138ZM47.0681 35.586C47.4788 35.586 47.8194 35.642 48.0901 35.754C48.3608 35.8567 48.5754 36.0667 48.7341 36.384C48.8928 36.7013 48.9721 37.168 48.9721 37.784C48.9721 38.624 48.8088 39.198 48.4821 39.506C48.1648 39.814 47.6934 39.968 47.0681 39.968C46.4708 39.968 46.0134 39.8093 45.6961 39.492C45.3881 39.1747 45.2341 38.6333 45.2341 37.868C45.2341 37.0933 45.3834 36.5193 45.6821 36.146C45.9901 35.7727 46.4521 35.586 47.0681 35.586ZM51.5621 35.6H53.2841L48.1181 44H46.3961L51.5621 35.6ZM47.1101 39.016C47.3528 39.016 47.5114 38.918 47.5861 38.722C47.6608 38.526 47.6981 38.218 47.6981 37.798C47.6981 37.378 47.6561 37.0653 47.5721 36.86C47.4974 36.6547 47.3481 36.5473 47.1241 36.538H47.0541C46.8861 36.538 46.7741 36.566 46.7181 36.622C46.6714 36.6687 46.6294 36.818 46.5921 37.07C46.5641 37.3127 46.5501 37.5647 46.5501 37.826C46.5501 38.2647 46.5921 38.5727 46.6761 38.75C46.7694 38.9273 46.9141 39.016 47.1101 39.016ZM52.4721 39.646C52.8828 39.646 53.2234 39.702 53.4941 39.814C53.7648 39.9167 53.9794 40.1267 54.1381 40.444C54.2968 40.7613 54.3761 41.228 54.3761 41.844C54.3761 42.684 54.2128 43.258 53.8861 43.566C53.5688 43.874 53.0974 44.028 52.4721 44.028C51.8748 44.028 51.4174 43.8693 51.1001 43.552C50.7921 43.2347 50.6381 42.6933 50.6381 41.928C50.6381 41.1533 50.7874 40.5793 51.0861 40.206C51.3941 39.8327 51.8561 39.646 52.4721 39.646ZM52.5141 43.076C52.7568 43.076 52.9154 42.978 52.9901 42.782C53.0648 42.586 53.1021 42.278 53.1021 41.858C53.1021 41.438 53.0601 41.1253 52.9761 40.92C52.9014 40.7147 52.7521 40.6073 52.5281 40.598H52.4581C52.2901 40.598 52.1781 40.626 52.1221 40.682C52.0754 40.7287 52.0334 40.878 51.9961 41.13C51.9681 41.3727 51.9541 41.6247 51.9541 41.886C51.9541 42.3247 51.9961 42.6327 52.0801 42.81C52.1734 42.9873 52.3181 43.076 52.5141 43.076Z" fill="#131318"/>
</g>
<defs>
<filter id="filter0_d_7250_21648" x="0" y="0" width="84" height="84" filterUnits="userSpaceOnUse" color-interpolation-filters="sRGB">
<feFlood flood-opacity="0" result="BackgroundImageFix"/>
<feColorMatrix in="SourceAlpha" type="matrix" values="0 0 0 0 0 0 0 0 0 0 0 0 0 0 0 0 0 0 127 0" result="hardAlpha"/>
<feMorphology radius="2" operator="dilate" in="SourceAlpha" result="effect1_dropShadow_7250_21648"/>
<feOffset dy="2"/>
<feComposite in2="hardAlpha" operator="out"/>
<feColorMatrix type="matrix" values="0 0 0 0 0.0745098 0 0 0 0 0.0745098 0 0 0 0 0.0941176 0 0 0 1 0"/>
<feBlend mode="normal" in2="BackgroundImageFix" result="effect1_dropShadow_7250_21648"/>
<feBlend mode="normal" in="SourceGraphic" in2="effect1_dropShadow_7250_21648" result="shape"/>
</filter>
</defs>
</svg>
