<svg width="46" height="54" viewBox="0 0 46 54" fill="none" xmlns="http://www.w3.org/2000/svg">
<g filter="url(#filter0_d_7262_21813)">
<path d="M16.7128 3.94694C14.2298 3.03153 12.0497 5.2757 12.3531 7.6376C12.6027 9.58644 12.8439 11.9511 12.8457 13.779C12.8482 19.2465 12.8186 22.3711 10.8795 27.2321C10.5853 27.9219 10.1734 28.5538 9.66243 29.0991C7.81082 31.1692 6.83953 34.6629 8.81963 37.2489L11.3378 40.5339C11.9874 41.3815 12.8571 42.031 13.8495 42.4096C14.8419 42.7882 15.9178 42.8809 16.9565 42.6774L29.9394 40.1343C31.334 39.8607 32.6556 39.2973 33.8202 38.4798C34.9849 37.6623 35.9671 36.6085 36.7048 35.3854C37.4424 34.1623 37.9193 32.7966 38.1051 31.3747C38.291 29.9529 38.1818 28.506 37.7845 27.126L35.3513 18.6643C35.0714 17.6916 34.5835 16.7917 33.922 16.0283C33.2605 15.2648 32.4416 14.6565 31.5233 14.2463C30.6049 13.8361 29.6096 13.6341 28.6075 13.6544C27.6055 13.6748 26.6213 13.9172 25.7246 14.3643L23.9227 15.2624L23.8901 15.1449C23.6368 14.2191 23.2612 12.9632 22.7674 11.6325C22.2787 10.307 21.6626 8.87779 20.9188 7.6331C20.1893 6.41216 19.2711 5.24157 18.1282 4.57397C17.6746 4.3251 17.2011 4.11534 16.7128 3.94694Z" fill="#7E84FF"/>
<path d="M8.55599 28.0861L8.56787 28.0735C8.95472 27.6606 9.26794 27.1822 9.49313 26.659C11.3117 22.0933 11.3482 19.2177 11.3457 13.7806L8.55599 28.0861ZM8.55599 28.0861L8.5444 28.0991M8.55599 28.0861L8.5444 28.0991M8.5444 28.0991C6.42767 30.4656 5.04002 34.7801 7.62866 38.1608L7.62917 38.1615M8.5444 28.0991L7.62917 38.1615M7.62917 38.1615L10.1472 41.4463C10.1473 41.4464 10.1473 41.4464 10.1473 41.4465C10.9651 42.5134 12.0613 43.3328 13.3149 43.811C14.5687 44.2894 15.9296 44.4071 17.2449 44.1494L30.2277 41.6063L30.2281 41.6062M7.62917 38.1615L30.2281 41.6062M30.2281 41.6062C31.829 41.2922 33.3458 40.6454 34.682 39.7075C36.0182 38.7696 37.1442 37.5613 37.9893 36.1601C38.8343 34.7589 39.3799 33.1955 39.5925 31.5691C39.8051 29.943 39.6802 28.2889 39.226 26.7114C39.226 26.7113 39.2259 26.7111 39.2259 26.7109L36.7929 18.2498L36.7928 18.2495M30.2281 41.6062L36.7928 18.2495M36.7928 18.2495C36.4528 17.068 35.86 15.9743 35.0556 15.046L33.922 16.0283M36.7928 18.2495L33.922 16.0283M33.922 16.0283L35.0556 15.046C34.2512 14.1176 33.2544 13.3767 32.135 12.8767M33.922 16.0283L32.135 12.8767M18.8673 3.26858L18.8847 3.27873C20.3546 4.13728 21.4319 5.56741 22.2065 6.86368L18.8673 3.26858ZM18.8673 3.26858L18.8497 3.2589M18.8673 3.26858L18.8497 3.2589M18.8497 3.2589C18.3262 2.97168 17.7798 2.72911 17.2161 2.53383C15.4106 1.87471 13.6712 2.37151 12.48 3.45247M18.8497 3.2589L12.48 3.45247M12.48 3.45247C11.316 4.50878 10.6485 6.1395 10.8652 7.82817L12.48 3.45247ZM32.135 12.8767C31.0155 12.3767 29.8009 12.1298 28.577 12.1548M32.135 12.8767L28.577 12.1548M28.577 12.1548C27.3532 12.1797 26.1509 12.4757 25.0554 13.0218M28.577 12.1548L25.0554 13.0218M25.0554 13.0218C25.0554 13.0218 25.0553 13.0219 25.0552 13.0219M25.0554 13.0218L25.0552 13.0219M25.0552 13.0219L24.859 13.1197C24.6632 12.4949 24.4348 11.8143 24.1743 11.1121C23.6687 9.74109 23.0157 8.21795 22.2065 6.86374L25.0552 13.0219ZM10.8653 7.82871C11.1133 9.76538 11.3439 12.0515 11.3457 13.7797L10.8653 7.82871Z" stroke="white" stroke-width="3"/>
</g>
<defs>
<filter id="filter0_d_7262_21813" x="0.716431" y="0.73645" width="44.4767" height="53.0463" filterUnits="userSpaceOnUse" color-interpolation-filters="sRGB">
<feFlood flood-opacity="0" result="BackgroundImageFix"/>
<feColorMatrix in="SourceAlpha" type="matrix" values="0 0 0 0 0 0 0 0 0 0 0 0 0 0 0 0 0 0 127 0" result="hardAlpha"/>
<feOffset dy="4"/>
<feGaussianBlur stdDeviation="2"/>
<feComposite in2="hardAlpha" operator="out"/>
<feColorMatrix type="matrix" values="0 0 0 0 0 0 0 0 0 0 0 0 0 0 0 0 0 0 0.25 0"/>
<feBlend mode="normal" in2="BackgroundImageFix" result="effect1_dropShadow_7262_21813"/>
<feBlend mode="normal" in="SourceGraphic" in2="effect1_dropShadow_7262_21813" result="shape"/>
</filter>
</defs>
</svg>
