<svg width="209" height="84" viewBox="0 0 209 84" fill="none" xmlns="http://www.w3.org/2000/svg">
<g filter="url(#filter0_d_7250_21678)">
<rect x="2" width="205" height="80" rx="8" fill="#FDFDFD"/>
<rect x="2.5" y="0.5" width="204" height="79" rx="7.5" stroke="#131318"/>
<path d="M18.624 24V23.952C18.66 23.748 18.912 22.956 18.912 22.188V17.172C18.912 16.404 18.66 15.612 18.624 15.408V15.36H20.784V15.408C20.736 15.612 20.496 16.404 20.496 17.172V22.188C20.496 22.956 20.736 23.748 20.784 23.952V24H18.624ZM27.5302 22.188C27.5302 22.956 27.7702 23.748 27.8182 23.952V24H25.7542V23.952C25.7902 23.748 26.0422 22.956 26.0422 22.188V20.136C26.0422 19.236 25.4902 18.876 24.8902 18.864C24.4462 18.864 24.0262 19.056 23.6302 19.392V22.188C23.6302 22.956 23.8702 23.748 23.9062 23.952V24H21.8422V23.952C21.8902 23.748 22.1302 22.956 22.1302 22.188V19.8C22.1302 19.032 21.8902 18.24 21.8422 18.036V17.988H23.6302V19.02C24.0742 18.36 24.7102 17.916 25.5622 17.916C26.5942 17.916 27.5302 18.528 27.5302 19.944V22.188ZM31.0162 24.108C30.4282 24.108 29.6242 23.952 28.7002 23.568V22.032H28.7482C29.4082 22.74 30.2122 23.628 31.1122 23.628C31.6162 23.628 32.1322 23.352 32.1322 22.776C32.1322 22.176 31.5562 21.96 30.5722 21.624C29.3362 21.192 28.5922 20.664 28.5922 19.692C28.5922 18.576 29.5762 17.916 30.9802 17.916C31.5322 17.916 32.3242 18.048 33.0922 18.384V19.848H33.0442C32.4082 19.092 31.6642 18.372 30.8482 18.372C30.3322 18.372 29.8522 18.636 29.8522 19.14C29.8522 19.728 30.5002 19.92 31.4482 20.244C32.8042 20.712 33.3322 21.288 33.3322 22.188C33.3322 23.52 32.2162 24.108 31.0162 24.108ZM34.2074 24V23.952C34.2434 23.748 34.4954 22.956 34.4954 22.188V19.8C34.4954 19.032 34.2554 18.24 34.2074 18.036V17.988H35.9834V22.188C35.9834 22.956 36.2234 23.748 36.2714 23.952V24H34.2074ZM40.8791 22.896C42.0311 22.896 42.7391 23.508 42.7391 24.552C42.7391 26.112 40.9631 26.4 39.7151 26.4C38.8151 26.4 37.0511 26.208 37.0511 25.008C37.0511 24.624 37.2311 24.276 37.5311 24.012C37.2191 23.772 37.1231 23.424 37.1231 23.1C37.1231 22.416 37.5551 22.008 38.2151 21.828C37.5791 21.48 37.0871 20.88 37.0871 20.028C37.0871 18.636 38.4311 17.916 39.6191 17.916C40.0871 17.916 40.5671 18.024 40.9871 18.24C41.3231 17.568 41.9231 17.136 42.8111 17.268L42.5831 18.456L42.5591 18.468C42.1871 18.264 41.7311 18.18 41.2271 18.372C41.7671 18.72 42.1631 19.272 42.1631 20.028C42.1631 21.444 40.7951 22.164 39.6191 22.164C39.2711 22.164 38.9111 22.104 38.5751 21.984C38.2991 22.08 38.0591 22.26 38.0591 22.5C38.0591 22.848 38.4791 22.896 38.9231 22.896H40.8791ZM39.6191 18.348C38.9471 18.348 38.5631 19.092 38.5631 20.04C38.5631 20.988 38.9471 21.732 39.6191 21.732C40.2911 21.732 40.6871 20.988 40.6871 20.04C40.6871 19.092 40.2911 18.348 39.6191 18.348ZM39.8591 25.932C40.8911 25.932 41.7551 25.56 41.7551 24.996C41.7551 24.636 41.4911 24.348 40.8311 24.348H38.8151C38.4671 24.348 38.1791 24.3 37.9511 24.228C37.9391 24.324 37.9391 24.42 37.9391 24.54C37.9271 25.32 38.5031 25.932 39.8591 25.932ZM48.9878 22.188C48.9878 22.956 49.2278 23.748 49.2758 23.952V24H47.2118V23.952C47.2478 23.748 47.4998 22.956 47.4998 22.188V20.136C47.4998 19.236 46.9358 18.876 46.2998 18.876C45.8798 18.876 45.4718 19.044 45.0878 19.332V22.188C45.0878 22.956 45.3278 23.748 45.3758 23.952V24H43.3118V23.952C43.3478 23.748 43.5998 22.956 43.5998 22.188V17.052C43.5998 16.296 43.3478 15.516 43.2758 15.324V15.276L45.0878 15.048V18.972C45.5798 18.324 46.2158 17.916 47.0198 17.916C48.0518 17.916 48.9878 18.528 48.9878 19.944V22.188ZM52.8829 23.1C53.1469 23.1 53.5069 23.028 53.8789 22.8C53.5909 23.508 53.0029 24.108 52.0789 24.108C51.1069 24.108 50.5429 23.424 50.5429 22.308V18.48H49.6669V18.06C50.8189 17.616 51.4429 16.92 51.9469 16.092H52.0429V17.988H53.6869V18.48H52.0429V22.152C52.0429 22.8 52.3669 23.1 52.8829 23.1ZM56.8677 24.108C56.2797 24.108 55.4757 23.952 54.5517 23.568V22.032H54.5997C55.2597 22.74 56.0637 23.628 56.9637 23.628C57.4677 23.628 57.9837 23.352 57.9837 22.776C57.9837 22.176 57.4077 21.96 56.4237 21.624C55.1877 21.192 54.4437 20.664 54.4437 19.692C54.4437 18.576 55.4277 17.916 56.8317 17.916C57.3837 17.916 58.1757 18.048 58.9437 18.384V19.848H58.8957C58.2597 19.092 57.5157 18.372 56.6997 18.372C56.1837 18.372 55.7037 18.636 55.7037 19.14C55.7037 19.728 56.3517 19.92 57.2997 20.244C58.6557 20.712 59.1837 21.288 59.1837 22.188C59.1837 23.52 58.0677 24.108 56.8677 24.108ZM66.222 17.916C67.506 17.916 68.574 18.948 68.574 20.916C68.574 23.076 67.278 24.096 65.958 24.096C65.49 24.096 64.914 23.952 64.434 23.508L62.958 24.072L62.946 17.052C62.946 16.296 62.694 15.516 62.634 15.324L62.622 15.276L64.458 15.048V18.828C64.866 18.216 65.526 17.916 66.222 17.916ZM65.31 23.34C66.474 23.34 66.954 22.152 66.954 20.916C66.954 19.788 66.546 18.78 65.562 18.78C65.154 18.78 64.782 18.984 64.458 19.32V23.124C64.746 23.28 65.046 23.34 65.31 23.34ZM74.7612 17.988V18.036C74.6652 18.168 74.2692 18.804 74.0052 19.44L71.7492 25.008C71.1852 26.424 70.2252 26.664 68.8812 26.148L69.1812 24.708L69.2052 24.696C69.9492 25.44 70.9092 25.812 71.3412 24.732L71.5572 24.192L69.5052 19.632C69.1932 18.936 68.7492 18.24 68.5572 18.036V17.988H71.0772V18.024C70.9932 18.216 70.8132 18.924 71.1012 19.584L72.3132 22.32L73.4172 19.596C73.6932 18.924 73.4892 18.216 73.4052 18.024V17.988H74.7612ZM84.7667 22.128C85.0547 22.908 85.3307 23.496 85.6547 23.964V24H83.1707V23.952C83.2427 23.724 83.3387 22.896 83.0387 22.104L82.6427 21.06H79.4267L79.1747 21.756C78.8387 22.692 79.0787 23.676 79.1747 23.94V24H77.6387V23.964C77.8907 23.544 78.2867 22.668 78.6347 21.684L80.4467 16.68C80.6507 16.128 80.4107 15.552 80.3387 15.396V15.36H82.2107L84.7667 22.128ZM79.6067 20.556H82.4627L80.9987 16.668L79.6067 20.556ZM86.3467 24V23.952C86.3827 23.748 86.6347 22.956 86.6347 22.188V17.172C86.6347 16.404 86.3827 15.612 86.3467 15.408V15.36H88.5067V15.408C88.4587 15.612 88.2187 16.404 88.2187 17.172V22.188C88.2187 22.956 88.4587 23.748 88.5067 23.952V24H86.3467Z" fill="#111827"/>
<rect x="18" y="32" width="107" height="4" rx="2" fill="#E5E2EA"/>
<rect x="18" y="40" width="173" height="4" rx="2" fill="#E5E2EA"/>
<path d="M27.579 50.2616C27.7511 49.9128 28.2485 49.9128 28.4206 50.2616L30.649 54.7767C30.7173 54.9152 30.8495 55.0112 31.0023 55.0334L35.985 55.7574C36.3699 55.8134 36.5236 56.2864 36.2451 56.5579L32.6396 60.0724C32.529 60.1802 32.4785 60.3355 32.5046 60.4878L33.3558 65.4504C33.4215 65.8337 33.0191 66.126 32.6749 65.9451L28.2182 63.602C28.0815 63.5302 27.9182 63.5302 27.7814 63.602L23.3248 65.9451C22.9805 66.126 22.5781 65.8337 22.6439 65.4504L23.495 60.4878C23.5211 60.3355 23.4707 60.1802 23.3601 60.0724L19.7545 56.5579C19.476 56.2864 19.6297 55.8134 20.0146 55.7574L24.9973 55.0334C25.1502 55.0112 25.2823 54.9152 25.3507 54.7767L27.579 50.2616Z" fill="#FFC500" stroke="#131318" stroke-linejoin="round"/>
<path d="M51.579 50.2616C51.7511 49.9128 52.2485 49.9128 52.4206 50.2616L54.649 54.7767C54.7173 54.9152 54.8495 55.0112 55.0023 55.0334L59.985 55.7574C60.3699 55.8134 60.5236 56.2864 60.2451 56.5579L56.6396 60.0724C56.529 60.1802 56.4785 60.3355 56.5046 60.4878L57.3558 65.4504C57.4215 65.8337 57.0191 66.126 56.6749 65.9451L52.2182 63.602C52.0815 63.5302 51.9182 63.5302 51.7814 63.602L47.3248 65.9451C46.9805 66.126 46.5781 65.8337 46.6439 65.4504L47.495 60.4878C47.5211 60.3355 47.4707 60.1802 47.3601 60.0724L43.7545 56.5579C43.476 56.2864 43.6297 55.8134 44.0146 55.7574L48.9973 55.0334C49.1502 55.0112 49.2823 54.9152 49.3507 54.7767L51.579 50.2616Z" fill="#FFC500" stroke="#131318" stroke-linejoin="round"/>
<path d="M75.579 50.2616C75.7511 49.9128 76.2485 49.9128 76.4206 50.2616L78.649 54.7767C78.7173 54.9152 78.8495 55.0112 79.0023 55.0334L83.985 55.7574C84.3699 55.8134 84.5236 56.2864 84.2451 56.5579L80.6396 60.0724C80.529 60.1802 80.4785 60.3355 80.5046 60.4878L81.3558 65.4504C81.4215 65.8337 81.0191 66.126 80.6749 65.9451L76.2182 63.602C76.0815 63.5302 75.9182 63.5302 75.7814 63.602L71.3248 65.9451C70.9805 66.126 70.5781 65.8337 70.6439 65.4504L71.495 60.4878C71.5211 60.3355 71.4707 60.1802 71.3601 60.0724L67.7545 56.5579C67.476 56.2864 67.6297 55.8134 68.0146 55.7574L72.9973 55.0334C73.1502 55.0112 73.2823 54.9152 73.3507 54.7767L75.579 50.2616Z" fill="#FFC500" stroke="#131318" stroke-linejoin="round"/>
<path d="M99.579 50.2616C99.7511 49.9128 100.248 49.9128 100.421 50.2616L102.649 54.7767C102.717 54.9152 102.849 55.0112 103.002 55.0334L107.985 55.7574C108.37 55.8134 108.524 56.2864 108.245 56.5579L104.64 60.0724C104.529 60.1802 104.479 60.3355 104.505 60.4878L105.356 65.4504C105.422 65.8337 105.019 66.126 104.675 65.9451L100.218 63.602C100.081 63.5302 99.9182 63.5302 99.7814 63.602L95.3248 65.9451C94.9805 66.126 94.5781 65.8337 94.6439 65.4504L95.495 60.4878C95.5211 60.3355 95.4707 60.1802 95.3601 60.0724L91.7545 56.5579C91.476 56.2864 91.6297 55.8134 92.0146 55.7574L96.9973 55.0334C97.1502 55.0112 97.2823 54.9152 97.3507 54.7767L99.579 50.2616Z" fill="#FFC500" stroke="#131318" stroke-linejoin="round"/>
<path d="M123.579 50.2616C123.751 49.9128 124.248 49.9128 124.421 50.2616L126.649 54.7767C126.717 54.9152 126.849 55.0112 127.002 55.0334L131.985 55.7574C132.37 55.8134 132.524 56.2864 132.245 56.5579L128.64 60.0724C128.529 60.1802 128.479 60.3355 128.505 60.4878L129.356 65.4504C129.422 65.8337 129.019 66.126 128.675 65.9451L124.218 63.602C124.081 63.5302 123.918 63.5302 123.781 63.602L119.325 65.9451C118.98 66.126 118.578 65.8337 118.644 65.4504L119.495 60.4878C119.521 60.3355 119.471 60.1802 119.36 60.0724L115.755 56.5579C115.476 56.2864 115.63 55.8134 116.015 55.7574L120.997 55.0334C121.15 55.0112 121.282 54.9152 121.351 54.7767L123.579 50.2616Z" fill="#FFC500" stroke="#131318" stroke-linejoin="round"/>
</g>
<defs>
<filter id="filter0_d_7250_21678" x="0" y="0" width="209" height="84" filterUnits="userSpaceOnUse" color-interpolation-filters="sRGB">
<feFlood flood-opacity="0" result="BackgroundImageFix"/>
<feColorMatrix in="SourceAlpha" type="matrix" values="0 0 0 0 0 0 0 0 0 0 0 0 0 0 0 0 0 0 127 0" result="hardAlpha"/>
<feMorphology radius="2" operator="dilate" in="SourceAlpha" result="effect1_dropShadow_7250_21678"/>
<feOffset dy="2"/>
<feComposite in2="hardAlpha" operator="out"/>
<feColorMatrix type="matrix" values="0 0 0 0 0.0745098 0 0 0 0 0.0745098 0 0 0 0 0.0941176 0 0 0 1 0"/>
<feBlend mode="normal" in2="BackgroundImageFix" result="effect1_dropShadow_7250_21678"/>
<feBlend mode="normal" in="SourceGraphic" in2="effect1_dropShadow_7250_21678" result="shape"/>
</filter>
</defs>
</svg>
