<svg width="22" height="21" viewBox="0 0 22 21" fill="none" xmlns="http://www.w3.org/2000/svg">
<path fill-rule="evenodd" clip-rule="evenodd" d="M1.66661 7.23203C2.11057 5.37013 2.29504 3.43186 2.45993 1.55218C2.49407 1.14738 2.1999 0.784428 1.80515 0.771215C1.40897 0.729241 1.06011 1.03138 1.02483 1.40741C0.866596 3.22919 0.694515 5.10899 0.266413 6.88381C0.173301 7.26213 0.411356 7.65634 0.798011 7.75632C1.18438 7.85632 1.57321 7.61035 1.66661 7.23203Z" fill="black"/>
<path fill-rule="evenodd" clip-rule="evenodd" d="M9.21377 12.5242C12.1209 9.44103 14.624 5.9992 17.6146 2.97037C17.8944 2.69995 17.8918 2.23896 17.6096 1.96194C17.3272 1.68492 16.8703 1.67428 16.5917 1.97347C13.5922 5.00266 11.0804 8.44483 8.16434 11.5284C7.89259 11.8273 7.90675 12.2877 8.19665 12.5644C8.48512 12.8124 8.94202 12.8231 9.21377 12.5242Z" fill="black"/>
<path fill-rule="evenodd" clip-rule="evenodd" d="M21.0659 17.6179C19.3383 17.7726 17.6108 17.9272 15.8829 18.0819C15.4864 18.0976 15.1939 18.4552 15.2291 18.8572C15.2646 19.2593 15.6135 19.5335 16.0103 19.5178C17.7407 19.3629 19.4709 19.2083 21.201 19.0534C21.5964 19.009 21.8869 18.6516 21.8494 18.2496C21.813 17.8764 21.461 17.5734 21.0659 17.6179Z" fill="black"/>
</svg>
