<svg width="38" height="36" viewBox="0 0 38 36" fill="none" xmlns="http://www.w3.org/2000/svg">
<g filter="url(#filter0_d_7262_21858)">
<rect x="2" width="33.1381" height="32" rx="16" fill="white" shape-rendering="crispEdges"/>
<rect x="2.5" y="0.5" width="32.1381" height="31" rx="15.5" stroke="#131318" shape-rendering="crispEdges"/>
<g clip-path="url(#clip0_7262_21858)">
<path d="M21.954 13.9784H26.3808C26.7991 13.9784 27.1381 14.3175 27.1381 14.7357V18.7679C27.1381 20.305 25.892 21.5511 24.3549 21.5511H24.3418C22.8047 21.5513 21.5584 20.3054 21.5582 18.7683V14.3742C21.5582 14.3223 21.5684 14.2708 21.5883 14.2227C21.6082 14.1747 21.6373 14.1311 21.6741 14.0943C21.7108 14.0575 21.7545 14.0284 21.8025 14.0085C21.8505 13.9886 21.902 13.9784 21.954 13.9784Z" fill="#5059C9"/>
<path d="M24.946 13.1813C25.9366 13.1813 26.7395 12.3783 26.7395 11.3878C26.7395 10.3972 25.9366 9.59424 24.946 9.59424C23.9555 9.59424 23.1525 10.3972 23.1525 11.3878C23.1525 12.3783 23.9555 13.1813 24.946 13.1813Z" fill="#5059C9"/>
<path d="M19.3662 13.1813C20.797 13.1813 21.9568 12.0214 21.9568 10.5907C21.9568 9.15988 20.797 8 19.3662 8C17.9354 8 16.7755 9.15988 16.7755 10.5907C16.7755 12.0214 17.9354 13.1813 19.3662 13.1813Z" fill="#7B83EB"/>
<path d="M22.8205 13.9784H15.5133C15.1001 13.9886 14.7732 14.3316 14.7827 14.7449V19.3438C14.725 21.8237 16.687 23.8817 19.1669 23.9424C21.6467 23.8817 23.6087 21.8237 23.5511 19.3438V14.7449C23.5606 14.3316 23.2337 13.9886 22.8205 13.9784Z" fill="#7B83EB"/>
<path opacity="0.1" d="M19.5655 13.9784V20.4231C19.5645 20.5677 19.5209 20.7087 19.44 20.8286C19.3592 20.9484 19.2448 21.0417 19.1111 21.0967C19.0241 21.1335 18.9306 21.1525 18.8361 21.1525H15.1334C15.0816 21.0209 15.0338 20.8894 14.9939 20.754C14.8544 20.2966 14.7832 19.8212 14.7827 19.343V14.7436C14.7731 14.3311 15.0995 13.9886 15.512 13.9785L19.5655 13.9784Z" fill="black"/>
<path opacity="0.2" d="M19.1669 13.9784V20.8217C19.1669 20.9162 19.1479 21.0097 19.1111 21.0967C19.0561 21.2304 18.9628 21.3448 18.8429 21.4257C18.7231 21.5065 18.582 21.5501 18.4375 21.5511H15.3208C15.2531 21.4195 15.1893 21.288 15.1335 21.1525C15.0799 21.0222 15.0334 20.8892 14.994 20.754C14.8545 20.2966 14.7833 19.8212 14.7828 19.343V14.7436C14.7732 14.3311 15.0996 13.9886 15.5122 13.9785L19.1669 13.9784Z" fill="black"/>
<path opacity="0.2" d="M19.1668 13.9784V20.0246C19.1638 20.4261 18.839 20.7509 18.4374 20.754H14.9939C14.8544 20.2966 14.7832 19.8212 14.7827 19.343V14.7436C14.7731 14.3311 15.0995 13.9886 15.512 13.9785L19.1668 13.9784Z" fill="black"/>
<path opacity="0.2" d="M18.7683 13.9784V20.0246C18.7652 20.4261 18.4404 20.7509 18.0389 20.754H14.9939C14.8544 20.2966 14.7832 19.8212 14.7827 19.343V14.7436C14.7731 14.3311 15.0995 13.9886 15.512 13.9785L18.7683 13.9784Z" fill="black"/>
<path opacity="0.1" d="M19.5655 11.9178V13.1733C19.4977 13.1773 19.4339 13.1813 19.3662 13.1813C19.2984 13.1813 19.2346 13.1773 19.1669 13.1733C19.0324 13.1644 18.899 13.143 18.7684 13.1095C18.3705 13.0153 18.0005 12.8282 17.6888 12.5636C17.3771 12.299 17.1324 11.9644 16.9748 11.5871C16.9198 11.4585 16.8771 11.3251 16.8473 11.1885H18.8361C19.2383 11.19 19.5639 11.5156 19.5655 11.9178Z" fill="black"/>
<path opacity="0.2" d="M19.1669 12.3163V13.1732C19.0323 13.1643 18.8989 13.143 18.7683 13.1095C18.3705 13.0153 18.0005 12.8282 17.6888 12.5636C17.3771 12.299 17.1324 11.9643 16.9749 11.587H18.4375C18.8397 11.5885 19.1653 11.9142 19.1669 12.3163Z" fill="black"/>
<path opacity="0.2" d="M19.1669 12.3163V13.1732C19.0323 13.1643 18.8989 13.143 18.7683 13.1095C18.3705 13.0153 18.0005 12.8282 17.6888 12.5636C17.3771 12.299 17.1324 11.9643 16.9749 11.587H18.4375C18.8397 11.5885 19.1653 11.9142 19.1669 12.3163Z" fill="black"/>
<path opacity="0.2" d="M18.7684 12.3164V13.1096C18.3705 13.0153 18.0006 12.8283 17.6888 12.5636C17.3771 12.299 17.1324 11.9643 16.9749 11.587H18.039C18.4412 11.5886 18.7669 11.9143 18.7684 12.3164Z" fill="black"/>
<path d="M10.7306 11.587H18.0377C18.4412 11.587 18.7683 11.9141 18.7683 12.3176V19.6247C18.7683 20.0282 18.4412 20.3553 18.0378 20.3553H10.7306C10.3271 20.3553 10 20.0282 10 19.6247V12.3176C10 11.914 10.3271 11.587 10.7306 11.587Z" fill="url(#paint0_linear_7262_21858)"/>
<path d="M16.3068 14.3682H14.8461V18.3458H13.9155V14.3682H12.4615V13.5966H16.3068V14.3682Z" fill="white"/>
</g>
</g>
<defs>
<filter id="filter0_d_7262_21858" x="0" y="0" width="37.1381" height="36" filterUnits="userSpaceOnUse" color-interpolation-filters="sRGB">
<feFlood flood-opacity="0" result="BackgroundImageFix"/>
<feColorMatrix in="SourceAlpha" type="matrix" values="0 0 0 0 0 0 0 0 0 0 0 0 0 0 0 0 0 0 127 0" result="hardAlpha"/>
<feMorphology radius="2" operator="dilate" in="SourceAlpha" result="effect1_dropShadow_7262_21858"/>
<feOffset dy="2"/>
<feComposite in2="hardAlpha" operator="out"/>
<feColorMatrix type="matrix" values="0 0 0 0 0.862745 0 0 0 0 0.796078 0 0 0 0 1 0 0 0 1 0"/>
<feBlend mode="normal" in2="BackgroundImageFix" result="effect1_dropShadow_7262_21858"/>
<feBlend mode="normal" in="SourceGraphic" in2="effect1_dropShadow_7262_21858" result="shape"/>
</filter>
<linearGradient id="paint0_linear_7262_21858" x1="162.323" y1="-45.4954" x2="734.516" y2="945.506" gradientUnits="userSpaceOnUse">
<stop stop-color="#5A62C3"/>
<stop offset="0.5" stop-color="#4D55BD"/>
<stop offset="1" stop-color="#3940AB"/>
</linearGradient>
<clipPath id="clip0_7262_21858">
<rect width="17.1381" height="16" fill="white" transform="translate(10 8)"/>
</clipPath>
</defs>
</svg>
