<svg width="36" height="36" viewBox="0 0 36 36" fill="none" xmlns="http://www.w3.org/2000/svg">
<g filter="url(#filter0_d_7262_21848)">
<rect x="2" width="32" height="32" rx="16" fill="white" shape-rendering="crispEdges"/>
<rect x="2.5" y="0.5" width="31" height="31" rx="15.5" stroke="#131318" shape-rendering="crispEdges"/>
<g clip-path="url(#clip0_7262_21848)">
<path d="M22.2106 11.7896H13.7896V20.2106H22.2106V11.7896Z" fill="white"/>
<path d="M22.2106 24L26.0001 20.2105L24.1053 19.8872L22.2106 20.2105L21.8647 21.9436L22.2106 24Z" fill="#EA4335"/>
<path d="M10 20.2105V22.7368C10 23.4347 10.5652 24 11.2631 24H13.7895L14.1786 22.1052L13.7895 20.2105L11.7249 19.8872L10 20.2105Z" fill="#188038"/>
<path d="M26.0001 11.7895V9.26312C26.0001 8.56525 25.4348 8 24.7369 8H22.2106C21.9801 8.93975 21.8648 9.63133 21.8647 10.0747C21.8647 10.5181 21.98 11.0897 22.2106 11.7895C23.0487 12.0295 23.6803 12.1495 24.1053 12.1495C24.5304 12.1495 25.1619 12.0295 26.0001 11.7895Z" fill="#1967D2"/>
<path d="M25.9999 11.7896H22.2104V20.2106H25.9999V11.7896Z" fill="#FBBC04"/>
<path d="M22.2106 20.2104H13.7896V23.9999H22.2106V20.2104Z" fill="#34A853"/>
<path d="M22.2105 8H11.2632C10.5653 8 10 8.56525 10 9.26312V20.2105H13.7895V11.7895H22.2105V8Z" fill="#4285F4"/>
<path d="M15.5169 18.3222C15.2021 18.1096 14.9842 17.7991 14.8652 17.3884L15.5958 17.0874C15.662 17.3401 15.7778 17.5358 15.9432 17.6748C16.1074 17.8137 16.3074 17.8822 16.541 17.8822C16.78 17.8822 16.9852 17.8095 17.1568 17.6642C17.3284 17.519 17.4147 17.3337 17.4147 17.1096C17.4147 16.8801 17.3242 16.6927 17.1432 16.5474C16.9621 16.4022 16.7347 16.3296 16.4632 16.3296H16.041V15.6064H16.42C16.6537 15.6064 16.8505 15.5432 17.0105 15.4169C17.1705 15.2906 17.2505 15.1179 17.2505 14.8979C17.2505 14.7022 17.1789 14.5464 17.0358 14.4296C16.8927 14.3127 16.7115 14.2537 16.4915 14.2537C16.2768 14.2537 16.1063 14.3106 15.98 14.4253C15.8537 14.5403 15.7588 14.6856 15.7042 14.8474L14.981 14.5464C15.0768 14.2748 15.2526 14.0348 15.5105 13.8274C15.7684 13.6201 16.0979 13.5159 16.4979 13.5159C16.7937 13.5159 17.06 13.5727 17.2958 13.6874C17.5315 13.8022 17.7168 13.9611 17.8505 14.1632C17.9842 14.3664 18.0505 14.5937 18.0505 14.8464C18.0505 15.1042 17.9884 15.3222 17.8642 15.5011C17.74 15.6801 17.5874 15.8169 17.4063 15.9127V15.9558C17.6401 16.0522 17.8432 16.2105 17.9937 16.4137C18.1463 16.619 18.2232 16.8642 18.2232 17.1506C18.2232 17.4369 18.1505 17.6927 18.0052 17.9169C17.86 18.1411 17.659 18.3179 17.4042 18.4464C17.1484 18.5748 16.861 18.6401 16.5421 18.6401C16.1726 18.6411 15.8316 18.5348 15.5169 18.3222ZM20.0041 14.6969L19.202 15.2769L18.801 14.6685L20.2399 13.6306H20.7915V18.5264H20.0041V14.6969Z" fill="#4285F4"/>
</g>
</g>
<defs>
<filter id="filter0_d_7262_21848" x="0" y="0" width="36" height="36" filterUnits="userSpaceOnUse" color-interpolation-filters="sRGB">
<feFlood flood-opacity="0" result="BackgroundImageFix"/>
<feColorMatrix in="SourceAlpha" type="matrix" values="0 0 0 0 0 0 0 0 0 0 0 0 0 0 0 0 0 0 127 0" result="hardAlpha"/>
<feMorphology radius="2" operator="dilate" in="SourceAlpha" result="effect1_dropShadow_7262_21848"/>
<feOffset dy="2"/>
<feComposite in2="hardAlpha" operator="out"/>
<feColorMatrix type="matrix" values="0 0 0 0 0.862745 0 0 0 0 0.796078 0 0 0 0 1 0 0 0 1 0"/>
<feBlend mode="normal" in2="BackgroundImageFix" result="effect1_dropShadow_7262_21848"/>
<feBlend mode="normal" in="SourceGraphic" in2="effect1_dropShadow_7262_21848" result="shape"/>
</filter>
<clipPath id="clip0_7262_21848">
<rect width="16" height="16" fill="white" transform="translate(10 8)"/>
</clipPath>
</defs>
</svg>
