<svg width="37" height="36" viewBox="0 0 37 36" fill="none" xmlns="http://www.w3.org/2000/svg">
<g filter="url(#filter0_d_7262_21888)">
<rect x="2.13806" width="32" height="32" rx="16" fill="white" shape-rendering="crispEdges"/>
<rect x="2.63806" y="0.5" width="31" height="31" rx="15.5" stroke="#131318" shape-rendering="crispEdges"/>
<g clip-path="url(#clip0_7262_21888)">
<path d="M22.3881 8H13.8881C11.817 8 10.1381 9.67893 10.1381 11.75V20.25C10.1381 22.3211 11.817 24 13.8881 24H22.3881C24.4591 24 26.1381 22.3211 26.1381 20.25V11.75C26.1381 9.67893 24.4591 8 22.3881 8Z" fill="white"/>
<path d="M22.3881 8H13.8881C11.817 8 10.1381 9.67893 10.1381 11.75V20.25C10.1381 22.3211 11.817 24 13.8881 24H22.3881C24.4591 24 26.1381 22.3211 26.1381 20.25V11.75C26.1381 9.67893 24.4591 8 22.3881 8Z" fill="#0A66C2"/>
<path d="M21.6827 21.6053H23.5121C23.5784 21.6053 23.642 21.579 23.6889 21.5321C23.7358 21.4852 23.7621 21.4217 23.7621 21.3554L23.7631 17.4902C23.7631 15.4701 23.3277 13.9173 20.9669 13.9173C20.0695 13.8839 19.2232 14.3465 18.7665 15.119C18.7643 15.1228 18.7609 15.1257 18.7568 15.1273C18.7528 15.129 18.7483 15.1292 18.7441 15.1281C18.7399 15.1269 18.7361 15.1245 18.7335 15.121C18.7308 15.1175 18.7293 15.1133 18.7293 15.1089V14.3538C18.7293 14.2874 18.703 14.2239 18.6561 14.177C18.6092 14.1301 18.5456 14.1038 18.4793 14.1038H16.7432C16.6769 14.1038 16.6134 14.1301 16.5665 14.177C16.5196 14.2239 16.4932 14.2874 16.4932 14.3538V21.355C16.4932 21.4213 16.5196 21.4849 16.5665 21.5318C16.6134 21.5787 16.6769 21.605 16.7432 21.605H18.5725C18.6388 21.605 18.7024 21.5787 18.7493 21.5318C18.7962 21.4849 18.8225 21.4213 18.8225 21.355V17.8942C18.8225 16.9156 19.0081 15.9679 20.2213 15.9679C21.4172 15.9679 21.4327 17.0877 21.4327 17.9576V21.3553C21.4327 21.4216 21.4591 21.4852 21.506 21.5321C21.5529 21.579 21.6164 21.6053 21.6827 21.6053ZM12.5131 11.7267C12.5131 12.4682 13.1235 13.0784 13.8651 13.0784C14.6064 13.0783 15.2165 12.4678 15.2165 11.7264C15.2164 10.9851 14.6062 10.375 13.8648 10.375C13.1232 10.375 12.5131 10.9852 12.5131 11.7267ZM12.948 21.6053H14.7797C14.846 21.6053 14.9096 21.579 14.9565 21.5321C15.0033 21.4852 15.0297 21.4216 15.0297 21.3553V14.3538C15.0297 14.2874 15.0033 14.2239 14.9565 14.177C14.9096 14.1301 14.846 14.1038 14.7797 14.1038H12.948C12.8817 14.1038 12.8181 14.1301 12.7712 14.177C12.7243 14.2239 12.698 14.2874 12.698 14.3538V21.3553C12.698 21.4216 12.7243 21.4852 12.7712 21.5321C12.8181 21.579 12.8817 21.6053 12.948 21.6053Z" fill="white"/>
</g>
</g>
<defs>
<filter id="filter0_d_7262_21888" x="0.138062" y="0" width="36" height="36" filterUnits="userSpaceOnUse" color-interpolation-filters="sRGB">
<feFlood flood-opacity="0" result="BackgroundImageFix"/>
<feColorMatrix in="SourceAlpha" type="matrix" values="0 0 0 0 0 0 0 0 0 0 0 0 0 0 0 0 0 0 127 0" result="hardAlpha"/>
<feMorphology radius="2" operator="dilate" in="SourceAlpha" result="effect1_dropShadow_7262_21888"/>
<feOffset dy="2"/>
<feComposite in2="hardAlpha" operator="out"/>
<feColorMatrix type="matrix" values="0 0 0 0 0.862745 0 0 0 0 0.796078 0 0 0 0 1 0 0 0 1 0"/>
<feBlend mode="normal" in2="BackgroundImageFix" result="effect1_dropShadow_7262_21888"/>
<feBlend mode="normal" in="SourceGraphic" in2="effect1_dropShadow_7262_21888" result="shape"/>
</filter>
<clipPath id="clip0_7262_21888">
<rect width="16" height="16" fill="white" transform="translate(10.1381 8)"/>
</clipPath>
</defs>
</svg>
