<svg width="37" height="36" viewBox="0 0 37 36" fill="none" xmlns="http://www.w3.org/2000/svg">
<g filter="url(#filter0_d_7262_21878)">
<rect x="2.13806" width="32" height="32" rx="16" fill="white" shape-rendering="crispEdges"/>
<rect x="2.63806" y="0.5" width="31" height="31" rx="15.5" stroke="#131318" shape-rendering="crispEdges"/>
<g clip-path="url(#clip0_7262_21878)">
<path d="M23.8381 10.75H19.2381L18.1881 12.85H12.2881V21.25H24.8881V10.75H23.8381ZM23.8381 20.1H13.4381V13.9H23.8381V20.1ZM23.8381 12.85H19.7381L20.2381 11.8H23.7881V12.85H23.8381Z" fill="#BFDB7B"/>
<path d="M22.9881 14.85H10.3881L12.2881 21.25H24.8881L22.9881 14.85Z" fill="#BFDB7B"/>
<path d="M24.0245 23.5381C23.7795 23.5383 23.5397 23.4671 23.3346 23.333C23.1295 23.199 22.968 23.008 22.8699 22.7835C22.7717 22.559 22.7413 22.3107 22.7823 22.0691C22.8233 21.8275 22.9339 21.6032 23.1005 21.4236L22.2655 20.1536C21.9657 20.3017 21.6351 20.3767 21.3008 20.3724C20.9664 20.368 20.6378 20.2845 20.342 20.1286L19.511 21.0136C19.6316 21.2371 19.6695 21.496 19.6181 21.7448C19.5668 21.9936 19.4294 22.2163 19.2302 22.3739C19.031 22.5314 18.7826 22.6138 18.5287 22.6064C18.2748 22.5991 18.0316 22.5025 17.8418 22.3337C17.652 22.1648 17.5278 21.9345 17.4909 21.6832C17.454 21.4319 17.5069 21.1756 17.6402 20.9594C17.7735 20.7432 17.9787 20.5808 18.2198 20.5008C18.4609 20.4208 18.7224 20.4284 18.9585 20.5221L19.755 19.6721C19.4001 19.2816 19.2039 18.7727 19.205 18.2451C19.205 18.1763 19.2085 18.1075 19.2155 18.0391L17.3155 17.4561C17.1291 17.6872 16.8669 17.8449 16.5754 17.9014C16.2838 17.9579 15.9817 17.9094 15.7225 17.7647C15.4632 17.6199 15.2635 17.3881 15.1586 17.1103C15.0537 16.8325 15.0505 16.5265 15.1494 16.2465C15.2484 15.9666 15.4431 15.7306 15.6993 15.5803C15.9554 15.4301 16.2564 15.3753 16.5491 15.4255C16.8417 15.4758 17.1072 15.6279 17.2985 15.8551C17.4898 16.0822 17.5947 16.3696 17.5945 16.6666C17.5945 16.7001 17.5945 16.7336 17.59 16.7666L19.413 17.3261C19.5582 17.0211 19.7743 16.7553 20.0433 16.5509C20.3123 16.3466 20.6263 16.2096 20.959 16.1516V14.9611C20.7334 14.8747 20.5451 14.712 20.4269 14.5012C20.3087 14.2905 20.2681 14.045 20.312 13.8074C20.3559 13.5698 20.4817 13.3551 20.6674 13.2006C20.8532 13.046 21.0871 12.9614 21.3288 12.9614C21.5704 12.9614 21.8044 13.046 21.9901 13.2006C22.1758 13.3551 22.3016 13.5698 22.3455 13.8074C22.3895 14.045 22.3488 14.2905 22.2306 14.5012C22.1124 14.712 21.9242 14.8747 21.6985 14.9611V16.1541C22.1808 16.2392 22.6188 16.4886 22.938 16.8601L23.902 16.2791C23.8974 16.2416 23.8949 16.2038 23.8945 16.1661C23.8946 15.9874 23.9477 15.8128 24.047 15.6643C24.1463 15.5158 24.2874 15.4001 24.4525 15.3317C24.6176 15.2634 24.7992 15.2456 24.9744 15.2804C25.1496 15.3153 25.3106 15.4014 25.4369 15.5277C25.5632 15.654 25.6493 15.815 25.6841 15.9902C25.719 16.1654 25.7012 16.347 25.6328 16.5121C25.5645 16.6772 25.4488 16.8183 25.3003 16.9176C25.1518 17.0169 24.9772 17.07 24.7985 17.0701C24.6158 17.0701 24.4374 17.0144 24.287 16.9106L23.318 17.4961C23.4092 17.7356 23.4558 17.9898 23.4555 18.2461V18.2641L23.984 18.3556C24.1097 18.1917 24.2879 18.0758 24.4887 18.0274C24.6895 17.9789 24.9008 18.0007 25.0875 18.0893C25.2741 18.1778 25.4248 18.3276 25.5143 18.5138C25.6038 18.7 25.6268 18.9112 25.5794 19.1122C25.5321 19.3133 25.4172 19.4921 25.254 19.6187C25.0907 19.7453 24.889 19.8121 24.6825 19.808C24.476 19.8039 24.2771 19.7291 24.1191 19.596C23.961 19.463 23.8533 19.2798 23.814 19.0771L23.3205 18.9911C23.2189 19.2604 23.0641 19.5066 22.8655 19.7151L23.7415 21.0501C23.9145 21.01 24.0939 21.0069 24.2681 21.0411C24.4423 21.0752 24.6074 21.1458 24.7524 21.2483C24.8974 21.3507 25.0191 21.4826 25.1095 21.6353C25.2 21.7881 25.2571 21.9582 25.2772 22.1346C25.2973 22.311 25.2798 22.4897 25.226 22.6588C25.1722 22.828 25.0833 22.9839 24.965 23.1163C24.8467 23.2486 24.7018 23.3545 24.5397 23.427C24.3776 23.4994 24.202 23.5367 24.0245 23.5366V23.5381Z" fill="white"/>
<path d="M24.699 18.0645C24.5635 18.0645 24.4301 18.0973 24.31 18.1601C24.1899 18.2228 24.0868 18.3137 24.0095 18.425L23.3895 18.3175V18.2475C23.3896 17.9806 23.3377 17.7164 23.2365 17.4695L24.2865 16.836C24.4427 16.9546 24.6355 17.015 24.8315 17.0067C25.0275 16.9984 25.2144 16.922 25.36 16.7905C25.5056 16.6591 25.6008 16.4809 25.6291 16.2868C25.6573 16.0927 25.6169 15.8948 25.5148 15.7273C25.4127 15.5598 25.2553 15.4331 25.0698 15.3693C24.8843 15.3055 24.6824 15.3084 24.4988 15.3776C24.3153 15.4468 24.1616 15.5779 24.0644 15.7483C23.9672 15.9188 23.9326 16.1177 23.9665 16.311L22.9215 16.9415C22.5989 16.5468 22.1418 16.2853 21.638 16.2075V14.9175C21.8568 14.8445 22.0425 14.696 22.1618 14.4986C22.2812 14.3012 22.3264 14.0678 22.2894 13.8401C22.2525 13.6125 22.1357 13.4054 21.96 13.2559C21.7843 13.1065 21.5612 13.0244 21.3305 13.0244C21.0999 13.0244 20.8767 13.1065 20.701 13.2559C20.5253 13.4054 20.4086 13.6125 20.3716 13.8401C20.3346 14.0678 20.3798 14.3012 20.4992 14.4986C20.6185 14.696 20.8042 14.8445 21.023 14.9175V16.2075C20.6815 16.2598 20.3586 16.3967 20.0835 16.6058C19.8085 16.8148 19.5902 17.0894 19.4485 17.4045L17.5245 16.8135C17.5599 16.525 17.4892 16.2335 17.3255 15.9933C17.1619 15.7531 16.9165 15.5806 16.635 15.508C16.3536 15.4354 16.0554 15.4677 15.796 15.5987C15.5365 15.7298 15.3336 15.9507 15.2251 16.2203C15.1165 16.4899 15.1097 16.7898 15.206 17.0641C15.3022 17.3383 15.4949 17.5682 15.7481 17.7109C16.0013 17.8535 16.2978 17.8992 16.5822 17.8395C16.8667 17.7797 17.1196 17.6185 17.294 17.386L19.2835 17.997C19.2457 18.3006 19.2763 18.6089 19.3731 18.8991C19.4699 19.1894 19.6305 19.4543 19.843 19.6745L18.9765 20.597C18.754 20.498 18.5034 20.4818 18.27 20.5515C18.0367 20.6212 17.8359 20.7721 17.7041 20.9769C17.5723 21.1817 17.5181 21.4269 17.5514 21.6681C17.5846 21.9094 17.7031 22.1308 17.8854 22.2923C18.0677 22.4538 18.3018 22.5448 18.5453 22.5487C18.7888 22.5527 19.0257 22.4694 19.2131 22.3139C19.4006 22.1583 19.5262 21.9409 19.5672 21.7008C19.6083 21.4608 19.5621 21.2139 19.437 21.005L20.33 20.05C20.6288 20.2161 20.9642 20.305 21.306 20.3088C21.6478 20.3125 21.9852 20.231 22.2875 20.0715L23.181 21.43C22.9756 21.6349 22.8518 21.9076 22.8326 22.1972C22.8134 22.4867 22.9002 22.7734 23.0768 23.0036C23.2534 23.2339 23.5077 23.3921 23.7923 23.4487C24.0769 23.5053 24.3724 23.4565 24.6236 23.3113C24.8749 23.1661 25.0648 22.9345 25.1578 22.6596C25.2509 22.3848 25.2408 22.0855 25.1295 21.8175C25.0182 21.5495 24.8131 21.3312 24.5527 21.2032C24.2923 21.0752 23.9942 21.0464 23.714 21.122L22.7835 19.707C23.0064 19.4861 23.1755 19.217 23.278 18.9205L23.867 19.0205C23.8897 19.1801 23.9579 19.3299 24.0634 19.4519C24.1688 19.5739 24.3071 19.6631 24.4618 19.7087C24.6165 19.7543 24.7811 19.7544 24.9359 19.7091C25.0907 19.6638 25.2292 19.5749 25.3348 19.4531C25.4405 19.3313 25.509 19.1817 25.532 19.022C25.555 18.8624 25.5317 18.6995 25.4647 18.5528C25.3977 18.4061 25.29 18.2817 25.1543 18.1945C25.0187 18.1073 24.8608 18.0609 24.6995 18.061L24.699 18.0645Z" fill="#486600"/>
</g>
</g>
<defs>
<filter id="filter0_d_7262_21878" x="0.138062" y="0" width="36" height="36" filterUnits="userSpaceOnUse" color-interpolation-filters="sRGB">
<feFlood flood-opacity="0" result="BackgroundImageFix"/>
<feColorMatrix in="SourceAlpha" type="matrix" values="0 0 0 0 0 0 0 0 0 0 0 0 0 0 0 0 0 0 127 0" result="hardAlpha"/>
<feMorphology radius="2" operator="dilate" in="SourceAlpha" result="effect1_dropShadow_7262_21878"/>
<feOffset dy="2"/>
<feComposite in2="hardAlpha" operator="out"/>
<feColorMatrix type="matrix" values="0 0 0 0 0.862745 0 0 0 0 0.796078 0 0 0 0 1 0 0 0 1 0"/>
<feBlend mode="normal" in2="BackgroundImageFix" result="effect1_dropShadow_7262_21878"/>
<feBlend mode="normal" in="SourceGraphic" in2="effect1_dropShadow_7262_21878" result="shape"/>
</filter>
<clipPath id="clip0_7262_21878">
<rect width="16" height="16" fill="white" transform="translate(10.1381 8)"/>
</clipPath>
</defs>
</svg>
