<svg width="110" height="110" viewBox="0 0 110 110" fill="none" xmlns="http://www.w3.org/2000/svg">
<g filter="url(#filter0_d_7397_24428)">
<g clip-path="url(#clip0_7397_24428)">
<rect x="2" width="106" height="106" rx="12" fill="#FDFDFD"/>
<path opacity="0.15" d="M67.0585 82.5001C68.0282 84.8459 70.7346 85.9858 72.9412 84.7312C78.944 81.3182 83.8936 76.2658 87.1822 70.1238C91.1976 62.6246 92.4884 53.9652 90.8349 45.6209C89.1813 37.2767 84.6857 29.7639 78.114 24.3627C71.5422 18.9616 63.301 16.0061 54.7945 16C46.288 15.9939 38.0426 18.9375 31.4631 24.3292C24.8836 29.721 20.3772 37.2273 18.7117 45.5691C17.0461 53.911 18.3245 62.5723 22.3291 70.0772C25.6089 76.2239 30.5512 81.2835 36.5491 84.705C38.7539 85.9628 41.462 84.8268 42.435 82.4824C43.4081 80.138 42.2684 77.4794 40.118 76.1308C36.0634 73.5883 32.7166 70.0187 30.4388 65.7499C27.4354 60.1212 26.4766 53.6253 27.7258 47.3689C28.9749 41.1125 32.3547 35.4828 37.2893 31.439C42.224 27.3951 48.4081 25.1875 54.7879 25.192C61.1678 25.1966 67.3487 27.4132 72.2775 31.4641C77.2063 35.515 80.578 41.1495 81.8182 47.4077C83.0583 53.6659 82.0902 60.1605 79.0787 65.7849C76.7948 70.0503 73.4429 73.6152 69.3847 76.1519C67.2323 77.4973 66.0888 80.1543 67.0585 82.5001Z" fill="url(#paint0_linear_7397_24428)"/>
<path opacity="0.6" d="M45.9913 74.7047C40.9698 72.6205 36.8264 68.8596 34.2669 64.0629C31.7074 59.2662 30.8903 53.7304 31.9548 48.3988C33.0194 43.0672 35.8996 38.2696 40.1048 34.8235C44.31 31.3775 49.58 29.4961 55.0169 29.5C60.4537 29.5039 65.721 31.3929 69.9213 34.845C74.1216 38.2971 76.9949 43.0988 78.0517 48.4319C79.1086 53.7651 78.2835 59.2997 75.7172 64.0927C73.1508 68.8857 69.0019 72.6406 63.9775 74.7176" stroke="url(#paint1_linear_7397_24428)" stroke-linecap="round" stroke-dasharray="2 8"/>
<g filter="url(#filter1_d_7397_24428)">
<mask id="path-5-inside-1_7397_24428" fill="white">
<path d="M42.1334 82.3554C41.1366 84.6898 38.4172 85.7982 36.2254 84.5181C32.8327 82.5367 29.7708 80.0191 27.1625 77.0545C23.5395 72.9363 20.8837 68.0596 19.3899 62.7819C17.896 57.5042 17.6019 51.9591 18.5291 46.5529C19.4563 41.1468 21.5813 36.0166 24.7483 31.5382C27.9154 27.0599 32.0443 23.3469 36.8326 20.6712C41.6208 17.9956 46.947 16.4252 52.4209 16.075C57.8947 15.7248 63.3776 16.6038 68.4677 18.6475C72.1321 20.1188 75.5261 22.1668 78.5247 24.7054C80.4621 26.3454 80.3232 29.2787 78.4544 30.9964C76.5856 32.7142 73.6974 32.5551 71.6934 30.9971C69.6711 29.425 67.4337 28.1376 65.0428 27.1777C61.2252 25.6449 57.1131 24.9857 53.0077 25.2483C48.9023 25.5109 44.9076 26.6887 41.3165 28.6954C37.7253 30.7022 34.6286 33.4869 32.2533 36.8457C29.878 40.2045 28.2842 44.0521 27.5889 48.1067C26.8935 52.1613 27.1141 56.3202 28.2344 60.2785C29.3548 64.2367 31.3467 67.8942 34.0639 70.9829C35.7657 72.9172 37.7251 74.5978 39.8812 75.9806C42.0179 77.3509 43.1303 80.0211 42.1334 82.3554Z"/>
</mask>
<path d="M42.1334 82.3554C41.1366 84.6898 38.4172 85.7982 36.2254 84.5181C32.8327 82.5367 29.7708 80.0191 27.1625 77.0545C23.5395 72.9363 20.8837 68.0596 19.3899 62.7819C17.896 57.5042 17.6019 51.9591 18.5291 46.5529C19.4563 41.1468 21.5813 36.0166 24.7483 31.5382C27.9154 27.0599 32.0443 23.3469 36.8326 20.6712C41.6208 17.9956 46.947 16.4252 52.4209 16.075C57.8947 15.7248 63.3776 16.6038 68.4677 18.6475C72.1321 20.1188 75.5261 22.1668 78.5247 24.7054C80.4621 26.3454 80.3232 29.2787 78.4544 30.9964C76.5856 32.7142 73.6974 32.5551 71.6934 30.9971C69.6711 29.425 67.4337 28.1376 65.0428 27.1777C61.2252 25.6449 57.1131 24.9857 53.0077 25.2483C48.9023 25.5109 44.9076 26.6887 41.3165 28.6954C37.7253 30.7022 34.6286 33.4869 32.2533 36.8457C29.878 40.2045 28.2842 44.0521 27.5889 48.1067C26.8935 52.1613 27.1141 56.3202 28.2344 60.2785C29.3548 64.2367 31.3467 67.8942 34.0639 70.9829C35.7657 72.9172 37.7251 74.5978 39.8812 75.9806C42.0179 77.3509 43.1303 80.0211 42.1334 82.3554Z" fill="url(#paint2_linear_7397_24428)"/>
<path d="M42.1334 82.3554C41.1366 84.6898 38.4172 85.7982 36.2254 84.5181C32.8327 82.5367 29.7708 80.0191 27.1625 77.0545C23.5395 72.9363 20.8837 68.0596 19.3899 62.7819C17.896 57.5042 17.6019 51.9591 18.5291 46.5529C19.4563 41.1468 21.5813 36.0166 24.7483 31.5382C27.9154 27.0599 32.0443 23.3469 36.8326 20.6712C41.6208 17.9956 46.947 16.4252 52.4209 16.075C57.8947 15.7248 63.3776 16.6038 68.4677 18.6475C72.1321 20.1188 75.5261 22.1668 78.5247 24.7054C80.4621 26.3454 80.3232 29.2787 78.4544 30.9964C76.5856 32.7142 73.6974 32.5551 71.6934 30.9971C69.6711 29.425 67.4337 28.1376 65.0428 27.1777C61.2252 25.6449 57.1131 24.9857 53.0077 25.2483C48.9023 25.5109 44.9076 26.6887 41.3165 28.6954C37.7253 30.7022 34.6286 33.4869 32.2533 36.8457C29.878 40.2045 28.2842 44.0521 27.5889 48.1067C26.8935 52.1613 27.1141 56.3202 28.2344 60.2785C29.3548 64.2367 31.3467 67.8942 34.0639 70.9829C35.7657 72.9172 37.7251 74.5978 39.8812 75.9806C42.0179 77.3509 43.1303 80.0211 42.1334 82.3554Z" stroke="#131318" stroke-width="2" mask="url(#path-5-inside-1_7397_24428)"/>
</g>
<path d="M50.3856 48.02V49.518C49.835 50.5167 49.2796 51.6133 48.7196 52.808C48.1596 54.0027 47.7163 55.1087 47.3896 56.126L45.1076 55.622C45.7796 53.7647 46.7363 51.842 47.9776 49.854H44.1836V48.02H50.3856ZM54.1517 51.016C55.1037 51.016 55.8037 51.2587 56.2517 51.744C56.6997 52.22 56.9237 52.836 56.9237 53.592C56.9237 55.3093 55.7337 56.168 53.3537 56.168C52.5884 56.168 51.7157 56.0933 50.7357 55.944L51.0437 54.404C51.8184 54.488 52.3971 54.53 52.7797 54.53C53.3491 54.53 53.7831 54.4507 54.0817 54.292C54.3804 54.1333 54.5297 53.8627 54.5297 53.48C54.5297 53.3493 54.5064 53.214 54.4597 53.074C54.4224 52.9247 54.3617 52.8313 54.2777 52.794C54.2404 52.7753 54.1377 52.7567 53.9697 52.738C53.8111 52.7193 53.6197 52.71 53.3957 52.71C52.7051 52.71 52.0284 52.766 51.3657 52.878L51.2957 52.808L51.8697 48.02H56.6017V49.882L53.6057 49.868L53.4517 51.058C53.7037 51.03 53.9371 51.016 54.1517 51.016ZM59.3913 47.586C59.802 47.586 60.1427 47.642 60.4133 47.754C60.684 47.8567 60.8987 48.0667 61.0573 48.384C61.216 48.7013 61.2953 49.168 61.2953 49.784C61.2953 50.624 61.132 51.198 60.8053 51.506C60.488 51.814 60.0167 51.968 59.3913 51.968C58.794 51.968 58.3367 51.8093 58.0193 51.492C57.7113 51.1747 57.5573 50.6333 57.5573 49.868C57.5573 49.0933 57.7067 48.5193 58.0053 48.146C58.3133 47.7727 58.7753 47.586 59.3913 47.586ZM63.8853 47.6H65.6073L60.4413 56H58.7193L63.8853 47.6ZM59.4333 51.016C59.676 51.016 59.8347 50.918 59.9093 50.722C59.984 50.526 60.0213 50.218 60.0213 49.798C60.0213 49.378 59.9793 49.0653 59.8953 48.86C59.8207 48.6547 59.6713 48.5473 59.4473 48.538H59.3773C59.2093 48.538 59.0973 48.566 59.0413 48.622C58.9947 48.6687 58.9527 48.818 58.9153 49.07C58.8873 49.3127 58.8733 49.5647 58.8733 49.826C58.8733 50.2647 58.9153 50.5727 58.9993 50.75C59.0927 50.9273 59.2373 51.016 59.4333 51.016ZM64.7953 51.646C65.206 51.646 65.5467 51.702 65.8173 51.814C66.088 51.9167 66.3027 52.1267 66.4613 52.444C66.62 52.7613 66.6993 53.228 66.6993 53.844C66.6993 54.684 66.536 55.258 66.2093 55.566C65.892 55.874 65.4207 56.028 64.7953 56.028C64.198 56.028 63.7407 55.8693 63.4233 55.552C63.1153 55.2347 62.9613 54.6933 62.9613 53.928C62.9613 53.1533 63.1107 52.5793 63.4093 52.206C63.7173 51.8327 64.1793 51.646 64.7953 51.646ZM64.8373 55.076C65.08 55.076 65.2387 54.978 65.3133 54.782C65.388 54.586 65.4253 54.278 65.4253 53.858C65.4253 53.438 65.3833 53.1253 65.2993 52.92C65.2247 52.7147 65.0753 52.6073 64.8513 52.598H64.7813C64.6133 52.598 64.5013 52.626 64.4453 52.682C64.3987 52.7287 64.3567 52.878 64.3193 53.13C64.2913 53.3727 64.2773 53.6247 64.2773 53.886C64.2773 54.3247 64.3193 54.6327 64.4033 54.81C64.4967 54.9873 64.6413 55.076 64.8373 55.076Z" fill="#6366F1"/>
</g>
<rect x="2.5" y="0.5" width="105" height="105" rx="11.5" stroke="#131318"/>
</g>
<defs>
<filter id="filter0_d_7397_24428" x="0" y="0" width="110" height="110" filterUnits="userSpaceOnUse" color-interpolation-filters="sRGB">
<feFlood flood-opacity="0" result="BackgroundImageFix"/>
<feColorMatrix in="SourceAlpha" type="matrix" values="0 0 0 0 0 0 0 0 0 0 0 0 0 0 0 0 0 0 127 0" result="hardAlpha"/>
<feMorphology radius="2" operator="dilate" in="SourceAlpha" result="effect1_dropShadow_7397_24428"/>
<feOffset dy="2"/>
<feComposite in2="hardAlpha" operator="out"/>
<feColorMatrix type="matrix" values="0 0 0 0 0.0745098 0 0 0 0 0.0745098 0 0 0 0 0.0941176 0 0 0 1 0"/>
<feBlend mode="normal" in2="BackgroundImageFix" result="effect1_dropShadow_7397_24428"/>
<feBlend mode="normal" in="SourceGraphic" in2="effect1_dropShadow_7397_24428" result="shape"/>
</filter>
<filter id="filter1_d_7397_24428" x="2" y="8" width="93.918" height="101.058" filterUnits="userSpaceOnUse" color-interpolation-filters="sRGB">
<feFlood flood-opacity="0" result="BackgroundImageFix"/>
<feColorMatrix in="SourceAlpha" type="matrix" values="0 0 0 0 0 0 0 0 0 0 0 0 0 0 0 0 0 0 127 0" result="hardAlpha"/>
<feOffset dy="8"/>
<feGaussianBlur stdDeviation="8"/>
<feComposite in2="hardAlpha" operator="out"/>
<feColorMatrix type="matrix" values="0 0 0 0 0.312349 0 0 0 0 0.299233 0 0 0 0 0.955 0 0 0 0.15 0"/>
<feBlend mode="normal" in2="BackgroundImageFix" result="effect1_dropShadow_7397_24428"/>
<feBlend mode="normal" in="SourceGraphic" in2="effect1_dropShadow_7397_24428" result="shape"/>
</filter>
<linearGradient id="paint0_linear_7397_24428" x1="54.7681" y1="16" x2="54.7681" y2="89.5362" gradientUnits="userSpaceOnUse">
<stop stop-color="#6366F1"/>
<stop offset="1" stop-color="#A79FDB"/>
</linearGradient>
<linearGradient id="paint1_linear_7397_24428" x1="55" y1="29" x2="55" y2="77" gradientUnits="userSpaceOnUse">
<stop stop-color="#6366F1"/>
<stop offset="1" stop-color="#A79FDB"/>
</linearGradient>
<linearGradient id="paint2_linear_7397_24428" x1="54.7681" y1="16" x2="54.7681" y2="89.5362" gradientUnits="userSpaceOnUse">
<stop stop-color="#6366F1"/>
<stop offset="1" stop-color="#A79FDB"/>
</linearGradient>
<clipPath id="clip0_7397_24428">
<rect x="2" width="106" height="106" rx="12" fill="white"/>
</clipPath>
</defs>
</svg>
