<svg width="193" height="110" viewBox="0 0 193 110" fill="none" xmlns="http://www.w3.org/2000/svg">
<g filter="url(#filter0_d_7397_24467)">
<rect x="2" width="189" height="106" rx="12" fill="#FDFDFD"/>
<rect x="2.5" y="0.5" width="188" height="105" rx="11.5" stroke="#131318"/>
<path d="M9.9943 13.2266H9.60459V10.9387C9.60459 10.8501 9.60459 10.7752 9.60459 10.7141C9.60765 10.6529 9.61071 10.5964 9.61376 10.5444C9.61682 10.4894 9.61988 10.4329 9.62293 10.3748C9.58014 10.4237 9.53888 10.4665 9.49914 10.5032C9.45941 10.5368 9.41203 10.5781 9.35701 10.627L9.03149 10.9112L8.82059 10.6407L9.6642 9.953H9.9943V13.2266ZM13.1675 11.5852C13.1675 11.8511 13.1476 12.088 13.1079 12.2958C13.0712 12.5037 13.0116 12.681 12.9291 12.8277C12.8496 12.9713 12.7442 13.0814 12.6127 13.1578C12.4813 13.2342 12.3239 13.2724 12.1405 13.2724C11.9082 13.2724 11.7156 13.2052 11.5628 13.0707C11.413 12.9362 11.3015 12.7436 11.2281 12.493C11.1548 12.2393 11.1181 11.9367 11.1181 11.5852C11.1181 11.2306 11.1517 10.928 11.219 10.6774C11.2862 10.4268 11.3947 10.2357 11.5445 10.1043C11.6942 9.96981 11.8929 9.90257 12.1405 9.90257C12.3728 9.90257 12.5638 9.96981 12.7136 10.1043C12.8664 10.2357 12.9795 10.4268 13.0529 10.6774C13.1293 10.928 13.1675 11.2306 13.1675 11.5852ZM11.517 11.5852C11.517 11.8847 11.5368 12.1338 11.5766 12.3325C11.6194 12.5312 11.6866 12.681 11.7783 12.7818C11.87 12.8796 11.9907 12.9285 12.1405 12.9285C12.2903 12.9285 12.411 12.8796 12.5027 12.7818C12.5944 12.684 12.6601 12.5358 12.6999 12.3371C12.7426 12.1354 12.764 11.8847 12.764 11.5852C12.764 11.2857 12.7426 11.0381 12.6999 10.8425C12.6601 10.6438 12.5944 10.4955 12.5027 10.3977C12.411 10.2969 12.2903 10.2464 12.1405 10.2464C11.9907 10.2464 11.87 10.2969 11.7783 10.3977C11.6866 10.4955 11.6194 10.6438 11.5766 10.8425C11.5368 11.0381 11.517 11.2857 11.517 11.5852ZM15.6301 11.5852C15.6301 11.8511 15.6102 12.088 15.5705 12.2958C15.5338 12.5037 15.4742 12.681 15.3916 12.8277C15.3122 12.9713 15.2067 13.0814 15.0753 13.1578C14.9439 13.2342 14.7864 13.2724 14.6031 13.2724C14.3708 13.2724 14.1782 13.2052 14.0254 13.0707C13.8756 12.9362 13.764 12.7436 13.6907 12.493C13.6173 12.2393 13.5806 11.9367 13.5806 11.5852C13.5806 11.2306 13.6143 10.928 13.6815 10.6774C13.7487 10.4268 13.8573 10.2357 14.007 10.1043C14.1568 9.96981 14.3555 9.90257 14.6031 9.90257C14.8354 9.90257 15.0264 9.96981 15.1762 10.1043C15.329 10.2357 15.4421 10.4268 15.5154 10.6774C15.5918 10.928 15.6301 11.2306 15.6301 11.5852ZM13.9795 11.5852C13.9795 11.8847 13.9994 12.1338 14.0391 12.3325C14.0819 12.5312 14.1492 12.681 14.2409 12.7818C14.3325 12.8796 14.4533 12.9285 14.6031 12.9285C14.7528 12.9285 14.8736 12.8796 14.9653 12.7818C15.057 12.684 15.1227 12.5358 15.1624 12.3371C15.2052 12.1354 15.2266 11.8847 15.2266 11.5852C15.2266 11.2857 15.2052 11.0381 15.1624 10.8425C15.1227 10.6438 15.057 10.4955 14.9653 10.3977C14.8736 10.2969 14.7528 10.2464 14.6031 10.2464C14.4533 10.2464 14.3325 10.2969 14.2409 10.3977C14.1492 10.4955 14.0819 10.6438 14.0391 10.8425C13.9994 11.0381 13.9795 11.2857 13.9795 11.5852Z" fill="#6A6871"/>
<line x1="22.2037" y1="11.0628" x2="128.803" y2="11.0628" stroke="#EAEAEA" stroke-width="0.327487"/>
<path d="M9.67795 22.457C9.85829 22.457 10.0172 22.4875 10.1548 22.5487C10.2954 22.6067 10.4054 22.6938 10.4849 22.81C10.5644 22.9261 10.6041 23.0698 10.6041 23.241C10.6041 23.3724 10.5766 23.487 10.5216 23.5848C10.4696 23.6826 10.3993 23.7697 10.3107 23.8462C10.2251 23.9195 10.1288 23.9852 10.0218 24.0433C10.1471 24.1075 10.2618 24.1808 10.3657 24.2634C10.4696 24.3428 10.5521 24.4361 10.6133 24.543C10.6744 24.65 10.705 24.7784 10.705 24.9282C10.705 25.1116 10.6622 25.2705 10.5766 25.405C10.494 25.5364 10.3764 25.6388 10.2235 25.7122C10.0738 25.7855 9.89649 25.8222 9.69171 25.8222C9.46858 25.8222 9.27907 25.7871 9.12319 25.7168C8.97036 25.6465 8.85421 25.5471 8.77474 25.4188C8.69527 25.2873 8.65554 25.1284 8.65554 24.9419C8.65554 24.7922 8.68457 24.6623 8.74265 24.5522C8.80072 24.4422 8.87714 24.3474 8.97189 24.268C9.0697 24.1885 9.17515 24.1212 9.28824 24.0662C9.19043 24.0051 9.10026 23.9363 9.01774 23.8599C8.93827 23.7804 8.87408 23.6903 8.82517 23.5894C8.77933 23.4885 8.7564 23.3709 8.7564 23.2364C8.7564 23.0683 8.79614 22.9277 8.87561 22.8146C8.95813 22.6984 9.06817 22.6098 9.20571 22.5487C9.34632 22.4875 9.50373 22.457 9.67795 22.457ZM9.04525 24.9465C9.04525 25.1055 9.09721 25.2384 9.20113 25.3454C9.30505 25.4493 9.46552 25.5013 9.68254 25.5013C9.82008 25.5013 9.9347 25.4768 10.0264 25.4279C10.1212 25.379 10.193 25.3118 10.2419 25.2262C10.2908 25.1406 10.3152 25.0428 10.3152 24.9328C10.3152 24.8258 10.2877 24.7326 10.2327 24.6531C10.1808 24.5706 10.1074 24.4972 10.0126 24.433C9.91789 24.3688 9.80785 24.3108 9.68254 24.2588L9.61835 24.2313C9.49609 24.2894 9.39216 24.352 9.30658 24.4193C9.221 24.4865 9.15528 24.5629 9.10943 24.6485C9.06664 24.7341 9.04525 24.8334 9.04525 24.9465ZM9.67337 22.7825C9.51748 22.7825 9.38911 22.8237 9.28824 22.9063C9.19043 22.9857 9.14153 23.1019 9.14153 23.2547C9.14153 23.3678 9.16598 23.4626 9.21488 23.539C9.26685 23.6154 9.33409 23.6811 9.41662 23.7361C9.49914 23.7881 9.59084 23.8385 9.69171 23.8874C9.78952 23.8416 9.87663 23.7911 9.95304 23.7361C10.0325 23.6811 10.0952 23.6154 10.141 23.539C10.1869 23.4595 10.2098 23.3648 10.2098 23.2547C10.2098 23.1019 10.1609 22.9857 10.0631 22.9063C9.96527 22.8237 9.83536 22.7825 9.67337 22.7825ZM13.1675 24.135C13.1675 24.4009 13.1476 24.6378 13.1079 24.8456C13.0712 25.0535 13.0116 25.2308 12.9291 25.3775C12.8496 25.5211 12.7442 25.6312 12.6127 25.7076C12.4813 25.784 12.3239 25.8222 12.1405 25.8222C11.9082 25.8222 11.7156 25.755 11.5628 25.6205C11.413 25.486 11.3015 25.2934 11.2281 25.0428C11.1548 24.7891 11.1181 24.4865 11.1181 24.135C11.1181 23.7804 11.1517 23.4778 11.219 23.2272C11.2862 22.9766 11.3947 22.7855 11.5445 22.6541C11.6942 22.5196 11.8929 22.4524 12.1405 22.4524C12.3728 22.4524 12.5638 22.5196 12.7136 22.6541C12.8664 22.7855 12.9795 22.9766 13.0529 23.2272C13.1293 23.4778 13.1675 23.7804 13.1675 24.135ZM11.517 24.135C11.517 24.4345 11.5368 24.6837 11.5766 24.8823C11.6194 25.081 11.6866 25.2308 11.7783 25.3316C11.87 25.4294 11.9907 25.4784 12.1405 25.4784C12.2903 25.4784 12.411 25.4294 12.5027 25.3316C12.5944 25.2338 12.6601 25.0856 12.6999 24.8869C12.7426 24.6852 12.764 24.4345 12.764 24.135C12.764 23.8355 12.7426 23.5879 12.6999 23.3923C12.6601 23.1936 12.5944 23.0453 12.5027 22.9475C12.411 22.8467 12.2903 22.7962 12.1405 22.7962C11.9907 22.7962 11.87 22.8467 11.7783 22.9475C11.6866 23.0453 11.6194 23.1936 11.5766 23.3923C11.5368 23.5879 11.517 23.8355 11.517 24.135Z" fill="#6A6871"/>
<line x1="20.8938" y1="23.6126" x2="128.803" y2="23.6126" stroke="#EAEAEA" stroke-width="0.327487"/>
<path d="M8.67846 36.9278C8.67846 36.7383 8.69069 36.5518 8.71514 36.3685C8.73959 36.1851 8.78238 36.0124 8.84351 35.8504C8.90464 35.6853 8.9887 35.5401 9.09568 35.4148C9.20266 35.2864 9.33867 35.1871 9.50373 35.1168C9.66878 35.0434 9.86746 35.0068 10.0998 35.0068C10.1609 35.0068 10.2266 35.0098 10.2969 35.0159C10.3703 35.022 10.4314 35.0327 10.4803 35.048V35.3919C10.4283 35.3735 10.3687 35.3598 10.3015 35.3506C10.2373 35.3415 10.1731 35.3369 10.1089 35.3369C9.91331 35.3369 9.74978 35.372 9.61835 35.4423C9.48692 35.5126 9.38299 35.6089 9.30658 35.7312C9.23017 35.8534 9.17362 35.994 9.13694 36.153C9.10332 36.3119 9.08192 36.4815 9.07275 36.6619H9.10026C9.14306 36.5885 9.19654 36.5228 9.26073 36.4647C9.32798 36.4067 9.40745 36.3608 9.49914 36.3272C9.5939 36.2936 9.7024 36.2768 9.82467 36.2768C10.005 36.2768 10.1609 36.3165 10.2923 36.396C10.4268 36.4724 10.5307 36.5855 10.6041 36.7352C10.6774 36.882 10.7141 37.0608 10.7141 37.2717C10.7141 37.4978 10.6744 37.6935 10.5949 37.8585C10.5154 38.0236 10.4024 38.1504 10.2556 38.2391C10.1089 38.3277 9.9347 38.372 9.73297 38.372C9.58625 38.372 9.44871 38.343 9.32034 38.2849C9.19196 38.2268 9.07887 38.1382 8.98106 38.019C8.88631 37.8998 8.81142 37.75 8.7564 37.5697C8.70444 37.3863 8.67846 37.1723 8.67846 36.9278ZM9.72838 38.0327C9.90566 38.0327 10.0478 37.9716 10.1548 37.8494C10.2648 37.724 10.3198 37.5315 10.3198 37.2717C10.3198 37.0638 10.2709 36.8988 10.1731 36.7765C10.0784 36.6542 9.93317 36.5931 9.73755 36.5931C9.60612 36.5931 9.4915 36.6237 9.39369 36.6848C9.29588 36.7429 9.21947 36.8178 9.16445 36.9095C9.10943 37.0012 9.08192 37.0959 9.08192 37.1937C9.08192 37.2946 9.09568 37.3939 9.12319 37.4917C9.1507 37.5895 9.19043 37.6797 9.24239 37.7622C9.29741 37.8448 9.36466 37.9105 9.44413 37.9594C9.52665 38.0083 9.62141 38.0327 9.72838 38.0327ZM13.1675 36.6848C13.1675 36.9507 13.1476 37.1876 13.1079 37.3955C13.0712 37.6033 13.0116 37.7806 12.9291 37.9273C12.8496 38.071 12.7442 38.181 12.6127 38.2574C12.4813 38.3338 12.3239 38.372 12.1405 38.372C11.9082 38.372 11.7156 38.3048 11.5628 38.1703C11.413 38.0358 11.3015 37.8432 11.2281 37.5926C11.1548 37.3389 11.1181 37.0363 11.1181 36.6848C11.1181 36.3302 11.1517 36.0276 11.219 35.777C11.2862 35.5264 11.3947 35.3353 11.5445 35.2039C11.6942 35.0694 11.8929 35.0022 12.1405 35.0022C12.3728 35.0022 12.5638 35.0694 12.7136 35.2039C12.8664 35.3353 12.9795 35.5264 13.0529 35.777C13.1293 36.0276 13.1675 36.3302 13.1675 36.6848ZM11.517 36.6848C11.517 36.9843 11.5368 37.2335 11.5766 37.4321C11.6194 37.6308 11.6866 37.7806 11.7783 37.8814C11.87 37.9793 11.9907 38.0282 12.1405 38.0282C12.2903 38.0282 12.411 37.9793 12.5027 37.8814C12.5944 37.7836 12.6601 37.6354 12.6999 37.4367C12.7426 37.235 12.764 36.9843 12.764 36.6848C12.764 36.3853 12.7426 36.1377 12.6999 35.9421C12.6601 35.7434 12.5944 35.5951 12.5027 35.4973C12.411 35.3965 12.2903 35.346 12.1405 35.346C11.9907 35.346 11.87 35.3965 11.7783 35.4973C11.6866 35.5951 11.6194 35.7434 11.5766 35.9421C11.5368 36.1377 11.517 36.3853 11.517 36.6848Z" fill="#6A6871"/>
<line x1="20.8938" y1="36.1624" x2="128.803" y2="36.1624" stroke="#EAEAEA" stroke-width="0.327487"/>
<path d="M10.8287 50.133H10.384V50.8757H9.99889V50.133H8.53633V49.7891L9.97596 47.5838H10.384V49.7708H10.8287V50.133ZM9.99889 48.7392C9.99889 48.6597 9.99889 48.5879 9.99889 48.5237C10.0019 48.4565 10.005 48.3938 10.0081 48.3357C10.0111 48.2777 10.0126 48.2226 10.0126 48.1707C10.0157 48.1157 10.0188 48.0637 10.0218 48.0148H10.0035C9.97902 48.0729 9.94998 48.1355 9.91636 48.2028C9.88274 48.27 9.85065 48.3266 9.82008 48.3724L8.92146 49.7708H9.99889V48.7392ZM13.1675 49.2344C13.1675 49.5003 13.1476 49.7372 13.1079 49.945C13.0712 50.1529 13.0116 50.3301 12.9291 50.4769C12.8496 50.6205 12.7442 50.7305 12.6127 50.807C12.4813 50.8834 12.3239 50.9216 12.1405 50.9216C11.9082 50.9216 11.7156 50.8543 11.5628 50.7198C11.413 50.5854 11.3015 50.3928 11.2281 50.1422C11.1548 49.8885 11.1181 49.5859 11.1181 49.2344C11.1181 48.8798 11.1517 48.5772 11.219 48.3266C11.2862 48.0759 11.3947 47.8849 11.5445 47.7535C11.6942 47.619 11.8929 47.5517 12.1405 47.5517C12.3728 47.5517 12.5638 47.619 12.7136 47.7535C12.8664 47.8849 12.9795 48.0759 13.0529 48.3266C13.1293 48.5772 13.1675 48.8798 13.1675 49.2344ZM11.517 49.2344C11.517 49.5339 11.5368 49.783 11.5766 49.9817C11.6194 50.1804 11.6866 50.3301 11.7783 50.431C11.87 50.5288 11.9907 50.5777 12.1405 50.5777C12.2903 50.5777 12.411 50.5288 12.5027 50.431C12.5944 50.3332 12.6601 50.185 12.6999 49.9863C12.7426 49.7845 12.764 49.5339 12.764 49.2344C12.764 48.9348 12.7426 48.6872 12.6999 48.4916C12.6601 48.2929 12.5944 48.1447 12.5027 48.0469C12.411 47.946 12.2903 47.8956 12.1405 47.8956C11.9907 47.8956 11.87 47.946 11.7783 48.0469C11.6866 48.1447 11.6194 48.2929 11.5766 48.4916C11.5368 48.6872 11.517 48.9348 11.517 49.2344Z" fill="#6A6871"/>
<line x1="20.8938" y1="48.712" x2="128.803" y2="48.712" stroke="#EAEAEA" stroke-width="0.327487"/>
<path d="M10.7004 63.4255H8.65554V63.0908L9.45788 62.2243C9.61071 62.0593 9.73908 61.9125 9.843 61.7842C9.94998 61.6558 10.031 61.5305 10.086 61.4082C10.141 61.2829 10.1685 61.1469 10.1685 61.0002C10.1685 60.8198 10.1196 60.6838 10.0218 60.5921C9.924 60.4974 9.79563 60.45 9.63669 60.45C9.48997 60.45 9.36007 60.4775 9.24698 60.5325C9.13389 60.5875 9.01927 60.6639 8.90312 60.7618L8.68763 60.4913C8.77016 60.4179 8.8588 60.3522 8.95355 60.2941C9.0483 60.236 9.15222 60.1902 9.26532 60.1566C9.38147 60.1229 9.50678 60.1061 9.64127 60.1061C9.83384 60.1061 9.99889 60.1413 10.1364 60.2116C10.277 60.2819 10.3855 60.3827 10.462 60.5142C10.5384 60.6425 10.5766 60.7969 10.5766 60.9772C10.5766 61.1056 10.5567 61.2279 10.517 61.344C10.4803 61.4571 10.4268 61.5687 10.3565 61.6787C10.2862 61.7888 10.2021 61.9003 10.1043 62.0134C10.0096 62.1265 9.90261 62.2457 9.7834 62.371L9.15528 63.0404L9.15987 63.0588H10.7004V63.4255ZM13.1675 61.7842C13.1675 62.0501 13.1476 62.287 13.1079 62.4948C13.0712 62.7027 13.0116 62.8799 12.9291 63.0267C12.8496 63.1703 12.7442 63.2804 12.6127 63.3568C12.4813 63.4332 12.3239 63.4714 12.1405 63.4714C11.9082 63.4714 11.7156 63.4041 11.5628 63.2697C11.413 63.1352 11.3015 62.9426 11.2281 62.692C11.1548 62.4383 11.1181 62.1357 11.1181 61.7842C11.1181 61.4296 11.1517 61.127 11.219 60.8764C11.2862 60.6257 11.3947 60.4347 11.5445 60.3033C11.6942 60.1688 11.8929 60.1015 12.1405 60.1015C12.3728 60.1015 12.5638 60.1688 12.7136 60.3033C12.8664 60.4347 12.9795 60.6257 13.0529 60.8764C13.1293 61.127 13.1675 61.4296 13.1675 61.7842ZM11.517 61.7842C11.517 62.0837 11.5368 62.3328 11.5766 62.5315C11.6194 62.7302 11.6866 62.8799 11.7783 62.9808C11.87 63.0786 11.9907 63.1275 12.1405 63.1275C12.2903 63.1275 12.411 63.0786 12.5027 62.9808C12.5944 62.883 12.6601 62.7348 12.6999 62.5361C12.7426 62.3343 12.764 62.0837 12.764 61.7842C12.764 61.4846 12.7426 61.237 12.6999 61.0414C12.6601 60.8428 12.5944 60.6945 12.5027 60.5967C12.411 60.4958 12.2903 60.4454 12.1405 60.4454C11.9907 60.4454 11.87 60.4958 11.7783 60.5967C11.6866 60.6945 11.6194 60.8428 11.5766 61.0414C11.5368 61.237 11.517 61.4846 11.517 61.7842Z" fill="#6A6871"/>
<line x1="20.8938" y1="61.2618" x2="128.803" y2="61.2618" stroke="#EAEAEA" stroke-width="0.327487"/>
<path d="M9.9943 75.9753H9.60459V73.6875C9.60459 73.5989 9.60459 73.524 9.60459 73.4629C9.60765 73.4017 9.61071 73.3452 9.61376 73.2932C9.61682 73.2382 9.61988 73.1817 9.62293 73.1236C9.58014 73.1725 9.53888 73.2153 9.49914 73.252C9.45941 73.2856 9.41203 73.3268 9.35701 73.3757L9.03149 73.66L8.82059 73.3895L9.6642 72.7018H9.9943V75.9753ZM13.1675 74.334C13.1675 74.5999 13.1476 74.8368 13.1079 75.0446C13.0712 75.2525 13.0116 75.4297 12.9291 75.5765C12.8496 75.7201 12.7442 75.8302 12.6127 75.9066C12.4813 75.983 12.3239 76.0212 12.1405 76.0212C11.9082 76.0212 11.7156 75.9539 11.5628 75.8195C11.413 75.685 11.3015 75.4924 11.2281 75.2418C11.1548 74.9881 11.1181 74.6855 11.1181 74.334C11.1181 73.9794 11.1517 73.6768 11.219 73.4262C11.2862 73.1755 11.3947 72.9845 11.5445 72.8531C11.6942 72.7186 11.8929 72.6513 12.1405 72.6513C12.3728 72.6513 12.5638 72.7186 12.7136 72.8531C12.8664 72.9845 12.9795 73.1755 13.0529 73.4262C13.1293 73.6768 13.1675 73.9794 13.1675 74.334ZM11.517 74.334C11.517 74.6335 11.5368 74.8826 11.5766 75.0813C11.6194 75.28 11.6866 75.4297 11.7783 75.5306C11.87 75.6284 11.9907 75.6773 12.1405 75.6773C12.2903 75.6773 12.411 75.6284 12.5027 75.5306C12.5944 75.4328 12.6601 75.2846 12.6999 75.0859C12.7426 74.8842 12.764 74.6335 12.764 74.334C12.764 74.0344 12.7426 73.7869 12.6999 73.5912C12.6601 73.3926 12.5944 73.2443 12.5027 73.1465C12.411 73.0456 12.2903 72.9952 12.1405 72.9952C11.9907 72.9952 11.87 73.0456 11.7783 73.1465C11.6866 73.2443 11.6194 73.3926 11.5766 73.5912C11.5368 73.7869 11.517 74.0344 11.517 74.334Z" fill="#6A6871"/>
<line x1="20.8938" y1="73.8116" x2="128.803" y2="73.8116" stroke="#EAEAEA" stroke-width="0.327487"/>
<path d="M10.705 86.8838C10.705 87.1497 10.6851 87.3866 10.6453 87.5944C10.6087 87.8023 10.5491 87.9796 10.4665 88.1263C10.3871 88.2699 10.2816 88.38 10.1502 88.4564C10.0188 88.5328 9.86134 88.571 9.67795 88.571C9.44565 88.571 9.25309 88.5038 9.10026 88.3693C8.95049 88.2348 8.83893 88.0422 8.76557 87.7916C8.69221 87.5379 8.65554 87.2353 8.65554 86.8838C8.65554 86.5292 8.68916 86.2266 8.7564 85.976C8.82365 85.7253 8.93215 85.5343 9.08192 85.4029C9.2317 85.2684 9.43037 85.2011 9.67795 85.2011C9.91025 85.2011 10.1013 85.2684 10.2511 85.4029C10.4039 85.5343 10.517 85.7253 10.5903 85.976C10.6667 86.2266 10.705 86.5292 10.705 86.8838ZM9.05442 86.8838C9.05442 87.1833 9.07428 87.4324 9.11402 87.6311C9.15681 87.8298 9.22405 87.9796 9.31575 88.0804C9.40745 88.1782 9.52818 88.2271 9.67795 88.2271C9.82772 88.2271 9.94846 88.1782 10.0402 88.0804C10.1318 87.9826 10.1976 87.8344 10.2373 87.6357C10.2801 87.434 10.3015 87.1833 10.3015 86.8838C10.3015 86.5842 10.2801 86.3367 10.2373 86.141C10.1976 85.9424 10.1318 85.7941 10.0402 85.6963C9.94846 85.5954 9.82772 85.545 9.67795 85.545C9.52818 85.545 9.40745 85.5954 9.31575 85.6963C9.22405 85.7941 9.15681 85.9424 9.11402 86.141C9.07428 86.3367 9.05442 86.5842 9.05442 86.8838ZM13.1675 86.8838C13.1675 87.1497 13.1476 87.3866 13.1079 87.5944C13.0712 87.8023 13.0116 87.9796 12.9291 88.1263C12.8496 88.2699 12.7442 88.38 12.6127 88.4564C12.4813 88.5328 12.3239 88.571 12.1405 88.571C11.9082 88.571 11.7156 88.5038 11.5628 88.3693C11.413 88.2348 11.3015 88.0422 11.2281 87.7916C11.1548 87.5379 11.1181 87.2353 11.1181 86.8838C11.1181 86.5292 11.1517 86.2266 11.219 85.976C11.2862 85.7253 11.3947 85.5343 11.5445 85.4029C11.6942 85.2684 11.8929 85.2011 12.1405 85.2011C12.3728 85.2011 12.5638 85.2684 12.7136 85.4029C12.8664 85.5343 12.9795 85.7253 13.0529 85.976C13.1293 86.2266 13.1675 86.5292 13.1675 86.8838ZM11.517 86.8838C11.517 87.1833 11.5368 87.4324 11.5766 87.6311C11.6194 87.8298 11.6866 87.9796 11.7783 88.0804C11.87 88.1782 11.9907 88.2271 12.1405 88.2271C12.2903 88.2271 12.411 88.1782 12.5027 88.0804C12.5944 87.9826 12.6601 87.8344 12.6999 87.6357C12.7426 87.434 12.764 87.1833 12.764 86.8838C12.764 86.5842 12.7426 86.3367 12.6999 86.141C12.6601 85.9424 12.5944 85.7941 12.5027 85.6963C12.411 85.5954 12.2903 85.545 12.1405 85.545C11.9907 85.545 11.87 85.5954 11.7783 85.6963C11.6866 85.7941 11.6194 85.9424 11.5766 86.141C11.5368 86.3367 11.517 86.5842 11.517 86.8838Z" fill="#6A6871"/>
<line x1="20.8938" y1="86.3614" x2="128.803" y2="86.3614" stroke="#EAEAEA" stroke-width="0.327487"/>
<path d="M28.928 96.7361L28.0294 93.9531H28.011C28.0172 94.0142 28.0217 94.0968 28.0248 94.2007C28.0309 94.3046 28.0355 94.4162 28.0386 94.5354C28.0447 94.6546 28.0477 94.7723 28.0477 94.8884V96.7361H27.5847V93.4625H28.2999L29.1618 96.0896H29.1756L30.0513 93.4625H30.7665V96.7361H30.2805V94.8609C30.2805 94.7539 30.2821 94.6439 30.2851 94.5308C30.2882 94.4146 30.2928 94.3061 30.2989 94.2053C30.305 94.1044 30.3096 94.0219 30.3126 93.9577H30.2943L29.3727 96.7361H28.928ZM33.596 95.4982C33.596 95.703 33.57 95.8848 33.5181 96.0438C33.4661 96.2027 33.3912 96.3372 33.2934 96.4472C33.1987 96.5573 33.0825 96.6413 32.945 96.6994C32.8074 96.7544 32.6531 96.7819 32.4819 96.7819C32.326 96.7819 32.1808 96.7544 32.0463 96.6994C31.9118 96.6413 31.7957 96.5573 31.6979 96.4472C31.6001 96.3372 31.5237 96.2027 31.4686 96.0438C31.4167 95.8848 31.3907 95.7014 31.3907 95.4936C31.3907 95.2216 31.435 94.9908 31.5237 94.8013C31.6123 94.6118 31.7392 94.4681 31.9042 94.3703C32.0723 94.2694 32.271 94.219 32.5002 94.219C32.7142 94.219 32.9037 94.2694 33.0688 94.3703C33.2338 94.4681 33.3622 94.6118 33.4539 94.8013C33.5486 94.9908 33.596 95.2231 33.596 95.4982ZM31.9042 95.4982C31.9042 95.6816 31.9241 95.8405 31.9638 95.975C32.0066 96.1064 32.0708 96.2073 32.1564 96.2776C32.245 96.3479 32.3566 96.3831 32.4911 96.3831C32.6286 96.3831 32.7402 96.3479 32.8258 96.2776C32.9144 96.2073 32.9786 96.1064 33.0183 95.975C33.0611 95.8405 33.0825 95.6816 33.0825 95.4982C33.0825 95.3087 33.0611 95.1497 33.0183 95.0214C32.9755 94.893 32.9113 94.7952 32.8258 94.7279C32.7402 94.6576 32.6271 94.6225 32.4865 94.6225C32.2817 94.6225 32.1334 94.6989 32.0418 94.8517C31.9501 95.0045 31.9042 95.22 31.9042 95.4982ZM35.3711 94.219C35.6401 94.219 35.8464 94.2908 35.9901 94.4345C36.1368 94.5782 36.2101 94.8089 36.2101 95.1268V96.7361H35.715V95.1956C35.715 95.003 35.6768 94.8594 35.6004 94.7646C35.527 94.6668 35.4124 94.6179 35.2565 94.6179C35.0273 94.6179 34.8698 94.6928 34.7843 94.8426C34.6987 94.9923 34.6559 95.2078 34.6559 95.489V96.7361H34.1607V94.2649H34.5504L34.6192 94.595H34.6467C34.6987 94.5094 34.7613 94.4391 34.8347 94.3841C34.9081 94.3291 34.9906 94.2878 35.0823 94.2603C35.174 94.2328 35.2703 94.219 35.3711 94.219Z" fill="black"/>
<path d="M53.031 96.7361H52.5267V93.8889H51.6189V93.4625H53.9342V93.8889H53.031V96.7361ZM56.164 94.2649V96.7361H55.7743L55.7056 96.4106H55.678C55.6322 96.4961 55.5695 96.5664 55.4901 96.6215C55.4137 96.6765 55.3296 96.7162 55.2379 96.7407C55.1462 96.7682 55.0515 96.7819 54.9536 96.7819C54.7733 96.7819 54.6205 96.7514 54.4952 96.6902C54.3729 96.626 54.2781 96.5282 54.2109 96.3968C54.1467 96.2623 54.1146 96.0912 54.1146 95.8833V94.2649H54.6144V95.8099C54.6144 96.0025 54.651 96.1462 54.7244 96.2409C54.7978 96.3357 54.9124 96.3831 55.0683 96.3831C55.2211 96.3831 55.3403 96.3494 55.4259 96.2822C55.5145 96.2149 55.5772 96.1171 55.6139 95.9888C55.6505 95.8573 55.6689 95.6999 55.6689 95.5165V94.2649H56.164ZM57.795 94.219C57.9998 94.219 58.1771 94.2649 58.3268 94.3566C58.4766 94.4452 58.5912 94.5736 58.6707 94.7417C58.7532 94.9098 58.7945 95.1085 58.7945 95.3377V95.6036H57.2402C57.2463 95.8573 57.3075 96.0514 57.4236 96.1859C57.5398 96.3204 57.7033 96.3876 57.9142 96.3876C58.064 96.3876 58.1969 96.3739 58.3131 96.3464C58.4323 96.3158 58.553 96.2715 58.6753 96.2134V96.6169C58.5591 96.6719 58.4399 96.7132 58.3177 96.7407C58.1984 96.7682 58.0533 96.7819 57.8821 96.7819C57.659 96.7819 57.4603 96.7346 57.2861 96.6398C57.1118 96.545 56.9758 96.4044 56.878 96.218C56.7802 96.0285 56.7313 95.7962 56.7313 95.5211C56.7313 95.243 56.7756 95.0076 56.8643 94.815C56.9529 94.6225 57.0767 94.4758 57.2356 94.3749C57.3976 94.271 57.5841 94.219 57.795 94.219ZM57.795 94.595C57.6391 94.595 57.5138 94.6515 57.419 94.7646C57.3243 94.8777 57.2693 95.0382 57.254 95.246H58.3039C58.3039 95.1176 58.2856 95.0045 58.2489 94.9067C58.2122 94.8089 58.1557 94.7325 58.0792 94.6775C58.0059 94.6225 57.9111 94.595 57.795 94.595Z" fill="black"/>
<path d="M78.1591 93.4625L77.3567 96.7361H76.8066L76.2885 94.7142C76.2732 94.6592 76.2579 94.598 76.2426 94.5308C76.2274 94.4635 76.2121 94.3978 76.1968 94.3336C76.1846 94.2664 76.1723 94.2068 76.1601 94.1548C76.1509 94.1029 76.1448 94.0631 76.1418 94.0356C76.1387 94.0631 76.1311 94.1029 76.1188 94.1548C76.1097 94.2068 76.099 94.2664 76.0868 94.3336C76.0745 94.3978 76.0608 94.4651 76.0455 94.5354C76.0302 94.6026 76.0149 94.6668 75.9996 94.7279L75.4907 96.7361H74.9405L74.1382 93.4625H74.6517L75.0918 95.3973C75.1071 95.4646 75.1224 95.5333 75.1377 95.6036C75.153 95.6739 75.1667 95.7442 75.179 95.8145C75.1912 95.8848 75.2019 95.9536 75.211 96.0209C75.2233 96.085 75.2324 96.1446 75.2386 96.1997C75.2477 96.1416 75.2569 96.0789 75.2661 96.0117C75.2783 95.9444 75.2905 95.8757 75.3027 95.8054C75.318 95.732 75.3333 95.6602 75.3486 95.5899C75.3669 95.5196 75.3837 95.4539 75.399 95.3927L75.8896 93.4625H76.3893L76.8983 95.4065C76.9135 95.4676 76.9288 95.5333 76.9441 95.6036C76.9594 95.6739 76.9747 95.7458 76.99 95.8191C77.0052 95.8894 77.0175 95.9582 77.0266 96.0254C77.0389 96.0896 77.0496 96.1477 77.0587 96.1997C77.0679 96.1232 77.0801 96.0407 77.0954 95.9521C77.1138 95.8604 77.1321 95.7672 77.1504 95.6724C77.1718 95.5746 77.1917 95.4829 77.21 95.3973L77.6456 93.4625H78.1591ZM79.4058 94.219C79.6106 94.219 79.7879 94.2649 79.9377 94.3566C80.0875 94.4452 80.2021 94.5736 80.2815 94.7417C80.3641 94.9098 80.4053 95.1085 80.4053 95.3377V95.6036H78.8511C78.8572 95.8573 78.9183 96.0514 79.0345 96.1859C79.1506 96.3204 79.3141 96.3876 79.525 96.3876C79.6748 96.3876 79.8078 96.3739 79.9239 96.3464C80.0431 96.3158 80.1639 96.2715 80.2861 96.2134V96.6169C80.17 96.6719 80.0508 96.7132 79.9285 96.7407C79.8093 96.7682 79.6641 96.7819 79.493 96.7819C79.2698 96.7819 79.0711 96.7346 78.8969 96.6398C78.7227 96.545 78.5867 96.4044 78.4889 96.218C78.3911 96.0285 78.3422 95.7962 78.3422 95.5211C78.3422 95.243 78.3865 95.0076 78.4751 94.815C78.5638 94.6225 78.6876 94.4758 78.8465 94.3749C79.0085 94.271 79.1949 94.219 79.4058 94.219ZM79.4058 94.595C79.25 94.595 79.1246 94.6515 79.0299 94.7646C78.9351 94.8777 78.8801 95.0382 78.8648 95.246H79.9148C79.9148 95.1176 79.8964 95.0045 79.8597 94.9067C79.8231 94.8089 79.7665 94.7325 79.6901 94.6775C79.6167 94.6225 79.522 94.595 79.4058 94.595ZM81.7531 96.7819C81.478 96.7819 81.2549 96.675 81.0837 96.461C80.9156 96.247 80.8316 95.9292 80.8316 95.5074C80.8316 95.0825 80.9172 94.7616 81.0883 94.5445C81.2595 94.3275 81.4842 94.219 81.7623 94.219C81.8815 94.219 81.9839 94.2358 82.0695 94.2694C82.1551 94.3 82.2299 94.3428 82.2941 94.3978C82.3583 94.4528 82.4118 94.514 82.4546 94.5812H82.4821C82.476 94.5384 82.4684 94.4773 82.4592 94.3978C82.4531 94.3153 82.45 94.2419 82.45 94.1778V93.2516H82.9452V96.7361H82.5555L82.4684 96.406H82.45C82.4072 96.4763 82.3537 96.5405 82.2896 96.5985C82.2254 96.6536 82.1489 96.6979 82.0603 96.7315C81.9747 96.7651 81.8723 96.7819 81.7531 96.7819ZM81.8861 96.3831C82.1 96.3831 82.2498 96.3173 82.3354 96.1859C82.424 96.0514 82.4684 95.8512 82.4684 95.5853V95.5119C82.4684 95.2216 82.4271 95 82.3446 94.8471C82.262 94.6943 82.1077 94.6179 81.8815 94.6179C81.7042 94.6179 81.5697 94.6989 81.478 94.8609C81.3863 95.0198 81.3405 95.2384 81.3405 95.5165C81.3405 95.7947 81.3863 96.0086 81.478 96.1584C81.5697 96.3082 81.7057 96.3831 81.8861 96.3831Z" fill="black"/>
<path d="M99.4695 96.7361H98.9651V93.8889H98.0573V93.4625H100.373V93.8889H99.4695V96.7361ZM101.282 94.1823C101.282 94.2588 101.278 94.3352 101.272 94.4116C101.269 94.488 101.265 94.5507 101.259 94.5996H101.286C101.335 94.514 101.395 94.4437 101.465 94.3887C101.538 94.3336 101.619 94.2924 101.708 94.2649C101.8 94.2374 101.893 94.2236 101.988 94.2236C102.168 94.2236 102.321 94.2557 102.446 94.3199C102.574 94.381 102.671 94.4788 102.735 94.6133C102.802 94.7447 102.836 94.9159 102.836 95.1268V96.7361H102.336V95.1956C102.336 95.003 102.299 94.8594 102.226 94.7646C102.153 94.6668 102.038 94.6179 101.882 94.6179C101.732 94.6179 101.613 94.6515 101.525 94.7188C101.436 94.786 101.373 94.8853 101.337 95.0168C101.3 95.1452 101.282 95.3041 101.282 95.4936V96.7361H100.786V93.2516H101.282V94.1823ZM105.549 94.2649V96.7361H105.159L105.09 96.4106H105.063C105.017 96.4961 104.954 96.5664 104.875 96.6215C104.798 96.6765 104.714 96.7162 104.622 96.7407C104.531 96.7682 104.436 96.7819 104.338 96.7819C104.158 96.7819 104.005 96.7514 103.88 96.6902C103.757 96.626 103.663 96.5282 103.595 96.3968C103.531 96.2623 103.499 96.0912 103.499 95.8833V94.2649H103.999V95.8099C103.999 96.0025 104.036 96.1462 104.109 96.2409C104.182 96.3357 104.297 96.3831 104.453 96.3831C104.606 96.3831 104.725 96.3494 104.81 96.2822C104.899 96.2149 104.962 96.1171 104.998 95.9888C105.035 95.8573 105.053 95.6999 105.053 95.5165V94.2649H105.549Z" fill="black"/>
<path d="M123.438 96.7361H122.933V93.4625H124.68V93.8843H123.438V94.9526H124.602V95.3744H123.438V96.7361ZM126.34 94.219C126.38 94.219 126.424 94.2221 126.473 94.2282C126.522 94.2312 126.563 94.2358 126.597 94.2419L126.546 94.6958C126.513 94.6867 126.475 94.679 126.432 94.6729C126.389 94.6668 126.346 94.6637 126.304 94.6637C126.221 94.6637 126.142 94.6821 126.065 94.7188C125.989 94.7524 125.92 94.8028 125.859 94.8701C125.798 94.9342 125.749 95.0137 125.712 95.1085C125.675 95.2032 125.657 95.3117 125.657 95.434V96.7361H125.162V94.2649H125.552L125.616 94.705H125.643C125.689 94.6164 125.746 94.5354 125.813 94.462C125.883 94.3887 125.963 94.3306 126.051 94.2878C126.14 94.2419 126.236 94.219 126.34 94.219ZM127.515 94.2649V96.7361H127.016V94.2649H127.515ZM127.272 93.325C127.346 93.325 127.41 93.3464 127.465 93.3892C127.52 93.432 127.547 93.5038 127.547 93.6046C127.547 93.7025 127.52 93.7743 127.465 93.8201C127.41 93.8629 127.346 93.8843 127.272 93.8843C127.193 93.8843 127.126 93.8629 127.071 93.8201C127.016 93.7743 126.988 93.7025 126.988 93.6046C126.988 93.5038 127.016 93.432 127.071 93.3892C127.126 93.3464 127.193 93.325 127.272 93.325Z" fill="black"/>
<path d="M147.524 95.8512C147.524 96.0468 147.479 96.2134 147.391 96.351C147.302 96.4885 147.175 96.5955 147.01 96.6719C146.845 96.7453 146.643 96.7819 146.405 96.7819C146.289 96.7819 146.177 96.7743 146.07 96.759C145.966 96.7468 145.87 96.7284 145.781 96.704C145.696 96.6795 145.615 96.649 145.538 96.6123V96.1446C145.661 96.1997 145.8 96.2501 145.956 96.2959C146.114 96.3387 146.272 96.3601 146.428 96.3601C146.562 96.3601 146.672 96.3403 146.758 96.3005C146.847 96.2608 146.912 96.2058 146.955 96.1355C147.001 96.0652 147.024 95.9826 147.024 95.8879C147.024 95.787 147.001 95.703 146.955 95.6357C146.912 95.5654 146.84 95.5012 146.74 95.4432C146.642 95.382 146.51 95.3194 146.345 95.2552C146.229 95.2063 146.124 95.1543 146.029 95.0993C145.934 95.0412 145.852 94.974 145.781 94.8976C145.714 94.8212 145.662 94.7325 145.625 94.6317C145.592 94.5308 145.575 94.4131 145.575 94.2786C145.575 94.0983 145.618 93.9439 145.703 93.8156C145.789 93.6872 145.908 93.5894 146.061 93.5221C146.214 93.4518 146.393 93.4167 146.597 93.4167C146.769 93.4167 146.926 93.435 147.07 93.4717C147.213 93.5053 147.349 93.5527 147.478 93.6138L147.317 94.0219C147.198 93.9699 147.077 93.9271 146.955 93.8935C146.836 93.8599 146.712 93.8431 146.584 93.8431C146.471 93.8431 146.376 93.8614 146.299 93.8981C146.226 93.9348 146.171 93.9852 146.134 94.0494C146.098 94.1136 146.079 94.1885 146.079 94.274C146.079 94.3749 146.101 94.459 146.144 94.5262C146.186 94.5934 146.255 94.6561 146.35 94.7142C146.445 94.7692 146.57 94.8303 146.726 94.8976C146.897 94.9709 147.042 95.0489 147.161 95.1314C147.281 95.2109 147.371 95.3087 147.432 95.4248C147.493 95.5379 147.524 95.68 147.524 95.8512ZM149.002 94.219C149.292 94.219 149.511 94.2878 149.658 94.4253C149.807 94.5598 149.882 94.7723 149.882 95.0626V96.7361H149.529L149.433 96.3922H149.415C149.344 96.4809 149.274 96.5542 149.204 96.6123C149.137 96.6704 149.057 96.7132 148.965 96.7407C148.877 96.7682 148.767 96.7819 148.635 96.7819C148.498 96.7819 148.374 96.756 148.264 96.704C148.154 96.649 148.067 96.5664 148.003 96.4564C147.938 96.3433 147.906 96.2027 147.906 96.0346C147.906 95.784 147.995 95.5929 148.172 95.4615C148.353 95.3301 148.626 95.2582 148.993 95.246L149.387 95.2323V95.0947C149.387 94.9113 149.349 94.7829 149.273 94.7096C149.199 94.6362 149.095 94.5996 148.961 94.5996C148.848 94.5996 148.736 94.6179 148.626 94.6546C148.516 94.6913 148.409 94.7356 148.305 94.7875L148.154 94.4345C148.267 94.3734 148.395 94.3229 148.539 94.2832C148.686 94.2404 148.84 94.219 149.002 94.219ZM149.089 95.5578C148.839 95.57 148.664 95.6174 148.567 95.6999C148.469 95.7794 148.42 95.8925 148.42 96.0392C148.42 96.1676 148.453 96.2608 148.521 96.3189C148.591 96.3769 148.681 96.406 148.791 96.406C148.959 96.406 149.1 96.3525 149.213 96.2455C149.329 96.1385 149.387 95.9781 149.387 95.7641V95.5486L149.089 95.5578ZM151.441 96.3876C151.505 96.3876 151.568 96.3815 151.629 96.3693C151.69 96.3571 151.743 96.3433 151.789 96.328V96.6948C151.737 96.7193 151.669 96.7391 151.583 96.7544C151.5 96.7728 151.413 96.7819 151.322 96.7819C151.193 96.7819 151.076 96.759 150.969 96.7132C150.862 96.6673 150.776 96.5878 150.712 96.4747C150.648 96.3617 150.616 96.2042 150.616 96.0025V94.6362H150.299V94.4162L150.639 94.2328L150.808 93.7101H151.115V94.2649H151.771V94.6362H151.115V95.9933C151.115 96.1278 151.146 96.2272 151.207 96.2914C151.268 96.3555 151.346 96.3876 151.441 96.3876Z" fill="black"/>
<path d="M170.301 95.8512C170.301 96.0468 170.257 96.2134 170.168 96.351C170.079 96.4885 169.952 96.5955 169.787 96.6719C169.622 96.7453 169.421 96.7819 169.182 96.7819C169.066 96.7819 168.954 96.7743 168.848 96.759C168.744 96.7468 168.647 96.7284 168.559 96.704C168.473 96.6795 168.392 96.649 168.316 96.6123V96.1446C168.438 96.1997 168.577 96.2501 168.733 96.2959C168.892 96.3387 169.049 96.3601 169.205 96.3601C169.34 96.3601 169.45 96.3403 169.535 96.3005C169.624 96.2608 169.69 96.2058 169.732 96.1355C169.778 96.0652 169.801 95.9826 169.801 95.8879C169.801 95.787 169.778 95.703 169.732 95.6357C169.69 95.5654 169.618 95.5012 169.517 95.4432C169.419 95.382 169.288 95.3194 169.123 95.2552C169.006 95.2063 168.901 95.1543 168.806 95.0993C168.711 95.0412 168.629 94.974 168.559 94.8976C168.491 94.8212 168.439 94.7325 168.403 94.6317C168.369 94.5308 168.352 94.4131 168.352 94.2786C168.352 94.0983 168.395 93.9439 168.481 93.8156C168.566 93.6872 168.686 93.5894 168.838 93.5221C168.991 93.4518 169.17 93.4167 169.375 93.4167C169.546 93.4167 169.703 93.435 169.847 93.4717C169.991 93.5053 170.127 93.5527 170.255 93.6138L170.095 94.0219C169.975 93.9699 169.855 93.9271 169.732 93.8935C169.613 93.8599 169.489 93.8431 169.361 93.8431C169.248 93.8431 169.153 93.8614 169.077 93.8981C169.003 93.9348 168.948 93.9852 168.912 94.0494C168.875 94.1136 168.857 94.1885 168.857 94.274C168.857 94.3749 168.878 94.459 168.921 94.5262C168.964 94.5934 169.032 94.6561 169.127 94.7142C169.222 94.7692 169.347 94.8303 169.503 94.8976C169.674 94.9709 169.819 95.0489 169.939 95.1314C170.058 95.2109 170.148 95.3087 170.209 95.4248C170.27 95.5379 170.301 95.68 170.301 95.8512ZM172.875 94.2649V96.7361H172.485L172.417 96.4106H172.389C172.343 96.4961 172.281 96.5664 172.201 96.6215C172.125 96.6765 172.041 96.7162 171.949 96.7407C171.857 96.7682 171.763 96.7819 171.665 96.7819C171.484 96.7819 171.332 96.7514 171.206 96.6902C171.084 96.626 170.989 96.5282 170.922 96.3968C170.858 96.2623 170.826 96.0912 170.826 95.8833V94.2649H171.326V95.8099C171.326 96.0025 171.362 96.1462 171.436 96.2409C171.509 96.3357 171.624 96.3831 171.779 96.3831C171.932 96.3831 172.051 96.3494 172.137 96.2822C172.226 96.2149 172.288 96.1171 172.325 95.9888C172.362 95.8573 172.38 95.6999 172.38 95.5165V94.2649H172.875ZM174.781 94.219C175.05 94.219 175.257 94.2908 175.4 94.4345C175.547 94.5782 175.62 94.8089 175.62 95.1268V96.7361H175.125V95.1956C175.125 95.003 175.087 94.8594 175.01 94.7646C174.937 94.6668 174.822 94.6179 174.667 94.6179C174.437 94.6179 174.28 94.6928 174.194 94.8426C174.109 94.9923 174.066 95.2078 174.066 95.489V96.7361H173.571V94.2649H173.961L174.029 94.595H174.057C174.109 94.5094 174.171 94.4391 174.245 94.3841C174.318 94.3291 174.401 94.2878 174.492 94.2603C174.584 94.2328 174.68 94.219 174.781 94.219Z" fill="black"/>
<path d="M10.5615 96.1369C10.5615 96.2731 10.5287 96.3871 10.4632 96.4788C10.4004 96.5705 10.31 96.6399 10.1921 96.6871C10.0742 96.7342 9.9327 96.7578 9.76764 96.7578C9.62879 96.7578 9.50827 96.746 9.4061 96.7224C9.30654 96.6989 9.21878 96.6661 9.1428 96.6242V96.3098C9.22402 96.3517 9.32095 96.391 9.43361 96.4277C9.54626 96.4618 9.66023 96.4788 9.7755 96.4788C9.93532 96.4788 10.0506 96.4513 10.1213 96.3963C10.1947 96.3386 10.2314 96.2626 10.2314 96.1683C10.2314 96.1159 10.217 96.0688 10.1881 96.0269C10.1619 95.9849 10.1135 95.943 10.0427 95.9011C9.97462 95.8592 9.87506 95.812 9.74407 95.7596C9.61831 95.7072 9.50958 95.6548 9.41789 95.6024C9.32881 95.55 9.25938 95.4872 9.20961 95.4138C9.16245 95.3404 9.13887 95.2461 9.13887 95.1308C9.13887 94.9527 9.20699 94.8151 9.34322 94.7182C9.48208 94.6213 9.66285 94.5728 9.88554 94.5728C10.0061 94.5728 10.1187 94.5859 10.2235 94.6121C10.3283 94.6357 10.4279 94.6697 10.5222 94.7143L10.4082 94.9894C10.3532 94.9632 10.2956 94.9409 10.2353 94.9226C10.175 94.9016 10.1135 94.8859 10.0506 94.8754C9.99034 94.8623 9.92877 94.8558 9.86589 94.8558C9.73752 94.8558 9.63927 94.8793 9.57115 94.9265C9.50303 94.971 9.46898 95.0326 9.46898 95.1112C9.46898 95.1688 9.4847 95.2186 9.51613 95.2605C9.54757 95.3025 9.59866 95.3431 9.6694 95.3824C9.74276 95.419 9.84231 95.4623 9.96807 95.512C10.0938 95.5618 10.2012 95.6129 10.2903 95.6653C10.3794 95.7177 10.4462 95.7819 10.4907 95.8579C10.5379 95.9312 10.5615 96.0242 10.5615 96.1369ZM11.8078 94.5728C11.9781 94.5728 12.1248 94.6121 12.248 94.6907C12.3711 94.7693 12.4654 94.8806 12.5309 95.0247C12.599 95.1662 12.6331 95.3326 12.6331 95.5238V95.7321H11.2812C11.2865 95.9705 11.3428 96.1526 11.4502 96.2784C11.5576 96.4015 11.7083 96.4631 11.9021 96.4631C12.0279 96.4631 12.1392 96.4513 12.2362 96.4277C12.3357 96.4015 12.4379 96.3648 12.5427 96.3177V96.6203C12.4405 96.6674 12.3397 96.7015 12.2401 96.7224C12.1432 96.746 12.0253 96.7578 11.8864 96.7578C11.6978 96.7578 11.5314 96.7172 11.3873 96.636C11.2432 96.5548 11.1306 96.4342 11.0494 96.2744C10.9681 96.112 10.9275 95.9142 10.9275 95.681C10.9275 95.4505 10.9642 95.2527 11.0376 95.0876C11.1109 94.9226 11.2131 94.7955 11.3441 94.7064C11.4777 94.6173 11.6323 94.5728 11.8078 94.5728ZM11.8078 94.8558C11.6559 94.8558 11.5353 94.9095 11.4463 95.0169C11.3572 95.1217 11.3048 95.2684 11.2891 95.457H12.2794C12.2794 95.3365 12.2624 95.2317 12.2283 95.1426C12.1943 95.0536 12.1419 94.9841 12.0711 94.9344C12.003 94.882 11.9152 94.8558 11.8078 94.8558ZM13.9269 96.7578C13.7487 96.7578 13.5916 96.7198 13.4553 96.6438C13.3191 96.5679 13.2117 96.45 13.1331 96.2902C13.0571 96.1303 13.0191 95.926 13.0191 95.6771C13.0191 95.4177 13.0597 95.2068 13.1409 95.0444C13.2221 94.882 13.3322 94.7628 13.471 94.6868C13.6125 94.6108 13.7723 94.5728 13.9505 94.5728C14.0527 94.5728 14.1509 94.5846 14.2452 94.6082C14.3422 94.6291 14.4207 94.6553 14.481 94.6868L14.3749 94.9737C14.3146 94.9501 14.2439 94.9278 14.1627 94.9068C14.0841 94.8859 14.0107 94.8754 13.9426 94.8754C13.8142 94.8754 13.7081 94.9055 13.6243 94.9658C13.5405 95.0261 13.4776 95.1151 13.4357 95.233C13.3937 95.3509 13.3728 95.4976 13.3728 95.6732C13.3728 95.8408 13.3937 95.9836 13.4357 96.1015C13.4776 96.2194 13.5392 96.3085 13.6204 96.3687C13.7042 96.429 13.8064 96.4591 13.9269 96.4591C14.0343 96.4591 14.1299 96.4473 14.2138 96.4238C14.2976 96.4002 14.3749 96.3714 14.4456 96.3373V96.6438C14.3775 96.6805 14.3029 96.708 14.2216 96.7264C14.1404 96.7473 14.0422 96.7578 13.9269 96.7578Z" fill="#6A6871"/>
<path d="M31.4035 78.0742C25.5082 78.0742 21 74.2432 21 74.2432V88H180V64.8398C180 64.8398 161.62 43.7693 150.523 43.7693C139.426 43.7693 132.838 49.3417 126.249 47.4262C119.66 45.5106 114.111 29.4901 101.974 30.0125C89.8364 30.5349 83.0742 56.8296 77.8724 57.1778C72.6707 57.5261 62.614 51.7796 55.8517 51.7796C49.0894 51.7796 37.2988 78.0742 31.4035 78.0742Z" fill="url(#paint0_linear_7397_24467)"/>
<path d="M179.63 65.1092C179.809 65.3136 180.119 65.3345 180.323 65.156C180.527 64.9775 180.548 64.6672 180.37 64.4629L179.63 65.1092ZM21 74.1749C20.6822 74.5495 20.6823 74.5496 20.6825 74.5497C20.6825 74.5498 20.6827 74.5499 20.6829 74.5501C20.6832 74.5503 20.6835 74.5506 20.684 74.551C20.6848 74.5517 20.686 74.5527 20.6874 74.5539C20.6902 74.5562 20.6942 74.5595 20.6992 74.5637C20.7092 74.572 20.7236 74.5839 20.7422 74.599C20.7794 74.6293 20.8336 74.6727 20.9041 74.7274C21.0449 74.8367 21.2509 74.9911 21.5157 75.1757C22.0451 75.5445 22.8118 76.0346 23.7668 76.5245C25.6727 77.5023 28.352 78.4912 31.4035 78.4912V77.5088C28.5597 77.5088 26.0372 76.5851 24.2152 75.6504C23.3062 75.184 22.5774 74.7179 22.0773 74.3695C21.8274 74.1954 21.6351 74.0511 21.5064 73.9512C21.442 73.9013 21.3936 73.8625 21.362 73.8367C21.3461 73.8238 21.3344 73.8142 21.3271 73.8081C21.3234 73.805 21.3207 73.8028 21.3192 73.8015C21.3184 73.8009 21.3179 73.8004 21.3177 73.8002C21.3176 73.8001 21.3175 73.8001 21.3175 73.8001C21.3176 73.8001 21.3176 73.8002 21.3176 73.8002C21.3177 73.8003 21.3178 73.8003 21 74.1749ZM31.4035 78.4912C32.3112 78.4912 33.2507 77.9938 34.1756 77.2559C35.1138 76.5074 36.1092 75.4524 37.1379 74.2113C39.1952 71.7292 41.4476 68.4254 43.7068 65.152C45.975 61.8654 48.2512 58.6077 50.3779 56.1712C51.4412 54.953 52.4523 53.9578 53.3916 53.2705C54.3388 52.5774 55.1594 52.2372 55.8517 52.2372V51.2547C54.8534 51.2547 53.8263 51.735 52.8114 52.4776C51.7885 53.2261 50.7229 54.282 49.6378 55.5251C47.4677 58.0113 45.1598 61.317 42.8982 64.594C40.6275 67.8841 38.4043 71.1438 36.3815 73.5843C35.3701 74.8045 34.4243 75.8006 33.5629 76.4879C32.6881 77.1858 31.9697 77.5088 31.4035 77.5088V78.4912ZM55.8517 52.2372C59.1324 52.2372 63.2507 53.6355 67.2863 55.0354C69.2858 55.729 71.259 56.4198 73.058 56.9141C74.8498 57.4063 76.5193 57.7186 77.9052 57.626L77.8396 56.6457C76.6247 56.7269 75.0864 56.4525 73.3183 55.9667C71.5573 55.4829 69.6184 54.8045 67.6082 54.1072C63.6245 52.7252 59.3333 51.2547 55.8517 51.2547V52.2372ZM77.9052 57.626C78.7492 57.5696 79.5349 57.0021 80.2617 56.2283C81.0025 55.4395 81.7614 54.3498 82.5439 53.0826C84.0993 50.5638 85.8408 47.1829 87.7475 43.8853C89.6725 40.556 91.7945 37.2566 94.1745 34.7607C96.5572 32.2618 99.1434 30.6258 101.995 30.5033L101.953 29.5217C98.7355 29.66 95.9249 31.5013 93.4635 34.0827C90.9994 36.6669 88.8299 40.0505 86.897 43.3935C84.9458 46.7681 83.2628 50.0485 81.708 52.5664C80.9353 53.8176 80.2177 54.8401 79.5456 55.5557C78.8595 56.2862 78.296 56.6152 77.8396 56.6457L77.9052 57.626ZM101.995 30.5033C107.821 30.2529 112.106 33.9572 115.826 38.1203C116.752 39.157 117.635 40.2128 118.497 41.2364C119.357 42.2571 120.196 43.2466 121.023 44.1368C122.663 45.9016 124.325 47.3523 126.112 47.871L126.386 46.9275C124.878 46.49 123.375 45.224 121.743 43.4679C120.934 42.5977 120.109 41.6258 119.248 40.6035C118.39 39.5842 117.496 38.5156 116.558 37.4658C112.822 33.2833 108.264 29.2505 101.953 29.5217L101.995 30.5033ZM126.112 47.871C129.567 48.8741 133.003 47.9061 136.836 46.7616C140.701 45.6077 145.057 44.2393 150.523 44.2393V43.2568C144.893 43.2568 140.406 44.6703 136.555 45.8202C132.672 46.9794 129.519 47.837 126.386 46.9275L126.112 47.871ZM150.523 44.2393C153.161 44.2393 156.296 45.4971 159.558 47.4563C162.806 49.4075 166.119 52.0162 169.099 54.636C172.076 57.254 174.711 59.8735 176.601 61.8393C177.546 62.8219 178.304 63.6405 178.826 64.213C179.086 64.4992 179.288 64.7238 179.424 64.8766C179.492 64.953 179.544 65.0115 179.579 65.0507C179.596 65.0703 179.609 65.0851 179.617 65.0949C179.622 65.0998 179.625 65.1034 179.627 65.1058C179.628 65.107 179.629 65.1079 179.629 65.1085C179.63 65.1088 179.63 65.109 179.63 65.1091C179.63 65.1092 179.63 65.1092 180 64.786C180.37 64.4629 180.37 64.4627 180.37 64.4625C180.369 64.4623 180.369 64.462 180.369 64.4617C180.368 64.461 180.367 64.4599 180.366 64.4586C180.364 64.4559 180.36 64.4519 180.356 64.4467C180.347 64.4363 180.333 64.4209 180.315 64.4007C180.28 64.3603 180.227 64.3006 180.158 64.2229C180.019 64.0676 179.815 63.8402 179.552 63.5512C179.025 62.9731 178.261 62.1481 177.309 61.1584C175.406 59.1795 172.752 56.5396 169.747 53.8981C166.745 51.2584 163.383 48.6076 160.064 46.6141C156.758 44.6288 153.434 43.2568 150.523 43.2568V44.2393Z" fill="#3E86DB"/>
<circle cx="106" cy="30" r="2.49123" fill="#3E86DB" stroke="white" stroke-width="0.982462"/>
<line x1="106.327" y1="30" x2="106.327" y2="88" stroke="#3E86DB" stroke-width="0.654975" stroke-dasharray="2.62 2.62"/>
<rect x="99" y="16" width="13" height="7.30995" rx="1.30995" fill="#20213E"/>
<path d="M104.067 20.655H102.181V20.3328L102.904 19.5979C103.045 19.4538 103.163 19.3294 103.258 19.2246C103.352 19.1171 103.423 19.015 103.47 18.918C103.517 18.8185 103.541 18.7111 103.541 18.5958C103.541 18.4517 103.499 18.3443 103.415 18.2735C103.331 18.2002 103.222 18.1635 103.089 18.1635C102.96 18.1635 102.845 18.1884 102.743 18.2382C102.641 18.2853 102.534 18.3521 102.424 18.4386L102.2 18.1596C102.276 18.0941 102.358 18.0351 102.444 17.9827C102.533 17.9303 102.631 17.8884 102.739 17.857C102.849 17.8255 102.969 17.8098 103.1 17.8098C103.279 17.8098 103.432 17.8413 103.56 17.9041C103.689 17.9644 103.787 18.0508 103.855 18.1635C103.926 18.2762 103.961 18.4085 103.961 18.5604C103.961 18.6731 103.944 18.7792 103.91 18.8787C103.876 18.9757 103.826 19.0713 103.761 19.1656C103.698 19.2599 103.62 19.3556 103.529 19.4525C103.437 19.5494 103.336 19.6516 103.226 19.759L102.703 20.266V20.2856H104.067V20.655ZM105.357 18.9141C105.543 18.9141 105.706 18.9469 105.844 19.0124C105.983 19.0779 106.091 19.1722 106.167 19.2953C106.245 19.4184 106.285 19.5691 106.285 19.7472C106.285 19.9437 106.243 20.1127 106.159 20.2542C106.075 20.3957 105.953 20.5044 105.793 20.5804C105.636 20.6563 105.444 20.6943 105.216 20.6943C105.072 20.6943 104.935 20.6812 104.807 20.655C104.679 20.6288 104.57 20.5908 104.481 20.5411V20.1599C104.575 20.2149 104.689 20.2594 104.823 20.2935C104.959 20.3275 105.089 20.3446 105.212 20.3446C105.345 20.3446 105.459 20.3249 105.554 20.2856C105.651 20.2437 105.725 20.1821 105.778 20.1009C105.833 20.0171 105.86 19.9123 105.86 19.7865C105.86 19.6162 105.806 19.4866 105.699 19.3975C105.594 19.3058 105.428 19.2599 105.2 19.2599C105.127 19.2599 105.044 19.2665 104.952 19.2796C104.863 19.2927 104.791 19.3058 104.736 19.3189L104.544 19.2049L104.65 17.8491H106.092V18.2185H105.011L104.948 18.9534C104.993 18.9455 105.049 18.9377 105.117 18.9298C105.186 18.9193 105.265 18.9141 105.357 18.9141ZM107.96 20.655H107.547V18.7923C107.547 18.7268 107.547 18.6665 107.547 18.6115C107.55 18.5539 107.552 18.4989 107.555 18.4465C107.558 18.3914 107.56 18.339 107.563 18.2893C107.529 18.3233 107.493 18.3561 107.457 18.3875C107.42 18.4189 107.378 18.4556 107.331 18.4975L107.024 18.7451L106.812 18.4779L107.614 17.8491H107.96V20.655Z" fill="white"/>
<path d="M105.668 24.3787L107.668 22.3787H103.668L105.668 24.3787Z" fill="#20213E"/>
</g>
<defs>
<filter id="filter0_d_7397_24467" x="0" y="0" width="193" height="110" filterUnits="userSpaceOnUse" color-interpolation-filters="sRGB">
<feFlood flood-opacity="0" result="BackgroundImageFix"/>
<feColorMatrix in="SourceAlpha" type="matrix" values="0 0 0 0 0 0 0 0 0 0 0 0 0 0 0 0 0 0 127 0" result="hardAlpha"/>
<feMorphology radius="2" operator="dilate" in="SourceAlpha" result="effect1_dropShadow_7397_24467"/>
<feOffset dy="2"/>
<feComposite in2="hardAlpha" operator="out"/>
<feColorMatrix type="matrix" values="0 0 0 0 0.0745098 0 0 0 0 0.0745098 0 0 0 0 0.0941176 0 0 0 1 0"/>
<feBlend mode="normal" in2="BackgroundImageFix" result="effect1_dropShadow_7397_24467"/>
<feBlend mode="normal" in="SourceGraphic" in2="effect1_dropShadow_7397_24467" result="shape"/>
</filter>
<linearGradient id="paint0_linear_7397_24467" x1="100.5" y1="30.0124" x2="100.5" y2="87.9999" gradientUnits="userSpaceOnUse">
<stop stop-color="#85BAF8"/>
<stop offset="0.825" stop-color="#CEE9F9" stop-opacity="0.385"/>
<stop offset="1" stop-color="#F2FCFF" stop-opacity="0"/>
</linearGradient>
</defs>
</svg>
