<svg width="272" height="278" viewBox="0 0 272 278" fill="none" xmlns="http://www.w3.org/2000/svg">
<rect width="336" height="278" rx="8" fill="white"/>
<rect width="73" height="278" fill="#0F172A"/>
<path d="M47 22.5C47 28.299 42.299 33 36.5 33C35.1421 33 33.8444 32.7422 32.6531 32.273C31.2393 31.716 31.1142 29.9111 32.1886 28.8366C33.0052 28.0201 34.2704 27.9293 35.4021 28.1586C35.7716 28.2334 36.1539 28.2727 36.5455 28.2727C39.7085 28.2727 42.2727 25.7085 42.2727 22.5455C42.2727 19.3824 39.7085 16.8182 36.5455 16.8182C33.3824 16.8182 30.8182 19.3824 30.8182 22.5455C30.8182 22.9786 30.8663 23.4004 30.9574 23.806C31.2181 24.9668 31.1464 26.2791 30.3051 27.1203C29.2495 28.1759 27.4811 28.0836 26.881 26.7167C26.3144 25.4261 26 23.9998 26 22.5C26 16.701 30.701 12 36.5 12C42.299 12 47 16.701 47 22.5Z" fill="white"/>
<path fill-rule="evenodd" clip-rule="evenodd" d="M39.8821 22.5455C39.8821 20.7027 38.3882 19.2087 36.5454 19.2087C34.7025 19.2087 33.2086 20.7027 33.2086 22.5455C33.2086 24.3883 34.7025 25.8823 36.5454 25.8823C38.3882 25.8823 39.8821 24.3883 39.8821 22.5455Z" fill="white"/>
<path d="M36.5455 24C36.1585 23.2574 35.647 22.7419 35 22.5C35.3524 22.3705 35.6723 22.1698 35.9388 21.9112C36.2052 21.6526 36.412 21.342 36.5455 21C36.6718 21.3459 36.8761 21.6601 37.1435 21.9196C37.4108 22.1791 37.7345 22.3774 38.0909 22.5C37.4243 22.8275 36.8829 23.353 36.5455 24Z" fill="#6366F1"/>
<rect x="86" y="12" width="99" height="7" rx="3.5" fill="#DEDEE3"/>
<rect x="173" y="45" width="129" height="7" rx="3.5" fill="#DEDEE3"/>
<rect x="173" y="204" width="129" height="7" rx="3.5" fill="#DEDEE3"/>
<rect x="173" y="61" width="129" height="7" rx="3.5" fill="#DEDEE3"/>
<rect x="173" y="220" width="70" height="7" rx="3.5" fill="#DEDEE3"/>
<rect x="173" y="77" width="129" height="7" rx="3.5" fill="#DEDEE3"/>
<rect x="173" y="236" width="86" height="7" rx="3.5" fill="#DEDEE3"/>
<rect x="173" y="95" width="70" height="7" rx="3.5" fill="#DEDEE3"/>
<rect x="173" y="254" width="70" height="7" rx="3.5" fill="#DEDEE3"/>
</svg>
