<svg width="95" height="67" viewBox="0 0 95 67" fill="none" xmlns="http://www.w3.org/2000/svg">
<g filter="url(#filter0_d_7397_24433)">
<rect x="2" width="205" height="63" rx="8" fill="#FDFDFD"/>
<rect x="2.5" y="0.5" width="204" height="62" rx="7.5" stroke="#131318"/>
<path d="M24.96 22.692C25.404 23.28 25.992 23.868 26.088 23.952V24H23.616C23.52 23.892 23.388 23.232 23.004 22.668L20.592 19.644C20.568 19.608 20.568 19.596 20.604 19.548L21.336 18.876L22.992 17.292C23.796 16.524 23.88 15.672 23.76 15.384V15.312H25.836V15.36C25.476 15.636 25.104 15.972 24.648 16.392L21.972 18.948L24.96 22.692ZM20.376 17.172V22.188C20.376 22.956 20.616 23.748 20.664 23.952V24H18.504V23.952C18.54 23.748 18.792 22.956 18.792 22.188V17.172C18.792 16.404 18.54 15.612 18.504 15.408V15.36H20.664V15.408C20.616 15.612 20.376 16.404 20.376 17.172ZM30.2025 15.36C31.8825 15.36 33.0345 16.512 33.0345 17.976C33.0345 19.704 31.4865 20.628 29.8305 20.628H28.4145V22.188C28.4145 22.956 28.6545 23.748 28.7025 23.952V24H26.5305V23.952C26.5785 23.748 26.8185 22.956 26.8185 22.188V17.172C26.8185 16.404 26.5785 15.612 26.5305 15.408V15.36H30.2025ZM29.6265 20.124C30.8025 20.124 31.3545 19.02 31.3545 17.976C31.3545 17.004 30.8625 15.876 29.6865 15.876H28.4145V20.124H29.6265ZM33.9287 24V23.952C33.9647 23.748 34.2167 22.956 34.2167 22.188V17.172C34.2167 16.404 33.9647 15.612 33.9287 15.408V15.36H36.0887V15.408C36.0407 15.612 35.8007 16.404 35.8007 17.172V22.188C35.8007 22.956 36.0407 23.748 36.0887 23.952V24H33.9287ZM43.3464 17.916C44.6304 17.916 45.6984 18.948 45.6984 20.916C45.6984 23.076 44.4144 24.096 43.1784 24.096C42.6504 24.096 42.0504 23.904 41.5944 23.388V24.588C41.5944 25.356 41.8344 26.148 41.8824 26.352V26.4H39.8064V26.352C39.8544 26.148 40.0944 25.356 40.0944 24.588V19.884C40.0944 19.116 39.8424 18.348 39.7704 18.144V18.108L41.5944 17.88V18.804C42.0024 18.216 42.6504 17.916 43.3464 17.916ZM42.5904 23.34C43.5984 23.34 44.0784 22.272 44.0784 20.952C44.0784 19.8 43.6704 18.78 42.6864 18.78C42.2784 18.78 41.9184 18.984 41.5944 19.308V22.944C41.8824 23.184 42.2184 23.34 42.5904 23.34ZM50.0479 23.112C50.6959 23.112 51.2839 22.884 51.9679 22.32L52.0159 22.356C51.6559 23.232 50.7439 24.108 49.3879 24.108C47.8999 24.108 46.4599 23.04 46.4599 21C46.4599 19.092 47.6959 17.916 49.3999 17.916C51.2239 17.916 52.0639 19.284 52.0639 20.844H48.1039C48.1999 22.152 48.7999 23.112 50.0479 23.112ZM49.3759 18.36C48.4399 18.36 48.0799 19.428 48.0919 20.52V20.544L50.5519 20.256C50.5279 19.248 50.2039 18.36 49.3759 18.36ZM54.5911 19.068C55.0471 18.204 55.8991 17.604 57.0511 17.976L56.8231 19.608H56.7751C56.2471 19.092 55.3711 18.756 54.5911 19.392V22.188C54.5911 22.956 54.8311 23.748 54.8671 23.952V24H52.8031V23.952C52.8511 23.748 53.0911 22.956 53.0911 22.188V19.8C53.0911 19.032 52.8511 18.24 52.8031 18.036V17.988H54.5911V19.068ZM63.134 24.108C61.646 24.108 60.206 23.064 60.206 21C60.206 19.044 61.454 17.916 63.182 17.916C64.094 17.916 64.886 18.264 65.39 18.48L65.414 20.136H65.354C64.934 19.44 64.118 18.36 63.218 18.36C62.27 18.36 61.826 19.404 61.838 20.58C61.85 22.08 62.486 23.112 63.794 23.112C64.322 23.112 64.958 22.932 65.654 22.38L65.69 22.404C65.318 23.304 64.418 24.108 63.134 24.108ZM72.2654 23.22L72.2894 23.256C72.1694 23.736 71.7734 24.072 71.1974 24.072C70.5854 24.072 70.1774 23.736 70.0454 23.16C69.7214 23.628 69.1334 24.096 68.2214 24.096C66.9614 24.096 66.2894 23.184 66.2894 22.248C66.2894 20.94 67.6574 20.16 69.2294 20.364C69.5054 20.388 69.7934 20.448 70.0094 20.52V19.776C70.0094 18.888 69.6854 18.408 69.2054 18.408C68.4734 18.408 66.9854 19.608 66.7694 19.908H66.7094V18.372C67.6814 18.072 68.6294 17.916 69.2894 17.916C70.7774 17.916 71.5094 18.696 71.5094 19.848V22.536C71.5094 23.184 71.7494 23.436 72.2654 23.22ZM69.0134 23.28C69.3854 23.28 69.7214 23.1 70.0094 22.776V22.752V20.868C69.9494 20.868 69.8774 20.868 69.8054 20.856C68.5214 20.652 67.8614 21.288 67.8614 22.056C67.8614 22.764 68.3534 23.28 69.0134 23.28ZM81.8907 22.188C81.8907 22.956 82.1307 23.748 82.1787 23.952V24H80.1147V23.952C80.1627 23.748 80.4027 22.956 80.4027 22.188V20.136C80.4027 19.26 79.8387 18.9 79.2507 18.9C78.8907 18.9 78.5547 19.056 78.1947 19.344C78.2307 19.524 78.2547 19.728 78.2547 19.944V22.188C78.2547 22.956 78.4947 23.748 78.5427 23.952V24H76.4907V23.952C76.5387 23.748 76.7787 22.956 76.7787 22.188V20.136C76.7787 19.26 76.2027 18.9 75.6027 18.9C75.2667 18.9 74.9307 19.044 74.5947 19.308V22.188C74.5947 22.956 74.8347 23.748 74.8707 23.952V24H72.8187V23.952C72.8667 23.748 73.1067 22.956 73.1067 22.188V19.8C73.1067 19.032 72.8667 18.24 72.8187 18.036V17.988H74.5947V18.936C75.0507 18.312 75.6387 17.916 76.4187 17.916C77.1627 17.916 77.8467 18.276 78.1227 19.08C78.6147 18.372 79.2147 17.916 80.0427 17.916C81.0267 17.916 81.8907 18.528 81.8907 19.944V22.188ZM86.3894 17.916C87.6734 17.916 88.7414 18.948 88.7414 20.916C88.7414 23.076 87.4574 24.096 86.2214 24.096C85.6934 24.096 85.0934 23.904 84.6374 23.388V24.588C84.6374 25.356 84.8774 26.148 84.9254 26.352V26.4H82.8494V26.352C82.8974 26.148 83.1374 25.356 83.1374 24.588V19.884C83.1374 19.116 82.8854 18.348 82.8134 18.144V18.108L84.6374 17.88V18.804C85.0454 18.216 85.6934 17.916 86.3894 17.916ZM85.6334 23.34C86.6414 23.34 87.1214 22.272 87.1214 20.952C87.1214 19.8 86.7134 18.78 85.7294 18.78C85.3214 18.78 84.9614 18.984 84.6374 19.308V22.944C84.9254 23.184 85.2614 23.34 85.6334 23.34ZM95.3982 23.22L95.4222 23.256C95.3022 23.736 94.9062 24.072 94.3302 24.072C93.7182 24.072 93.3102 23.736 93.1782 23.16C92.8542 23.628 92.2662 24.096 91.3542 24.096C90.0942 24.096 89.4222 23.184 89.4222 22.248C89.4222 20.94 90.7902 20.16 92.3622 20.364C92.6382 20.388 92.9262 20.448 93.1422 20.52V19.776C93.1422 18.888 92.8182 18.408 92.3382 18.408C91.6062 18.408 90.1182 19.608 89.9022 19.908H89.8422V18.372C90.8142 18.072 91.7622 17.916 92.4222 17.916C93.9102 17.916 94.6422 18.696 94.6422 19.848V22.536C94.6422 23.184 94.8822 23.436 95.3982 23.22ZM92.1462 23.28C92.5182 23.28 92.8542 23.1 93.1422 22.776V22.752V20.868C93.0822 20.868 93.0102 20.868 92.9382 20.856C91.6542 20.652 90.9942 21.288 90.9942 22.056C90.9942 22.764 91.4862 23.28 92.1462 23.28ZM96.0355 24V23.952C96.0715 23.748 96.3235 22.956 96.3235 22.188V19.8C96.3235 19.032 96.0835 18.24 96.0355 18.036V17.988H97.8115V22.188C97.8115 22.956 98.0515 23.748 98.0995 23.952V24H96.0355ZM102.707 22.896C103.859 22.896 104.567 23.508 104.567 24.552C104.567 26.112 102.791 26.4 101.543 26.4C100.643 26.4 98.8793 26.208 98.8793 25.008C98.8793 24.624 99.0593 24.276 99.3593 24.012C99.0473 23.772 98.9513 23.424 98.9513 23.1C98.9513 22.416 99.3833 22.008 100.043 21.828C99.4073 21.48 98.9153 20.88 98.9153 20.028C98.9153 18.636 100.259 17.916 101.447 17.916C101.915 17.916 102.395 18.024 102.815 18.24C103.151 17.568 103.751 17.136 104.639 17.268L104.411 18.456L104.387 18.468C104.015 18.264 103.559 18.18 103.055 18.372C103.595 18.72 103.991 19.272 103.991 20.028C103.991 21.444 102.623 22.164 101.447 22.164C101.099 22.164 100.739 22.104 100.403 21.984C100.127 22.08 99.8873 22.26 99.8873 22.5C99.8873 22.848 100.307 22.896 100.751 22.896H102.707ZM101.447 18.348C100.775 18.348 100.391 19.092 100.391 20.04C100.391 20.988 100.775 21.732 101.447 21.732C102.119 21.732 102.515 20.988 102.515 20.04C102.515 19.092 102.119 18.348 101.447 18.348ZM101.687 25.932C102.719 25.932 103.583 25.56 103.583 24.996C103.583 24.636 103.319 24.348 102.659 24.348H100.643C100.295 24.348 100.007 24.3 99.7793 24.228C99.7673 24.324 99.7673 24.42 99.7673 24.54C99.7553 25.32 100.331 25.932 101.687 25.932ZM110.897 22.188C110.897 22.956 111.137 23.748 111.185 23.952V24H109.121V23.952C109.157 23.748 109.409 22.956 109.409 22.188V20.136C109.409 19.236 108.857 18.876 108.257 18.864C107.813 18.864 107.393 19.056 106.997 19.392V22.188C106.997 22.956 107.237 23.748 107.273 23.952V24H105.209V23.952C105.257 23.748 105.497 22.956 105.497 22.188V19.8C105.497 19.032 105.257 18.24 105.209 18.036V17.988H106.997V19.02C107.441 18.36 108.077 17.916 108.929 17.916C109.961 17.916 110.897 18.528 110.897 19.944V22.188Z" fill="#111827"/>
<rect x="18" y="41" width="173" height="10" rx="5" fill="#E5E2EA"/>
<rect x="18" y="41" width="104" height="10" rx="5" fill="url(#paint0_linear_7397_24433)"/>
</g>
<defs>
<filter id="filter0_d_7397_24433" x="0" y="0" width="209" height="67" filterUnits="userSpaceOnUse" color-interpolation-filters="sRGB">
<feFlood flood-opacity="0" result="BackgroundImageFix"/>
<feColorMatrix in="SourceAlpha" type="matrix" values="0 0 0 0 0 0 0 0 0 0 0 0 0 0 0 0 0 0 127 0" result="hardAlpha"/>
<feMorphology radius="2" operator="dilate" in="SourceAlpha" result="effect1_dropShadow_7397_24433"/>
<feOffset dy="2"/>
<feComposite in2="hardAlpha" operator="out"/>
<feColorMatrix type="matrix" values="0 0 0 0 0.0745098 0 0 0 0 0.0745098 0 0 0 0 0.0941176 0 0 0 1 0"/>
<feBlend mode="normal" in2="BackgroundImageFix" result="effect1_dropShadow_7397_24433"/>
<feBlend mode="normal" in="SourceGraphic" in2="effect1_dropShadow_7397_24433" result="shape"/>
</filter>
<linearGradient id="paint0_linear_7397_24433" x1="70" y1="41" x2="70" y2="51" gradientUnits="userSpaceOnUse">
<stop stop-color="#6366F1"/>
<stop offset="1" stop-color="#A79FDB"/>
</linearGradient>
</defs>
</svg>
