<svg width="109" height="30" viewBox="0 0 109 30" fill="none" xmlns="http://www.w3.org/2000/svg">
<g filter="url(#filter0_d_7329_16565)">
<rect width="109" height="28" rx="14" fill="white"/>
<rect x="0.5" y="0.5" width="108" height="27" rx="13.5" stroke="#131318"/>
<path d="M19.212 16.128C19.5 16.908 19.776 17.496 20.1 17.964V18H17.616V17.952C17.688 17.724 17.784 16.896 17.484 16.104L17.088 15.06H13.872L13.62 15.756C13.284 16.692 13.524 17.676 13.62 17.94V18H12.084V17.964C12.336 17.544 12.732 16.668 13.08 15.684L14.892 10.68C15.096 10.128 14.856 9.552 14.784 9.396V9.36H16.656L19.212 16.128ZM14.052 14.556H16.908L15.444 10.668L14.052 14.556ZM25.8516 16.188C25.8516 16.956 26.0916 17.748 26.1396 17.952V18H24.6756C24.5916 17.796 24.4836 17.376 24.4236 16.944C23.9436 17.652 23.3316 18.096 22.4676 18.096C21.4356 18.096 20.4996 17.484 20.4996 16.068V13.8C20.4996 13.032 20.2596 12.24 20.2116 12.036V11.988H21.9996V15.876C21.9996 16.776 22.5276 17.124 23.1276 17.124C23.5476 17.124 23.9796 16.944 24.3876 16.632C24.3756 16.5 24.3636 16.38 24.3636 16.26V13.8C24.3636 13.032 24.1116 12.24 24.0756 12.036V11.988H25.8516V16.188ZM29.8087 17.1C30.0727 17.1 30.4327 17.028 30.8047 16.8C30.5167 17.508 29.9287 18.108 29.0047 18.108C28.0327 18.108 27.4687 17.424 27.4687 16.308V12.48H26.5927V12.06C27.7447 11.616 28.3687 10.92 28.8727 10.092H28.9687V11.988H30.6127V12.48H28.9687V16.152C28.9687 16.8 29.2927 17.1 29.8087 17.1ZM34.1798 18.108C32.5238 18.108 31.1318 17.004 31.1318 14.976C31.1318 12.972 32.5238 11.916 34.1798 11.916C35.8238 11.916 37.2398 12.972 37.2398 14.976C37.2398 17.004 35.8238 18.108 34.1798 18.108ZM34.1798 17.652C35.1158 17.652 35.5718 16.344 35.5718 14.976C35.5718 13.632 35.1158 12.36 34.1798 12.36C33.2318 12.36 32.7998 13.644 32.7998 14.976C32.7998 16.332 33.2198 17.652 34.1798 17.652ZM38.0034 15.252V14.316H40.9074V15.252H38.0034ZM43.6106 13.068C44.0666 12.204 44.9186 11.604 46.0706 11.976L45.8426 13.608H45.7946C45.2666 13.092 44.3906 12.756 43.6106 13.392V16.188C43.6106 16.956 43.8506 17.748 43.8866 17.952V18H41.8226V17.952C41.8706 17.748 42.1106 16.956 42.1106 16.188V13.8C42.1106 13.032 41.8706 12.24 41.8226 12.036V11.988H43.6106V13.068ZM50.001 17.112C50.649 17.112 51.237 16.884 51.921 16.32L51.969 16.356C51.609 17.232 50.697 18.108 49.341 18.108C47.853 18.108 46.413 17.04 46.413 15C46.413 13.092 47.649 11.916 49.353 11.916C51.177 11.916 52.017 13.284 52.017 14.844H48.057C48.153 16.152 48.753 17.112 50.001 17.112ZM49.329 12.36C48.393 12.36 48.033 13.428 48.045 14.52V14.544L50.505 14.256C50.481 13.248 50.157 12.36 49.329 12.36ZM55.6691 18.108C54.1811 18.108 52.7411 17.064 52.7411 15C52.7411 13.044 53.9891 11.916 55.7171 11.916C56.6291 11.916 57.4211 12.264 57.9251 12.48L57.9491 14.136H57.8891C57.4691 13.44 56.6531 12.36 55.7531 12.36C54.8051 12.36 54.3611 13.404 54.3731 14.58C54.3851 16.08 55.0211 17.112 56.3291 17.112C56.8571 17.112 57.4931 16.932 58.1891 16.38L58.2251 16.404C57.8531 17.304 56.9531 18.108 55.6691 18.108ZM61.8243 18.108C60.1683 18.108 58.7763 17.004 58.7763 14.976C58.7763 12.972 60.1683 11.916 61.8243 11.916C63.4683 11.916 64.8843 12.972 64.8843 14.976C64.8843 17.004 63.4683 18.108 61.8243 18.108ZM61.8243 17.652C62.7603 17.652 63.2163 16.344 63.2163 14.976C63.2163 13.632 62.7603 12.36 61.8243 12.36C60.8763 12.36 60.4443 13.644 60.4443 14.976C60.4443 16.332 60.8643 17.652 61.8243 17.652ZM67.3059 13.068C67.7619 12.204 68.6139 11.604 69.7659 11.976L69.5379 13.608H69.4899C68.9619 13.092 68.0859 12.756 67.3059 13.392V16.188C67.3059 16.956 67.5459 17.748 67.5819 17.952V18H65.5179V17.952C65.5659 17.748 65.8059 16.956 65.8059 16.188V13.8C65.8059 13.032 65.5659 12.24 65.5179 12.036V11.988H67.3059V13.068ZM75.8083 16.188C75.8083 16.956 76.0483 17.748 76.0963 17.952V18H74.7043C74.5963 17.7 74.4523 17.472 74.3683 17.1C73.8763 17.832 73.1803 18.108 72.5323 18.108C71.2843 18.108 70.1203 17.064 70.1203 15.024C70.1203 12.936 71.3203 11.916 72.5923 11.916C73.2763 11.916 73.9003 12.216 74.3083 12.804V11.052C74.3083 10.296 73.9963 9.528 73.9123 9.336V9.288L75.8083 9.048V16.188ZM73.1563 17.328C73.5883 17.328 73.9603 17.1 74.3203 16.752C74.3083 16.656 74.3083 16.548 74.3083 16.44V13.272C74.0083 12.972 73.6363 12.768 73.2043 12.768C72.2443 12.768 71.7523 13.704 71.7523 14.976C71.7523 16.176 72.1363 17.328 73.1563 17.328Z" fill="#111827"/>
<path d="M89 16.8571C89.7578 16.8571 90.4845 16.5561 91.0203 16.0203C91.5561 15.4845 91.8571 14.7578 91.8571 14C91.8571 13.2422 91.5561 12.5155 91.0203 11.9797C90.4845 11.4439 89.7578 11.1429 89 11.1429C88.2422 11.1429 87.5155 11.4439 86.9797 11.9797C86.4439 12.5155 86.1429 13.2422 86.1429 14C86.1429 14.7578 86.4439 15.4845 86.9797 16.0203C87.5155 16.5561 88.2422 16.8571 89 16.8571ZM89 9C87.6739 9 86.4021 9.52678 85.4645 10.4645C84.5268 11.4021 84 12.6739 84 14C84 15.3261 84.5268 16.5979 85.4645 17.5355C86.4021 18.4732 87.6739 19 89 19C90.3261 19 91.5979 18.4732 92.5355 17.5355C93.4732 16.5979 94 15.3261 94 14C94 12.6739 93.4732 11.4021 92.5355 10.4645C91.5979 9.52678 90.3261 9 89 9ZM84.7143 14C84.7143 13.4372 84.8251 12.8799 85.0405 12.3599C85.2559 11.84 85.5716 11.3675 85.9695 10.9695C86.3675 10.5716 86.84 10.2559 87.3599 10.0405C87.8799 9.82514 88.4372 9.71429 89 9.71429C89.5628 9.71429 90.1201 9.82514 90.6401 10.0405C91.16 10.2559 91.6325 10.5716 92.0305 10.9695C92.4284 11.3675 92.7441 11.84 92.9595 12.3599C93.1749 12.8799 93.2857 13.4372 93.2857 14C93.2857 15.1366 92.8342 16.2267 92.0305 17.0305C91.2267 17.8342 90.1366 18.2857 89 18.2857C87.8634 18.2857 86.7733 17.8342 85.9695 17.0305C85.1658 16.2267 84.7143 15.1366 84.7143 14Z" fill="black"/>
</g>
<defs>
<filter id="filter0_d_7329_16565" x="0" y="0" width="109" height="30" filterUnits="userSpaceOnUse" color-interpolation-filters="sRGB">
<feFlood flood-opacity="0" result="BackgroundImageFix"/>
<feColorMatrix in="SourceAlpha" type="matrix" values="0 0 0 0 0 0 0 0 0 0 0 0 0 0 0 0 0 0 127 0" result="hardAlpha"/>
<feOffset dy="2"/>
<feComposite in2="hardAlpha" operator="out"/>
<feColorMatrix type="matrix" values="0 0 0 0 0.0745098 0 0 0 0 0.0745098 0 0 0 0 0.0941176 0 0 0 1 0"/>
<feBlend mode="normal" in2="BackgroundImageFix" result="effect1_dropShadow_7329_16565"/>
<feBlend mode="normal" in="SourceGraphic" in2="effect1_dropShadow_7329_16565" result="shape"/>
</filter>
</defs>
</svg>
