<svg width="129" height="30" viewBox="0 0 129 30" fill="none" xmlns="http://www.w3.org/2000/svg">
<g filter="url(#filter0_d_7329_16596)">
<rect width="129" height="28" rx="14" fill="#FFE077"/>
<rect x="0.5" y="0.5" width="128" height="27" rx="13.5" stroke="#131318"/>
<path d="M19.212 16.128C19.5 16.908 19.776 17.496 20.1 17.964V18H17.616V17.952C17.688 17.724 17.784 16.896 17.484 16.104L17.088 15.06H13.872L13.62 15.756C13.284 16.692 13.524 17.676 13.62 17.94V18H12.084V17.964C12.336 17.544 12.732 16.668 13.08 15.684L14.892 10.68C15.096 10.128 14.856 9.552 14.784 9.396V9.36H16.656L19.212 16.128ZM14.052 14.556H16.908L15.444 10.668L14.052 14.556ZM25.8516 16.188C25.8516 16.956 26.0916 17.748 26.1396 17.952V18H24.6756C24.5916 17.796 24.4836 17.376 24.4236 16.944C23.9436 17.652 23.3316 18.096 22.4676 18.096C21.4356 18.096 20.4996 17.484 20.4996 16.068V13.8C20.4996 13.032 20.2596 12.24 20.2116 12.036V11.988H21.9996V15.876C21.9996 16.776 22.5276 17.124 23.1276 17.124C23.5476 17.124 23.9796 16.944 24.3876 16.632C24.3756 16.5 24.3636 16.38 24.3636 16.26V13.8C24.3636 13.032 24.1116 12.24 24.0756 12.036V11.988H25.8516V16.188ZM29.8087 17.1C30.0727 17.1 30.4327 17.028 30.8047 16.8C30.5167 17.508 29.9287 18.108 29.0047 18.108C28.0327 18.108 27.4687 17.424 27.4687 16.308V12.48H26.5927V12.06C27.7447 11.616 28.3687 10.92 28.8727 10.092H28.9687V11.988H30.6127V12.48H28.9687V16.152C28.9687 16.8 29.2927 17.1 29.8087 17.1ZM34.1798 18.108C32.5238 18.108 31.1318 17.004 31.1318 14.976C31.1318 12.972 32.5238 11.916 34.1798 11.916C35.8238 11.916 37.2398 12.972 37.2398 14.976C37.2398 17.004 35.8238 18.108 34.1798 18.108ZM34.1798 17.652C35.1158 17.652 35.5718 16.344 35.5718 14.976C35.5718 13.632 35.1158 12.36 34.1798 12.36C33.2318 12.36 32.7998 13.644 32.7998 14.976C32.7998 16.332 33.2198 17.652 34.1798 17.652ZM38.0034 15.252V14.316H40.9074V15.252H38.0034ZM44.7266 17.1C44.9906 17.1 45.3506 17.028 45.7226 16.8C45.4346 17.508 44.8466 18.108 43.9226 18.108C42.9506 18.108 42.3866 17.424 42.3866 16.308V12.48H41.5106V12.06C42.6626 11.616 43.2866 10.92 43.7906 10.092H43.8866V11.988H45.5306V12.48H43.8866V16.152C43.8866 16.8 44.2106 17.1 44.7266 17.1ZM48.052 13.068C48.508 12.204 49.36 11.604 50.512 11.976L50.284 13.608H50.236C49.708 13.092 48.832 12.756 48.052 13.392V16.188C48.052 16.956 48.292 17.748 48.328 17.952V18H46.264V17.952C46.312 17.748 46.552 16.956 46.552 16.188V13.8C46.552 13.032 46.312 12.24 46.264 12.036V11.988H48.052V13.068ZM56.9607 17.22L56.9847 17.256C56.8647 17.736 56.4687 18.072 55.8927 18.072C55.2807 18.072 54.8727 17.736 54.7407 17.16C54.4167 17.628 53.8287 18.096 52.9167 18.096C51.6567 18.096 50.9847 17.184 50.9847 16.248C50.9847 14.94 52.3527 14.16 53.9247 14.364C54.2007 14.388 54.4887 14.448 54.7047 14.52V13.776C54.7047 12.888 54.3807 12.408 53.9007 12.408C53.1687 12.408 51.6807 13.608 51.4647 13.908H51.4047V12.372C52.3767 12.072 53.3247 11.916 53.9847 11.916C55.4727 11.916 56.2047 12.696 56.2047 13.848V16.536C56.2047 17.184 56.4447 17.436 56.9607 17.22ZM53.7087 17.28C54.0807 17.28 54.4167 17.1 54.7047 16.776V16.752V14.868C54.6447 14.868 54.5727 14.868 54.5007 14.856C53.2167 14.652 52.5567 15.288 52.5567 16.056C52.5567 16.764 53.0487 17.28 53.7087 17.28ZM63.202 16.188C63.202 16.956 63.442 17.748 63.49 17.952V18H61.426V17.952C61.462 17.748 61.714 16.956 61.714 16.188V14.136C61.714 13.236 61.162 12.876 60.562 12.864C60.118 12.864 59.698 13.056 59.302 13.392V16.188C59.302 16.956 59.542 17.748 59.578 17.952V18H57.514V17.952C57.562 17.748 57.802 16.956 57.802 16.188V13.8C57.802 13.032 57.562 12.24 57.514 12.036V11.988H59.302V13.02C59.746 12.36 60.382 11.916 61.234 11.916C62.266 11.916 63.202 12.528 63.202 13.944V16.188ZM66.688 18.108C66.1 18.108 65.296 17.952 64.372 17.568V16.032H64.42C65.08 16.74 65.884 17.628 66.784 17.628C67.288 17.628 67.804 17.352 67.804 16.776C67.804 16.176 67.228 15.96 66.244 15.624C65.008 15.192 64.264 14.664 64.264 13.692C64.264 12.576 65.248 11.916 66.652 11.916C67.204 11.916 67.996 12.048 68.764 12.384V13.848H68.716C68.08 13.092 67.336 12.372 66.52 12.372C66.004 12.372 65.524 12.636 65.524 13.14C65.524 13.728 66.172 13.92 67.12 14.244C68.476 14.712 69.004 15.288 69.004 16.188C69.004 17.52 67.888 18.108 66.688 18.108ZM72.6144 18.108C71.1264 18.108 69.6864 17.064 69.6864 15C69.6864 13.044 70.9344 11.916 72.6624 11.916C73.5744 11.916 74.3664 12.264 74.8704 12.48L74.8944 14.136H74.8344C74.4144 13.44 73.5984 12.36 72.6984 12.36C71.7504 12.36 71.3064 13.404 71.3184 14.58C71.3304 16.08 71.9664 17.112 73.2744 17.112C73.8024 17.112 74.4384 16.932 75.1344 16.38L75.1704 16.404C74.7984 17.304 73.8984 18.108 72.6144 18.108ZM77.6653 13.068C78.1213 12.204 78.9733 11.604 80.1253 11.976L79.8973 13.608H79.8493C79.3213 13.092 78.4453 12.756 77.6653 13.392V16.188C77.6653 16.956 77.9053 17.748 77.9413 17.952V18H75.8773V17.952C75.9253 17.748 76.1653 16.956 76.1653 16.188V13.8C76.1653 13.032 75.9253 12.24 75.8773 12.036V11.988H77.6653V13.068ZM80.8246 18V17.952C80.8606 17.748 81.1126 16.956 81.1126 16.188V13.8C81.1126 13.032 80.8726 12.24 80.8246 12.036V11.988H82.6006V16.188C82.6006 16.956 82.8406 17.748 82.8886 17.952V18H80.8246ZM87.222 11.916C88.506 11.916 89.574 12.948 89.574 14.916C89.574 17.076 88.278 18.096 86.958 18.096C86.49 18.096 85.914 17.952 85.434 17.508L83.958 18.072L83.946 11.052C83.946 10.296 83.694 9.516 83.634 9.324L83.622 9.276L85.458 9.048V12.828C85.866 12.216 86.526 11.916 87.222 11.916ZM86.31 17.34C87.474 17.34 87.954 16.152 87.954 14.916C87.954 13.788 87.546 12.78 86.562 12.78C86.154 12.78 85.782 12.984 85.458 13.32V17.124C85.746 17.28 86.046 17.34 86.31 17.34ZM93.9346 17.112C94.5826 17.112 95.1706 16.884 95.8546 16.32L95.9026 16.356C95.5426 17.232 94.6306 18.108 93.2746 18.108C91.7866 18.108 90.3466 17.04 90.3466 15C90.3466 13.092 91.5826 11.916 93.2866 11.916C95.1106 11.916 95.9506 13.284 95.9506 14.844H91.9906C92.0866 16.152 92.6866 17.112 93.9346 17.112ZM93.2626 12.36C92.3266 12.36 91.9666 13.428 91.9786 14.52V14.544L94.4386 14.256C94.4146 13.248 94.0906 12.36 93.2626 12.36Z" fill="#111827"/>
<path d="M114.944 8.64903L114.944 8.64904C114.986 8.89628 115.01 9.14636 115.015 9.39717M114.944 8.64903L115.015 9.39901C115.015 9.3984 115.015 9.39778 115.015 9.39717M114.944 8.64903L114.943 8.64689C114.922 8.53828 114.869 8.43846 114.791 8.36024L114.784 8.35324L114.775 8.34774C114.698 8.29645 114.613 8.25946 114.523 8.23856L114.523 8.23847L114.518 8.23766C114.164 8.17182 113.807 8.12792 113.447 8.10623L114.944 8.64903ZM115.015 9.39717C115.07 10.3798 115.1 12.0699 115.1 12.501V12.5021C115.1 12.9325 115.1 15.1351 114.96 16.4411M115.015 9.39717L114.96 16.4411M114.96 16.4411C114.961 16.8384 114.876 17.2312 114.711 17.5926L114.7 17.6157L114.68 17.631C114.495 17.7699 114.271 17.8468 114.039 17.8509C113.671 17.8759 113.301 17.8758 112.933 17.8507L112.932 17.8507C112.244 17.7958 110.312 17.711 109.49 17.711C109.439 17.711 109.386 17.7185 109.336 17.727C109.327 17.7287 109.315 17.7308 109.304 17.7328C109.291 17.7352 109.278 17.7375 109.268 17.7391C109.266 17.7394 109.264 17.7398 109.262 17.7401C109.207 17.8259 109.148 17.9393 109.077 18.0767L109.065 18.099C108.979 18.2646 108.877 18.4578 108.75 18.659C108.6 18.9015 108.429 19.1303 108.24 19.3426L108.232 19.3514L108.231 19.3509C107.838 19.6985 107.357 19.9328 106.841 20.0287C106.646 20.0775 106.446 20.1034 106.245 20.1059C106.244 20.1059 106.242 20.106 106.241 20.106L106.24 20.006C106.204 20.0092 106.168 20.0023 106.136 19.9859C106.104 19.9696 106.078 19.9446 106.059 19.9137C106.041 19.8828 106.032 19.8474 106.033 19.8115C106.034 19.7757 106.045 19.7408 106.065 19.711L114.96 16.4411ZM112.94 17.751C113.305 17.7758 113.67 17.7758 114.035 17.751H112.94ZM114.305 12.5025C114.329 12.8692 114.363 14.5402 114.323 15.831H114.316L114.315 15.9296C114.31 16.3069 114.282 16.6836 114.231 17.0575L114.23 17.0574V17.071C114.23 17.0841 114.226 17.104 114.217 17.13C114.215 17.1361 114.213 17.1419 114.211 17.1477C114.194 17.1522 114.176 17.155 114.158 17.1562L114.158 17.1559L114.15 17.157C114.017 17.1765 113.883 17.1879 113.749 17.191H113.023C112.415 17.1559 110.867 17.101 109.921 17.106C109.676 17.1008 109.43 17.1109 109.186 17.1363C109.088 17.1434 108.995 17.1854 108.925 17.2548L108.925 17.2545L108.919 17.2606C108.829 17.3645 108.744 17.5327 108.649 17.719C108.644 17.7299 108.639 17.7408 108.633 17.7518C108.54 17.9354 108.434 18.1453 108.3 18.3628C108.17 18.5661 108.02 18.7556 107.851 18.9284C107.533 19.2082 107.149 19.4005 106.737 19.4884C106.902 19.1455 107.003 18.7748 107.035 18.3944C107.094 17.7126 106.924 17.353 106.647 17.1772C106.514 17.0925 106.366 17.0576 106.23 17.0427C106.126 17.0313 106.022 17.0313 105.938 17.0313C105.914 17.0312 105.892 17.0312 105.871 17.031V17.031H105.87H105.868C105.58 17.031 105.23 17.031 104.824 17.0865C104.548 17.1074 104.269 17.1073 103.993 17.0863L103.993 17.0857L103.982 17.086C103.866 17.0896 103.752 17.0652 103.649 17.0152L103.55 12.9348C103.55 12.5781 103.55 11.357 103.605 10.2911L103.605 10.2911V10.286C103.605 9.73703 103.659 9.22691 103.704 8.9099L103.704 8.9099L103.704 8.90856C103.71 8.86546 103.717 8.82258 103.725 8.78C103.784 8.77804 103.855 8.77214 103.919 8.75448C104.482 8.69321 105.049 8.662 105.615 8.661L105.617 8.66095C106.75 8.63686 108.016 8.65151 108.593 8.65819C108.733 8.65982 108.833 8.66098 108.88 8.66098C109.557 8.66098 111.004 8.72081 112.264 8.79579C112.982 8.8407 113.634 8.89044 114.046 8.93997L114.197 8.96582C114.198 8.99399 114.197 9.02217 114.195 9.05031L114.195 9.05784L114.195 9.06535C114.275 9.91014 114.31 11.941 114.305 12.4951L114.305 12.4951L114.305 12.5025Z" fill="#111827" stroke="#111827" stroke-width="0.2"/>
<path d="M112.587 11.3558C112.659 11.358 112.728 11.3321 112.781 11.2837C112.833 11.2358 112.865 11.1698 112.87 11.0992C112.876 11.033 112.859 10.9665 112.82 10.9122C112.781 10.8571 112.723 10.8184 112.657 10.8034L112.657 10.8024L112.644 10.8012C112.292 10.7711 111.31 10.701 110.164 10.6559L110.164 10.6559H110.16H109.1H108.04V10.6558L108.037 10.6559C106.997 10.6909 106.067 10.7658 105.535 10.8159C105.47 10.8173 105.409 10.8434 105.363 10.8891C105.316 10.936 105.29 10.9996 105.29 11.0659C105.29 11.1322 105.316 11.1958 105.363 11.2426C105.41 11.2895 105.474 11.3159 105.54 11.3159C105.811 11.3159 106.209 11.3335 106.683 11.3544C107.081 11.372 107.533 11.392 108.007 11.4058L108.007 11.4059H108.01H109.065H110.125C110.694 11.4059 111.224 11.3908 111.655 11.3771C111.714 11.3752 111.77 11.3733 111.825 11.3716C112.174 11.3602 112.439 11.3516 112.587 11.3558ZM112.587 11.3558C112.587 11.3558 112.587 11.3558 112.587 11.3558L112.59 11.2559L112.587 11.3558C112.587 11.3558 112.587 11.3558 112.587 11.3558Z" fill="#111827" stroke="#111827" stroke-width="0.2"/>
<path d="M112.524 12.6561L112.545 12.6667L112.556 12.6724C112.618 12.6784 112.676 12.7057 112.721 12.7502C112.772 12.8008 112.8 12.8695 112.8 12.9411C112.8 13.0127 112.772 13.0814 112.721 13.132C112.671 13.1815 112.605 13.2098 112.535 13.2111C112.497 13.2144 112.457 13.2179 112.416 13.2215C111.846 13.2717 111.017 13.3446 110.131 13.3959C110.131 13.3959 110.131 13.3959 110.131 13.3959L112.524 12.6561ZM112.524 12.6561H112.5M112.524 12.6561H112.5M112.5 12.6561H110.09M112.5 12.6561H110.09M110.09 12.6561H109.06M110.09 12.6561H109.06M109.06 12.6561H109.057M109.06 12.6561H109.057M109.057 12.6561C108.715 12.6561 108.361 12.6561 108.021 12.6964M109.057 12.6561L108.021 12.6964M108.021 12.6964C107.376 12.7323 106.797 12.7738 106.364 12.8049C106.008 12.8304 105.751 12.8488 105.639 12.8511C105.639 12.8511 105.638 12.8511 105.638 12.8511L108.021 12.6964Z" fill="#111827" stroke="#111827" stroke-width="0.2"/>
<path d="M107.886 14.516V14.516H107.885H107.35L107.344 14.516C107.17 14.516 106.978 14.516 106.798 14.5573C106.533 14.5873 106.284 14.6235 106.072 14.6545C106.065 14.6556 106.058 14.6566 106.051 14.6576C105.847 14.6874 105.683 14.7115 105.57 14.721C105.506 14.7223 105.444 14.7485 105.398 14.7942C105.351 14.8411 105.325 14.9047 105.325 14.971C105.325 15.0373 105.351 15.1009 105.398 15.1478C105.444 15.1932 105.504 15.2193 105.568 15.221C106.052 15.277 106.538 15.3055 107.025 15.3061H107.025H107.03C107.31 15.3061 107.612 15.3061 107.895 15.2501C108.18 15.2225 108.444 15.1888 108.664 15.1602C108.685 15.1574 108.707 15.1547 108.727 15.152C108.917 15.1271 109.066 15.1077 109.159 15.101C109.23 15.1 109.297 15.0716 109.346 15.0219C109.397 14.9713 109.426 14.9026 109.426 14.831L109.426 14.8282C109.425 14.7926 109.416 14.7577 109.402 14.7254C109.387 14.6931 109.366 14.6641 109.339 14.6401C109.313 14.6161 109.282 14.5977 109.249 14.5858C109.217 14.5744 109.182 14.5693 109.148 14.571C109.068 14.5708 108.946 14.5633 108.789 14.5536C108.747 14.551 108.703 14.5483 108.657 14.5455C108.437 14.5324 108.171 14.5185 107.886 14.516Z" fill="#111827" stroke="#111827" stroke-width="0.2"/>
</g>
<defs>
<filter id="filter0_d_7329_16596" x="0" y="0" width="129" height="30" filterUnits="userSpaceOnUse" color-interpolation-filters="sRGB">
<feFlood flood-opacity="0" result="BackgroundImageFix"/>
<feColorMatrix in="SourceAlpha" type="matrix" values="0 0 0 0 0 0 0 0 0 0 0 0 0 0 0 0 0 0 127 0" result="hardAlpha"/>
<feOffset dy="2"/>
<feComposite in2="hardAlpha" operator="out"/>
<feColorMatrix type="matrix" values="0 0 0 0 0.0745098 0 0 0 0 0.0745098 0 0 0 0 0.0941176 0 0 0 1 0"/>
<feBlend mode="normal" in2="BackgroundImageFix" result="effect1_dropShadow_7329_16596"/>
<feBlend mode="normal" in="SourceGraphic" in2="effect1_dropShadow_7329_16596" result="shape"/>
</filter>
</defs>
</svg>
