<svg width="133" height="30" viewBox="0 0 133 30" fill="none" xmlns="http://www.w3.org/2000/svg">
<g filter="url(#filter0_d_7329_16600)">
<rect width="133" height="28" rx="14" fill="white"/>
<rect x="0.5" y="0.5" width="132" height="27" rx="13.5" stroke="#131318"/>
<path d="M19.212 16.128C19.5 16.908 19.776 17.496 20.1 17.964V18H17.616V17.952C17.688 17.724 17.784 16.896 17.484 16.104L17.088 15.06H13.872L13.62 15.756C13.284 16.692 13.524 17.676 13.62 17.94V18H12.084V17.964C12.336 17.544 12.732 16.668 13.08 15.684L14.892 10.68C15.096 10.128 14.856 9.552 14.784 9.396V9.36H16.656L19.212 16.128ZM14.052 14.556H16.908L15.444 10.668L14.052 14.556ZM25.8516 16.188C25.8516 16.956 26.0916 17.748 26.1396 17.952V18H24.6756C24.5916 17.796 24.4836 17.376 24.4236 16.944C23.9436 17.652 23.3316 18.096 22.4676 18.096C21.4356 18.096 20.4996 17.484 20.4996 16.068V13.8C20.4996 13.032 20.2596 12.24 20.2116 12.036V11.988H21.9996V15.876C21.9996 16.776 22.5276 17.124 23.1276 17.124C23.5476 17.124 23.9796 16.944 24.3876 16.632C24.3756 16.5 24.3636 16.38 24.3636 16.26V13.8C24.3636 13.032 24.1116 12.24 24.0756 12.036V11.988H25.8516V16.188ZM29.8087 17.1C30.0727 17.1 30.4327 17.028 30.8047 16.8C30.5167 17.508 29.9287 18.108 29.0047 18.108C28.0327 18.108 27.4687 17.424 27.4687 16.308V12.48H26.5927V12.06C27.7447 11.616 28.3687 10.92 28.8727 10.092H28.9687V11.988H30.6127V12.48H28.9687V16.152C28.9687 16.8 29.2927 17.1 29.8087 17.1ZM34.1798 18.108C32.5238 18.108 31.1318 17.004 31.1318 14.976C31.1318 12.972 32.5238 11.916 34.1798 11.916C35.8238 11.916 37.2398 12.972 37.2398 14.976C37.2398 17.004 35.8238 18.108 34.1798 18.108ZM34.1798 17.652C35.1158 17.652 35.5718 16.344 35.5718 14.976C35.5718 13.632 35.1158 12.36 34.1798 12.36C33.2318 12.36 32.7998 13.644 32.7998 14.976C32.7998 16.332 33.2198 17.652 34.1798 17.652ZM38.0034 15.252V14.316H40.9074V15.252H38.0034ZM44.2466 18.108C43.6586 18.108 42.8546 17.952 41.9306 17.568V16.032H41.9786C42.6386 16.74 43.4426 17.628 44.3426 17.628C44.8466 17.628 45.3626 17.352 45.3626 16.776C45.3626 16.176 44.7866 15.96 43.8026 15.624C42.5666 15.192 41.8226 14.664 41.8226 13.692C41.8226 12.576 42.8066 11.916 44.2106 11.916C44.7626 11.916 45.5546 12.048 46.3226 12.384V13.848H46.2746C45.6386 13.092 44.8946 12.372 44.0786 12.372C43.5626 12.372 43.0826 12.636 43.0826 13.14C43.0826 13.728 43.7306 13.92 44.6786 14.244C46.0346 14.712 46.5626 15.288 46.5626 16.188C46.5626 17.52 45.4466 18.108 44.2466 18.108ZM52.875 16.188C52.875 16.956 53.115 17.748 53.163 17.952V18H51.699C51.615 17.796 51.507 17.376 51.447 16.944C50.967 17.652 50.355 18.096 49.491 18.096C48.459 18.096 47.523 17.484 47.523 16.068V13.8C47.523 13.032 47.283 12.24 47.235 12.036V11.988H49.023V15.876C49.023 16.776 49.551 17.124 50.151 17.124C50.571 17.124 51.003 16.944 51.411 16.632C51.399 16.5 51.387 16.38 51.387 16.26V13.8C51.387 13.032 51.135 12.24 51.099 12.036V11.988H52.875V16.188ZM63.0118 16.188C63.0118 16.956 63.2518 17.748 63.2998 17.952V18H61.2358V17.952C61.2838 17.748 61.5238 16.956 61.5238 16.188V14.136C61.5238 13.26 60.9598 12.9 60.3718 12.9C60.0118 12.9 59.6758 13.056 59.3158 13.344C59.3518 13.524 59.3758 13.728 59.3758 13.944V16.188C59.3758 16.956 59.6158 17.748 59.6638 17.952V18H57.6118V17.952C57.6598 17.748 57.8998 16.956 57.8998 16.188V14.136C57.8998 13.26 57.3238 12.9 56.7238 12.9C56.3878 12.9 56.0518 13.044 55.7158 13.308V16.188C55.7158 16.956 55.9558 17.748 55.9918 17.952V18H53.9398V17.952C53.9878 17.748 54.2278 16.956 54.2278 16.188V13.8C54.2278 13.032 53.9878 12.24 53.9398 12.036V11.988H55.7158V12.936C56.1718 12.312 56.7598 11.916 57.5398 11.916C58.2838 11.916 58.9678 12.276 59.2438 13.08C59.7358 12.372 60.3358 11.916 61.1638 11.916C62.1478 11.916 63.0118 12.528 63.0118 13.944V16.188ZM73.1485 16.188C73.1485 16.956 73.3885 17.748 73.4365 17.952V18H71.3725V17.952C71.4205 17.748 71.6605 16.956 71.6605 16.188V14.136C71.6605 13.26 71.0965 12.9 70.5085 12.9C70.1485 12.9 69.8125 13.056 69.4525 13.344C69.4885 13.524 69.5125 13.728 69.5125 13.944V16.188C69.5125 16.956 69.7525 17.748 69.8005 17.952V18H67.7485V17.952C67.7965 17.748 68.0365 16.956 68.0365 16.188V14.136C68.0365 13.26 67.4605 12.9 66.8605 12.9C66.5245 12.9 66.1885 13.044 65.8525 13.308V16.188C65.8525 16.956 66.0925 17.748 66.1285 17.952V18H64.0765V17.952C64.1245 17.748 64.3645 16.956 64.3645 16.188V13.8C64.3645 13.032 64.1245 12.24 64.0765 12.036V11.988H65.8525V12.936C66.3085 12.312 66.8965 11.916 67.6765 11.916C68.4205 11.916 69.1045 12.276 69.3805 13.08C69.8725 12.372 70.4725 11.916 71.3005 11.916C72.2845 11.916 73.1485 12.528 73.1485 13.944V16.188ZM80.0818 17.22L80.1058 17.256C79.9858 17.736 79.5898 18.072 79.0138 18.072C78.4018 18.072 77.9938 17.736 77.8618 17.16C77.5378 17.628 76.9498 18.096 76.0378 18.096C74.7778 18.096 74.1058 17.184 74.1058 16.248C74.1058 14.94 75.4738 14.16 77.0458 14.364C77.3218 14.388 77.6098 14.448 77.8258 14.52V13.776C77.8258 12.888 77.5018 12.408 77.0218 12.408C76.2898 12.408 74.8018 13.608 74.5858 13.908H74.5258V12.372C75.4978 12.072 76.4458 11.916 77.1058 11.916C78.5938 11.916 79.3258 12.696 79.3258 13.848V16.536C79.3258 17.184 79.5658 17.436 80.0818 17.22ZM76.8298 17.28C77.2018 17.28 77.5378 17.1 77.8258 16.776V16.752V14.868C77.7658 14.868 77.6938 14.868 77.6218 14.856C76.3378 14.652 75.6778 15.288 75.6778 16.056C75.6778 16.764 76.1698 17.28 76.8298 17.28ZM82.4231 13.068C82.8791 12.204 83.7311 11.604 84.8831 11.976L84.6551 13.608H84.6071C84.0791 13.092 83.2031 12.756 82.4231 13.392V16.188C82.4231 16.956 82.6631 17.748 82.6991 17.952V18H80.6351V17.952C80.6831 17.748 80.9231 16.956 80.9231 16.188V13.8C80.9231 13.032 80.6831 12.24 80.6351 12.036V11.988H82.4231V13.068ZM85.5824 18V17.952C85.6184 17.748 85.8704 16.956 85.8704 16.188V13.8C85.8704 13.032 85.6304 12.24 85.5824 12.036V11.988H87.3584V16.188C87.3584 16.956 87.5984 17.748 87.6464 17.952V18H85.5824ZM91.2941 17.532C92.2061 17.532 93.1781 16.644 93.4181 16.476H93.4661V18H88.3661L91.5821 12.444H90.7061C89.7821 12.444 88.8221 13.344 88.5701 13.5H88.5221V11.988H93.6581L90.4421 17.532H91.2941ZM97.6612 17.112C98.3092 17.112 98.8972 16.884 99.5812 16.32L99.6292 16.356C99.2692 17.232 98.3572 18.108 97.0012 18.108C95.5132 18.108 94.0732 17.04 94.0732 15C94.0732 13.092 95.3092 11.916 97.0132 11.916C98.8372 11.916 99.6772 13.284 99.6772 14.844H95.7172C95.8132 16.152 96.4132 17.112 97.6612 17.112ZM96.9892 12.36C96.0532 12.36 95.6932 13.428 95.7052 14.52V14.544L98.1652 14.256C98.1412 13.248 97.8172 12.36 96.9892 12.36Z" fill="#111827"/>
<path d="M109.903 14.1722L109.903 14.1719L109.896 14.1761C109.807 14.2303 109.695 14.2043 109.571 14.0879C109.45 13.9743 109.353 13.8016 109.32 13.6587L109.32 13.6586L109.317 13.6498C109.113 13.0363 109.078 12.3793 109.215 11.7475C109.225 11.7207 109.247 11.6883 109.281 11.6559C109.316 11.6223 109.359 11.5935 109.402 11.5746C109.446 11.5553 109.482 11.5499 109.504 11.5527C109.521 11.5548 109.527 11.5599 109.532 11.5708C109.576 11.6677 109.593 11.7849 109.598 11.9139C109.6 12.0051 109.597 12.095 109.593 12.1846C109.592 12.2236 109.59 12.2625 109.589 12.3014C109.586 12.4215 109.587 12.5488 109.625 12.6473C109.645 12.6995 109.677 12.749 109.728 12.7846C109.779 12.8202 109.84 12.8356 109.907 12.8356V12.8362L109.918 12.835C109.994 12.8268 110.064 12.7912 110.116 12.7348C110.168 12.6785 110.197 12.6053 110.199 12.5288L110.199 12.5288V12.5267C110.199 12.4305 110.206 12.3278 110.214 12.2184C110.216 12.1945 110.218 12.1703 110.219 12.1457C110.229 12.0112 110.237 11.8689 110.227 11.731L110.227 11.7307C110.206 11.4237 110.11 11.1994 109.96 11.0533C109.809 10.9068 109.616 10.85 109.423 10.8573C109.044 10.8718 108.644 11.1334 108.497 11.4973L108.497 11.4971L108.494 11.5071C108.273 12.2827 108.272 13.1047 108.493 13.8803C108.596 14.3271 108.866 14.7176 109.248 14.9715L109.248 14.9715L109.251 14.9729C109.415 15.0761 109.606 15.1308 109.8 15.1308C109.992 15.1308 110.181 15.077 110.345 14.9756C110.663 14.8171 110.924 14.5639 111.092 14.2509L111.092 14.2502C111.237 13.9761 111.342 13.4851 111.387 12.9134C111.432 12.3377 111.418 11.6664 111.316 11.0235C111.214 10.382 111.023 9.76113 110.71 9.29247C110.395 8.82095 109.952 8.4989 109.354 8.4756L109.354 8.47558L109.352 8.47554C108.849 8.46624 108.361 8.64554 107.983 8.97801C107.728 9.15333 107.545 9.41675 107.472 9.71798L107.472 9.71795L107.471 9.72315C107.448 9.84156 107.454 9.94258 107.496 10.0197C107.54 10.1023 107.616 10.1416 107.693 10.1475C107.767 10.1531 107.84 10.1294 107.899 10.0925C107.957 10.0562 108.011 10.001 108.038 9.93115C108.147 9.6923 108.326 9.4923 108.551 9.358C108.777 9.22346 109.039 9.16132 109.301 9.17994C109.811 9.23169 110.09 9.6895 110.275 10.3195C110.571 11.4685 110.572 12.6734 110.278 13.8228C110.189 13.9725 110.059 14.0938 109.903 14.1722Z" fill="black" stroke="#111827" stroke-width="0.2"/>
<path d="M120.091 14.5823H120.091C120.056 16.6652 120.059 17.4366 120.066 17.7355C120.068 17.8508 120.071 17.8929 120.073 17.9171C120.073 17.9243 120.074 17.9299 120.074 17.9354C120.075 17.9529 120.074 17.9653 120.072 17.9827C120.071 17.9868 120.071 17.9915 120.07 17.9968C120.068 18.0127 120.066 18.035 120.062 18.07C120.062 18.0708 120.062 18.0715 120.062 18.0722L119.962 18.0618C119.922 18.7356 119.516 18.8342 119.083 18.9391C119.017 18.9553 118.95 18.9716 118.883 18.9902L120.091 14.5823ZM120.091 14.5823V14.5806M120.091 14.5823V14.5806M120.091 14.5806C120.091 14.4065 120.092 14.2173 120.093 14.0174C120.096 13.3301 120.099 12.5155 120.072 11.7486C120.055 11.2532 120.025 10.7756 119.973 10.3629C119.922 9.95247 119.848 9.59777 119.74 9.35324L119.74 9.35323M120.091 14.5806L119.74 9.35323M119.74 9.35323L119.74 9.35196M119.74 9.35323L119.74 9.35196M119.74 9.35196C119.677 9.21507 119.562 9.14741 119.442 9.11138C119.34 9.08072 119.223 9.06977 119.119 9.06C119.105 9.0587 119.092 9.05742 119.078 9.05612L119.078 9.05601M119.74 9.35196L119.078 9.05601M119.078 9.05601L119.074 9.05577M119.078 9.05601L119.074 9.05577M119.074 9.05577C116.578 8.93112 114.076 9.05389 111.604 9.42227L111.604 9.42218M119.074 9.05577L111.604 9.42218M111.604 9.42218L111.6 9.42297M111.604 9.42218L111.6 9.42297M111.6 9.42297C111.559 9.43077 111.52 9.44652 111.486 9.46931C111.451 9.4921 111.421 9.52149 111.398 9.5558C111.375 9.5901 111.359 9.62865 111.35 9.66925L111.448 9.68943M111.6 9.42297L111.448 9.68943M111.448 9.68943L111.35 9.66925C111.342 9.70985 111.342 9.75169 111.349 9.7924C111.357 9.83311 111.373 9.87188 111.396 9.9065C111.419 9.94112 111.448 9.97092 111.482 9.99418C111.517 10.0174 111.555 10.0337 111.596 10.0421C111.636 10.0505 111.678 10.0507 111.719 10.0429L111.7 9.94473M111.448 9.68943L118.664 18.1804M118.664 18.1804L118.664 18.1802C118.743 18.1583 118.81 18.1505 118.863 18.1449L118.863 18.1448C118.92 18.1388 118.95 18.1356 118.974 18.127C118.99 18.1211 119.004 18.1128 119.018 18.0891C119.035 18.0608 119.054 18.0106 119.072 17.9195C119.107 17.7373 119.131 17.4283 119.155 16.8965C119.173 16.4797 119.191 15.9308 119.215 15.206C119.221 15.0099 119.228 14.801 119.236 14.5784C119.24 14.1507 119.246 13.7519 119.252 13.3798C119.262 12.7102 119.271 12.1272 119.265 11.6177C119.255 10.861 119.211 10.2787 119.089 9.82847C118.005 9.71964 116.914 9.67365 115.824 9.69074C114.921 9.76134 114.241 9.81244 113.718 9.85176C112.433 9.94832 112.093 9.9739 111.718 10.0431L111.7 9.94473M118.664 18.1804C118.246 18.3002 117.646 18.3086 116.712 18.2969M118.664 18.1804L116.712 18.2969M111.7 9.94473C112.08 9.87453 112.428 9.84841 113.72 9.75133C114.243 9.71201 114.921 9.66105 115.819 9.5908L111.7 9.94473ZM108.788 18.6466L108.789 18.6465C109.164 18.6312 109.511 18.5876 109.927 18.5353C110.056 18.5191 110.192 18.502 110.338 18.4847C110.949 18.4119 111.72 18.3362 112.852 18.3042L108.788 18.6466ZM108.788 18.6466C108.274 18.6731 107.758 18.6408 107.252 18.5502C107.25 18.5469 107.248 18.5429 107.246 18.538C107.237 18.5154 107.229 18.4835 107.221 18.4422C107.207 18.3598 107.198 18.2535 107.193 18.1387C107.189 18.0352 107.187 17.9281 107.185 17.8292C107.185 17.8188 107.185 17.8086 107.185 17.7985C107.183 17.6933 107.182 17.5959 107.175 17.5302L107.076 17.5396M108.788 18.6466L106.916 11.2463M106.916 11.2463L106.916 11.2463C106.841 11.2719 106.775 11.3213 106.73 11.3872C106.685 11.4525 106.662 11.5306 106.665 11.6098C106.672 11.6974 106.68 11.7979 106.689 11.916C106.749 12.667 106.865 14.1305 107.175 17.5305L107.076 17.5396M106.916 11.2463L106.92 11.2452M106.916 11.2463L106.92 11.2452M107.076 17.5396C107.082 17.6063 107.084 17.7113 107.085 17.8307C107.09 18.1476 107.096 18.5662 107.198 18.642L106.565 11.6157C106.572 11.7038 106.58 11.805 106.59 11.924C106.649 12.6751 106.765 14.139 107.076 17.5396ZM106.92 11.2452C107.693 10.9543 108.485 10.7162 109.29 10.5324L106.92 11.2452ZM116.712 18.2969C116.58 18.2953 116.442 18.2932 116.298 18.2911M116.712 18.2969L116.298 18.2911M116.298 18.2911C115.422 18.2783 114.3 18.2618 112.852 18.3042L116.298 18.2911Z" fill="black" stroke="#111827" stroke-width="0.2"/>
<path d="M112.346 11.9682L112.289 12.0506C112.225 12.0067 112.181 11.9393 112.167 11.8632C112.153 11.7871 112.17 11.7086 112.214 11.6448C112.257 11.5821 112.323 11.5388 112.398 11.5241C114.378 11.0171 115.752 11.0666 117.296 11.1223C117.582 11.1326 117.874 11.1431 118.176 11.1504C118.177 11.1504 118.177 11.1504 118.178 11.1504L118.175 11.2504L112.346 11.9682ZM112.346 11.9682L112.289 12.0506C112.351 12.0934 112.428 12.1104 112.502 12.0981C112.837 12.0698 113.092 12.0725 113.419 12.076C113.618 12.0781 113.844 12.0805 114.13 12.0763C114.882 12.0654 116.032 12.0086 118.181 11.7797L112.346 11.9682Z" fill="black" stroke="#111827" stroke-width="0.2"/>
<path d="M112.094 14.6002C112.13 14.6067 112.166 14.6066 112.202 14.5998C114.077 14.6884 115.957 14.5672 117.806 14.2386C117.846 14.2343 117.884 14.2225 117.92 14.2038C117.956 14.1844 117.989 14.158 118.015 14.126C118.042 14.0941 118.061 14.0573 118.074 14.0177C118.086 13.978 118.09 13.9364 118.086 13.8951C118.082 13.8539 118.07 13.8138 118.051 13.7772C118.031 13.7405 118.005 13.7081 117.973 13.6816C117.941 13.6552 117.904 13.6354 117.865 13.6232C117.826 13.6113 117.786 13.607 117.746 13.6103C117.161 13.6271 116.721 13.6248 116.329 13.6227C115.245 13.617 114.531 13.6133 112.145 14.0221C112.107 14.0223 112.069 14.03 112.034 14.0447C111.996 14.0608 111.961 14.0849 111.933 14.1155C111.905 14.1461 111.883 14.1823 111.87 14.2219C111.857 14.2614 111.853 14.3033 111.857 14.3447C111.861 14.3861 111.875 14.4261 111.896 14.462C111.917 14.4978 111.946 14.5287 111.98 14.5525C112.014 14.5764 112.053 14.5926 112.094 14.6002Z" fill="black" stroke="#111827" stroke-width="0.2"/>
<path d="M109 16.6768L109.001 16.6769C109.028 16.598 109.087 16.5446 109.15 16.509C109.212 16.4738 109.285 16.4527 109.355 16.4393C109.493 16.4132 109.643 16.4129 109.738 16.4129C111.405 16.1979 112.198 16.0863 112.994 16.0183C114.044 15.9285 115.102 15.9144 118.184 15.8385L118.187 15.8384C118.27 15.8385 118.35 15.8716 118.409 15.9306M109 16.6768L118.409 15.9306M109 16.6768L108.999 16.6807C108.977 16.7533 108.984 16.8318 109.018 16.8995C109.053 16.9671 109.113 17.0185 109.185 17.0428L109.185 17.0432L109.193 17.0452C109.395 17.0943 109.606 17.0952 109.809 17.048C112.614 17.0432 115.415 16.8494 118.194 16.4677C118.275 16.4658 118.352 16.4329 118.409 16.3757C118.468 16.3166 118.501 16.2366 118.501 16.1532C118.501 16.0697 118.468 15.9897 118.409 15.9306M109 16.6768L118.409 15.9306" fill="black" stroke="#111827" stroke-width="0.2"/>
</g>
<defs>
<filter id="filter0_d_7329_16600" x="0" y="0" width="133" height="30" filterUnits="userSpaceOnUse" color-interpolation-filters="sRGB">
<feFlood flood-opacity="0" result="BackgroundImageFix"/>
<feColorMatrix in="SourceAlpha" type="matrix" values="0 0 0 0 0 0 0 0 0 0 0 0 0 0 0 0 0 0 127 0" result="hardAlpha"/>
<feOffset dy="2"/>
<feComposite in2="hardAlpha" operator="out"/>
<feColorMatrix type="matrix" values="0 0 0 0 0.0745098 0 0 0 0 0.0745098 0 0 0 0 0.0941176 0 0 0 1 0"/>
<feBlend mode="normal" in2="BackgroundImageFix" result="effect1_dropShadow_7329_16600"/>
<feBlend mode="normal" in="SourceGraphic" in2="effect1_dropShadow_7329_16600" result="shape"/>
</filter>
</defs>
</svg>
