<svg width="140" height="30" viewBox="0 0 140 30" fill="none" xmlns="http://www.w3.org/2000/svg">
<g filter="url(#filter0_d_7329_16536)">
<rect width="140" height="28" rx="14" fill="#FFBAFC"/>
<rect x="0.5" y="0.5" width="139" height="27" rx="13.5" stroke="#131318"/>
<path d="M20.1 13.728V13.776C20.064 13.98 19.8 14.772 19.8 15.54V17.292C19.044 17.652 17.796 18.132 16.464 18.132C14.208 18.132 12.336 16.308 12.336 13.68C12.336 11.16 14.232 9.24 16.62 9.24C17.448 9.24 18.528 9.468 19.548 9.9V11.844H19.452C19.08 11.292 17.976 9.768 16.656 9.756C15.18 9.744 14.148 11.34 14.148 13.68C14.148 16.032 15.24 17.616 16.716 17.628C17.256 17.628 17.76 17.448 18.204 17.196V15.54C18.204 14.772 17.652 13.98 17.556 13.776V13.728H20.1ZM24.4424 17.112C25.0904 17.112 25.6784 16.884 26.3624 16.32L26.4104 16.356C26.0504 17.232 25.1384 18.108 23.7824 18.108C22.2944 18.108 20.8544 17.04 20.8544 15C20.8544 13.092 22.0904 11.916 23.7944 11.916C25.6184 11.916 26.4584 13.284 26.4584 14.844H22.4984C22.5944 16.152 23.1944 17.112 24.4424 17.112ZM23.7704 12.36C22.8344 12.36 22.4744 13.428 22.4864 14.52V14.544L24.9464 14.256C24.9224 13.248 24.5984 12.36 23.7704 12.36ZM32.8856 16.188C32.8856 16.956 33.1256 17.748 33.1736 17.952V18H31.1096V17.952C31.1456 17.748 31.3976 16.956 31.3976 16.188V14.136C31.3976 13.236 30.8456 12.876 30.2456 12.864C29.8016 12.864 29.3816 13.056 28.9856 13.392V16.188C28.9856 16.956 29.2256 17.748 29.2616 17.952V18H27.1976V17.952C27.2456 17.748 27.4856 16.956 27.4856 16.188V13.8C27.4856 13.032 27.2456 12.24 27.1976 12.036V11.988H28.9856V13.02C29.4296 12.36 30.0656 11.916 30.9176 11.916C31.9496 11.916 32.8856 12.528 32.8856 13.944V16.188ZM37.4151 17.112C38.0631 17.112 38.6511 16.884 39.3351 16.32L39.3831 16.356C39.0231 17.232 38.1111 18.108 36.7551 18.108C35.2671 18.108 33.8271 17.04 33.8271 15C33.8271 13.092 35.0631 11.916 36.7671 11.916C38.5911 11.916 39.4311 13.284 39.4311 14.844H35.4711C35.5671 16.152 36.1671 17.112 37.4151 17.112ZM36.7431 12.36C35.8071 12.36 35.4471 13.428 35.4591 14.52V14.544L37.9191 14.256C37.8951 13.248 37.5711 12.36 36.7431 12.36ZM41.9583 13.068C42.4143 12.204 43.2663 11.604 44.4183 11.976L44.1903 13.608H44.1423C43.6143 13.092 42.7383 12.756 41.9583 13.392V16.188C41.9583 16.956 42.1983 17.748 42.2343 17.952V18H40.1703V17.952C40.2183 17.748 40.4583 16.956 40.4583 16.188V13.8C40.4583 13.032 40.2183 12.24 40.1703 12.036V11.988H41.9583V13.068ZM50.867 17.22L50.891 17.256C50.771 17.736 50.375 18.072 49.799 18.072C49.187 18.072 48.779 17.736 48.647 17.16C48.323 17.628 47.735 18.096 46.823 18.096C45.563 18.096 44.891 17.184 44.891 16.248C44.891 14.94 46.259 14.16 47.831 14.364C48.107 14.388 48.395 14.448 48.611 14.52V13.776C48.611 12.888 48.287 12.408 47.807 12.408C47.075 12.408 45.587 13.608 45.371 13.908H45.311V12.372C46.283 12.072 47.231 11.916 47.891 11.916C49.379 11.916 50.111 12.696 50.111 13.848V16.536C50.111 17.184 50.351 17.436 50.867 17.22ZM47.615 17.28C47.987 17.28 48.323 17.1 48.611 16.776V16.752V14.868C48.551 14.868 48.479 14.868 48.407 14.856C47.123 14.652 46.463 15.288 46.463 16.056C46.463 16.764 46.955 17.28 47.615 17.28ZM54.1133 17.1C54.3773 17.1 54.7373 17.028 55.1093 16.8C54.8213 17.508 54.2333 18.108 53.3093 18.108C52.3373 18.108 51.7733 17.424 51.7733 16.308V12.48H50.8973V12.06C52.0493 11.616 52.6733 10.92 53.1773 10.092H53.2733V11.988H54.9173V12.48H53.2733V16.152C53.2733 16.8 53.5973 17.1 54.1133 17.1ZM59.0244 17.112C59.6724 17.112 60.2604 16.884 60.9444 16.32L60.9924 16.356C60.6324 17.232 59.7204 18.108 58.3644 18.108C56.8764 18.108 55.4364 17.04 55.4364 15C55.4364 13.092 56.6724 11.916 58.3764 11.916C60.2004 11.916 61.0404 13.284 61.0404 14.844H57.0804C57.1764 16.152 57.7764 17.112 59.0244 17.112ZM58.3524 12.36C57.4164 12.36 57.0564 13.428 57.0684 14.52V14.544L59.5284 14.256C59.5044 13.248 59.1804 12.36 58.3524 12.36ZM66.7064 18.072C66.0104 18.072 65.0984 17.844 64.4384 17.556L64.4264 15.204H64.5344C65.0024 16.068 65.7824 17.472 66.5624 17.472C67.2104 17.472 67.3904 16.728 67.3904 15.9V9.54C67.3904 9.468 67.3664 9.384 67.3544 9.36H69.0104C68.9984 9.384 68.9744 9.468 68.9744 9.54V15.444C68.9744 17.088 68.2304 18.072 66.7064 18.072ZM73.4346 9.36C75.6546 9.36 77.5386 11.064 77.5386 13.644C77.5386 16.308 75.6546 18 73.4346 18H70.2306V17.952C70.2666 17.748 70.5186 16.956 70.5186 16.188V11.172C70.5186 10.404 70.2666 9.612 70.2306 9.408V9.36H73.4346ZM73.0026 17.532C74.8386 17.532 75.7626 15.756 75.7626 13.644C75.7506 11.592 74.8386 9.828 73.0026 9.828H72.1026V17.532H73.0026ZM84.5267 11.916C85.8107 11.916 86.8787 12.948 86.8787 14.916C86.8787 17.076 85.5827 18.096 84.2627 18.096C83.7947 18.096 83.2187 17.952 82.7387 17.508L81.2627 18.072L81.2507 11.052C81.2507 10.296 80.9987 9.516 80.9387 9.324L80.9267 9.276L82.7627 9.048V12.828C83.1707 12.216 83.8307 11.916 84.5267 11.916ZM83.6147 17.34C84.7787 17.34 85.2587 16.152 85.2587 14.916C85.2587 13.788 84.8507 12.78 83.8667 12.78C83.4587 12.78 83.0867 12.984 82.7627 13.32V17.124C83.0507 17.28 83.3507 17.34 83.6147 17.34ZM93.0659 11.988V12.036C92.9699 12.168 92.5739 12.804 92.3099 13.44L90.0539 19.008C89.4899 20.424 88.5299 20.664 87.1859 20.148L87.4859 18.708L87.5099 18.696C88.2539 19.44 89.2139 19.812 89.6459 18.732L89.8619 18.192L87.8099 13.632C87.4979 12.936 87.0539 12.24 86.8619 12.036V11.988H89.3819V12.024C89.2979 12.216 89.1179 12.924 89.4059 13.584L90.6179 16.32L91.7219 13.596C91.9979 12.924 91.7939 12.216 91.7099 12.024V11.988H93.0659ZM103.071 16.128C103.359 16.908 103.635 17.496 103.959 17.964V18H101.475V17.952C101.547 17.724 101.643 16.896 101.343 16.104L100.947 15.06H97.7314L97.4794 15.756C97.1434 16.692 97.3834 17.676 97.4794 17.94V18H95.9434V17.964C96.1954 17.544 96.5914 16.668 96.9394 15.684L98.7514 10.68C98.9554 10.128 98.7154 9.552 98.6434 9.396V9.36H100.515L103.071 16.128ZM97.9114 14.556H100.767L99.3034 10.668L97.9114 14.556ZM104.651 18V17.952C104.687 17.748 104.939 16.956 104.939 16.188V11.172C104.939 10.404 104.687 9.612 104.651 9.408V9.36H106.811V9.408C106.763 9.612 106.523 10.404 106.523 11.172V16.188C106.523 16.956 106.763 17.748 106.811 17.952V18H104.651Z" fill="#111827"/>
<g clip-path="url(#clip0_7329_16536)">
<path fill-rule="evenodd" clip-rule="evenodd" d="M123.377 16.1823C123.361 16.087 123.348 15.9927 123.341 15.8984C123.329 15.757 123.336 15.6145 123.332 15.473C123.33 15.413 123.323 15.2566 123.326 15.2341C123.352 15.0381 123.51 15.008 123.557 15.0027C123.579 14.9995 123.809 14.9738 123.859 15.2288C123.919 15.5406 123.939 15.8545 123.917 16.162C123.968 16.4234 124.054 16.6838 124.167 16.9195C124.619 17.857 125.479 17.9481 126.411 17.9395C126.554 17.9373 126.673 18.0498 126.681 18.1923C126.688 18.3359 126.582 18.4602 126.439 18.473C125.918 18.5234 124.994 18.9413 124.674 19.3763C124.607 19.4673 124.568 19.687 124.517 19.9023C124.445 20.2013 124.36 20.497 124.264 20.6213C124.25 20.6406 124.075 20.8377 124.023 20.8666C123.898 20.9352 123.798 20.8956 123.741 20.8591C123.684 20.8227 123.619 20.7509 123.594 20.632C123.567 20.5077 123.59 20.2527 123.585 20.198C123.57 19.9998 123.531 19.6109 123.45 19.2766C123.406 19.0966 123.36 18.9305 123.283 18.848C122.998 18.5427 122.542 18.5877 122.159 18.6381C122.115 18.6434 122.071 18.6498 122.027 18.6552C121.871 18.7013 121.705 18.7356 121.53 18.7559C121.265 18.787 121.222 18.5438 121.22 18.5277C121.215 18.4923 121.196 18.3102 121.396 18.2373C121.417 18.2298 121.578 18.1945 121.64 18.1806C121.726 18.1613 121.813 18.1463 121.9 18.1323C122.804 17.8516 123.294 17.063 123.377 16.1823ZM123.687 17.1563C124.028 17.8613 124.545 18.202 125.158 18.3563H125.158C124.775 18.5566 124.427 18.8073 124.242 19.0591C124.172 19.1545 124.108 19.3463 124.05 19.5616C124.019 19.3613 123.976 19.148 123.92 18.9659C123.856 18.758 123.77 18.5856 123.675 18.4827C123.49 18.2845 123.258 18.1741 123.008 18.1195C123.307 17.8548 123.533 17.5248 123.687 17.1563Z" fill="#111827"/>
</g>
<path fill-rule="evenodd" clip-rule="evenodd" d="M116.713 9.03195C116.686 8.868 116.665 8.70591 116.652 8.54381C116.631 8.30065 116.644 8.05563 116.637 7.81247C116.633 7.70931 116.621 7.44037 116.626 7.40169C116.671 7.06458 116.943 7.013 117.023 7.00379C117.061 6.99826 117.457 6.95407 117.542 7.39249C117.647 7.92854 117.68 8.46827 117.643 8.99696C117.73 9.44643 117.877 9.89405 118.072 10.2993C118.849 11.9112 120.328 12.0677 121.93 12.053C122.177 12.0493 122.382 12.2427 122.394 12.4877C122.407 12.7346 122.224 12.9483 121.979 12.9704C121.083 13.0569 119.493 13.7754 118.944 14.5233C118.829 14.6799 118.762 15.0575 118.674 15.4278C118.55 15.9417 118.403 16.4501 118.239 16.6638C118.214 16.697 117.914 17.0359 117.825 17.0856C117.609 17.2035 117.437 17.1354 117.339 17.0727C117.242 17.0101 117.131 16.8867 117.087 16.6822C117.04 16.4685 117.079 16.0301 117.072 15.9362C117.046 15.5954 116.978 14.9267 116.839 14.3519C116.764 14.0425 116.684 13.7569 116.552 13.6151C116.062 13.0901 115.279 13.1675 114.62 13.2541C114.544 13.2633 114.468 13.2743 114.393 13.2835C114.125 13.3628 113.84 13.4217 113.538 13.4567C113.084 13.5101 113.009 13.0919 113.005 13.0643C112.996 13.0035 112.965 12.6904 113.308 12.5651C113.345 12.5522 113.621 12.4914 113.727 12.4675C113.875 12.4343 114.025 12.4085 114.175 12.3846C115.728 11.902 116.571 10.5462 116.713 9.03195ZM117.246 10.7064C117.832 11.9185 118.722 12.5043 119.776 12.7696H119.776C119.118 13.1141 118.519 13.5451 118.202 13.978C118.081 14.142 117.971 14.4717 117.871 14.842C117.817 14.4975 117.744 14.1309 117.648 13.8177C117.538 13.4604 117.391 13.1638 117.226 12.987C116.908 12.6462 116.509 12.4564 116.08 12.3625C116.593 11.9075 116.983 11.3401 117.246 10.7064Z" fill="#111827"/>
</g>
<defs>
<filter id="filter0_d_7329_16536" x="0" y="0" width="140" height="30" filterUnits="userSpaceOnUse" color-interpolation-filters="sRGB">
<feFlood flood-opacity="0" result="BackgroundImageFix"/>
<feColorMatrix in="SourceAlpha" type="matrix" values="0 0 0 0 0 0 0 0 0 0 0 0 0 0 0 0 0 0 127 0" result="hardAlpha"/>
<feOffset dy="2"/>
<feComposite in2="hardAlpha" operator="out"/>
<feColorMatrix type="matrix" values="0 0 0 0 0.0745098 0 0 0 0 0.0745098 0 0 0 0 0.0941176 0 0 0 1 0"/>
<feBlend mode="normal" in2="BackgroundImageFix" result="effect1_dropShadow_7329_16536"/>
<feBlend mode="normal" in="SourceGraphic" in2="effect1_dropShadow_7329_16536" result="shape"/>
</filter>
<clipPath id="clip0_7329_16536">
<rect width="6" height="6" fill="white" transform="translate(121 15)"/>
</clipPath>
</defs>
</svg>
