<svg width="270" height="318" viewBox="0 0 270 318" fill="none" xmlns="http://www.w3.org/2000/svg">
<g filter="url(#filter0_dddd_7397_277)">
<rect x="73" y="7" width="215" height="207" rx="8" fill="white"/>
<rect x="73" y="7" width="215" height="33" fill="#6D6FDE"/>
<rect x="78" y="14" width="20" height="20" rx="10" fill="#EEF2FF"/>
<path fill-rule="evenodd" clip-rule="evenodd" d="M85.0971 18H87.9262C91.1575 18 93.8679 20.5262 93.9953 23.755C94.1358 27.2567 91.2566 30.1354 87.7548 29.9953C84.5258 29.8662 82 27.1558 82 23.9242V21.0419C81.9999 20.9352 82.0209 20.8296 82.0617 20.731C82.1025 20.6325 82.1623 20.5429 82.2378 20.4675C82.3132 20.392 82.4028 20.3322 82.5013 20.2914C82.5999 20.2506 82.7056 20.2296 82.8122 20.2297C82.9189 20.2297 83.0245 20.2507 83.1231 20.2915C83.2216 20.3324 83.3112 20.3922 83.3866 20.4676C83.462 20.543 83.5218 20.6326 83.5626 20.7311C83.6035 20.8296 83.6245 20.9353 83.6245 21.0419V23.9383C83.6245 26.2494 85.3931 28.2104 87.6989 28.3654C88.3228 28.408 88.9486 28.3165 89.5342 28.0971C90.1198 27.8777 90.6516 27.5355 91.0939 27.0934C91.5362 26.6513 91.8787 26.1197 92.0984 25.5342C92.3181 24.9487 92.4099 24.323 92.3676 23.6991C92.2125 21.3934 90.2511 19.6244 87.9399 19.6244H85.0971C84.8816 19.6244 84.675 19.5388 84.5227 19.3865C84.3704 19.2342 84.2848 19.0276 84.2848 18.8122C84.2848 18.5968 84.3704 18.3902 84.5227 18.2379C84.675 18.0856 84.8816 18 85.0971 18ZM89.9213 24.1775C90.0443 24.1063 90.1838 24.0686 90.3259 24.0679C90.9482 24.0682 91.3454 24.7433 91.0322 25.2808C90.7414 25.782 90.324 26.1981 89.8218 26.4874C89.3196 26.7766 88.7502 26.9289 88.1707 26.9289C87.5911 26.9289 87.0218 26.7766 86.5196 26.4874C86.0174 26.1981 85.6 25.782 85.3092 25.2808C84.9959 24.7432 85.3933 24.0679 86.0159 24.0679C86.1581 24.0683 86.2978 24.106 86.4209 24.1772C86.544 24.2484 86.6463 24.3505 86.7177 24.4736C86.8664 24.7269 87.0788 24.937 87.3337 25.0829C87.5887 25.2289 87.8774 25.3057 88.1711 25.3057C88.4649 25.3057 88.7536 25.2289 89.0086 25.0829C89.2635 24.937 89.4759 24.7269 89.6246 24.4736C89.696 24.3507 89.7983 24.2486 89.9213 24.1775ZM90.3259 24.0679C90.3259 24.0679 90.3259 24.0679 90.3259 24.0679H90.3254C90.3256 24.0679 90.3257 24.0679 90.3259 24.0679Z" fill="url(#paint0_linear_7397_277)"/>
<path d="M105.816 17.88H108.712V21.224H111.192V17.88H114.088V27H111.192V23.064H108.712V27H105.816V17.88ZM120.026 25.08C120.293 25.08 120.789 25.0533 121.514 25C121.61 25 121.786 24.9893 122.042 24.968L122.282 26.616C121.461 27 120.394 27.192 119.082 27.192C117.856 27.192 116.912 26.8827 116.25 26.264C115.6 25.6453 115.274 24.712 115.274 23.464C115.274 22.824 115.354 22.2053 115.514 21.608C115.685 21.0107 115.877 20.5947 116.09 20.36C116.314 20.1253 116.73 19.9227 117.338 19.752C117.946 19.5813 118.549 19.496 119.146 19.496C120.106 19.496 120.826 19.6667 121.306 20.008C121.786 20.3493 122.101 20.824 122.25 21.432C122.4 22.0293 122.474 22.8347 122.474 23.848C121.749 23.8907 121.04 23.912 120.346 23.912H118.074C118.074 24.2533 118.144 24.5093 118.282 24.68C118.432 24.8507 118.64 24.9627 118.906 25.016C119.173 25.0587 119.546 25.08 120.026 25.08ZM118.234 21.4C118.17 21.432 118.122 21.5707 118.09 21.816C118.058 22.0613 118.037 22.3387 118.026 22.648H118.858C119.36 22.648 119.722 22.6427 119.946 22.632C119.946 22.12 119.872 21.7573 119.722 21.544C119.584 21.3307 119.338 21.224 118.986 21.224C118.698 21.224 118.448 21.2827 118.234 21.4ZM124.861 18.728C124.499 18.728 124.184 18.6053 123.917 18.36C123.661 18.1147 123.533 17.8213 123.533 17.48C123.533 17.1387 123.661 16.8453 123.917 16.6C124.184 16.3547 124.499 16.232 124.861 16.232C125.224 16.232 125.533 16.3547 125.789 16.6C126.045 16.8453 126.173 17.1387 126.173 17.48C126.173 17.8213 126.045 18.1147 125.789 18.36C125.533 18.6053 125.224 18.728 124.861 18.728ZM123.485 19.64H126.221V27H123.485V19.64ZM133.77 26.776C132.906 27.064 131.941 27.208 130.874 27.208C129.679 27.208 128.783 26.9093 128.186 26.312C127.599 25.704 127.306 24.76 127.306 23.48C127.306 22.8507 127.391 22.232 127.562 21.624C127.733 21.0053 127.914 20.5893 128.106 20.376C128.33 20.1307 128.767 19.9227 129.418 19.752C130.079 19.5813 130.762 19.496 131.466 19.496C132.202 19.496 132.943 19.56 133.69 19.688C133.669 19.9547 133.631 20.2693 133.578 20.632C133.535 20.984 133.487 21.2987 133.434 21.576C132.773 21.5333 132.149 21.512 131.562 21.512C130.986 21.512 130.618 21.544 130.458 21.608C130.373 21.64 130.293 21.8587 130.218 22.264C130.154 22.6693 130.122 23.048 130.122 23.4C130.122 23.8693 130.186 24.232 130.314 24.488C130.453 24.7333 130.666 24.904 130.954 25C131.242 25.096 131.631 25.144 132.122 25.144C132.335 25.144 132.805 25.1227 133.53 25.08L133.77 26.776ZM139.071 27L138.815 25.992C138.325 26.792 137.642 27.192 136.767 27.192C136.053 27.192 135.466 26.9947 135.007 26.6C134.559 26.1947 134.335 25.6293 134.335 24.904C134.335 24.456 134.463 24.0667 134.719 23.736C134.986 23.3947 135.349 23.1547 135.807 23.016C136.405 22.8453 137.327 22.7493 138.575 22.728C138.575 22.024 138.543 21.6507 138.479 21.608C138.426 21.5653 138.255 21.544 137.967 21.544C137.786 21.544 137.535 21.5547 137.215 21.576C136.703 21.5973 136.01 21.656 135.135 21.752C135.05 21.176 134.986 20.5573 134.943 19.896C135.509 19.7787 136.101 19.6827 136.719 19.608C137.338 19.5227 137.893 19.48 138.383 19.48C139.237 19.48 139.877 19.624 140.303 19.912C140.73 20.1893 141.007 20.5573 141.135 21.016C141.263 21.4747 141.322 22.056 141.311 22.76L141.295 25.112L141.343 27H139.071ZM137.695 25.4C137.973 25.4 138.266 25.3467 138.575 25.24V24.056H138.447C137.658 24.056 137.221 24.0987 137.135 24.184C137.082 24.2373 137.039 24.3173 137.007 24.424C136.986 24.5307 136.975 24.632 136.975 24.728C136.975 24.984 137.034 25.16 137.151 25.256C137.269 25.352 137.45 25.4 137.695 25.4Z" fill="white"/>
</g>
<defs>
<filter id="filter0_dddd_7397_277" x="0" y="0" width="298" height="318" filterUnits="userSpaceOnUse" color-interpolation-filters="sRGB">
<feFlood flood-opacity="0" result="BackgroundImageFix"/>
<feColorMatrix in="SourceAlpha" type="matrix" values="0 0 0 0 0 0 0 0 0 0 0 0 0 0 0 0 0 0 127 0" result="hardAlpha"/>
<feOffset dx="-3" dy="4"/>
<feGaussianBlur stdDeviation="5.5"/>
<feColorMatrix type="matrix" values="0 0 0 0 0.717647 0 0 0 0 0.741176 0 0 0 0 0.784314 0 0 0 0.1 0"/>
<feBlend mode="normal" in2="BackgroundImageFix" result="effect1_dropShadow_7397_277"/>
<feColorMatrix in="SourceAlpha" type="matrix" values="0 0 0 0 0 0 0 0 0 0 0 0 0 0 0 0 0 0 127 0" result="hardAlpha"/>
<feOffset dx="-10" dy="18"/>
<feGaussianBlur stdDeviation="10"/>
<feColorMatrix type="matrix" values="0 0 0 0 0.717647 0 0 0 0 0.741176 0 0 0 0 0.784314 0 0 0 0.09 0"/>
<feBlend mode="normal" in2="effect1_dropShadow_7397_277" result="effect2_dropShadow_7397_277"/>
<feColorMatrix in="SourceAlpha" type="matrix" values="0 0 0 0 0 0 0 0 0 0 0 0 0 0 0 0 0 0 127 0" result="hardAlpha"/>
<feOffset dx="-23" dy="40"/>
<feGaussianBlur stdDeviation="14"/>
<feColorMatrix type="matrix" values="0 0 0 0 0.717647 0 0 0 0 0.741176 0 0 0 0 0.784314 0 0 0 0.05 0"/>
<feBlend mode="normal" in2="effect2_dropShadow_7397_277" result="effect3_dropShadow_7397_277"/>
<feColorMatrix in="SourceAlpha" type="matrix" values="0 0 0 0 0 0 0 0 0 0 0 0 0 0 0 0 0 0 127 0" result="hardAlpha"/>
<feOffset dx="-40" dy="71"/>
<feGaussianBlur stdDeviation="16.5"/>
<feColorMatrix type="matrix" values="0 0 0 0 0.717647 0 0 0 0 0.741176 0 0 0 0 0.784314 0 0 0 0.01 0"/>
<feBlend mode="normal" in2="effect3_dropShadow_7397_277" result="effect4_dropShadow_7397_277"/>
<feBlend mode="normal" in="SourceGraphic" in2="effect4_dropShadow_7397_277" result="shape"/>
</filter>
<linearGradient id="paint0_linear_7397_277" x1="88" y1="18" x2="88" y2="30" gradientUnits="userSpaceOnUse">
<stop stop-color="#6366F1"/>
<stop offset="1" stop-color="#A79FDB"/>
</linearGradient>
</defs>
</svg>
