<svg width="249" height="192" viewBox="0 0 249 192" fill="none" xmlns="http://www.w3.org/2000/svg">
<rect x="-58" width="307" height="192" rx="8" fill="white"/>
<rect x="-58" width="307" height="33" fill="#6062E7"/>
<rect x="1" y="15" width="20" height="4" rx="2" fill="#9B9DEF"/>
<rect y="47" width="20" height="7" rx="3.5" fill="#DEDEE3"/>
<rect x="43" y="47" width="20" height="7" rx="3.5" fill="#DEDEE3"/>
<rect x="86" y="47" width="20" height="7" rx="3.5" fill="#DEDEE3"/>
<rect x="129" y="47" width="20" height="7" rx="3.5" fill="#DEDEE3"/>
<rect x="172" y="47" width="20" height="7" rx="3.5" fill="#DEDEE3"/>
<rect x="215" y="47" width="20" height="7" rx="3.5" fill="#DEDEE3"/>
<rect y="70" width="20" height="7" rx="3.5" fill="#DEDEE3"/>
<rect x="43" y="70" width="20" height="7" rx="3.5" fill="#DEDEE3"/>
<rect x="86" y="70" width="20" height="7" rx="3.5" fill="#DEDEE3"/>
<rect x="129" y="70" width="20" height="7" rx="3.5" fill="#DEDEE3"/>
<rect x="172" y="70" width="20" height="7" rx="3.5" fill="#DEDEE3"/>
<rect x="215" y="70" width="20" height="7" rx="3.5" fill="#DEDEE3"/>
<rect y="93" width="20" height="7" rx="3.5" fill="#DEDEE3"/>
<rect x="43" y="93" width="20" height="7" rx="3.5" fill="#DEDEE3"/>
<rect x="86" y="93" width="20" height="7" rx="3.5" fill="#DEDEE3"/>
<rect x="129" y="93" width="20" height="7" rx="3.5" fill="#DEDEE3"/>
<rect x="172" y="93" width="20" height="7" rx="3.5" fill="#DEDEE3"/>
<rect x="215" y="93" width="20" height="7" rx="3.5" fill="#DEDEE3"/>
<rect y="116" width="20" height="7" rx="3.5" fill="#DEDEE3"/>
<rect x="43" y="116" width="20" height="7" rx="3.5" fill="#DEDEE3"/>
<rect x="86" y="116" width="20" height="7" rx="3.5" fill="#DEDEE3"/>
<rect x="129" y="116" width="20" height="7" rx="3.5" fill="#DEDEE3"/>
<rect x="172" y="116" width="20" height="7" rx="3.5" fill="#DEDEE3"/>
<rect x="215" y="116" width="20" height="7" rx="3.5" fill="#DEDEE3"/>
<rect y="139" width="20" height="7" rx="3.5" fill="#DEDEE3"/>
<rect x="43" y="139" width="20" height="7" rx="3.5" fill="#DEDEE3"/>
<rect x="86" y="139" width="20" height="7" rx="3.5" fill="#DEDEE3"/>
<rect x="129" y="139" width="20" height="7" rx="3.5" fill="#DEDEE3"/>
<rect x="172" y="139" width="20" height="7" rx="3.5" fill="#DEDEE3"/>
<rect x="215" y="139" width="20" height="7" rx="3.5" fill="#DEDEE3"/>
<rect y="162" width="20" height="7" rx="3.5" fill="#DEDEE3"/>
<rect x="43" y="162" width="20" height="7" rx="3.5" fill="#DEDEE3"/>
<rect x="86" y="162" width="20" height="7" rx="3.5" fill="#DEDEE3"/>
<rect x="129" y="162" width="20" height="7" rx="3.5" fill="#DEDEE3"/>
<rect x="172" y="162" width="20" height="7" rx="3.5" fill="#DEDEE3"/>
<rect x="215" y="162" width="20" height="7" rx="3.5" fill="#DEDEE3"/>
<rect x="43" y="15" width="20" height="4" rx="2" fill="#9B9DEF"/>
<rect x="86" y="15" width="20" height="4" rx="2" fill="#9B9DEF"/>
<rect x="129" y="15" width="20" height="4" rx="2" fill="#9B9DEF"/>
<rect x="171" y="15" width="21" height="4" rx="2" fill="#9B9DEF"/>
<rect x="213" y="15" width="20" height="4" rx="2" fill="#9B9DEF"/>
</svg>
