<svg width="230" height="58" viewBox="0 0 230 58" fill="none" xmlns="http://www.w3.org/2000/svg">
<path d="M0.5 12C0.5 5.64873 5.64873 0.5 12 0.5H229.5V46C229.5 52.3513 224.351 57.5 218 57.5H12C5.64873 57.5 0.5 52.3513 0.5 46V12Z" fill="#D6FFA3"/>
<path d="M0.5 12C0.5 5.64873 5.64873 0.5 12 0.5H229.5V46C229.5 52.3513 224.351 57.5 218 57.5H12C5.64873 57.5 0.5 52.3513 0.5 46V12Z" stroke="#131318"/>
<path d="M14.45 18.32C14.87 18.32 15.1933 18.23 15.42 18.05C15.6467 17.8633 15.76 17.5933 15.76 17.24C15.76 16.9467 15.68 16.7 15.52 16.5C15.3667 16.3 15.1133 16.1467 14.76 16.04L13.95 15.8C13.4433 15.6467 13.07 15.4167 12.83 15.11C12.59 14.7967 12.47 14.4133 12.47 13.96C12.47 13.6133 12.5367 13.3 12.67 13.02C12.81 12.74 13.03 12.5167 13.33 12.35C13.6367 12.1833 14.0367 12.1 14.53 12.1C14.83 12.1 15.14 12.1367 15.46 12.21C15.78 12.2767 16.1033 12.3867 16.43 12.54L16.15 13.29C15.83 13.15 15.54 13.05 15.28 12.99C15.0267 12.9233 14.7833 12.89 14.55 12.89C14.17 12.89 13.8733 12.97 13.66 13.13C13.4533 13.2833 13.35 13.54 13.35 13.9C13.35 14.16 13.42 14.38 13.56 14.56C13.7 14.7333 13.95 14.8767 14.31 14.99L15.12 15.23C16.1333 15.53 16.64 16.1767 16.64 17.17C16.64 17.7433 16.4667 18.21 16.12 18.57C15.7733 18.9233 15.2167 19.1 14.45 19.1C14.1367 19.1 13.8033 19.0633 13.45 18.99C13.1033 18.91 12.7433 18.7867 12.37 18.62L12.64 17.88C12.9933 18.04 13.31 18.1533 13.59 18.22C13.8767 18.2867 14.1633 18.32 14.45 18.32ZM20.3186 14.72C20.1319 14.72 19.9119 14.7667 19.6586 14.86C19.4119 14.9533 19.1119 15.1433 18.7586 15.43V19H17.9386V11.6H18.7586V14.71C19.1053 14.4167 19.4186 14.2167 19.6986 14.11C19.9786 14.0033 20.2519 13.95 20.5186 13.95C20.9786 13.95 21.3286 14.0967 21.5686 14.39C21.8153 14.6767 21.9386 15.0867 21.9386 15.62V19H21.1186V15.74C21.1186 15.06 20.8519 14.72 20.3186 14.72ZM27.5715 16.22V16.82C27.5715 17.5267 27.3882 18.0833 27.0215 18.49C26.6615 18.8967 26.1448 19.1 25.4715 19.1C24.8048 19.1 24.2882 18.8967 23.9215 18.49C23.5548 18.0833 23.3715 17.5267 23.3715 16.82V16.22C23.3715 15.5267 23.5515 14.9767 23.9115 14.57C24.2782 14.1567 24.7982 13.95 25.4715 13.95C26.1448 13.95 26.6615 14.1567 27.0215 14.57C27.3882 14.9767 27.5715 15.5267 27.5715 16.22ZM26.7215 16.22C26.7215 15.7467 26.6148 15.3767 26.4015 15.11C26.1882 14.8367 25.8782 14.7 25.4715 14.7C25.0715 14.7 24.7615 14.8367 24.5415 15.11C24.3282 15.3767 24.2215 15.7467 24.2215 16.22V16.82C24.2215 17.3133 24.3282 17.6933 24.5415 17.96C24.7615 18.2267 25.0715 18.36 25.4715 18.36C25.8782 18.36 26.1882 18.2267 26.4015 17.96C26.6148 17.6933 26.7215 17.3133 26.7215 16.82V16.22ZM34.9926 14.05L33.7226 19H32.7726L31.7326 14.94L30.6626 19H29.7126L28.4526 14.05H29.2926L29.7926 16.12L30.2426 18.17L31.3126 14.05H32.1826L33.2526 18.19L33.6926 16.13L34.1826 14.05H34.9926ZM40.6885 14.72C40.5018 14.72 40.2918 14.77 40.0585 14.87C39.8252 14.9633 39.5318 15.15 39.1785 15.43V19H38.3585V14.05H39.1385V14.74C39.4918 14.4467 39.8052 14.2433 40.0785 14.13C40.3518 14.01 40.6218 13.95 40.8885 13.95C41.2018 13.95 41.4618 14.0233 41.6685 14.17C41.8752 14.31 42.0285 14.5133 42.1285 14.78C42.4952 14.4667 42.8218 14.25 43.1085 14.13C43.4018 14.01 43.6885 13.95 43.9685 13.95C44.4085 13.95 44.7452 14.0967 44.9785 14.39C45.2118 14.6767 45.3285 15.0867 45.3285 15.62V19H44.5085V15.74C44.5085 15.06 44.2618 14.72 43.7685 14.72C43.5818 14.72 43.3685 14.77 43.1285 14.87C42.8952 14.9633 42.6018 15.15 42.2485 15.43C42.2552 15.4567 42.2585 15.4867 42.2585 15.52C42.2585 15.5533 42.2585 15.5867 42.2585 15.62V19H41.4385V15.74C41.4385 15.06 41.1885 14.72 40.6885 14.72ZM50.6399 18.71C50.3399 18.8567 50.0399 18.9567 49.7399 19.01C49.4399 19.07 49.1633 19.1 48.9099 19.1C48.1966 19.1 47.6633 18.8967 47.3099 18.49C46.9633 18.0833 46.7899 17.5267 46.7899 16.82V16.22C46.7899 15.5333 46.9633 14.9833 47.3099 14.57C47.6633 14.1567 48.1599 13.95 48.7999 13.95C49.1399 13.95 49.4499 14.02 49.7299 14.16C50.0166 14.2933 50.2433 14.5 50.4099 14.78C50.5833 15.0533 50.6699 15.4067 50.6699 15.84C50.6699 16.12 50.6299 16.44 50.5499 16.8H47.5999V16.82C47.5999 17.3267 47.7033 17.71 47.9099 17.97C48.1233 18.23 48.4633 18.36 48.9299 18.36C49.1433 18.36 49.3766 18.3333 49.6299 18.28C49.8899 18.2267 50.1433 18.1433 50.3899 18.03L50.6399 18.71ZM48.7999 14.67C48.4133 14.67 48.1199 14.7967 47.9199 15.05C47.7266 15.2967 47.6199 15.6467 47.5999 16.1H49.8399C49.8599 15.98 49.8699 15.8667 49.8699 15.76C49.8699 15.3867 49.7633 15.1133 49.5499 14.94C49.3433 14.76 49.0933 14.67 48.7999 14.67ZM54.8467 16.23V16.82C54.8467 17.3267 54.9401 17.71 55.1267 17.97C55.3134 18.2233 55.6101 18.35 56.0167 18.35C56.4167 18.35 56.8467 18.2467 57.3067 18.04L57.5567 18.73C57.0101 18.9767 56.4801 19.1 55.9667 19.1C55.3267 19.1 54.8401 18.8967 54.5067 18.49C54.1734 18.0833 54.0067 17.5267 54.0067 16.82V16.23C54.0067 15.5233 54.1734 14.9667 54.5067 14.56C54.8401 14.1533 55.3267 13.95 55.9667 13.95C56.2067 13.95 56.4534 13.9833 56.7067 14.05C56.9667 14.11 57.2267 14.1967 57.4867 14.31L57.2367 15.01C57.0167 14.9167 56.8034 14.8433 56.5967 14.79C56.3967 14.7367 56.2034 14.71 56.0167 14.71C55.6101 14.71 55.3134 14.84 55.1267 15.1C54.9401 15.3533 54.8467 15.73 54.8467 16.23ZM62.3789 19.05C62.0722 19.05 61.8256 18.98 61.6389 18.84C61.4589 18.7 61.3322 18.5267 61.2589 18.32C60.9322 18.6067 60.6356 18.81 60.3689 18.93C60.1022 19.0433 59.8356 19.1 59.5689 19.1C59.1356 19.1 58.8156 18.96 58.6089 18.68C58.4022 18.4 58.2989 18.0567 58.2989 17.65C58.2989 17.3767 58.3489 17.1333 58.4489 16.92C58.5489 16.7067 58.7189 16.54 58.9589 16.42C59.1989 16.2933 59.5222 16.23 59.9289 16.23C60.1089 16.23 60.3056 16.2433 60.5189 16.27C60.7322 16.29 60.9489 16.3167 61.1689 16.35V15.68C61.1689 15.3067 61.0856 15.0533 60.9189 14.92C60.7589 14.78 60.5222 14.71 60.2089 14.71C59.7822 14.71 59.3056 14.8267 58.7789 15.06L58.5189 14.38C58.8256 14.24 59.1189 14.1333 59.3989 14.06C59.6789 13.9867 59.9622 13.95 60.2489 13.95C60.7156 13.95 61.0722 14.0267 61.3189 14.18C61.5656 14.3333 61.7356 14.5367 61.8289 14.79C61.9222 15.0433 61.9689 15.32 61.9689 15.62V17.76C61.9689 17.9133 61.9989 18.0433 62.0589 18.15C62.1189 18.25 62.2389 18.3 62.4189 18.3H62.5289V19.05H62.3789ZM59.1089 17.64C59.1089 17.8667 59.1622 18.05 59.2689 18.19C59.3756 18.33 59.5289 18.4 59.7289 18.4C59.9022 18.4 60.1022 18.35 60.3289 18.25C60.5556 18.1433 60.8356 17.9333 61.1689 17.62V16.99C60.7156 16.9167 60.3156 16.88 59.9689 16.88C59.6622 16.88 59.4422 16.9433 59.3089 17.07C59.1756 17.1967 59.1089 17.3867 59.1089 17.64ZM66.0705 14.72C65.8839 14.72 65.6639 14.7667 65.4105 14.86C65.1639 14.9533 64.8639 15.1433 64.5105 15.43V19H63.6905V14.05H64.4705V14.74C64.8239 14.44 65.1439 14.2333 65.4305 14.12C65.7239 14.0067 66.0039 13.95 66.2705 13.95C66.7305 13.95 67.0805 14.0967 67.3205 14.39C67.5672 14.6767 67.6905 15.0867 67.6905 15.62V19H66.8705V15.74C66.8705 15.06 66.6039 14.72 66.0705 14.72ZM72.4134 19V18.31C72.1068 18.6033 71.8268 18.81 71.5734 18.93C71.3268 19.0433 71.0701 19.1 70.8034 19.1C70.2768 19.1 69.8701 18.9 69.5834 18.5C69.3034 18.1 69.1634 17.54 69.1634 16.82V16.24C69.1634 15.54 69.3368 14.9833 69.6834 14.57C70.0368 14.1567 70.5468 13.95 71.2134 13.95C71.4068 13.95 71.6001 13.97 71.7934 14.01C71.9868 14.05 72.1801 14.1067 72.3734 14.18V11.6H73.1934V19H72.4134ZM70.0134 16.82C70.0134 17.34 70.0934 17.7233 70.2534 17.97C70.4201 18.21 70.6668 18.33 70.9934 18.33C71.1868 18.33 71.3868 18.2833 71.5934 18.19C71.8001 18.09 72.0601 17.8867 72.3734 17.58V14.94C72.1801 14.8533 71.9934 14.7933 71.8134 14.76C71.6334 14.72 71.4568 14.7 71.2834 14.7C70.8301 14.7 70.5034 14.8367 70.3034 15.11C70.1101 15.3833 70.0134 15.76 70.0134 16.24V16.82ZM75.8301 12.84H74.9101V11.92H75.8301V12.84ZM75.7801 19H74.9601V14.05H75.7801V19ZM80.558 19V18.31C80.2513 18.6033 79.9713 18.81 79.718 18.93C79.4713 19.0433 79.2146 19.1 78.948 19.1C78.4213 19.1 78.0146 18.9 77.728 18.5C77.448 18.1 77.308 17.54 77.308 16.82V16.24C77.308 15.54 77.4813 14.9833 77.828 14.57C78.1813 14.1567 78.6913 13.95 79.358 13.95C79.5513 13.95 79.7446 13.97 79.938 14.01C80.1313 14.05 80.3246 14.1067 80.518 14.18V11.6H81.338V19H80.558ZM78.158 16.82C78.158 17.34 78.238 17.7233 78.398 17.97C78.5646 18.21 78.8113 18.33 79.138 18.33C79.3313 18.33 79.5313 18.2833 79.738 18.19C79.9446 18.09 80.2046 17.8867 80.518 17.58V14.94C80.3246 14.8533 80.138 14.7933 79.958 14.76C79.778 14.72 79.6013 14.7 79.428 14.7C78.9746 14.7 78.648 14.8367 78.448 15.11C78.2546 15.3833 78.158 15.76 78.158 16.24V16.82ZM86.7246 19.05C86.4179 19.05 86.1713 18.98 85.9846 18.84C85.8046 18.7 85.6779 18.5267 85.6046 18.32C85.2779 18.6067 84.9813 18.81 84.7146 18.93C84.4479 19.0433 84.1813 19.1 83.9146 19.1C83.4813 19.1 83.1613 18.96 82.9546 18.68C82.7479 18.4 82.6446 18.0567 82.6446 17.65C82.6446 17.3767 82.6946 17.1333 82.7946 16.92C82.8946 16.7067 83.0646 16.54 83.3046 16.42C83.5446 16.2933 83.8679 16.23 84.2746 16.23C84.4546 16.23 84.6513 16.2433 84.8646 16.27C85.0779 16.29 85.2946 16.3167 85.5146 16.35V15.68C85.5146 15.3067 85.4313 15.0533 85.2646 14.92C85.1046 14.78 84.8679 14.71 84.5546 14.71C84.1279 14.71 83.6513 14.8267 83.1246 15.06L82.8646 14.38C83.1713 14.24 83.4646 14.1333 83.7446 14.06C84.0246 13.9867 84.3079 13.95 84.5946 13.95C85.0613 13.95 85.4179 14.0267 85.6646 14.18C85.9113 14.3333 86.0813 14.5367 86.1746 14.79C86.2679 15.0433 86.3146 15.32 86.3146 15.62V17.76C86.3146 17.9133 86.3446 18.0433 86.4046 18.15C86.4646 18.25 86.5846 18.3 86.7646 18.3H86.8746V19.05H86.7246ZM83.4546 17.64C83.4546 17.8667 83.5079 18.05 83.6146 18.19C83.7213 18.33 83.8746 18.4 84.0746 18.4C84.2479 18.4 84.4479 18.35 84.6746 18.25C84.9013 18.1433 85.1813 17.9333 85.5146 17.62V16.99C85.0613 16.9167 84.6613 16.88 84.3146 16.88C84.0079 16.88 83.7879 16.9433 83.6546 17.07C83.5213 17.1967 83.4546 17.3867 83.4546 17.64ZM90.7563 18.82C90.3829 19.0067 89.9863 19.1 89.5663 19.1C89.2063 19.1 88.9229 19.0267 88.7163 18.88C88.5163 18.7333 88.3729 18.5367 88.2863 18.29C88.2063 18.0433 88.1663 17.77 88.1663 17.47V14.77H87.3063V14.05H88.1663V12.67H88.9863V14.05H90.6063V14.77H88.9863V17.44C88.9863 17.7867 89.0429 18.0267 89.1563 18.16C89.2763 18.2867 89.4596 18.35 89.7063 18.35C89.8263 18.35 89.9496 18.3367 90.0763 18.31C90.2096 18.2767 90.3529 18.2233 90.5063 18.15L90.7563 18.82ZM95.4251 18.71C95.1251 18.8567 94.8251 18.9567 94.5251 19.01C94.2251 19.07 93.9484 19.1 93.6951 19.1C92.9817 19.1 92.4484 18.8967 92.0951 18.49C91.7484 18.0833 91.5751 17.5267 91.5751 16.82V16.22C91.5751 15.5333 91.7484 14.9833 92.0951 14.57C92.4484 14.1567 92.9451 13.95 93.5851 13.95C93.9251 13.95 94.2351 14.02 94.5151 14.16C94.8017 14.2933 95.0284 14.5 95.1951 14.78C95.3684 15.0533 95.4551 15.4067 95.4551 15.84C95.4551 16.12 95.4151 16.44 95.3351 16.8H92.3851V16.82C92.3851 17.3267 92.4884 17.71 92.6951 17.97C92.9084 18.23 93.2484 18.36 93.7151 18.36C93.9284 18.36 94.1617 18.3333 94.4151 18.28C94.6751 18.2267 94.9284 18.1433 95.1751 18.03L95.4251 18.71ZM93.5851 14.67C93.1984 14.67 92.9051 14.7967 92.7051 15.05C92.5117 15.2967 92.4051 15.6467 92.3851 16.1H94.6251C94.6451 15.98 94.6551 15.8667 94.6551 15.76C94.6551 15.3867 94.5484 15.1133 94.3351 14.94C94.1284 14.76 93.8784 14.67 93.5851 14.67ZM98.0841 18.37C98.7508 18.37 99.0841 18.1433 99.0841 17.69C99.0841 17.4967 99.0241 17.3433 98.9041 17.23C98.7841 17.1167 98.5641 17.02 98.2441 16.94L97.6941 16.8C97.2875 16.7 96.9841 16.5267 96.7841 16.28C96.5841 16.0267 96.4841 15.7267 96.4841 15.38C96.4841 15.1267 96.5408 14.8933 96.6541 14.68C96.7675 14.46 96.9475 14.2833 97.1941 14.15C97.4408 14.0167 97.7608 13.95 98.1541 13.95C98.4075 13.95 98.6641 13.98 98.9241 14.04C99.1908 14.0933 99.4608 14.1867 99.7341 14.32L99.4741 15.01C98.9875 14.79 98.5475 14.68 98.1541 14.68C97.5741 14.68 97.2841 14.8967 97.2841 15.33C97.2841 15.4967 97.3375 15.64 97.4441 15.76C97.5508 15.88 97.7508 15.9767 98.0441 16.05L98.5941 16.19C99.0341 16.2967 99.3575 16.47 99.5641 16.71C99.7708 16.95 99.8741 17.26 99.8741 17.64C99.8741 17.9133 99.8141 18.1633 99.6941 18.39C99.5808 18.61 99.3941 18.7833 99.1341 18.91C98.8808 19.0367 98.5375 19.1 98.1041 19.1C97.8175 19.1 97.5308 19.07 97.2441 19.01C96.9641 18.95 96.6741 18.8533 96.3741 18.72L96.5941 18.04C96.8808 18.1533 97.1408 18.2367 97.3741 18.29C97.6075 18.3433 97.8441 18.37 98.0841 18.37ZM109.329 14.05L108.059 19H107.109L106.069 14.94L104.999 19H104.049L102.789 14.05H103.629L104.129 16.12L104.579 18.17L105.649 14.05H106.519L107.589 18.19L108.029 16.13L108.519 14.05H109.329ZM112.897 14.72C112.71 14.72 112.49 14.7667 112.237 14.86C111.99 14.9533 111.69 15.1433 111.337 15.43V19H110.517V11.6H111.337V14.71C111.683 14.4167 111.997 14.2167 112.277 14.11C112.557 14.0033 112.83 13.95 113.097 13.95C113.557 13.95 113.907 14.0967 114.147 14.39C114.393 14.6767 114.517 15.0867 114.517 15.62V19H113.697V15.74C113.697 15.06 113.43 14.72 112.897 14.72ZM120.15 16.22V16.82C120.15 17.5267 119.966 18.0833 119.6 18.49C119.24 18.8967 118.723 19.1 118.05 19.1C117.383 19.1 116.866 18.8967 116.5 18.49C116.133 18.0833 115.95 17.5267 115.95 16.82V16.22C115.95 15.5267 116.13 14.9767 116.49 14.57C116.856 14.1567 117.376 13.95 118.05 13.95C118.723 13.95 119.24 14.1567 119.6 14.57C119.966 14.9767 120.15 15.5267 120.15 16.22ZM119.3 16.22C119.3 15.7467 119.193 15.3767 118.98 15.11C118.766 14.8367 118.456 14.7 118.05 14.7C117.65 14.7 117.34 14.8367 117.12 15.11C116.906 15.3767 116.8 15.7467 116.8 16.22V16.82C116.8 17.3133 116.906 17.6933 117.12 17.96C117.34 18.2267 117.65 18.36 118.05 18.36C118.456 18.36 118.766 18.2267 118.98 17.96C119.193 17.6933 119.3 17.3133 119.3 16.82V16.22ZM126.198 14.72C126.011 14.72 125.791 14.7667 125.538 14.86C125.291 14.9533 124.991 15.1433 124.638 15.43V19H123.818V11.6H124.638V14.71C124.984 14.4167 125.298 14.2167 125.577 14.11C125.858 14.0033 126.131 13.95 126.398 13.95C126.858 13.95 127.208 14.0967 127.448 14.39C127.694 14.6767 127.818 15.0867 127.818 15.62V19H126.998V15.74C126.998 15.06 126.731 14.72 126.198 14.72ZM133.15 19.05C132.844 19.05 132.597 18.98 132.41 18.84C132.23 18.7 132.104 18.5267 132.03 18.32C131.704 18.6067 131.407 18.81 131.14 18.93C130.874 19.0433 130.607 19.1 130.34 19.1C129.907 19.1 129.587 18.96 129.38 18.68C129.174 18.4 129.07 18.0567 129.07 17.65C129.07 17.3767 129.12 17.1333 129.22 16.92C129.32 16.7067 129.49 16.54 129.73 16.42C129.97 16.2933 130.294 16.23 130.7 16.23C130.88 16.23 131.077 16.2433 131.29 16.27C131.504 16.29 131.72 16.3167 131.94 16.35V15.68C131.94 15.3067 131.857 15.0533 131.69 14.92C131.53 14.78 131.294 14.71 130.98 14.71C130.554 14.71 130.077 14.8267 129.55 15.06L129.29 14.38C129.597 14.24 129.89 14.1333 130.17 14.06C130.45 13.9867 130.734 13.95 131.02 13.95C131.487 13.95 131.844 14.0267 132.09 14.18C132.337 14.3333 132.507 14.5367 132.6 14.79C132.694 15.0433 132.74 15.32 132.74 15.62V17.76C132.74 17.9133 132.77 18.0433 132.83 18.15C132.89 18.25 133.01 18.3 133.19 18.3H133.3V19.05H133.15ZM129.88 17.64C129.88 17.8667 129.934 18.05 130.04 18.19C130.147 18.33 130.3 18.4 130.5 18.4C130.674 18.4 130.874 18.35 131.1 18.25C131.327 18.1433 131.607 17.9333 131.94 17.62V16.99C131.487 16.9167 131.087 16.88 130.74 16.88C130.434 16.88 130.214 16.9433 130.08 17.07C129.947 17.1967 129.88 17.3867 129.88 17.64ZM137.965 14.05L136.215 19H135.445L133.675 14.05H134.525L135.355 16.46L135.855 17.97L136.345 16.46L137.155 14.05H137.965ZM142.554 18.71C142.254 18.8567 141.954 18.9567 141.654 19.01C141.354 19.07 141.077 19.1 140.824 19.1C140.111 19.1 139.577 18.8967 139.224 18.49C138.877 18.0833 138.704 17.5267 138.704 16.82V16.22C138.704 15.5333 138.877 14.9833 139.224 14.57C139.577 14.1567 140.074 13.95 140.714 13.95C141.054 13.95 141.364 14.02 141.644 14.16C141.931 14.2933 142.157 14.5 142.324 14.78C142.497 15.0533 142.584 15.4067 142.584 15.84C142.584 16.12 142.544 16.44 142.464 16.8H139.514V16.82C139.514 17.3267 139.617 17.71 139.824 17.97C140.037 18.23 140.377 18.36 140.844 18.36C141.057 18.36 141.291 18.3333 141.544 18.28C141.804 18.2267 142.057 18.1433 142.304 18.03L142.554 18.71ZM140.714 14.67C140.327 14.67 140.034 14.7967 139.834 15.05C139.641 15.2967 139.534 15.6467 139.514 16.1H141.754C141.774 15.98 141.784 15.8667 141.784 15.76C141.784 15.3867 141.677 15.1133 141.464 14.94C141.257 14.76 141.007 14.67 140.714 14.67ZM149.651 19H145.771V18.34C145.771 17.84 145.831 17.42 145.951 17.08C146.077 16.74 146.244 16.46 146.451 16.24C146.664 16.0133 146.901 15.8333 147.161 15.7L147.811 15.37C148.117 15.21 148.361 15.0433 148.541 14.87C148.727 14.6967 148.821 14.4467 148.821 14.12V13.95C148.821 13.5767 148.714 13.3067 148.501 13.14C148.294 12.9733 147.987 12.89 147.581 12.89C147.354 12.89 147.114 12.92 146.861 12.98C146.607 13.0333 146.327 13.1267 146.021 13.26L145.741 12.53C146.074 12.3767 146.394 12.2667 146.701 12.2C147.014 12.1333 147.314 12.1 147.601 12.1C148.341 12.1 148.871 12.2733 149.191 12.62C149.511 12.96 149.671 13.4033 149.671 13.95V14.12C149.671 14.48 149.601 14.78 149.461 15.02C149.327 15.26 149.147 15.4633 148.921 15.63C148.701 15.79 148.464 15.9333 148.211 16.06L147.561 16.4C147.247 16.5667 147.014 16.7967 146.861 17.09C146.714 17.3833 146.634 17.7567 146.621 18.21H149.651V19ZM150.656 16.33V15.61H153.456V16.33H150.656ZM156.582 19.5C156.368 20.1 156.105 20.5367 155.792 20.81C155.485 21.09 155.055 21.23 154.502 21.23V20.42C154.728 20.4133 154.922 20.3833 155.082 20.33C155.248 20.2767 155.395 20.1667 155.522 20C155.655 19.84 155.782 19.6 155.902 19.28L156.002 19.03L154.222 14.05H155.062L155.892 16.46L156.402 18L156.892 16.46L157.702 14.05H158.512L156.582 19.5ZM163.101 18.71C162.801 18.8567 162.501 18.9567 162.201 19.01C161.901 19.07 161.624 19.1 161.371 19.1C160.658 19.1 160.124 18.8967 159.771 18.49C159.424 18.0833 159.251 17.5267 159.251 16.82V16.22C159.251 15.5333 159.424 14.9833 159.771 14.57C160.124 14.1567 160.621 13.95 161.261 13.95C161.601 13.95 161.911 14.02 162.191 14.16C162.478 14.2933 162.704 14.5 162.871 14.78C163.044 15.0533 163.131 15.4067 163.131 15.84C163.131 16.12 163.091 16.44 163.011 16.8H160.061V16.82C160.061 17.3267 160.164 17.71 160.371 17.97C160.584 18.23 160.924 18.36 161.391 18.36C161.604 18.36 161.838 18.3333 162.091 18.28C162.351 18.2267 162.604 18.1433 162.851 18.03L163.101 18.71ZM161.261 14.67C160.874 14.67 160.581 14.7967 160.381 15.05C160.188 15.2967 160.081 15.6467 160.061 16.1H162.301C162.321 15.98 162.331 15.8667 162.331 15.76C162.331 15.3867 162.224 15.1133 162.011 14.94C161.804 14.76 161.554 14.67 161.261 14.67ZM168.17 19.05C167.863 19.05 167.617 18.98 167.43 18.84C167.25 18.7 167.123 18.5267 167.05 18.32C166.723 18.6067 166.427 18.81 166.16 18.93C165.893 19.0433 165.627 19.1 165.36 19.1C164.927 19.1 164.607 18.96 164.4 18.68C164.193 18.4 164.09 18.0567 164.09 17.65C164.09 17.3767 164.14 17.1333 164.24 16.92C164.34 16.7067 164.51 16.54 164.75 16.42C164.99 16.2933 165.313 16.23 165.72 16.23C165.9 16.23 166.097 16.2433 166.31 16.27C166.523 16.29 166.74 16.3167 166.96 16.35V15.68C166.96 15.3067 166.877 15.0533 166.71 14.92C166.55 14.78 166.313 14.71 166 14.71C165.573 14.71 165.097 14.8267 164.57 15.06L164.31 14.38C164.617 14.24 164.91 14.1333 165.19 14.06C165.47 13.9867 165.753 13.95 166.04 13.95C166.507 13.95 166.863 14.0267 167.11 14.18C167.357 14.3333 167.527 14.5367 167.62 14.79C167.713 15.0433 167.76 15.32 167.76 15.62V17.76C167.76 17.9133 167.79 18.0433 167.85 18.15C167.91 18.25 168.03 18.3 168.21 18.3H168.32V19.05H168.17ZM164.9 17.64C164.9 17.8667 164.953 18.05 165.06 18.19C165.167 18.33 165.32 18.4 165.52 18.4C165.693 18.4 165.893 18.35 166.12 18.25C166.347 18.1433 166.627 17.9333 166.96 17.62V16.99C166.507 16.9167 166.107 16.88 165.76 16.88C165.453 16.88 165.233 16.9433 165.1 17.07C164.967 17.1967 164.9 17.3867 164.9 17.64ZM172.082 14.77C171.782 14.77 171.488 14.8233 171.202 14.93C170.922 15.0367 170.622 15.24 170.302 15.54V19H169.482V14.05H170.262V14.85C170.602 14.5167 170.912 14.2833 171.192 14.15C171.478 14.0167 171.775 13.95 172.082 13.95V14.77ZM16.47 32.71C16.17 32.8567 15.87 32.9567 15.57 33.01C15.27 33.07 14.9933 33.1 14.74 33.1C14.0267 33.1 13.4933 32.8967 13.14 32.49C12.7933 32.0833 12.62 31.5267 12.62 30.82V30.22C12.62 29.5333 12.7933 28.9833 13.14 28.57C13.4933 28.1567 13.99 27.95 14.63 27.95C14.97 27.95 15.28 28.02 15.56 28.16C15.8467 28.2933 16.0733 28.5 16.24 28.78C16.4133 29.0533 16.5 29.4067 16.5 29.84C16.5 30.12 16.46 30.44 16.38 30.8H13.43V30.82C13.43 31.3267 13.5333 31.71 13.74 31.97C13.9533 32.23 14.2933 32.36 14.76 32.36C14.9733 32.36 15.2067 32.3333 15.46 32.28C15.72 32.2267 15.9733 32.1433 16.22 32.03L16.47 32.71ZM14.63 28.67C14.2433 28.67 13.95 28.7967 13.75 29.05C13.5567 29.2967 13.45 29.6467 13.43 30.1H15.67C15.69 29.98 15.7 29.8667 15.7 29.76C15.7 29.3867 15.5933 29.1133 15.38 28.94C15.1733 28.76 14.9233 28.67 14.63 28.67ZM20.5391 33L19.3091 31.07L18.1291 33H17.2591L18.8991 30.44L17.3791 28.05H18.2891L19.3791 29.78L20.4491 28.05H21.3091L19.7991 30.42L21.4391 33H20.5391ZM24.528 33.1C24.1546 33.1 23.768 33.0233 23.368 32.87V35.13H22.548V28.05H23.328V28.75C23.6346 28.4567 23.9146 28.25 24.168 28.13C24.4213 28.01 24.6813 27.95 24.948 27.95C25.4746 27.95 25.878 28.15 26.158 28.55C26.4446 28.95 26.588 29.5133 26.588 30.24V30.82C26.588 31.5133 26.4113 32.0667 26.058 32.48C25.7113 32.8933 25.2013 33.1 24.528 33.1ZM24.748 28.72C24.5546 28.72 24.3546 28.77 24.148 28.87C23.9413 28.97 23.6813 29.1733 23.368 29.48V32.12C23.5613 32.2067 23.748 32.27 23.928 32.31C24.108 32.3433 24.2846 32.36 24.458 32.36C24.9113 32.36 25.238 32.2233 25.438 31.95C25.638 31.67 25.738 31.2933 25.738 30.82V30.24C25.738 29.72 25.6546 29.3367 25.488 29.09C25.328 28.8433 25.0813 28.72 24.748 28.72ZM31.6946 32.71C31.3946 32.8567 31.0946 32.9567 30.7946 33.01C30.4946 33.07 30.2179 33.1 29.9646 33.1C29.2513 33.1 28.7179 32.8967 28.3646 32.49C28.0179 32.0833 27.8446 31.5267 27.8446 30.82V30.22C27.8446 29.5333 28.0179 28.9833 28.3646 28.57C28.7179 28.1567 29.2146 27.95 29.8546 27.95C30.1946 27.95 30.5046 28.02 30.7846 28.16C31.0713 28.2933 31.2979 28.5 31.4646 28.78C31.6379 29.0533 31.7246 29.4067 31.7246 29.84C31.7246 30.12 31.6846 30.44 31.6046 30.8H28.6546V30.82C28.6546 31.3267 28.7579 31.71 28.9646 31.97C29.1779 32.23 29.5179 32.36 29.9846 32.36C30.1979 32.36 30.4313 32.3333 30.6846 32.28C30.9446 32.2267 31.1979 32.1433 31.4446 32.03L31.6946 32.71ZM29.8546 28.67C29.4679 28.67 29.1746 28.7967 28.9746 29.05C28.7813 29.2967 28.6746 29.6467 28.6546 30.1H30.8946C30.9146 29.98 30.9246 29.8667 30.9246 29.76C30.9246 29.3867 30.8179 29.1133 30.6046 28.94C30.3979 28.76 30.1479 28.67 29.8546 28.67ZM35.7437 28.77C35.4437 28.77 35.1503 28.8233 34.8637 28.93C34.5837 29.0367 34.2837 29.24 33.9637 29.54V33H33.1437V28.05H33.9237V28.85C34.2637 28.5167 34.5737 28.2833 34.8537 28.15C35.1403 28.0167 35.437 27.95 35.7437 27.95V28.77ZM37.6855 26.84H36.7655V25.92H37.6855V26.84ZM37.6355 33H36.8155V28.05H37.6355V33ZM42.9934 32.71C42.6934 32.8567 42.3934 32.9567 42.0934 33.01C41.7934 33.07 41.5168 33.1 41.2634 33.1C40.5501 33.1 40.0168 32.8967 39.6634 32.49C39.3168 32.0833 39.1434 31.5267 39.1434 30.82V30.22C39.1434 29.5333 39.3168 28.9833 39.6634 28.57C40.0168 28.1567 40.5134 27.95 41.1534 27.95C41.4934 27.95 41.8034 28.02 42.0834 28.16C42.3701 28.2933 42.5968 28.5 42.7634 28.78C42.9368 29.0533 43.0234 29.4067 43.0234 29.84C43.0234 30.12 42.9834 30.44 42.9034 30.8H39.9534V30.82C39.9534 31.3267 40.0568 31.71 40.2634 31.97C40.4768 32.23 40.8168 32.36 41.2834 32.36C41.4968 32.36 41.7301 32.3333 41.9834 32.28C42.2434 32.2267 42.4968 32.1433 42.7434 32.03L42.9934 32.71ZM41.1534 28.67C40.7668 28.67 40.4734 28.7967 40.2734 29.05C40.0801 29.2967 39.9734 29.6467 39.9534 30.1H42.1934C42.2134 29.98 42.2234 29.8667 42.2234 29.76C42.2234 29.3867 42.1168 29.1133 41.9034 28.94C41.6968 28.76 41.4468 28.67 41.1534 28.67ZM46.8225 28.72C46.6358 28.72 46.4158 28.7667 46.1625 28.86C45.9158 28.9533 45.6158 29.1433 45.2625 29.43V33H44.4425V28.05H45.2225V28.74C45.5758 28.44 45.8958 28.2333 46.1825 28.12C46.4758 28.0067 46.7558 27.95 47.0225 27.95C47.4825 27.95 47.8325 28.0967 48.0725 28.39C48.3192 28.6767 48.4425 29.0867 48.4425 29.62V33H47.6225V29.74C47.6225 29.06 47.3558 28.72 46.8225 28.72ZM50.7354 30.23V30.82C50.7354 31.3267 50.8287 31.71 51.0154 31.97C51.2021 32.2233 51.4987 32.35 51.9054 32.35C52.3054 32.35 52.7354 32.2467 53.1954 32.04L53.4454 32.73C52.8987 32.9767 52.3687 33.1 51.8554 33.1C51.2154 33.1 50.7287 32.8967 50.3954 32.49C50.0621 32.0833 49.8954 31.5267 49.8954 30.82V30.23C49.8954 29.5233 50.0621 28.9667 50.3954 28.56C50.7287 28.1533 51.2154 27.95 51.8554 27.95C52.0954 27.95 52.3421 27.9833 52.5954 28.05C52.8554 28.11 53.1154 28.1967 53.3754 28.31L53.1254 29.01C52.9054 28.9167 52.6921 28.8433 52.4854 28.79C52.2854 28.7367 52.0921 28.71 51.9054 28.71C51.4987 28.71 51.2021 28.84 51.0154 29.1C50.8287 29.3533 50.7354 29.73 50.7354 30.23ZM58.218 32.71C57.918 32.8567 57.618 32.9567 57.318 33.01C57.018 33.07 56.7414 33.1 56.488 33.1C55.7747 33.1 55.2414 32.8967 54.888 32.49C54.5414 32.0833 54.368 31.5267 54.368 30.82V30.22C54.368 29.5333 54.5414 28.9833 54.888 28.57C55.2414 28.1567 55.738 27.95 56.378 27.95C56.718 27.95 57.028 28.02 57.308 28.16C57.5947 28.2933 57.8214 28.5 57.988 28.78C58.1614 29.0533 58.248 29.4067 58.248 29.84C58.248 30.12 58.208 30.44 58.128 30.8H55.178V30.82C55.178 31.3267 55.2814 31.71 55.488 31.97C55.7014 32.23 56.0414 32.36 56.508 32.36C56.7214 32.36 56.9547 32.3333 57.208 32.28C57.468 32.2267 57.7214 32.1433 57.968 32.03L58.218 32.71ZM56.378 28.67C55.9914 28.67 55.698 28.7967 55.498 29.05C55.3047 29.2967 55.198 29.6467 55.178 30.1H57.418C57.438 29.98 57.448 29.8667 57.448 29.76C57.448 29.3867 57.3414 29.1133 57.128 28.94C56.9214 28.76 56.6714 28.67 56.378 28.67ZM62.6771 33V32.31C62.3704 32.6033 62.0904 32.81 61.8371 32.93C61.5904 33.0433 61.3338 33.1 61.0671 33.1C60.5404 33.1 60.1338 32.9 59.8471 32.5C59.5671 32.1 59.4271 31.54 59.4271 30.82V30.24C59.4271 29.54 59.6004 28.9833 59.9471 28.57C60.3004 28.1567 60.8104 27.95 61.4771 27.95C61.6704 27.95 61.8638 27.97 62.0571 28.01C62.2504 28.05 62.4438 28.1067 62.6371 28.18V25.6H63.4571V33H62.6771ZM60.2771 30.82C60.2771 31.34 60.3571 31.7233 60.5171 31.97C60.6838 32.21 60.9304 32.33 61.2571 32.33C61.4504 32.33 61.6504 32.2833 61.8571 32.19C62.0638 32.09 62.3238 31.8867 62.6371 31.58V28.94C62.4438 28.8533 62.2571 28.7933 62.0771 28.76C61.8971 28.72 61.7204 28.7 61.5471 28.7C61.0938 28.7 60.7671 28.8367 60.5671 29.11C60.3738 29.3833 60.2771 29.76 60.2771 30.24V30.82ZM68.2715 26.84H67.3515V25.92H68.2715V26.84ZM68.2215 33H67.4015V28.05H68.2215V33ZM72.3694 28.72C72.1827 28.72 71.9627 28.7667 71.7094 28.86C71.4627 28.9533 71.1627 29.1433 70.8094 29.43V33H69.9894V28.05H70.7694V28.74C71.1227 28.44 71.4427 28.2333 71.7294 28.12C72.0227 28.0067 72.3027 27.95 72.5694 27.95C73.0294 27.95 73.3794 28.0967 73.6194 28.39C73.866 28.6767 73.9894 29.0867 73.9894 29.62V33H73.1694V29.74C73.1694 29.06 72.9027 28.72 72.3694 28.72ZM80.6 32.82C80.2267 33.0067 79.83 33.1 79.41 33.1C79.05 33.1 78.7667 33.0267 78.56 32.88C78.36 32.7333 78.2167 32.5367 78.13 32.29C78.05 32.0433 78.01 31.77 78.01 31.47V28.77H77.15V28.05H78.01V26.67H78.83V28.05H80.45V28.77H78.83V31.44C78.83 31.7867 78.8867 32.0267 79 32.16C79.12 32.2867 79.3033 32.35 79.55 32.35C79.67 32.35 79.7933 32.3367 79.92 32.31C80.0533 32.2767 80.1967 32.2233 80.35 32.15L80.6 32.82ZM84.0588 28.72C83.8722 28.72 83.6522 28.7667 83.3988 28.86C83.1522 28.9533 82.8522 29.1433 82.4988 29.43V33H81.6788V25.6H82.4988V28.71C82.8455 28.4167 83.1588 28.2167 83.4388 28.11C83.7188 28.0033 83.9922 27.95 84.2588 27.95C84.7188 27.95 85.0688 28.0967 85.3088 28.39C85.5555 28.6767 85.6788 29.0867 85.6788 29.62V33H84.8588V29.74C84.8588 29.06 84.5922 28.72 84.0588 28.72ZM90.9817 32.71C90.6817 32.8567 90.3817 32.9567 90.0817 33.01C89.7817 33.07 89.5051 33.1 89.2517 33.1C88.5384 33.1 88.0051 32.8967 87.6517 32.49C87.3051 32.0833 87.1317 31.5267 87.1317 30.82V30.22C87.1317 29.5333 87.3051 28.9833 87.6517 28.57C88.0051 28.1567 88.5017 27.95 89.1417 27.95C89.4817 27.95 89.7917 28.02 90.0717 28.16C90.3584 28.2933 90.5851 28.5 90.7517 28.78C90.9251 29.0533 91.0117 29.4067 91.0117 29.84C91.0117 30.12 90.9717 30.44 90.8917 30.8H87.9417V30.82C87.9417 31.3267 88.0451 31.71 88.2517 31.97C88.4651 32.23 88.8051 32.36 89.2717 32.36C89.4851 32.36 89.7184 32.3333 89.9717 32.28C90.2317 32.2267 90.4851 32.1433 90.7317 32.03L90.9817 32.71ZM89.1417 28.67C88.7551 28.67 88.4617 28.7967 88.2617 29.05C88.0684 29.2967 87.9617 29.6467 87.9417 30.1H90.1817C90.2017 29.98 90.2117 29.8667 90.2117 29.76C90.2117 29.3867 90.1051 29.1133 89.8917 28.94C89.6851 28.76 89.4351 28.67 89.1417 28.67ZM93.3008 26.84H92.3808V25.92H93.3008V26.84ZM93.2508 33H92.4308V28.05H93.2508V33ZM97.6187 28.77C97.3187 28.77 97.0253 28.8233 96.7387 28.93C96.4587 29.0367 96.1587 29.24 95.8387 29.54V33H95.0187V28.05H95.7987V28.85C96.1387 28.5167 96.4487 28.2833 96.7287 28.15C97.0153 28.0167 97.312 27.95 97.6187 27.95V28.77ZM101.848 27.32V28.05H104.918V33H104.098V28.77H101.848V33H101.028V28.77H100.168V28.05H101.028V27.33C101.028 27.0033 101.088 26.7033 101.208 26.43C101.335 26.15 101.542 25.9267 101.828 25.76C102.115 25.5867 102.502 25.5 102.988 25.5C103.248 25.5 103.528 25.53 103.828 25.59C104.135 25.65 104.452 25.7533 104.778 25.9L104.488 26.55C104.202 26.4367 103.932 26.36 103.678 26.32C103.432 26.2733 103.208 26.25 103.008 26.25C102.642 26.25 102.355 26.3367 102.148 26.51C101.948 26.6767 101.848 26.9467 101.848 27.32ZM110.279 32.71C109.979 32.8567 109.679 32.9567 109.379 33.01C109.079 33.07 108.802 33.1 108.549 33.1C107.835 33.1 107.302 32.8967 106.949 32.49C106.602 32.0833 106.429 31.5267 106.429 30.82V30.22C106.429 29.5333 106.602 28.9833 106.949 28.57C107.302 28.1567 107.799 27.95 108.439 27.95C108.779 27.95 109.089 28.02 109.369 28.16C109.655 28.2933 109.882 28.5 110.049 28.78C110.222 29.0533 110.309 29.4067 110.309 29.84C110.309 30.12 110.269 30.44 110.189 30.8H107.239V30.82C107.239 31.3267 107.342 31.71 107.549 31.97C107.762 32.23 108.102 32.36 108.569 32.36C108.782 32.36 109.015 32.3333 109.269 32.28C109.529 32.2267 109.782 32.1433 110.029 32.03L110.279 32.71ZM108.439 28.67C108.052 28.67 107.759 28.7967 107.559 29.05C107.365 29.2967 107.259 29.6467 107.239 30.1H109.479C109.499 29.98 109.509 29.8667 109.509 29.76C109.509 29.3867 109.402 29.1133 109.189 28.94C108.982 28.76 108.732 28.67 108.439 28.67ZM111.718 31.8V25.6H112.538V31.76C112.538 31.94 112.564 32.0767 112.618 32.17C112.678 32.2567 112.794 32.3 112.968 32.3H113.128V33.05H112.898C112.458 33.05 112.151 32.9333 111.978 32.7C111.804 32.4667 111.718 32.1667 111.718 31.8ZM117.374 33V32.31C117.068 32.6033 116.788 32.81 116.534 32.93C116.288 33.0433 116.031 33.1 115.764 33.1C115.238 33.1 114.831 32.9 114.544 32.5C114.264 32.1 114.124 31.54 114.124 30.82V30.24C114.124 29.54 114.298 28.9833 114.644 28.57C114.998 28.1567 115.508 27.95 116.174 27.95C116.368 27.95 116.561 27.97 116.754 28.01C116.948 28.05 117.141 28.1067 117.334 28.18V25.6H118.154V33H117.374ZM114.974 30.82C114.974 31.34 115.054 31.7233 115.214 31.97C115.381 32.21 115.628 32.33 115.954 32.33C116.148 32.33 116.348 32.2833 116.554 32.19C116.761 32.09 117.021 31.8867 117.334 31.58V28.94C117.141 28.8533 116.954 28.7933 116.774 28.76C116.594 28.72 116.418 28.7 116.244 28.7C115.791 28.7 115.464 28.8367 115.264 29.11C115.071 29.3833 114.974 29.76 114.974 30.24V30.82ZM121.131 32.37C121.798 32.37 122.131 32.1433 122.131 31.69C122.131 31.4967 122.071 31.3433 121.951 31.23C121.831 31.1167 121.611 31.02 121.291 30.94L120.741 30.8C120.334 30.7 120.031 30.5267 119.831 30.28C119.631 30.0267 119.531 29.7267 119.531 29.38C119.531 29.1267 119.588 28.8933 119.701 28.68C119.814 28.46 119.994 28.2833 120.241 28.15C120.488 28.0167 120.808 27.95 121.201 27.95C121.454 27.95 121.711 27.98 121.971 28.04C122.238 28.0933 122.508 28.1867 122.781 28.32L122.521 29.01C122.034 28.79 121.594 28.68 121.201 28.68C120.621 28.68 120.331 28.8967 120.331 29.33C120.331 29.4967 120.384 29.64 120.491 29.76C120.598 29.88 120.798 29.9767 121.091 30.05L121.641 30.19C122.081 30.2967 122.404 30.47 122.611 30.71C122.818 30.95 122.921 31.26 122.921 31.64C122.921 31.9133 122.861 32.1633 122.741 32.39C122.628 32.61 122.441 32.7833 122.181 32.91C121.928 33.0367 121.584 33.1 121.151 33.1C120.864 33.1 120.578 33.07 120.291 33.01C120.011 32.95 119.721 32.8533 119.421 32.72L119.641 32.04C119.928 32.1533 120.188 32.2367 120.421 32.29C120.654 32.3433 120.891 32.37 121.131 32.37ZM130.025 33.05C129.719 33.05 129.472 32.98 129.285 32.84C129.105 32.7 128.979 32.5267 128.905 32.32C128.579 32.6067 128.282 32.81 128.015 32.93C127.749 33.0433 127.482 33.1 127.215 33.1C126.782 33.1 126.462 32.96 126.255 32.68C126.049 32.4 125.945 32.0567 125.945 31.65C125.945 31.3767 125.995 31.1333 126.095 30.92C126.195 30.7067 126.365 30.54 126.605 30.42C126.845 30.2933 127.169 30.23 127.575 30.23C127.755 30.23 127.952 30.2433 128.165 30.27C128.379 30.29 128.595 30.3167 128.815 30.35V29.68C128.815 29.3067 128.732 29.0533 128.565 28.92C128.405 28.78 128.169 28.71 127.855 28.71C127.429 28.71 126.952 28.8267 126.425 29.06L126.165 28.38C126.472 28.24 126.765 28.1333 127.045 28.06C127.325 27.9867 127.609 27.95 127.895 27.95C128.362 27.95 128.719 28.0267 128.965 28.18C129.212 28.3333 129.382 28.5367 129.475 28.79C129.569 29.0433 129.615 29.32 129.615 29.62V31.76C129.615 31.9133 129.645 32.0433 129.705 32.15C129.765 32.25 129.885 32.3 130.065 32.3H130.175V33.05H130.025ZM126.755 31.64C126.755 31.8667 126.809 32.05 126.915 32.19C127.022 32.33 127.175 32.4 127.375 32.4C127.549 32.4 127.749 32.35 127.975 32.25C128.202 32.1433 128.482 31.9333 128.815 31.62V30.99C128.362 30.9167 127.962 30.88 127.615 30.88C127.309 30.88 127.089 30.9433 126.955 31.07C126.822 31.1967 126.755 31.3867 126.755 31.64ZM133.717 28.72C133.53 28.72 133.31 28.7667 133.057 28.86C132.81 28.9533 132.51 29.1433 132.157 29.43V33H131.337V28.05H132.117V28.74C132.47 28.44 132.79 28.2333 133.077 28.12C133.37 28.0067 133.65 27.95 133.917 27.95C134.377 27.95 134.727 28.0967 134.967 28.39C135.214 28.6767 135.337 29.0867 135.337 29.62V33H134.517V29.74C134.517 29.06 134.25 28.72 133.717 28.72ZM140.06 33V32.31C139.753 32.6033 139.473 32.81 139.22 32.93C138.973 33.0433 138.717 33.1 138.45 33.1C137.923 33.1 137.517 32.9 137.23 32.5C136.95 32.1 136.81 31.54 136.81 30.82V30.24C136.81 29.54 136.983 28.9833 137.33 28.57C137.683 28.1567 138.193 27.95 138.86 27.95C139.053 27.95 139.247 27.97 139.44 28.01C139.633 28.05 139.827 28.1067 140.02 28.18V25.6H140.84V33H140.06ZM137.66 30.82C137.66 31.34 137.74 31.7233 137.9 31.97C138.067 32.21 138.313 32.33 138.64 32.33C138.833 32.33 139.033 32.2833 139.24 32.19C139.447 32.09 139.707 31.8867 140.02 31.58V28.94C139.827 28.8533 139.64 28.7933 139.46 28.76C139.28 28.72 139.103 28.7 138.93 28.7C138.477 28.7 138.15 28.8367 137.95 29.11C137.757 29.3833 137.66 29.76 137.66 30.24V30.82ZM148.864 31.21C148.864 31.5633 148.784 31.8833 148.624 32.17C148.471 32.4567 148.231 32.6833 147.904 32.85C147.578 33.0167 147.158 33.1 146.644 33.1C146.151 33.1 145.748 33.02 145.434 32.86C145.121 32.7 144.891 32.49 144.744 32.23C144.598 31.9633 144.524 31.6667 144.524 31.34C144.524 30.9867 144.611 30.6667 144.784 30.38C144.958 30.0867 145.238 29.8167 145.624 29.57C145.318 29.3967 145.081 29.1767 144.914 28.91C144.748 28.6433 144.664 28.3167 144.664 27.93C144.664 27.61 144.738 27.3133 144.884 27.04C145.031 26.76 145.254 26.5333 145.554 26.36C145.854 26.1867 146.228 26.1 146.674 26.1C147.134 26.1 147.514 26.18 147.814 26.34C148.121 26.5 148.348 26.7133 148.494 26.98C148.641 27.2467 148.714 27.5467 148.714 27.88C148.714 28.2067 148.638 28.5033 148.484 28.77C148.338 29.0367 148.091 29.2867 147.744 29.52C148.111 29.7 148.388 29.9233 148.574 30.19C148.768 30.4567 148.864 30.7967 148.864 31.21ZM146.534 29.07L147.084 29.26C147.384 29.0267 147.588 28.8067 147.694 28.6C147.808 28.3933 147.864 28.18 147.864 27.96C147.864 27.6267 147.768 27.36 147.574 27.16C147.381 26.96 147.088 26.86 146.694 26.86C146.348 26.86 146.064 26.95 145.844 27.13C145.624 27.31 145.514 27.5767 145.514 27.93C145.514 28.21 145.591 28.44 145.744 28.62C145.904 28.7933 146.168 28.9433 146.534 29.07ZM145.374 31.23C145.374 31.57 145.481 31.8433 145.694 32.05C145.914 32.25 146.241 32.35 146.674 32.35C147.094 32.35 147.421 32.2567 147.654 32.07C147.894 31.8767 148.014 31.6033 148.014 31.25C148.014 30.9433 147.928 30.7067 147.754 30.54C147.588 30.3667 147.291 30.2067 146.864 30.06L146.284 29.86C145.944 30.1067 145.708 30.34 145.574 30.56C145.441 30.7733 145.374 30.9967 145.374 31.23ZM150.16 29.46L150.36 26.2H153.74V27H151.13L151.01 28.95C151.304 28.85 151.62 28.8 151.96 28.8C152.587 28.8 153.087 28.9667 153.46 29.3C153.834 29.6333 154.02 30.1267 154.02 30.78V31.08C154.02 31.6733 153.847 32.16 153.5 32.54C153.154 32.9133 152.597 33.1 151.83 33.1C151.53 33.1 151.217 33.0667 150.89 33C150.57 32.9267 150.237 32.8133 149.89 32.66L150.16 31.94C150.487 32.08 150.784 32.18 151.05 32.24C151.317 32.2933 151.574 32.32 151.82 32.32C152.234 32.32 152.557 32.2267 152.79 32.04C153.024 31.8467 153.14 31.5267 153.14 31.08V30.78C153.14 30.4133 153.034 30.12 152.82 29.9C152.614 29.68 152.297 29.57 151.87 29.57C151.67 29.57 151.474 29.5967 151.28 29.65C151.087 29.6967 150.884 29.7667 150.67 29.86L150.16 29.46ZM157.639 27.54V27.85C157.639 28.2967 157.519 28.6433 157.279 28.89C157.045 29.13 156.719 29.25 156.299 29.25C155.872 29.25 155.542 29.13 155.309 28.89C155.075 28.6433 154.959 28.2967 154.959 27.85V27.54C154.959 27.1 155.075 26.76 155.309 26.52C155.542 26.2733 155.872 26.15 156.299 26.15C156.719 26.15 157.045 26.2733 157.279 26.52C157.519 26.76 157.639 27.1 157.639 27.54ZM159.729 26.2H160.439L156.959 33H156.249L159.729 26.2ZM156.979 27.54C156.979 27.2867 156.919 27.0933 156.799 26.96C156.679 26.8267 156.512 26.76 156.299 26.76C156.085 26.76 155.919 26.8267 155.799 26.96C155.679 27.0933 155.619 27.2867 155.619 27.54V27.85C155.619 28.11 155.679 28.3067 155.799 28.44C155.919 28.5733 156.085 28.64 156.299 28.64C156.512 28.64 156.679 28.5733 156.799 28.44C156.919 28.3067 156.979 28.11 156.979 27.85V27.54ZM161.729 31.34V31.65C161.729 32.0967 161.609 32.4433 161.369 32.69C161.135 32.93 160.809 33.05 160.389 33.05C159.962 33.05 159.632 32.93 159.399 32.69C159.165 32.4433 159.049 32.0967 159.049 31.65V31.34C159.049 30.9 159.165 30.56 159.399 30.32C159.632 30.0733 159.962 29.95 160.389 29.95C160.815 29.95 161.145 30.0733 161.379 30.32C161.612 30.56 161.729 30.9 161.729 31.34ZM161.079 31.34C161.079 30.82 160.849 30.56 160.389 30.56C160.175 30.56 160.009 30.6267 159.889 30.76C159.769 30.8933 159.709 31.0867 159.709 31.34V31.65C159.709 31.91 159.769 32.1067 159.889 32.24C160.009 32.3733 160.175 32.44 160.389 32.44C160.849 32.44 161.079 32.1767 161.079 31.65V31.34ZM167.534 28.72C167.348 28.72 167.138 28.77 166.904 28.87C166.671 28.9633 166.378 29.15 166.024 29.43V33H165.204V28.05H165.984V28.74C166.338 28.4467 166.651 28.2433 166.924 28.13C167.198 28.01 167.468 27.95 167.734 27.95C168.048 27.95 168.308 28.0233 168.514 28.17C168.721 28.31 168.874 28.5133 168.974 28.78C169.341 28.4667 169.668 28.25 169.954 28.13C170.248 28.01 170.534 27.95 170.814 27.95C171.254 27.95 171.591 28.0967 171.824 28.39C172.058 28.6767 172.174 29.0867 172.174 29.62V33H171.354V29.74C171.354 29.06 171.108 28.72 170.614 28.72C170.428 28.72 170.214 28.77 169.974 28.87C169.741 28.9633 169.448 29.15 169.094 29.43C169.101 29.4567 169.104 29.4867 169.104 29.52C169.104 29.5533 169.104 29.5867 169.104 29.62V33H168.284V29.74C168.284 29.06 168.034 28.72 167.534 28.72ZM177.516 33.05C177.209 33.05 176.962 32.98 176.776 32.84C176.596 32.7 176.469 32.5267 176.396 32.32C176.069 32.6067 175.772 32.81 175.506 32.93C175.239 33.0433 174.972 33.1 174.706 33.1C174.272 33.1 173.952 32.96 173.746 32.68C173.539 32.4 173.436 32.0567 173.436 31.65C173.436 31.3767 173.486 31.1333 173.586 30.92C173.686 30.7067 173.856 30.54 174.096 30.42C174.336 30.2933 174.659 30.23 175.066 30.23C175.246 30.23 175.442 30.2433 175.656 30.27C175.869 30.29 176.086 30.3167 176.306 30.35V29.68C176.306 29.3067 176.222 29.0533 176.056 28.92C175.896 28.78 175.659 28.71 175.346 28.71C174.919 28.71 174.442 28.8267 173.916 29.06L173.656 28.38C173.962 28.24 174.256 28.1333 174.536 28.06C174.816 27.9867 175.099 27.95 175.386 27.95C175.852 27.95 176.209 28.0267 176.456 28.18C176.702 28.3333 176.872 28.5367 176.966 28.79C177.059 29.0433 177.106 29.32 177.106 29.62V31.76C177.106 31.9133 177.136 32.0433 177.196 32.15C177.256 32.25 177.376 32.3 177.556 32.3H177.666V33.05H177.516ZM174.246 31.64C174.246 31.8667 174.299 32.05 174.406 32.19C174.512 32.33 174.666 32.4 174.866 32.4C175.039 32.4 175.239 32.35 175.466 32.25C175.692 32.1433 175.972 31.9333 176.306 31.62V30.99C175.852 30.9167 175.452 30.88 175.106 30.88C174.799 30.88 174.579 30.9433 174.446 31.07C174.312 31.1967 174.246 31.3867 174.246 31.64ZM181.547 32.82C181.174 33.0067 180.777 33.1 180.357 33.1C179.997 33.1 179.714 33.0267 179.507 32.88C179.307 32.7333 179.164 32.5367 179.077 32.29C178.997 32.0433 178.957 31.77 178.957 31.47V28.77H178.097V28.05H178.957V26.67H179.777V28.05H181.397V28.77H179.777V31.44C179.777 31.7867 179.834 32.0267 179.947 32.16C180.067 32.2867 180.251 32.35 180.497 32.35C180.617 32.35 180.741 32.3367 180.867 32.31C181.001 32.2767 181.144 32.2233 181.297 32.15L181.547 32.82ZM183.206 30.23V30.82C183.206 31.3267 183.299 31.71 183.486 31.97C183.673 32.2233 183.969 32.35 184.376 32.35C184.776 32.35 185.206 32.2467 185.666 32.04L185.916 32.73C185.369 32.9767 184.839 33.1 184.326 33.1C183.686 33.1 183.199 32.8967 182.866 32.49C182.533 32.0833 182.366 31.5267 182.366 30.82V30.23C182.366 29.5233 182.533 28.9667 182.866 28.56C183.199 28.1533 183.686 27.95 184.326 27.95C184.566 27.95 184.813 27.9833 185.066 28.05C185.326 28.11 185.586 28.1967 185.846 28.31L185.596 29.01C185.376 28.9167 185.163 28.8433 184.956 28.79C184.756 28.7367 184.563 28.71 184.376 28.71C183.969 28.71 183.673 28.84 183.486 29.1C183.299 29.3533 183.206 29.73 183.206 30.23ZM189.498 28.72C189.312 28.72 189.092 28.7667 188.838 28.86C188.592 28.9533 188.292 29.1433 187.938 29.43V33H187.118V25.6H187.938V28.71C188.285 28.4167 188.598 28.2167 188.878 28.11C189.158 28.0033 189.432 27.95 189.698 27.95C190.158 27.95 190.508 28.0967 190.748 28.39C190.995 28.6767 191.118 29.0867 191.118 29.62V33H190.298V29.74C190.298 29.06 190.032 28.72 189.498 28.72ZM193.701 26.84H192.781V25.92H193.701V26.84ZM193.651 33H192.831V28.05H193.651V33ZM197.799 28.72C197.612 28.72 197.392 28.7667 197.139 28.86C196.892 28.9533 196.592 29.1433 196.239 29.43V33H195.419V28.05H196.199V28.74C196.552 28.44 196.872 28.2333 197.159 28.12C197.452 28.0067 197.732 27.95 197.999 27.95C198.459 27.95 198.809 28.0967 199.049 28.39C199.296 28.6767 199.419 29.0867 199.419 29.62V33H198.599V29.74C198.599 29.06 198.332 28.72 197.799 28.72ZM205.092 33.62C205.092 34.1067 204.892 34.4967 204.492 34.79C204.099 35.0833 203.555 35.23 202.862 35.23C202.515 35.23 202.152 35.1833 201.772 35.09C201.399 34.9967 201.045 34.8467 200.712 34.64L200.992 34C201.325 34.1867 201.645 34.3167 201.952 34.39C202.265 34.47 202.569 34.51 202.862 34.51C203.315 34.51 203.665 34.4367 203.912 34.29C204.159 34.1433 204.282 33.9467 204.282 33.7C204.282 33.52 204.222 33.38 204.102 33.28C203.982 33.1867 203.789 33.14 203.522 33.14H202.372C201.939 33.14 201.625 33.0367 201.432 32.83C201.239 32.6233 201.142 32.3967 201.142 32.15C201.142 31.9767 201.182 31.8067 201.262 31.64C201.342 31.4667 201.455 31.2967 201.602 31.13C201.369 30.99 201.182 30.8 201.042 30.56C200.902 30.3133 200.832 30.0167 200.832 29.67C200.832 29.29 200.912 28.9733 201.072 28.72C201.239 28.4667 201.459 28.2767 201.732 28.15C202.005 28.0167 202.312 27.95 202.652 27.95H202.822C203.055 27.95 203.269 27.9833 203.462 28.05H205.242V28.78L204.162 28.63C204.302 28.75 204.415 28.9 204.502 29.08C204.589 29.2533 204.632 29.4667 204.632 29.72C204.632 30.08 204.549 30.3833 204.382 30.63C204.222 30.8767 204.005 31.0667 203.732 31.2C203.459 31.3267 203.155 31.39 202.822 31.39H202.652C202.565 31.39 202.482 31.3867 202.402 31.38C202.322 31.3667 202.242 31.3533 202.162 31.34C201.969 31.5533 201.872 31.7633 201.872 31.97C201.872 32.2367 202.059 32.37 202.432 32.37H203.552C204.032 32.37 204.409 32.4767 204.682 32.69C204.955 32.9033 205.092 33.2133 205.092 33.62ZM202.822 30.68C203.082 30.68 203.312 30.5967 203.512 30.43C203.712 30.2633 203.812 30.01 203.812 29.67C203.812 29.3367 203.712 29.0867 203.512 28.92C203.312 28.7467 203.082 28.66 202.822 28.66H202.652C202.385 28.66 202.152 28.7467 201.952 28.92C201.752 29.0867 201.652 29.3367 201.652 29.67C201.652 30.01 201.752 30.2633 201.952 30.43C202.152 30.5967 202.385 30.68 202.652 30.68H202.822ZM16.88 44.82C16.88 45.5133 16.7067 46.0667 16.36 46.48C16.0133 46.8933 15.5033 47.1 14.83 47.1C14.1633 47.1 13.5033 46.9233 12.85 46.57V39.6H13.67V42.72C13.97 42.44 14.2433 42.2433 14.49 42.13C14.7433 42.01 15 41.95 15.26 41.95C15.78 41.95 16.18 42.15 16.46 42.55C16.74 42.95 16.88 43.5133 16.88 44.24V44.82ZM15.06 42.72C14.8733 42.72 14.6733 42.77 14.46 42.87C14.2533 42.97 13.99 43.1767 13.67 43.49V46.11C14.0633 46.2767 14.4333 46.36 14.78 46.36C15.2267 46.36 15.5467 46.2233 15.74 45.95C15.9333 45.67 16.03 45.2933 16.03 44.82V44.24C16.03 43.72 15.95 43.3367 15.79 43.09C15.63 42.8433 15.3867 42.72 15.06 42.72ZM22.0176 47.05C21.7109 47.05 21.4642 46.98 21.2776 46.84C21.0976 46.7 20.9709 46.5267 20.8976 46.32C20.5709 46.6067 20.2742 46.81 20.0076 46.93C19.7409 47.0433 19.4742 47.1 19.2076 47.1C18.7742 47.1 18.4542 46.96 18.2476 46.68C18.0409 46.4 17.9376 46.0567 17.9376 45.65C17.9376 45.3767 17.9876 45.1333 18.0876 44.92C18.1876 44.7067 18.3576 44.54 18.5976 44.42C18.8376 44.2933 19.1609 44.23 19.5676 44.23C19.7476 44.23 19.9442 44.2433 20.1576 44.27C20.3709 44.29 20.5876 44.3167 20.8076 44.35V43.68C20.8076 43.3067 20.7242 43.0533 20.5576 42.92C20.3976 42.78 20.1609 42.71 19.8476 42.71C19.4209 42.71 18.9442 42.8267 18.4176 43.06L18.1576 42.38C18.4642 42.24 18.7576 42.1333 19.0376 42.06C19.3176 41.9867 19.6009 41.95 19.8876 41.95C20.3542 41.95 20.7109 42.0267 20.9576 42.18C21.2042 42.3333 21.3742 42.5367 21.4676 42.79C21.5609 43.0433 21.6076 43.32 21.6076 43.62V45.76C21.6076 45.9133 21.6376 46.0433 21.6976 46.15C21.7576 46.25 21.8776 46.3 22.0576 46.3H22.1676V47.05H22.0176ZM18.7476 45.64C18.7476 45.8667 18.8009 46.05 18.9076 46.19C19.0142 46.33 19.1676 46.4 19.3676 46.4C19.5409 46.4 19.7409 46.35 19.9676 46.25C20.1942 46.1433 20.4742 45.9333 20.8076 45.62V44.99C20.3542 44.9167 19.9542 44.88 19.6076 44.88C19.3009 44.88 19.0809 44.9433 18.9476 45.07C18.8142 45.1967 18.7476 45.3867 18.7476 45.64ZM24.5392 46.37C25.2059 46.37 25.5392 46.1433 25.5392 45.69C25.5392 45.4967 25.4792 45.3433 25.3592 45.23C25.2392 45.1167 25.0192 45.02 24.6992 44.94L24.1492 44.8C23.7426 44.7 23.4392 44.5267 23.2392 44.28C23.0392 44.0267 22.9392 43.7267 22.9392 43.38C22.9392 43.1267 22.9959 42.8933 23.1092 42.68C23.2226 42.46 23.4026 42.2833 23.6492 42.15C23.8959 42.0167 24.2159 41.95 24.6092 41.95C24.8626 41.95 25.1192 41.98 25.3792 42.04C25.6459 42.0933 25.9159 42.1867 26.1892 42.32L25.9292 43.01C25.4426 42.79 25.0026 42.68 24.6092 42.68C24.0292 42.68 23.7392 42.8967 23.7392 43.33C23.7392 43.4967 23.7926 43.64 23.8992 43.76C24.0059 43.88 24.2059 43.9767 24.4992 44.05L25.0492 44.19C25.4892 44.2967 25.8126 44.47 26.0192 44.71C26.2259 44.95 26.3292 45.26 26.3292 45.64C26.3292 45.9133 26.2692 46.1633 26.1492 46.39C26.0359 46.61 25.8492 46.7833 25.5892 46.91C25.3359 47.0367 24.9926 47.1 24.5592 47.1C24.2726 47.1 23.9859 47.07 23.6992 47.01C23.4192 46.95 23.1292 46.8533 22.8292 46.72L23.0492 46.04C23.3359 46.1533 23.5959 46.2367 23.8292 46.29C24.0626 46.3433 24.2992 46.37 24.5392 46.37ZM31.2259 46.71C30.9259 46.8567 30.6259 46.9567 30.3259 47.01C30.0259 47.07 29.7492 47.1 29.4959 47.1C28.7825 47.1 28.2492 46.8967 27.8959 46.49C27.5492 46.0833 27.3759 45.5267 27.3759 44.82V44.22C27.3759 43.5333 27.5492 42.9833 27.8959 42.57C28.2492 42.1567 28.7459 41.95 29.3859 41.95C29.7259 41.95 30.0359 42.02 30.3159 42.16C30.6025 42.2933 30.8292 42.5 30.9959 42.78C31.1692 43.0533 31.2559 43.4067 31.2559 43.84C31.2559 44.12 31.2159 44.44 31.1359 44.8H28.1859V44.82C28.1859 45.3267 28.2892 45.71 28.4959 45.97C28.7092 46.23 29.0492 46.36 29.5159 46.36C29.7292 46.36 29.9625 46.3333 30.2159 46.28C30.4759 46.2267 30.7292 46.1433 30.9759 46.03L31.2259 46.71ZM29.3859 42.67C28.9992 42.67 28.7059 42.7967 28.5059 43.05C28.3125 43.2967 28.2059 43.6467 28.1859 44.1H30.4259C30.4459 43.98 30.4559 43.8667 30.4559 43.76C30.4559 43.3867 30.3492 43.1133 30.1359 42.94C29.9292 42.76 29.6792 42.67 29.3859 42.67ZM35.6849 47V46.31C35.3783 46.6033 35.0983 46.81 34.8449 46.93C34.5983 47.0433 34.3416 47.1 34.0749 47.1C33.5483 47.1 33.1416 46.9 32.8549 46.5C32.5749 46.1 32.4349 45.54 32.4349 44.82V44.24C32.4349 43.54 32.6083 42.9833 32.9549 42.57C33.3083 42.1567 33.8183 41.95 34.4849 41.95C34.6783 41.95 34.8716 41.97 35.0649 42.01C35.2583 42.05 35.4516 42.1067 35.6449 42.18V39.6H36.4649V47H35.6849ZM33.2849 44.82C33.2849 45.34 33.3649 45.7233 33.5249 45.97C33.6916 46.21 33.9383 46.33 34.2649 46.33C34.4583 46.33 34.6583 46.2833 34.8649 46.19C35.0716 46.09 35.3316 45.8867 35.6449 45.58V42.94C35.4516 42.8533 35.2649 42.7933 35.0849 42.76C34.9049 42.72 34.7283 42.7 34.5549 42.7C34.1016 42.7 33.7749 42.8367 33.5749 43.11C33.3816 43.3833 33.2849 43.76 33.2849 44.24V44.82ZM44.3293 44.22V44.82C44.3293 45.5267 44.146 46.0833 43.7793 46.49C43.4193 46.8967 42.9026 47.1 42.2293 47.1C41.5626 47.1 41.046 46.8967 40.6793 46.49C40.3126 46.0833 40.1293 45.5267 40.1293 44.82V44.22C40.1293 43.5267 40.3093 42.9767 40.6693 42.57C41.036 42.1567 41.556 41.95 42.2293 41.95C42.9026 41.95 43.4193 42.1567 43.7793 42.57C44.146 42.9767 44.3293 43.5267 44.3293 44.22ZM43.4793 44.22C43.4793 43.7467 43.3726 43.3767 43.1593 43.11C42.946 42.8367 42.636 42.7 42.2293 42.7C41.8293 42.7 41.5193 42.8367 41.2993 43.11C41.086 43.3767 40.9793 43.7467 40.9793 44.22V44.82C40.9793 45.3133 41.086 45.6933 41.2993 45.96C41.5193 46.2267 41.8293 46.36 42.2293 46.36C42.636 46.36 42.946 46.2267 43.1593 45.96C43.3726 45.6933 43.4793 45.3133 43.4793 44.82V44.22ZM48.1995 42.72C48.0128 42.72 47.7928 42.7667 47.5395 42.86C47.2928 42.9533 46.9928 43.1433 46.6395 43.43V47H45.8195V42.05H46.5995V42.74C46.9528 42.44 47.2728 42.2333 47.5595 42.12C47.8528 42.0067 48.1328 41.95 48.3995 41.95C48.8595 41.95 49.2095 42.0967 49.4495 42.39C49.6961 42.6767 49.8195 43.0867 49.8195 43.62V47H48.9995V43.74C48.9995 43.06 48.7328 42.72 48.1995 42.72ZM57.4901 47L56.9801 45.42H54.4001L53.8901 47H53.0401L55.3001 40.2H56.1201L58.3901 47H57.4901ZM55.0301 43.46L54.6501 44.63H56.7201L56.3401 43.46L55.6901 41.36L55.0301 43.46ZM60.5316 47H59.6616V40.2H60.5316V47ZM68.2773 47.05C67.9707 47.05 67.724 46.98 67.5373 46.84C67.3573 46.7 67.2307 46.5267 67.1573 46.32C66.8307 46.6067 66.534 46.81 66.2673 46.93C66.0007 47.0433 65.734 47.1 65.4673 47.1C65.034 47.1 64.714 46.96 64.5073 46.68C64.3007 46.4 64.1973 46.0567 64.1973 45.65C64.1973 45.3767 64.2473 45.1333 64.3473 44.92C64.4473 44.7067 64.6173 44.54 64.8573 44.42C65.0973 44.2933 65.4207 44.23 65.8273 44.23C66.0073 44.23 66.204 44.2433 66.4173 44.27C66.6307 44.29 66.8473 44.3167 67.0673 44.35V43.68C67.0673 43.3067 66.984 43.0533 66.8173 42.92C66.6573 42.78 66.4207 42.71 66.1073 42.71C65.6807 42.71 65.204 42.8267 64.6773 43.06L64.4173 42.38C64.724 42.24 65.0173 42.1333 65.2973 42.06C65.5773 41.9867 65.8607 41.95 66.1473 41.95C66.614 41.95 66.9707 42.0267 67.2173 42.18C67.464 42.3333 67.634 42.5367 67.7273 42.79C67.8207 43.0433 67.8673 43.32 67.8673 43.62V45.76C67.8673 45.9133 67.8973 46.0433 67.9573 46.15C68.0173 46.25 68.1373 46.3 68.3173 46.3H68.4273V47.05H68.2773ZM65.0073 45.64C65.0073 45.8667 65.0607 46.05 65.1673 46.19C65.274 46.33 65.4273 46.4 65.6273 46.4C65.8007 46.4 66.0007 46.35 66.2273 46.25C66.454 46.1433 66.734 45.9333 67.0673 45.62V44.99C66.614 44.9167 66.214 44.88 65.8673 44.88C65.5607 44.88 65.3407 44.9433 65.2073 45.07C65.074 45.1967 65.0073 45.3867 65.0073 45.64ZM71.969 42.72C71.7823 42.72 71.5623 42.7667 71.309 42.86C71.0623 42.9533 70.7623 43.1433 70.409 43.43V47H69.589V42.05H70.369V42.74C70.7223 42.44 71.0423 42.2333 71.329 42.12C71.6223 42.0067 71.9023 41.95 72.169 41.95C72.629 41.95 72.979 42.0967 73.219 42.39C73.4657 42.6767 73.589 43.0867 73.589 43.62V47H72.769V43.74C72.769 43.06 72.5023 42.72 71.969 42.72ZM78.9219 47.05C78.6152 47.05 78.3685 46.98 78.1819 46.84C78.0019 46.7 77.8752 46.5267 77.8019 46.32C77.4752 46.6067 77.1785 46.81 76.9119 46.93C76.6452 47.0433 76.3785 47.1 76.1119 47.1C75.6785 47.1 75.3585 46.96 75.1519 46.68C74.9452 46.4 74.8419 46.0567 74.8419 45.65C74.8419 45.3767 74.8919 45.1333 74.9919 44.92C75.0919 44.7067 75.2619 44.54 75.5019 44.42C75.7419 44.2933 76.0652 44.23 76.4719 44.23C76.6519 44.23 76.8485 44.2433 77.0619 44.27C77.2752 44.29 77.4919 44.3167 77.7119 44.35V43.68C77.7119 43.3067 77.6285 43.0533 77.4619 42.92C77.3019 42.78 77.0652 42.71 76.7519 42.71C76.3252 42.71 75.8485 42.8267 75.3219 43.06L75.0619 42.38C75.3685 42.24 75.6619 42.1333 75.9419 42.06C76.2219 41.9867 76.5052 41.95 76.7919 41.95C77.2585 41.95 77.6152 42.0267 77.8619 42.18C78.1085 42.3333 78.2785 42.5367 78.3719 42.79C78.4652 43.0433 78.5119 43.32 78.5119 43.62V45.76C78.5119 45.9133 78.5419 46.0433 78.6019 46.15C78.6619 46.25 78.7819 46.3 78.9619 46.3H79.0719V47.05H78.9219ZM75.6519 45.64C75.6519 45.8667 75.7052 46.05 75.8119 46.19C75.9185 46.33 76.0719 46.4 76.2719 46.4C76.4452 46.4 76.6452 46.35 76.8719 46.25C77.0985 46.1433 77.3785 45.9333 77.7119 45.62V44.99C77.2585 44.9167 76.8585 44.88 76.5119 44.88C76.2052 44.88 75.9852 44.9433 75.8519 45.07C75.7185 45.1967 75.6519 45.3867 75.6519 45.64ZM80.2235 45.8V39.6H81.0435V45.76C81.0435 45.94 81.0702 46.0767 81.1235 46.17C81.1835 46.2567 81.3002 46.3 81.4735 46.3H81.6335V47.05H81.4035C80.9635 47.05 80.6568 46.9333 80.4835 46.7C80.3102 46.4667 80.2235 46.1667 80.2235 45.8ZM84.5602 47.5C84.3469 48.1 84.0836 48.5367 83.7702 48.81C83.4636 49.09 83.0336 49.23 82.4802 49.23V48.42C82.7069 48.4133 82.9002 48.3833 83.0602 48.33C83.2269 48.2767 83.3736 48.1667 83.5002 48C83.6336 47.84 83.7602 47.6 83.8802 47.28L83.9802 47.03L82.2002 42.05H83.0402L83.8702 44.46L84.3802 46L84.8702 44.46L85.6802 42.05H86.4902L84.5602 47.5ZM90.307 46.82C89.9337 47.0067 89.537 47.1 89.117 47.1C88.757 47.1 88.4737 47.0267 88.267 46.88C88.067 46.7333 87.9237 46.5367 87.837 46.29C87.757 46.0433 87.717 45.77 87.717 45.47V42.77H86.857V42.05H87.717V40.67H88.537V42.05H90.157V42.77H88.537V45.44C88.537 45.7867 88.5937 46.0267 88.707 46.16C88.827 46.2867 89.0104 46.35 89.257 46.35C89.377 46.35 89.5004 46.3367 89.627 46.31C89.7604 46.2767 89.9037 46.2233 90.057 46.15L90.307 46.82ZM92.2559 40.84H91.3359V39.92H92.2559V40.84ZM92.2059 47H91.3859V42.05H92.2059V47ZM94.5538 44.23V44.82C94.5538 45.3267 94.6471 45.71 94.8338 45.97C95.0204 46.2233 95.3171 46.35 95.7238 46.35C96.1238 46.35 96.5538 46.2467 97.0138 46.04L97.2638 46.73C96.7171 46.9767 96.1871 47.1 95.6738 47.1C95.0338 47.1 94.5471 46.8967 94.2138 46.49C93.8804 46.0833 93.7138 45.5267 93.7138 44.82V44.23C93.7138 43.5233 93.8804 42.9667 94.2138 42.56C94.5471 42.1533 95.0338 41.95 95.6738 41.95C95.9138 41.95 96.1604 41.9833 96.4138 42.05C96.6738 42.11 96.9338 42.1967 97.1938 42.31L96.9438 43.01C96.7238 42.9167 96.5104 42.8433 96.3038 42.79C96.1038 42.7367 95.9104 42.71 95.7238 42.71C95.3171 42.71 95.0204 42.84 94.8338 43.1C94.6471 43.3533 94.5538 43.73 94.5538 44.23ZM99.6759 46.37C100.343 46.37 100.676 46.1433 100.676 45.69C100.676 45.4967 100.616 45.3433 100.496 45.23C100.376 45.1167 100.156 45.02 99.8359 44.94L99.2859 44.8C98.8793 44.7 98.5759 44.5267 98.3759 44.28C98.1759 44.0267 98.0759 43.7267 98.0759 43.38C98.0759 43.1267 98.1326 42.8933 98.2459 42.68C98.3593 42.46 98.5393 42.2833 98.7859 42.15C99.0326 42.0167 99.3526 41.95 99.7459 41.95C99.9993 41.95 100.256 41.98 100.516 42.04C100.783 42.0933 101.053 42.1867 101.326 42.32L101.066 43.01C100.579 42.79 100.139 42.68 99.7459 42.68C99.1659 42.68 98.8759 42.8967 98.8759 43.33C98.8759 43.4967 98.9293 43.64 99.0359 43.76C99.1426 43.88 99.3426 43.9767 99.6359 44.05L100.186 44.19C100.626 44.2967 100.949 44.47 101.156 44.71C101.363 44.95 101.466 45.26 101.466 45.64C101.466 45.9133 101.406 46.1633 101.286 46.39C101.173 46.61 100.986 46.7833 100.726 46.91C100.473 47.0367 100.129 47.1 99.6959 47.1C99.4093 47.1 99.1226 47.07 98.8359 47.01C98.5559 46.95 98.2659 46.8533 97.9659 46.72L98.1859 46.04C98.4726 46.1533 98.7326 46.2367 98.9659 46.29C99.1993 46.3433 99.4359 46.37 99.6759 46.37ZM103.687 40.86C103.46 40.86 103.217 40.89 102.957 40.95C102.697 41.01 102.41 41.11 102.097 41.25L101.817 40.53C102.15 40.3767 102.477 40.2667 102.797 40.2C103.123 40.1333 103.43 40.1 103.717 40.1C104.41 40.1 104.917 40.2633 105.237 40.59C105.557 40.91 105.717 41.31 105.717 41.79V41.97C105.717 42.3367 105.657 42.65 105.537 42.91C105.417 43.17 105.233 43.41 104.987 43.63L104.647 43.94C104.427 44.14 104.287 44.3133 104.227 44.46C104.167 44.6 104.137 44.7733 104.137 44.98V45.18H103.297V44.95C103.297 44.7233 103.32 44.53 103.367 44.37C103.413 44.2033 103.493 44.0467 103.607 43.9C103.72 43.7467 103.873 43.58 104.067 43.4L104.407 43.09C104.567 42.9433 104.683 42.79 104.757 42.63C104.83 42.4633 104.867 42.2567 104.867 42.01V41.83C104.867 41.5367 104.767 41.3033 104.567 41.13C104.373 40.95 104.08 40.86 103.687 40.86ZM104.187 47H103.267V46.09H104.187V47Z" fill="#111827"/>
</svg>
