<svg width="83" height="73" viewBox="0 0 83 73" fill="none" xmlns="http://www.w3.org/2000/svg">
<g filter="url(#filter0_d_7362_22513)">
<rect x="15.9534" width="51.6427" height="59" rx="8" transform="rotate(14.6815 15.9534 0)" fill="#FFBAFC" shape-rendering="crispEdges"/>
<rect x="16.3103" y="0.610398" width="50.6427" height="58" rx="7.5" transform="rotate(14.6815 16.3103 0.610398)" stroke="#131318" shape-rendering="crispEdges"/>
<path d="M23.6031 21.6455L21.1654 21.0069L22.7444 14.9803L20.564 14.409L21.0075 12.7161L27.806 14.4974L27.3625 16.1902L25.1821 15.619L23.6031 21.6455ZM29.7422 23.254L29.749 22.344C29.1563 22.9123 28.4898 23.0995 27.7494 22.9055C27.1445 22.7471 26.6917 22.4499 26.391 22.0142C26.1017 21.5717 26.0374 21.0435 26.1983 20.4296C26.2976 20.0504 26.4923 19.7492 26.7823 19.5261C27.0838 19.2963 27.4439 19.1736 27.8629 19.158C28.4064 19.146 29.2086 19.2693 30.2697 19.528C30.4258 18.9321 30.4815 18.609 30.4368 18.5587C30.4012 18.5108 30.2614 18.4549 30.0177 18.391C29.8642 18.3508 29.6496 18.3042 29.374 18.2513C28.9359 18.1559 28.3361 18.0518 27.5744 17.939C27.6299 17.4326 27.713 16.8947 27.8235 16.3255C28.3281 16.3515 28.8504 16.4016 29.3907 16.4756C29.9332 16.5405 30.4122 16.6274 30.8275 16.7362C31.5498 16.9255 32.0596 17.1893 32.3568 17.5277C32.6565 17.8571 32.8096 18.23 32.8162 18.6467C32.8229 19.0633 32.7436 19.5683 32.5785 20.1619L32.0433 22.1491L31.6653 23.7578L29.7422 23.254ZM28.9323 21.5945C29.167 21.656 29.4272 21.676 29.7126 21.6543L29.9752 20.6521L29.8669 20.6237C29.1988 20.4487 28.8191 20.3878 28.728 20.4411C28.671 20.4744 28.6171 20.5327 28.5664 20.6158C28.5247 20.7014 28.4932 20.7848 28.4719 20.8661C28.4151 21.0828 28.4258 21.2447 28.5038 21.352C28.5818 21.4593 28.7246 21.5401 28.9323 21.5945ZM34.6553 21.1402L33.8962 17.685L36.1443 18.274L36.6368 20.9791L38.406 18.8665L40.6406 19.452L38.2983 22.0946L39.1573 25.7208L36.8957 25.1282L36.3103 22.2251L34.3767 24.4682L32.115 23.8757L34.6553 21.1402Z" fill="#131318"/>
<rect x="16.0887" y="31.0481" width="22" height="3" rx="1.5" transform="rotate(14.6815 16.0887 31.0481)" fill="#131318"/>
<rect x="13.8077" y="39.7542" width="35.6427" height="3" rx="1.5" transform="rotate(14.6815 13.8077 39.7542)" fill="#131318"/>
<rect x="11.5267" y="48.4604" width="28" height="3" rx="1.5" transform="rotate(14.6815 11.5267 48.4604)" fill="#131318"/>
<rect x="52.9089" y="2.96309" width="29" height="29" rx="14.5" transform="rotate(14.6815 52.9089 2.96309)" fill="white"/>
<rect x="52.9089" y="2.96309" width="29" height="29" rx="14.5" transform="rotate(14.6815 52.9089 2.96309)" stroke="black"/>
<g clip-path="url(#clip0_7362_22513)">
<path d="M67.7605 15.7043C68.6012 16.5123 69.2144 17.5275 69.5385 18.6477C69.8625 19.7679 69.886 20.9536 69.6066 22.0857C69.3271 23.2179 68.7546 24.2565 67.9465 25.0972C67.1384 25.9379 66.1232 26.5511 65.003 26.8752C63.8829 27.1992 62.6971 27.2227 61.565 26.9432C60.4329 26.6637 59.3942 26.0912 58.5535 25.2831C57.7128 24.475 57.0996 23.4598 56.7756 22.3396C56.4516 21.2194 56.4281 20.0337 56.7076 18.9016L56.7624 18.6934C57.0735 17.5885 57.6655 16.583 58.4808 15.775C59.2962 14.967 60.3069 14.3841 61.4146 14.0831C62.5223 13.782 63.6891 13.7731 64.8013 14.0572C65.9134 14.3414 66.933 14.9088 67.7605 15.7043ZM64.1123 16.6239C63.9412 16.5816 63.7604 16.6091 63.6096 16.7002C63.4588 16.7913 63.3504 16.9386 63.3081 17.1096C62.795 16.9829 62.2525 17.0653 61.8001 17.3386C61.3477 17.6119 61.0224 18.0537 60.8957 18.5669C60.769 19.08 60.8514 19.6225 61.1247 20.0749C61.398 20.5273 61.8398 20.8526 62.353 20.9793L62.0346 22.2692C61.9261 22.2487 61.8244 22.2021 61.7381 22.1333C61.6518 22.0646 61.5836 21.9758 61.5394 21.8747L61.5116 21.7987C61.4585 21.6346 61.3437 21.4976 61.1914 21.4167C61.0391 21.3357 60.8613 21.3172 60.6955 21.365C60.5298 21.4128 60.3892 21.5231 60.3034 21.6727C60.2175 21.8223 60.1933 21.9994 60.2357 22.1666C60.3298 22.4927 60.5057 22.7894 60.7467 23.0285C60.9876 23.2676 61.2856 23.4412 61.6125 23.5328L61.7163 23.5585C61.6772 23.7165 61.6974 23.8834 61.7732 24.0275C61.8491 24.1716 61.9751 24.2829 62.1276 24.3401L62.2019 24.3633C62.373 24.4055 62.5538 24.378 62.7046 24.2869C62.8554 24.1958 62.9638 24.0486 63.0061 23.8775L63.1204 23.9023C63.6304 23.9973 64.1573 23.8898 64.5892 23.6025C65.0212 23.3152 65.3241 22.8708 65.4336 22.3637C65.543 21.8566 65.4505 21.3269 65.1756 20.8869C64.9006 20.447 64.465 20.1316 63.9613 20.0078L64.2796 18.7179C64.5125 18.7672 64.6901 18.915 64.7748 19.1125L64.8026 19.1884C64.8557 19.3525 64.9706 19.4895 65.1229 19.5704C65.2752 19.6514 65.453 19.6699 65.6187 19.6221C65.7844 19.5744 65.925 19.464 66.0108 19.3144C66.0967 19.1648 66.1209 18.9877 66.0785 18.8205C65.9845 18.4943 65.8087 18.1975 65.5677 17.9582C65.3268 17.719 65.0288 17.5453 64.7019 17.4536L64.598 17.428C64.6403 17.2569 64.6128 17.0761 64.5217 16.9253C64.4306 16.7745 64.2833 16.6661 64.1123 16.6239ZM63.6429 21.2977C63.8139 21.3399 63.9612 21.4484 64.0523 21.5992C64.1434 21.75 64.1708 21.9308 64.1286 22.1018C64.0864 22.2729 63.9779 22.4202 63.8271 22.5113C63.6763 22.6024 63.4955 22.6298 63.3245 22.5876L63.6429 21.2977ZM62.9897 18.3995L62.6714 19.6894C62.5003 19.6472 62.353 19.5387 62.2619 19.3879C62.1708 19.2371 62.1434 19.0563 62.1856 18.8853C62.2278 18.7142 62.3363 18.5669 62.4871 18.4758C62.6379 18.3847 62.8187 18.3573 62.9897 18.3995Z" fill="black"/>
</g>
</g>
<defs>
<filter id="filter0_d_7362_22513" x="-1" y="0" width="83.3516" height="74.1624" filterUnits="userSpaceOnUse" color-interpolation-filters="sRGB">
<feFlood flood-opacity="0" result="BackgroundImageFix"/>
<feColorMatrix in="SourceAlpha" type="matrix" values="0 0 0 0 0 0 0 0 0 0 0 0 0 0 0 0 0 0 127 0" result="hardAlpha"/>
<feMorphology radius="2" operator="dilate" in="SourceAlpha" result="effect1_dropShadow_7362_22513"/>
<feOffset dy="2"/>
<feComposite in2="hardAlpha" operator="out"/>
<feColorMatrix type="matrix" values="0 0 0 0 0.0745098 0 0 0 0 0.0745098 0 0 0 0 0.0941176 0 0 0 1 0"/>
<feBlend mode="normal" in2="BackgroundImageFix" result="effect1_dropShadow_7362_22513"/>
<feBlend mode="normal" in="SourceGraphic" in2="effect1_dropShadow_7362_22513" result="shape"/>
</filter>
<clipPath id="clip0_7362_22513">
<rect width="15.9434" height="15.9434" fill="white" transform="translate(57.3281 10.8438) rotate(13.8655)"/>
</clipPath>
</defs>
</svg>
