<svg width="72" height="64" viewBox="0 0 72 64" fill="none" xmlns="http://www.w3.org/2000/svg">
<g filter="url(#filter0_d_7362_16839)">
<rect x="9.71301" width="63" height="50" rx="12" transform="rotate(11.2016 9.71301 0)" fill="#D6FFA3" shape-rendering="crispEdges"/>
<rect x="10.1064" y="0.587605" width="62" height="49" rx="11.5" transform="rotate(11.2016 10.1064 0.587605)" stroke="#131318" shape-rendering="crispEdges"/>
<rect x="52.3018" y="16.5894" width="10" height="10" rx="2" transform="rotate(11.2016 52.3018 16.5894)" fill="#131318"/>
<path d="M17.1418 31.0548L19.7511 31.5715L16.0859 38.9807L12.5016 38.2708L11.9231 30.0213L14.5462 30.5408L14.5967 36.916L14.6653 36.9296L17.1418 31.0548ZM20.4558 31.7111L22.9278 32.2006L21.3776 40.0286L18.9056 39.539L20.4558 31.7111ZM26.1514 35.0369C26.1133 35.2291 26.1795 35.3992 26.35 35.5472C26.5297 35.6969 26.8174 35.8776 27.2132 36.0892C27.6841 36.3537 28.0644 36.5955 28.354 36.8146C28.6528 37.0355 28.8885 37.3343 29.0613 37.7111C29.2432 38.0896 29.2816 38.5444 29.1765 39.0754C28.8392 40.7784 27.5628 41.4105 25.3471 40.9717C24.9809 40.8992 24.5386 40.7783 24.0203 40.609C23.5111 40.4416 23.0514 40.2649 22.641 40.079C22.6974 39.8903 22.7893 39.6183 22.9168 39.263C23.0552 38.9003 23.17 38.6329 23.2612 38.4606C23.5726 38.5699 24.0424 38.72 24.6706 38.911C25.3079 39.1038 25.7914 39.2329 26.121 39.2981C26.3133 39.3362 26.4304 39.3451 26.4725 39.3249C26.5347 39.2992 26.5877 39.2478 26.6314 39.1709C26.6862 39.0866 26.7199 39.0124 26.7326 38.9483C26.7689 38.7652 26.7091 38.6106 26.5533 38.4846C26.3993 38.3494 26.1253 38.1715 25.7313 37.9508C25.2586 37.6954 24.8737 37.4527 24.5768 37.2226C24.2798 36.9925 24.0422 36.6791 23.8639 36.2822C23.6856 35.8853 23.6526 35.4031 23.765 34.8354C23.8448 34.4326 24.0143 34.057 24.2736 33.7088C24.5347 33.3513 24.7749 33.123 24.9944 33.0237C25.1608 32.952 25.482 32.9157 25.9579 32.9148C26.4338 32.9139 26.8732 32.9534 27.276 33.0332C28.3015 33.2362 29.1201 33.4983 29.7321 33.8193C29.6867 34.0006 29.6048 34.246 29.4864 34.5556C29.3772 34.8669 29.2688 35.1499 29.1613 35.4046L28.8481 35.3283C27.6742 35.0102 26.9225 34.8185 26.5929 34.7532C26.4555 34.726 26.3768 34.7152 26.3567 34.7207C26.3164 34.7318 26.2762 34.7666 26.2361 34.8253C26.1959 34.8839 26.1677 34.9545 26.1514 35.0369ZM34.7075 40.8844L32.4278 40.4329L31.6758 42.068L29.1489 41.5676L33.226 34.24L36.4533 34.8791L37.3202 43.1858L34.7795 42.6826L34.7075 40.8844ZM34.4296 36.2338L33.0455 38.9711L34.6798 39.2947L34.4846 36.2447L34.4296 36.2338Z" fill="#131318"/>
<rect x="13.8407" y="4.89526" width="20" height="20" rx="10" transform="rotate(11.2016 13.8407 4.89526)" fill="white"/>
<g clip-path="url(#clip0_7362_16839)">
<path d="M26.001 16.2232C26.6708 16.3559 27.7261 17.1423 27.5933 17.8128C27.4567 18.5026 26.1852 18.8082 25.5154 18.6756L23.2318 18.2234L20.5961 21.2037C20.4465 21.3732 20.2158 21.4489 19.9905 21.4043L18.8899 21.1864C18.6823 21.1452 18.5702 20.92 18.6657 20.7358L20.2764 17.6381L18.2631 17.2394L17.1985 18.1754C17.1245 18.2404 17.0214 18.2678 16.9235 18.2484L16.1009 18.0855C15.9482 18.0552 15.8506 17.9105 15.8799 17.763C15.8848 17.7381 15.8936 17.7139 15.9044 17.6902L16.9391 15.7029L16.7399 13.4713C16.737 13.4449 16.74 13.4196 16.7449 13.3947C16.7745 13.2452 16.9214 13.1509 17.0722 13.1807L17.8948 13.3436C17.9927 13.363 18.0776 13.4276 18.1212 13.5159L18.7487 14.787L20.764 15.1861L20.4554 11.7084C20.4354 11.5013 20.6249 11.3357 20.8325 11.3769L21.9332 11.5948C22.1584 11.6394 22.3425 11.7993 22.4165 12.0111L23.7174 15.771L26.001 16.2232Z" fill="black"/>
</g>
</g>
<defs>
<filter id="filter0_d_7362_16839" x="-2" y="0" width="75.5129" height="65.2859" filterUnits="userSpaceOnUse" color-interpolation-filters="sRGB">
<feFlood flood-opacity="0" result="BackgroundImageFix"/>
<feColorMatrix in="SourceAlpha" type="matrix" values="0 0 0 0 0 0 0 0 0 0 0 0 0 0 0 0 0 0 127 0" result="hardAlpha"/>
<feMorphology radius="2" operator="dilate" in="SourceAlpha" result="effect1_dropShadow_7362_16839"/>
<feOffset dy="2"/>
<feComposite in2="hardAlpha" operator="out"/>
<feColorMatrix type="matrix" values="0 0 0 0 0.0745098 0 0 0 0 0.0745098 0 0 0 0 0.0941176 0 0 0 1 0"/>
<feBlend mode="normal" in2="BackgroundImageFix" result="effect1_dropShadow_7362_16839"/>
<feBlend mode="normal" in="SourceGraphic" in2="effect1_dropShadow_7362_16839" result="shape"/>
</filter>
<clipPath id="clip0_7362_16839">
<rect width="11.5" height="10" fill="white" transform="translate(17.2837 10.6741) rotate(11.2016)"/>
</clipPath>
</defs>
</svg>
